<svg xmlns="http://www.w3.org/2000/svg" width="73.249" height="60.086" viewBox="0 0 73.249 60.086">
  <g id="email" transform="translate(0 -46.004)">
    <g id="グループ_1406" data-name="グループ 1406" transform="translate(53.18 63.212)">
      <g id="グループ_1405" data-name="グループ 1405" transform="translate(0 0)">
        <path id="パス_26273" data-name="パス 26273" d="M374.163,166.711a1.431,1.431,0,1,0-2.031,2.015l.009.009a1.416,1.416,0,0,0,1.009.421,1.433,1.433,0,0,0,1.013-2.445Z" transform="translate(-371.717 -166.288)" fill="#d82c90"/>
      </g>
    </g>
    <g id="グループ_1408" data-name="グループ 1408" transform="translate(13.164 46.004)">
      <g id="グループ_1407" data-name="グループ 1407" transform="translate(0 0)">
        <path id="パス_26274" data-name="パス 26274" d="M151.678,80.84,138.39,67.552a1.431,1.431,0,0,0-2.023,2.023l10.548,10.548H121.761a3.788,3.788,0,0,1-3.784-3.784V51.185L128.16,61.369a1.431,1.431,0,0,0,2.023-2.023L117.261,46.423a1.431,1.431,0,0,0-2.023,0L92.43,69.231a1.431,1.431,0,0,0,0,2.023l34.417,34.417a1.431,1.431,0,0,0,2.023,0l22.807-22.808a1.431,1.431,0,0,0,0-2.023ZM115.116,50.592v18.22H96.9Zm11.312,50.613L96.9,71.673h18.22V76.34a6.653,6.653,0,0,0,6.645,6.645h4.667Zm2.861,0V82.985h18.22Z" transform="translate(-92.011 -46.004)" fill="#d82c90"/>
      </g>
    </g>
    <g id="グループ_1410" data-name="グループ 1410" transform="translate(0 75.761)">
      <g id="グループ_1409" data-name="グループ 1409">
        <path id="パス_26275" data-name="パス 26275" d="M9.819,254H1.431a1.431,1.431,0,0,0,0,2.861H9.819a1.431,1.431,0,0,0,0-2.861Z" transform="translate(0 -253.999)" fill="#d82c90"/>
      </g>
    </g>
    <g id="グループ_1412" data-name="グループ 1412" transform="translate(12.632 75.761)">
      <g id="グループ_1411" data-name="グループ 1411">
        <path id="パス_26276" data-name="パス 26276" d="M89.748,254h-.021a1.431,1.431,0,0,0,0,2.861h.021a1.431,1.431,0,0,0,0-2.861Z" transform="translate(-88.296 -253.999)" fill="#d82c90"/>
      </g>
    </g>
    <g id="グループ_1414" data-name="グループ 1414" transform="translate(0.002 60.739)">
      <g id="グループ_1413" data-name="グループ 1413">
        <path id="パス_26277" data-name="パス 26277" d="M6.022,149H1.444a1.431,1.431,0,1,0,0,2.861H6.022a1.431,1.431,0,1,0,0-2.861Z" transform="translate(-0.013 -149.002)" fill="#d82c90"/>
      </g>
    </g>
    <g id="グループ_1416" data-name="グループ 1416" transform="translate(9.254 60.739)">
      <g id="グループ_1415" data-name="グループ 1415">
        <path id="パス_26278" data-name="パス 26278" d="M71.524,149H66.113a1.431,1.431,0,1,0,0,2.861h5.412a1.431,1.431,0,1,0,0-2.861Z" transform="translate(-64.682 -149.002)" fill="#d82c90"/>
      </g>
    </g>
    <g id="グループ_1418" data-name="グループ 1418" transform="translate(9.769 83.629)">
      <g id="グループ_1417" data-name="グループ 1417" transform="translate(0 0)">
        <path id="パス_26279" data-name="パス 26279" d="M77.725,309H69.714a1.431,1.431,0,1,0,0,2.861h8.011a1.431,1.431,0,1,0,0-2.861Z" transform="translate(-68.283 -308.998)" fill="#d82c90"/>
      </g>
    </g>
    <g id="グループ_1420" data-name="グループ 1420" transform="translate(3.864 92.785)">
      <g id="グループ_1419" data-name="グループ 1419">
        <path id="パス_26280" data-name="パス 26280" d="M48.612,373H28.44a1.431,1.431,0,0,0,0,2.861H48.612a1.431,1.431,0,0,0,0-2.861Z" transform="translate(-27.009 -372.996)" fill="#d82c90"/>
      </g>
    </g>
  </g>
</svg>
