<svg xmlns="http://www.w3.org/2000/svg" width="79.436" height="78.767" viewBox="0 0 79.436 78.767">
  <g id="グループ_1162" data-name="グループ 1162" transform="translate(-61.5 -1837.689)">
    <path id="パス_25669" data-name="パス 25669" d="M80.224,38.154c-25.145-6.353-50.29,6.353-75.436,0V6.391c25.145,6.353,50.29-6.353,75.436,0q-3.206,7.131-6.412,14.651,3.206,8.373,6.412,17.111" transform="translate(59.72 1836.019)" fill="#fff" stroke="#e4567e" stroke-width="1"/>
    <path id="パス_25670" data-name="パス 25670" d="M80.224,38.154c-25.145-6.353-50.29,6.353-75.436,0V6.391c25.145,6.353,50.29-6.353,75.436,0q-3.206,7.131-6.412,14.651Q77.018,29.416,80.224,38.154Z" transform="translate(59.72 1836.019)" fill="none" stroke="#e4567e" stroke-linecap="round" stroke-linejoin="round" stroke-width="1.984"/>
    <line id="線_227" data-name="線 227" y2="75.436" transform="translate(64.508 1840.028)" fill="none" stroke="#e4567e" stroke-linecap="round" stroke-miterlimit="10" stroke-width="1.984"/>
    <path id="パス_25671" data-name="パス 25671" d="M5.015,2.507A2.507,2.507,0,1,1,2.507,0,2.508,2.508,0,0,1,5.015,2.507" transform="translate(62 1838.19)" fill="#ffd400" stroke="#e4567e" stroke-width="1"/>
    <path id="パス_26252" data-name="パス 26252" d="M-7.505-8.246a.762.762,0,0,0,.8-.779.752.752,0,0,0-.8-.779h-3.857v-1.71h2.831a.758.758,0,0,0,.817-.779.754.754,0,0,0-.817-.76h-2.812v-1.653a.833.833,0,0,0-.912-.817.833.833,0,0,0-.912.817v1.653h-2.47a.777.777,0,0,0-.855.76.78.78,0,0,0,.855.779h2.489V-9.8h-3.344a.774.774,0,0,0-.836.779.784.784,0,0,0,.836.779Zm.114,3.23a.762.762,0,0,0,.8-.779.752.752,0,0,0-.8-.779h-2l-.019-.7a.8.8,0,0,0-.874-.779.811.811,0,0,0-.893.779l.019.7h-5.339a.774.774,0,0,0-.836.779.784.784,0,0,0,.836.779h5.339l.019,3.477c0,.8-.38,1.026-.95,1.026A5.431,5.431,0,0,1-13.11-.646a.713.713,0,0,0-.19-.019.844.844,0,0,0-.836.893c0,.608.342,1.026,2.033,1.026,2.185,0,2.812-1.33,2.812-2.375V-1.2l-.076-2.66-.019-1.159Zm-5.89,3.591a.964.964,0,0,0,.874-.988c0-.988-2.128-2.09-2.622-2.09a.846.846,0,0,0-.874.8.653.653,0,0,0,.4.589,5.112,5.112,0,0,1,1.577,1.33A.818.818,0,0,0-13.281-1.425ZM-20.444.551a.833.833,0,0,0,.912.817A.833.833,0,0,0-18.62.551l.019-6.175c1.919-.969,2.128-1.083,2.128-1.634a.742.742,0,0,0-.684-.779c-.152,0-.228.038-1.444.646l.019-2.508h1.349a.8.8,0,0,0,.817-.836.807.807,0,0,0-.836-.836h-1.33l.019-3.154a.852.852,0,0,0-.912-.855.852.852,0,0,0-.912.855v3.154h-.779c.057-.475.133-.931.171-1.349v-.1a.779.779,0,0,0-.836-.76.794.794,0,0,0-.855.76,12.567,12.567,0,0,1-.95,4.712,1.02,1.02,0,0,0-.095.361.738.738,0,0,0,.817.665c.95,0,1.14-.893,1.482-2.584l1.026-.038v3.287c-.8.3-1.653.627-2.584.95a.846.846,0,0,0-.608.8.884.884,0,0,0,.912.893,7.461,7.461,0,0,0,2.261-.817ZM2.242-10.374c-.076,0-.152-.019-.209-.019-.475-.038-.532-.076-.532-1.976,0-.38.019-.722.019-.988v-.019a.688.688,0,0,0-.7-.741.764.764,0,0,0-.779.76c0,.247-.019.646-.019,1.064,0,.608.019,1.292.038,1.729C.114-9.177.969-8.949,2.983-8.949,4.75-8.949,5.89-9.1,5.947-10.6c.019-.475.019-1.311.019-2v-.741a.723.723,0,0,0-.741-.722.667.667,0,0,0-.7.7v.019c.019.342.019.931.019,1.463,0,1.292-.057,1.444-.551,1.482-.076,0-.171.019-.247.019l.019-4.2a.772.772,0,0,0-.8-.817.748.748,0,0,0-.76.8v.019Zm9.234.38a.752.752,0,0,0,.8-.779.748.748,0,0,0-.8-.76H8.151a23,23,0,0,0,.722-3.021.827.827,0,0,0-.912-.779.775.775,0,0,0-.836.684A26.173,26.173,0,0,1,5.3-8.151a.794.794,0,0,0-.076.19H.19a.662.662,0,0,0-.7.684.667.667,0,0,0,.7.7l1.824-.019V-5.3H.57a.689.689,0,0,0-.684.722.627.627,0,0,0,.665.665H.57l1.463-.019v1.672c-.7.171-1.425.342-2.052.437a.791.791,0,0,0-.684.8.757.757,0,0,0,.8.8A32.041,32.041,0,0,0,5.643-1.9a.822.822,0,0,0,.57-.76.624.624,0,0,0-.627-.646.945.945,0,0,0-.3.057c-.456.171-1.026.361-1.653.551V-3.952H5.073a.653.653,0,0,0,.646-.7.633.633,0,0,0-.627-.684H5.073L3.629-5.32V-6.593L5.3-6.574a.66.66,0,0,0,.684-.475.9.9,0,0,0,.494-.228A16.844,16.844,0,0,0,7.714-3.4,8.6,8.6,0,0,1,4.541-.228.785.785,0,0,0,4.1.437a.923.923,0,0,0,.931.874c.684,0,2.451-1.406,3.572-3.021C9.462-.323,10.678,1.1,11.495,1.1a.965.965,0,0,0,.931-.969.865.865,0,0,0-.418-.722A8.9,8.9,0,0,1,9.5-3.249a18,18,0,0,0,1.482-6.745Zm-15.6.228c1.178,0,4.047-3.667,4.047-4.427a.935.935,0,0,0-.931-.874.718.718,0,0,0-.684.437,8.58,8.58,0,0,1-2.831,3.306.915.915,0,0,0-.418.722A.827.827,0,0,0-4.123-9.766ZM-3.116.589V.627a.79.79,0,0,0,.874.76.851.851,0,0,0,.912-.8l.19-9.006c1.064-1.349,1.2-1.615,1.2-1.862a.981.981,0,0,0-.931-.893.729.729,0,0,0-.646.4A10.777,10.777,0,0,1-4.883-7.087a.829.829,0,0,0-.38.684.9.9,0,0,0,.855.893c.342,0,.475-.114,1.558-1.064ZM9.31-9.994a16.042,16.042,0,0,1-.8,4.826,13.538,13.538,0,0,1-.95-4.56l.1-.266ZM22.1.114a1.129,1.129,0,0,0,1.2-1.121A1.014,1.014,0,0,0,22.154-2c-1.558,0-3.7.152-5.282.171,1.577-1.71,3.439-3.325,4.883-5.149a6.211,6.211,0,0,0,1.577-3.762c0-2.261-2.09-3.629-4.294-3.629-2.983,0-4.427,2.261-4.427,2.926a1.078,1.078,0,0,0,1.121,1.007A1.149,1.149,0,0,0,16.72-11a2.768,2.768,0,0,1,2.337-1.463,1.9,1.9,0,0,1,1.976,1.938,3.92,3.92,0,0,1-1.064,2.432C18.3-6.042,16.093-3.781,14.782-2.3a1.936,1.936,0,0,0-.551,1.292A1.043,1.043,0,0,0,15.295.114Z" transform="matrix(0.998, -0.07, 0.07, 0.998, 102.819, 1865.771)" fill="#e4567e"/>
  </g>
</svg>
