<svg xmlns="http://www.w3.org/2000/svg" xmlns:xlink="http://www.w3.org/1999/xlink" width="74" height="85" viewBox="0 0 74 85">
  <defs>
    <clipPath id="clip-path">
      <rect id="長方形_969" data-name="長方形 969" width="74" height="85" transform="translate(301 652)" fill="#fff" stroke="#707070" stroke-width="1"/>
    </clipPath>
  </defs>
  <g id="マスクグループ_35" data-name="マスクグループ 35" transform="translate(-301 -652)" clip-path="url(#clip-path)">
    <g id="グループ_1081" data-name="グループ 1081" transform="translate(206.39 -62.934)" opacity="0.09">
      <path id="パス_25448" data-name="パス 25448" d="M60.112,66.275c-5.871-1.652-10.046-7.747-12.766-14.036-3.175-7.34-5.023-15.741-3.764-23.83,1.6-10.274,8.4-19.108,16.887-22.453C70.3,2.082,81.983,5.77,88.832,14.865s8.482,23.042,4.019,33.968S78.1,67.064,67.729,66.728a17.794,17.794,0,0,1-12.378-5.161C51.387,57.473,49.51,51.079,49.594,44.9c.072-5.423,1.736-11.143,5.516-14.3a12.223,12.223,0,0,1,7.622-2.716,14.936,14.936,0,0,1,12.957,7.22c2.884,4.735,3.224,11.573.4,16.354-1.592,2.69-3.977,4.565-6.059,6.753C66.062,62.381,63,68.778,64.635,74.7c1.332,4.82,5.425,7.934,9.583,9.392C84.661,87.753,97.227,82.109,102,70.676s.165-27.235-9.966-31.937c-4.077-1.893-9.6-1.5-11.8,2.925-2.191,4.388.407,10.412,4.366,12.524s8.625,1.232,12.733-.455c9.724-3.994,18.054-12.417,22.824-23.075,3.4-7.608,4.736-17.724-.081-24.213C115.86.775,108.584,0,102.184.731c-6.2.709-12.457,2.516-17.611,6.6A24.6,24.6,0,0,0,75.25,25.312C74.989,32.9,78.6,39.936,79.394,47.469c.914,8.617-2.168,17.669-7.9,23.209a20.234,20.234,0,0,1-21.024,4.74,19.465,19.465,0,0,1-10.6-9.57,18.924,18.924,0,0,1-.64-15.335c1.594-3.692,4.453-6.393,7.3-8.852a144.984,144.984,0,0,1,19-13.9c6.174-3.781,12.73-7.091,19.679-7.782,6.573-.653,13.137,1.071,19.529,2.976,4.4,1.312,8.868,2.76,12.642,5.707,8.339,6.514,11.69,20,8.622,31.139s-11.811,19.549-21.578,22.248c-5.558,1.536-11.7,1.3-16.619-2.082a17.1,17.1,0,0,1-6.847-16.848" transform="translate(56.599 714.434)" fill="none" stroke="#433b3f" stroke-linecap="round" stroke-miterlimit="10" stroke-width="1"/>
      <path id="パス_25449" data-name="パス 25449" d="M44.951,26.446c11.6-13.293,17.916,1.962,21.028,10.261,2.175,5.8,4.644,11.66,8.844,16.215,7.764,8.42,19.942,10.916,31.335,12.084,3.53.362,7.593.455,10.04-2.115,2.217-2.328,2.2-6.091.969-9.06s-3.44-5.4-5.346-7.99c-7.3-9.911-18.09-44.968-.966-44.968" transform="translate(55.62 714.382)" fill="none" stroke="#433b3f" stroke-linecap="round" stroke-miterlimit="10" stroke-width="1"/>
    </g>
  </g>
</svg>
