<svg xmlns="http://www.w3.org/2000/svg" xmlns:xlink="http://www.w3.org/1999/xlink" width="74" height="85" viewBox="0 0 74 85">
  <defs>
    <clipPath id="clip-path">
      <rect id="長方形_970" data-name="長方形 970" width="74" height="85" fill="#fff" stroke="#707070" stroke-width="1"/>
    </clipPath>
  </defs>
  <g id="マスクグループ_36" data-name="マスクグループ 36" clip-path="url(#clip-path)">
    <g id="グループ_1348" data-name="グループ 1348" transform="translate(-15.113 0)" opacity="0.09">
      <path id="パス_26203" data-name="パス 26203" d="M104.91,66.275c5.871-1.652,10.046-7.747,12.766-14.036,3.175-7.34,5.023-15.741,3.764-23.83-1.6-10.274-8.4-19.108-16.887-22.453C94.721,2.082,83.039,5.77,76.19,14.865s-8.482,23.042-4.019,33.968S86.918,67.064,97.293,66.728a17.794,17.794,0,0,0,12.378-5.161c3.964-4.094,5.841-10.488,5.757-16.662-.072-5.423-1.736-11.143-5.516-14.3a12.223,12.223,0,0,0-7.622-2.716,14.936,14.936,0,0,0-12.957,7.22c-2.884,4.735-3.224,11.573-.4,16.354,1.592,2.69,3.977,4.565,6.059,6.753,3.965,4.168,7.029,10.564,5.391,16.488-1.332,4.82-5.425,7.934-9.583,9.392C80.361,87.753,67.8,82.109,63.024,70.676s-.165-27.235,9.966-31.937c4.077-1.893,9.6-1.5,11.8,2.925,2.191,4.388-.407,10.412-4.366,12.524S71.8,55.419,67.7,53.733c-9.724-3.994-18.054-12.417-22.824-23.075-3.4-7.608-4.736-17.724.081-24.213C49.162.775,56.438,0,62.838.731c6.2.709,12.457,2.516,17.611,6.6a24.6,24.6,0,0,1,9.323,17.982c.261,7.584-3.346,14.624-4.144,22.156-.914,8.617,2.168,17.669,7.9,23.209a20.234,20.234,0,0,0,21.024,4.74,19.465,19.465,0,0,0,10.6-9.57,18.924,18.924,0,0,0,.64-15.335c-1.594-3.692-4.453-6.393-7.3-8.852a144.984,144.984,0,0,0-19-13.9c-6.174-3.781-12.73-7.091-19.679-7.782-6.573-.653-13.137,1.071-19.529,2.976-4.4,1.312-8.868,2.76-12.642,5.707-8.339,6.514-11.69,20-8.622,31.139S50.83,79.346,60.6,82.045c5.558,1.536,11.7,1.3,16.619-2.082a17.1,17.1,0,0,0,6.847-16.848" transform="translate(-37.899 -0.5)" fill="none" stroke="#433b3f" stroke-linecap="round" stroke-miterlimit="10" stroke-width="1"/>
      <path id="パス_26204" data-name="パス 26204" d="M118,26.446c-11.6-13.293-17.916,1.962-21.028,10.261-2.175,5.8-4.644,11.66-8.844,16.215-7.764,8.42-19.942,10.916-31.335,12.084-3.53.362-7.593.455-10.04-2.115-2.217-2.328-2.2-6.091-.969-9.06s3.44-5.4,5.346-7.99C58.43,35.93,69.22.873,52.1.873" transform="translate(-34.849 -0.552)" fill="none" stroke="#433b3f" stroke-linecap="round" stroke-miterlimit="10" stroke-width="1"/>
    </g>
  </g>
</svg>
