<svg xmlns="http://www.w3.org/2000/svg" width="76.023" height="24.647" viewBox="0 0 76.023 24.647">
  <g id="グループ_580" data-name="グループ 580" transform="translate(-15 -8.651)">
    <g id="header-logo" transform="translate(15 8.651)">
      <g id="レイヤー_1" data-name="レイヤー 1" transform="translate(0 0)">
        <path id="パス_27" data-name="パス 27" d="M311.242,121.981l.769-3.111h-3.254l-.767,3.111Z" transform="translate(-252.923 -97.617)"/>
        <path id="パス_28" data-name="パス 28" d="M351.783,66.241l-2.26-8.825-2.244,8.832H344.02l3.946-15.289,3.131.005,2.124,8.362,2.14-8.355h3.174L354.6,66.238Z" transform="translate(-282.512 -41.849)"/>
        <path id="パス_29" data-name="パス 29" d="M235.461,50.93l3.258.018-3.951,15.258H231.52Z" transform="translate(-190.126 -41.824)"/>
        <path id="パス_30" data-name="パス 30" d="M271.866,50.948l-6.644,8.022,2.462,7.236h-3.349l-2.685-7.779,6.254-7.5Z" transform="translate(-214.869 -41.824)"/>
        <path id="パス_31" data-name="パス 31" d="M6.379,54.132h4.037c.415,0,.515.316.42.715L9.072,61.632a1.972,1.972,0,0,1-2.12,1.541H4Zm7.477,1.445a3.506,3.506,0,0,0-.733-3.6A3.442,3.442,0,0,0,10.642,51H3.984L0,66.3H7.152a4.872,4.872,0,0,0,4.942-3.839Z" transform="translate(0 -41.878)"/>
        <path id="パス_32" data-name="パス 32" d="M168.459,60.743s-.179,1.4-2.035,1.4c-1.713,0-2.176-.855-2.176-.855a2,2,0,0,1-.179-1.564h-3.12a3.576,3.576,0,0,0-.068,2.029s.735,3.4,5.664,3.4a4.958,4.958,0,0,0,5.339-4.649c.1-2.943-2.609-3.839-4.793-5.253-.808-.5-1.252-.894-1.112-1.622,0,0,.163-1.377,2.079-1.373a2.155,2.155,0,0,1,2.348,1.661,1.841,1.841,0,0,1-.048.767h3.159a5.173,5.173,0,0,0-.247-2.519,4.264,4.264,0,0,0-1.913-2.1,6.905,6.905,0,0,0-6.592.232,4.338,4.338,0,0,0-2.1,4.014c.086,2.473,3.208,3.681,5.04,4.919A1.486,1.486,0,0,1,168.459,60.743Z" transform="translate(-132.022 -40.518)"/>
        <path id="パス_33" data-name="パス 33" d="M316.577,62.441l3-11.411h-3.229l-3,11.411Z" transform="translate(-257.325 -41.906)" fill="#e60044"/>
        <path id="パス_34" data-name="パス 34" d="M84.766,60.662l2.618-9.41h3.2c-.148.479-2.682,10.37-2.682,10.37a1.54,1.54,0,0,0,1.64,1.994,3.085,3.085,0,0,0,3.149-2.641L95.24,51.25h3.218c-.009.039-2.646,10.306-2.646,10.306a6.406,6.406,0,0,1-6.628,5.169S83.094,66.7,84.766,60.662Z" transform="translate(-69.372 -42.087)"/>
        <path id="パス_35" data-name="パス 35" d="M26.563,1.677a8.617,8.617,0,0,1-.6.878l-1,3.882H24.28l.738-2.861a4.828,4.828,0,0,1-.458.381l-.043-.738A7.831,7.831,0,0,0,26,1.514Zm-1.477-.44A5.394,5.394,0,0,0,26.3,0l.615.19A6.127,6.127,0,0,1,25.19,1.91Zm1.184,2.58.388-1.493h2.793l-.393,1.493h-.611l-.088.34h.687l-.129.492H28.23l-.123.476h.806l-.141.549h-.808l-.2.763h-.61l.2-.762H25.374l.143-.549h.413l.252-.973h1.564l.088-.34Zm.331.831-.122.476H27.5l.131-.476ZM27.888.409c.059-.123.095-.2.154-.358L28.689.1c-.105.216-.118.238-.15.306H29.81l-.274,1.069h.322l-.131.5h-3.15l.131-.5h.576c.093-.143.138-.211.32-.536h-.59L27.15.4Zm-.747,2.4-.132.51h1.564l.127-.51Zm1.707-1.337.138-.536h-.724c-.134.252-.232.415-.3.536Zm2.677.67-.17.658h-.379l-.783,3.039a.719.719,0,0,1-.84.611h-.624l.029-.715H29.4c.141,0,.152-.041.179-.17L30.289,2.8h-.715l.175-.658ZM31.882.331,31.7.991H30.139l.179-.66Z" transform="translate(-19.939 0)" fill="#231815"/>
        <path id="パス_36" data-name="パス 36" d="M67.694,2.364a5.7,5.7,0,0,1-1.13,1.092l-.411-.524A6.6,6.6,0,0,0,68.119.413l.715.136a9.161,9.161,0,0,1-.649,1.128h1.334L69.877.29h.758l-.358,1.387H72.9l-.179.685H70.116l-.334,1.273H72.16l-.179.694H69.6l-.358,1.4h2.884l-.179.7H65.38l.179-.7h2.929l.358-1.405H66.451l.179-.694h2.4l.327-1.264Z" transform="translate(-53.69 -0.238)" fill="#231815"/>
        <path id="パス_37" data-name="パス 37" d="M109.136,6.3a5.135,5.135,0,0,0,.731-.163l.436-1.691h-.511l.179-.674h.5l.383-1.454h-.6l.179-.679h1.908l-.179.679h-.62l-.375,1.454h.463l-.179.674h-.445l-.381,1.466c.358-.114.522-.179.676-.223l-.107.6a11.264,11.264,0,0,1-2.146.762Zm6.454-.619.381.347a11.365,11.365,0,0,1-.928.715,4.726,4.726,0,0,0,.64.374l-.454.59a3.5,3.5,0,0,1-1.82-1.759l-.445,1.725h-.715l.3-1.134a9.28,9.28,0,0,1-2.072,1l-.179-.645A7.584,7.584,0,0,0,112.7,5.779h-1.046l.392-1.514h3.9Zm.982-2.276-.147.565h-4.686l.145-.565Zm.32-1.888-.418,1.609h-4.3l.418-1.609Zm-4.325,3.24-.139.536h2.589l.139-.536Zm.536-2.75-.166.638h.611l.164-.638Zm.962,3.769a2.483,2.483,0,0,0,.511.6,8.488,8.488,0,0,0,.856-.6Zm.223-3.769-.164.638h.624l.164-.638Zm1.193,0-.164.638h.667l.164-.638Z" transform="translate(-89.553 -1.248)" fill="#231815"/>
        <path id="パス_38" data-name="パス 38" d="M152.743,5.15c.225-.054.493-.114.894-.238l.59-2.281h-.772l.179-.667h.772L154.815.34h.688l-.42,1.623h.6l-.179.667h-.6l-.527,2.044.619-.223-.082.619a19.177,19.177,0,0,1-2.262.794Zm6.973-2.269-.567,2.2h-1.116l-.179.7c-.057.223-.064.25.1.25h.3c.154,0,.2,0,.243-.073a2.325,2.325,0,0,0,.241-.66l.6.157c-.279.894-.451,1.228-1,1.228h-.878c-.519,0-.433-.333-.386-.517l.286-1.085h-.626a3.2,3.2,0,0,1-2.358,1.684l-.179-.638c1-.17,1.527-.476,1.788-1.046h-.715l.567-2.2ZM156.3.85h1.62l.132-.51h.7l-.139.51h1.761l-.147.563h-.653c-.012.029-.157.341-.282.551h.933l-.145.565h-4.372l.145-.565h.828a3.938,3.938,0,0,0,.03-.551h-.561Zm-.123,3.322-.1.4h2.555l.1-.4Zm.2-.774-.089.347h2.555l.089-.347Zm1.082-1.985c-.03.341-.027.375-.05.551h1.157a2.8,2.8,0,0,0,.263-.551Z" transform="translate(-125.357 -0.279)" fill="#231815"/>
        <path id="パス_39" data-name="パス 39" d="M204.367,2.02l-.179.66h-3.009a6.7,6.7,0,0,1-.628.855,2.486,2.486,0,0,1,1.116-.358c.583,0,.878.216.9.74.358-.122,1.241-.427,1.847-.6v.715a18.81,18.81,0,0,0-1.9.536,7.131,7.131,0,0,1-.156.733,5.105,5.105,0,0,1-.148.5h-.751a5.43,5.43,0,0,0,.257-.942c-.822.334-1.375.679-1.479,1.082-.141.536.547.536,1.32.536a17.74,17.74,0,0,0,1.842-.095l-.168.728c-.49.027-1.087.054-1.634.054-.835,0-2.469,0-2.174-1.141.245-.951,1.718-1.57,2.373-1.82-.013-.225-.061-.422-.447-.422a2.619,2.619,0,0,0-1.42.6c-.034.027-1.128,1.073-1.364,1.264l-.393-.536a8.473,8.473,0,0,0,2.21-2.428h-1.368l.179-.66h1.572a6.392,6.392,0,0,0,.327-.715l.819.034a7.561,7.561,0,0,1-.34.687Z" transform="translate(-162.739 -1.076)" fill="#231815"/>
        <path id="パス_40" data-name="パス 40" d="M241,4.841l-.127.49h-2.212l-.093.358h2.884l-.15.585H234.69l.15-.585h1.11l.249-.964h.715l-.249.964h1.171l.316-1.223h-2.744l.145-.563h6.079l-.147.563h-2.6l-.1.374Zm-2.167-1.665a5.666,5.666,0,0,0,1.514-.59,5.438,5.438,0,0,1-.324-.781c-.179.143-.238.179-.384.291l-.313-.536-.265,1.024h-.923a2.009,2.009,0,0,0,.651.47l-.49.51a1.836,1.836,0,0,1-.613-.585l-.2.767h-.61l.206-.794a6.528,6.528,0,0,1-1.5.767l-.179-.551a5.886,5.886,0,0,0,1.386-.585h-.919l.358-1.352h1.3l.073-.284h-1.53l.132-.51h1.53l.084-.325h.61l-.084.325h1.495l-.132.51h-1.495l-.073.291h1.277l-.082.32a4.389,4.389,0,0,0,1.43-1.48l.633.1c-.086.141-.179.284-.325.5h1.691l-.157.6h-.315a5.229,5.229,0,0,1-.973,1.318,4,4,0,0,0,.94.536l-.536.611a2.662,2.662,0,0,1-1.028-.665,6.257,6.257,0,0,1-1.645.665ZM236.691,1.7l-.113.442h.715l.114-.442Zm1.319,0-.114.442h.7l.114-.442Zm2.578-.415a2.617,2.617,0,0,0,.325.883,3.4,3.4,0,0,0,.7-.883Z" transform="translate(-192.729 -0.066)" fill="#231815"/>
        <path id="パス_41" data-name="パス 41" d="M284.777,2.949l-.163.626c-.663.42-1.237.794-1.788,1.187a1.05,1.05,0,0,1,.324-.054c.638,0,.493.558.4.917l-.066.257c-.13.5-.12.653.828.653a8.785,8.785,0,0,0,.894-.054l-.166.753c-.256.014-.508.034-.978.034-.8,0-1.677,0-1.409-1.032l.105-.408c.073-.286.138-.536-.2-.536a1.885,1.885,0,0,0-.8.291c-.413.3-.676.5-2.1,1.672l-.39-.585c.136-.095,1.361-1,1.654-1.216,1.716-1.264,1.979-1.441,2.541-1.815l-2.95.034.179-.715Zm.179-.393a11.009,11.009,0,0,0-3.172-.463l.252-.653a12.978,12.978,0,0,1,3.233.415Z" transform="translate(-229.338 -1.183)" fill="#231815"/>
        <path id="パス_42" data-name="パス 42" d="M322.662,3.384c-.665.4-1.468.923-2.2,1.386a4.075,4.075,0,0,1,1.107-.179c.982,0,1.766.524,1.45,1.747A3.017,3.017,0,0,1,319.95,8.4c-1.207,0-1.709-.536-1.547-1.162a1.529,1.529,0,0,1,1.5-1,1.271,1.271,0,0,1,1.361,1.252,1.736,1.736,0,0,0,.971-1.121c.127-.5.036-1.148-1.121-1.148a6.026,6.026,0,0,0-3.435,1.556l-.283-.638c.24-.143,1.761-1.087,3.971-2.635-.849.061-1.4.08-2.575.107l.191-.74c1.618.014,2.3-.013,3.832-.08ZM319.73,6.821a.644.644,0,0,0-.638.381c-.075.291.213.59.957.59a3.875,3.875,0,0,0,.511-.054C320.547,7.228,320.327,6.821,319.73,6.821Z" transform="translate(-260.651 -2.283)" fill="#231815"/>
      </g>
    </g>
  </g>
</svg>
