<svg xmlns="http://www.w3.org/2000/svg" xmlns:xlink="http://www.w3.org/1999/xlink" width="76" height="17.127" viewBox="0 0 76 17.127">
  <defs>
    <clipPath id="clip-path">
      <rect id="長方形_976" data-name="長方形 976" width="76" height="17.127" fill="none"/>
    </clipPath>
  </defs>
  <g id="グループ_1368" data-name="グループ 1368" transform="translate(0 0)">
    <g id="グループ_1367" data-name="グループ 1367" transform="translate(0 0)" clip-path="url(#clip-path)">
      <path id="パス_26231" data-name="パス 26231" d="M82.556,15.308a1.066,1.066,0,1,1,1.067,1.069,1.063,1.063,0,0,1-1.067-1.069m1.063.929a.933.933,0,1,0-.931-.935.931.931,0,0,0,.931.935" transform="translate(-8.688 -1.499)" fill="#d6007f"/>
      <path id="パス_26232" data-name="パス 26232" d="M83.187,14.721h.6a.358.358,0,0,1,.375.376.311.311,0,0,1-.184.309c.1.047.149.089.149.336,0,.193,0,.244.055.265v.037H83.9a1.069,1.069,0,0,1-.025-.268c0-.181-.011-.252-.192-.252h-.254v.521h-.244Zm.535.578c.126,0,.187-.045.187-.176a.156.156,0,0,0-.169-.171h-.309V15.3Z" transform="translate(-8.755 -1.549)" fill="#d6007f"/>
      <path id="パス_26233" data-name="パス 26233" d="M1.246,7.944h2.2l-.172,1.05h.028A2.773,2.773,0,0,1,5.5,7.72,1.631,1.631,0,0,1,7.308,8.965,3,3,0,0,1,9.676,7.72c2.2,0,2.138,1.849,1.9,3.314l-.746,4.575H8.563L9.3,11.1c.134-.827-.148-1.311-.733-1.311-.973,0-1.2.828-1.407,2.071l-.613,3.747H4.281l.71-4.357c.148-.9,0-1.461-.616-1.461-.812,0-1.247.514-1.5,2.087l-.609,3.732H0Z" transform="translate(0 -0.812)" fill="#d6007f"/>
      <path id="パス_26234" data-name="パス 26234" d="M26.242,10.006a2.015,2.015,0,0,0-2.121,1.821L23.5,15.619H21.231l1.248-7.666h2.2L24.55,8.7l-.237.3a2.387,2.387,0,0,1,2.242-1.2Z" transform="translate(-2.234 -0.821)" fill="#d6007f"/>
      <path id="パス_26235" data-name="パス 26235" d="M15.463,12.391c-.131,1.05.261,1.562,1.222,1.562a1.975,1.975,0,0,0,1.634-1.1h2.125a4.191,4.191,0,0,1-4.023,2.979c-2.2,0-3.388-1.922-3.033-4.071a4.592,4.592,0,0,1,4.3-4.039c2.483,0,3.386,2.07,2.858,4.671ZM17.41,9.418a1.781,1.781,0,0,0-1.554,1.143H18.51a1.133,1.133,0,0,0-1.1-1.143" transform="translate(-1.402 -0.812)" fill="#d6007f"/>
      <path id="パス_26236" data-name="パス 26236" d="M31.25,10.006a2.024,2.024,0,0,0-2.13,1.821L28.5,15.619H26.238l1.246-7.666h2.2l-.132.746-.24.3a2.386,2.386,0,0,1,2.245-1.2Z" transform="translate(-2.761 -0.821)" fill="#d6007f"/>
      <path id="パス_26237" data-name="パス 26237" d="M35.141,16.315c-.821,1.69-1.274,1.65-2.814,1.65h-.334l.3-1.793h.06a.89.89,0,0,0,1-.748,12.059,12.059,0,0,0-.226-2.157l-.63-5.3h2.22l.42,4.616-.34.375L36.916,7.97h2.319Z" transform="translate(-3.367 -0.838)" fill="#d6007f"/>
      <path id="パス_26238" data-name="パス 26238" d="M42.444,7.944h2.2l-.165,1.05H44.5A2.772,2.772,0,0,1,46.694,7.72a1.637,1.637,0,0,1,1.813,1.245,2.981,2.981,0,0,1,2.36-1.245c2.2,0,2.147,1.849,1.9,3.314l-.744,4.575H49.756l.738-4.508c.131-.827-.147-1.311-.736-1.311-.969,0-1.2.828-1.4,2.071l-.608,3.747H45.473l.716-4.357c.141-.9,0-1.461-.623-1.461-.812,0-1.24.514-1.5,2.087l-.6,3.732H41.19Z" transform="translate(-4.335 -0.812)" fill="#d6007f"/>
      <path id="パス_26239" data-name="パス 26239" d="M58.9,14.886a2.892,2.892,0,0,1-2.055.68c-1.614,0-2.456-.881-2.456-2.161,0-1.517.805-2.446,4.179-2.918.406-.057.8-.2.88-.676a.5.5,0,0,0-.547-.527,1.778,1.778,0,0,0-1.654,1.02H55.125a2.948,2.948,0,0,1,1.413-2.048,4.7,4.7,0,0,1,2.293-.536c1.638,0,3.044.4,2.694,2.571l-.551,3.357a4.687,4.687,0,0,0,.061,1.961H59.094a5.775,5.775,0,0,1-.2-.723m-1.237-2.632a1.053,1.053,0,0,0-.931,1.053c-.018.3.26.56.684.56.788,0,1.5-.353,1.683-1.854a10.615,10.615,0,0,0-1.436.241" transform="translate(-5.724 -0.812)" fill="#d6007f"/>
      <path id="パス_26240" data-name="パス 26240" d="M63.792,7.63h2.263L64.81,15.3H62.538Zm2.422-.96H63.949l.308-1.924h2.271Z" transform="translate(-6.582 -0.499)" fill="#d6007f"/>
      <path id="パス_26241" data-name="パス 26241" d="M72.983,15.3H70.818l.145-.888h-.025a3.1,3.1,0,0,1-2.166.845c-1.7,0-2.7-1.656-2.33-3.956.328-2,1.6-3.89,3.556-3.89a1.862,1.862,0,0,1,1.8,1.05h.027l.6-3.711H74.7Zm-4.248-4.053c-.17.979-.015,2.069,1,2.069,1.082,0,1.509-1.09,1.664-2,.172-1.034-.013-1.981-.981-1.981-1.02,0-1.533,1-1.688,1.911" transform="translate(-6.984 -0.499)" fill="#d6007f"/>
      <path id="パス_26242" data-name="パス 26242" d="M76.94,13.015a.925.925,0,0,0,.236.856,1.15,1.15,0,0,0,.8.269c.443,0,1.1-.211,1.2-.812s-.594-.709-.975-.812c-1.365-.4-3.144-.447-2.807-2.512.3-1.846,2.186-2.354,3.545-2.354,1.519,0,3.027.491,2.784,2.489h-2.1a.654.654,0,0,0-.184-.67,1.086,1.086,0,0,0-.689-.188c-.371,0-.982.038-1.068.576-.117.72,1.383.856,2.384,1.11a1.745,1.745,0,0,1,1.422,2.064c-.334,2.055-2.2,2.732-3.769,2.732-1.642,0-3.221-.6-2.937-2.748Z" transform="translate(-7.867 -0.805)" fill="#d6007f"/>
      <path id="パス_26243" data-name="パス 26243" d="M1.529,4.054a4.957,4.957,0,0,0,.845-.506c.02.477-.106.506-.267.506ZM4.147,1.742a3.358,3.358,0,0,1-.647.573,3.27,3.27,0,0,1-.145-.558H4V1.529h.549V.407H2.758V.076H2.035V.407H.242V1.529H.776v.227h.948a3.479,3.479,0,0,1-1.564.388l.229.593A5.474,5.474,0,0,0,1.859,2.3,1.82,1.82,0,0,1,2,2.452a5.256,5.256,0,0,1-1.831.534l.257.582A5.9,5.9,0,0,0,2.238,2.84a1.14,1.14,0,0,1,.064.194,6.412,6.412,0,0,1-2.268.83L.29,4.5a7.15,7.15,0,0,0,1.143-.4l.111.554h.8a.657.657,0,0,0,.438-.17,1.11,1.11,0,0,0,.252-.807A2.2,2.2,0,0,0,2.384,2a1.858,1.858,0,0,0,.277-.243h.081A4.669,4.669,0,0,0,4.132,4.52L4.7,3.972a3.863,3.863,0,0,1-.932-1.059,4.725,4.725,0,0,0,.845-.679ZM.951,1h2.89v.214H.951Z" transform="translate(-0.003 -0.008)" fill="#231815"/>
      <path id="パス_26244" data-name="パス 26244" d="M7.468,1.579H6.642V1.365h.826ZM7.468.3h-1.9v.51h1.9v.18H5.948v.962h1.52v.16H5.788v.418h1.68V2.7H5.506v.485H7.468v.185H5.779v.447H7.468v.115c0,.089-.03.137-.131.137H6.6l.126.6h1.05a.481.481,0,0,0,.3-.116.564.564,0,0,0,.1-.344V3.819H9.1v.233h.719v-.83h.3V2.667h-.3V2.109H8.172v-.16h1.55V.987H8.172V.807H10.1V.3H8.172V.049h-.7ZM9.022,1.579h-.85V1.365h.85ZM9.1,2.72H8.172V2.526H9.1Zm0,.651H8.172v-.2H9.1Z" transform="translate(-0.579 -0.005)" fill="#231815"/>
      <path id="パス_26245" data-name="パス 26245" d="M12.88,1.192a5.207,5.207,0,0,1-.363,1.738c-.112.239-.219.37-.374.37-.277,0-.33-.437-.33-.622a1.6,1.6,0,0,1,.48-1.175,1.315,1.315,0,0,1,.587-.31m.442,3.321a2.673,2.673,0,0,0,1.472-.524,2.007,2.007,0,0,0,.66-1.569,1.874,1.874,0,0,0-2.054-2,2.23,2.23,0,0,0-2.356,2.264c0,.762.408,1.427,1.065,1.427,1.3,0,1.486-2.535,1.509-2.963a1.061,1.061,0,0,1,.792.4,1.206,1.206,0,0,1,.234.8c0,1.306-1.083,1.394-1.608,1.433Z" transform="translate(-1.162 -0.044)" fill="#231815"/>
      <path id="パス_26246" data-name="パス 26246" d="M18.678,1.3C18.635.8,18.619.48,18.606.058h.757c.02.471.034.748.069,1.185l.839-.058a4.821,4.821,0,0,0-.738-.7l.462-.442a4.2,4.2,0,0,1,.812.724l-.452.417.582-.043.044.675-1.472.112a4.581,4.581,0,0,0,.515,1.7c.078.1.125.151.179.151.1,0,.161-.175.185-.253.023-.054.1-.33.116-.393l.554.5c-.174.529-.35,1.044-.831,1.044-1.054,0-1.374-1.928-1.475-2.7l-1.006.078-.049-.69Zm-1.909,1.3a1.8,1.8,0,0,1-.239.242l-.247-.981a3.447,3.447,0,0,0,.763-1.8l.737.048a5.969,5.969,0,0,1-.291,1.136v3.42H16.77Z" transform="translate(-1.714 -0.004)" fill="#231815"/>
      <path id="パス_26247" data-name="パス 26247" d="M23.462,1.374a6.138,6.138,0,0,1-.5.792V4.653h-.738V2.978a3.242,3.242,0,0,1-.311.252l-.208-.908a3.79,3.79,0,0,0,1.141-1.253Zm2.943.161v.7h-.66V4.1a.466.466,0,0,1-.519.548H24.214l-.122-.747h.748c.117,0,.151-.039.151-.147V2.24H23.408v-.7ZM23.268.224A3.663,3.663,0,0,1,22.044,1.6l-.33-.724A2.584,2.584,0,0,0,22.6,0ZM26.23.908H23.6V.218H26.23Z" transform="translate(-2.285 0)" fill="#231815"/>
    </g>
  </g>
</svg>
