<svg id="logo_merrymaids_wh" xmlns="http://www.w3.org/2000/svg" width="117.258" height="19.905" viewBox="0 0 117.258 19.905">
  <path id="パス_25132" data-name="パス 25132" d="M202.158,24.92a1.641,1.641,0,1,1,.122.631,1.65,1.65,0,0,1-.122-.631Zm1.637,1.446a1.452,1.452,0,1,0-.555-.112,1.455,1.455,0,0,0,.555.112Z" transform="translate(-88.193 -10.156)" fill="#fff"/>
  <path id="パス_25133" data-name="パス 25133" d="M203.686,24.432h.931a.546.546,0,0,1,.578.577.5.5,0,0,1-.286.489c.151.07.233.131.233.515,0,.294,0,.372.087.408v.052H204.8a1.264,1.264,0,0,1-.042-.414c0-.278-.016-.384-.3-.384h-.4v.8H203.7V24.432Zm.835.893c.2,0,.3-.074.3-.272a.251.251,0,0,0-.012-.112.247.247,0,0,0-.269-.163h-.483v.543Z" transform="translate(-88.86 -10.658)" fill="#fff"/>
  <path id="パス_25134" data-name="パス 25134" d="M1.937,7.632H5.318L5.055,9.263h.038A4.329,4.329,0,0,1,8.474,7.274,2.542,2.542,0,0,1,11.29,9.211a4.536,4.536,0,0,1,3.625-1.929c3.417,0,3.323,2.876,2.949,5.151l-1.159,7.024h-3.48l1.112-6.917c.2-1.281-.237-2.036-1.112-2.036-1.507,0-1.86,1.283-2.188,3.208L10.1,19.457H6.615l1.1-6.684c.2-1.392,0-2.269-.961-2.269-1.261,0-1.927.8-2.323,3.232l-.947,5.722H0Z" transform="translate(0 -3.173)" fill="#fff"/>
  <path id="パス_25135" data-name="パス 25135" d="M59.715,10.912a3.143,3.143,0,0,0-3.266,2.828L55.5,19.551H52L53.91,7.726H57.33l-.2,1.167-.366.459A3.639,3.639,0,0,1,60.21,7.489Z" transform="translate(-22.687 -3.267)" fill="#fff"/>
  <path id="パス_25136" data-name="パス 25136" d="M35.943,14.478c-.219,1.629.408,2.424,1.891,2.424a3.055,3.055,0,0,0,2.508-1.7H43.63c-1.342,3.431-3.834,4.616-6.2,4.616-3.423,0-5.224-2.983-4.679-6.257.557-3.645,3.474-6.268,6.6-6.268,3.856,0,5.224,3.222,4.439,7.189Zm2.983-4.544a2.761,2.761,0,0,0-2.386,1.772h4.089a1.749,1.749,0,0,0-1.7-1.764Z" transform="translate(-14.246 -3.18)" fill="#fff"/>
  <path id="パス_25137" data-name="パス 25137" d="M71.961,10.912a3.113,3.113,0,0,0-3.269,2.828l-.957,5.811h-3.53L66.15,7.726h3.381l-.183,1.167L69,9.353a3.613,3.613,0,0,1,3.448-1.863Z" transform="translate(-28.01 -3.267)" fill="#fff"/>
  <path id="パス_25138" data-name="パス 25138" d="M83.2,20.794c-1.279,2.617-1.989,2.556-4.329,2.556h-.525l.469-2.784h.1a1.387,1.387,0,0,0,1.551-1.155,17.427,17.427,0,0,0-.354-3.349l-.98-8.154h3.4L83.193,15l-.539.575,3.3-7.681H89.52Z" transform="translate(-34.177 -3.444)" fill="#fff"/>
  <path id="パス_25139" data-name="パス 25139" d="M102.8,7.632h3.413l-.263,1.631h.042a4.255,4.255,0,0,1,3.381-1.989,2.555,2.555,0,0,1,2.814,1.937,4.558,4.558,0,0,1,3.632-1.937c3.381,0,3.293,2.876,2.949,5.151L117.6,19.457h-3.518l1.132-6.917c.2-1.281-.227-2.036-1.134-2.036-1.484,0-1.838,1.283-2.152,3.208l-.946,5.745H107.5l1.068-6.684c.225-1.392,0-2.269-.933-2.269-1.251,0-1.917.8-2.316,3.232l-.943,5.722h-3.484Z" transform="translate(-44.016 -3.173)" fill="#fff"/>
  <path id="パス_25140" data-name="パス 25140" d="M140.111,18.351a4.385,4.385,0,0,1-3.148,1.054c-2.508,0-3.814-1.368-3.814-3.361,0-2.289,1.251-3.727,6.455-4.453.622-.088,1.245-.326,1.356-1.054a.776.776,0,0,0-.849-.825,2.743,2.743,0,0,0-2.526,1.591H134.3a4.611,4.611,0,0,1,2.188-3.194A7.123,7.123,0,0,1,140,7.278c2.552,0,4.7.628,4.164,4l-.833,5.133a7.391,7.391,0,0,0,.1,3.045h-3a8.708,8.708,0,0,1-.32-1.108Zm-1.877-4.021a1.5,1.5,0,0,0-1.444,1.561c-.021.457.4.875,1.062.875,1.193,0,2.281-.553,2.585-2.812a15.476,15.476,0,0,0-2.2.376Z" transform="translate(-58.087 -3.175)" fill="#fff"/>
  <path id="パス_25141" data-name="パス 25141" d="M155.056,4.459h3.492l-1.915,11.825H153.1l1.943-11.825Zm3.715-1.494h-3.478L155.782,0h3.488Z" transform="translate(-66.793)" fill="#fff"/>
  <path id="パス_25142" data-name="パス 25142" d="M172.733,16.284h-3.359l.227-1.368h-.044a4.772,4.772,0,0,1-3.331,1.307c-2.643,0-4.158-2.585-3.6-6.082.491-3.094,2.462-6.04,5.489-6.04A2.9,2.9,0,0,1,170.9,5.738h.042L171.877,0h3.484Zm-6.563-6.221c-.265,1.452-.028,3.14,1.561,3.14,1.647,0,2.3-1.688,2.54-3.027.276-1.6-.018-3.073-1.523-3.073-1.545,0-2.339,1.553-2.577,2.959Z" transform="translate(-70.897)" fill="#fff"/>
  <path id="パス_25143" data-name="パス 25143" d="M186.422,15.4a1.439,1.439,0,0,0,.364,1.326,1.791,1.791,0,0,0,1.231.414,1.76,1.76,0,0,0,1.838-1.265c.155-.943-.919-1.1-1.5-1.265-2.092-.543-4.858-.609-4.335-3.82.469-2.868,3.381-3.645,5.471-3.645,2.355,0,4.669.752,4.309,3.85h-3.241a1,1,0,0,0-.288-1.028,1.665,1.665,0,0,0-1.068-.3c-.585,0-1.493.068-1.625.895-.185,1.124,2.108,1.328,3.659,1.72a2.652,2.652,0,0,1,2.209,3.14c-.515,3.188-3.42,4.238-5.807,4.238-2.548,0-4.982-.939-4.562-4.26Z" transform="translate(-79.847 -3.115)" fill="#fff"/>
</svg>
