<svg id="logo_merrymaids_wh" xmlns="http://www.w3.org/2000/svg" width="369.898" height="62.793" viewBox="0 0 369.898 62.793">
  <path id="パス_25132" data-name="パス 25132" d="M202.158,28.455a5.177,5.177,0,1,1,.384,1.99,5.2,5.2,0,0,1-.384-1.99Zm5.163,4.561a4.58,4.58,0,1,0-1.752-.353,4.589,4.589,0,0,0,1.752.353Z" transform="translate(157.35 18.12)" fill="#d82c90"/>
  <path id="パス_25133" data-name="パス 25133" d="M203.686,24.435h2.936a1.723,1.723,0,0,1,1.825,1.819,1.586,1.586,0,0,1-.9,1.543c.477.22.734.414.734,1.625,0,.928,0,1.173.276,1.286v.163h-1.343a3.989,3.989,0,0,1-.132-1.3c0-.878-.05-1.211-.935-1.211H204.89v2.509h-1.174V24.435Zm2.634,2.817c.628,0,.948-.232.948-.859a.791.791,0,0,0-.037-.353.779.779,0,0,0-.848-.513h-1.524v1.713Z" transform="translate(158.54 19.016)" fill="#d82c90"/>
  <path id="パス_25134" data-name="パス 25134" d="M6.11,8.4H16.776l-.828,5.144h.119c2.66-3.764,6.625-6.274,10.665-6.274,4.247,0,7.785,1.537,8.883,6.111C38.9,9.395,42.485,7.3,47.052,7.3c10.778,0,10.483,9.072,9.3,16.249L52.7,45.706H41.719l3.507-21.82c.627-4.04-.747-6.424-3.507-6.424-4.755,0-5.866,4.046-6.9,10.119L31.857,45.706H20.866l3.476-21.086c.627-4.392,0-7.158-3.03-7.158-3.977,0-6.079,2.509-7.328,10.195L11,45.706H0Z" transform="translate(0 5.662)" fill="#d82c90"/>
  <path id="パス_25135" data-name="パス 25135" d="M76.332,18.286c-5.816,0-9.41,3.62-10.3,8.921L63.038,45.539H52l6.017-37.3H68.81l-.627,3.683-1.154,1.449c2.365-4.749,7.215-5.878,10.866-5.878Z" transform="translate(40.476 5.829)" fill="#d82c90"/>
  <path id="パス_25136" data-name="パス 25136" d="M43.027,29.967c-.69,5.138,1.286,7.647,5.966,7.647,2.691,0,5.9-1.794,7.911-5.376h10.37C63.04,43.06,55.179,46.8,47.72,46.8c-10.8,0-16.481-9.411-14.762-19.737,1.756-11.5,10.96-19.774,20.834-19.774,12.165,0,16.481,10.163,14,22.679Zm9.41-14.335c-3.174,0-5.9,2.208-7.528,5.59h12.9c-.307-3.2-2.3-5.565-5.364-5.565Z" transform="translate(25.417 5.673)" fill="#d82c90"/>
  <path id="パス_25137" data-name="パス 25137" d="M88.672,18.286c-5.954,0-9.448,3.62-10.314,8.921L75.341,45.539H64.205l6.135-37.3H81.006l-.577,3.683-1.11,1.449C81.6,8.619,86.52,7.489,90.2,7.489Z" transform="translate(49.974 5.829)" fill="#d82c90"/>
  <path id="パス_25138" data-name="パス 25138" d="M93.655,48.586C89.621,56.842,87.381,56.647,80,56.647H78.341l1.48-8.783h.314c2.509,0,4.454-1.066,4.894-3.645.326-2.039-.627-7.277-1.117-10.565L80.819,7.933H91.559l2.089,22.378-1.7,1.813L102.35,7.9H113.6Z" transform="translate(60.977 6.145)" fill="#d82c90"/>
  <path id="パス_25139" data-name="パス 25139" d="M106.9,8.4h10.766l-.829,5.144h.132c2.636-3.764,6.493-6.274,10.665-6.274s7.78,1.537,8.878,6.111c3.286-4,6.9-6.111,11.456-6.111,10.665,0,10.389,9.072,9.3,16.249l-3.676,22.184h-11.1l3.571-21.82c.626-4.04-.717-6.424-3.576-6.424-4.681,0-5.8,4.046-6.788,10.119l-2.986,18.124H121.742l3.368-21.086c.71-4.392,0-7.158-2.943-7.158-3.946,0-6.046,2.509-7.307,10.195l-2.975,18.049h-10.99Z" transform="translate(78.531 5.662)" fill="#d82c90"/>
  <path id="パス_25140" data-name="パス 25140" d="M155.112,42.209c-3.395,2.679-5.892,3.325-9.932,3.325-7.91,0-12.032-4.316-12.032-10.6,0-7.221,3.946-11.757,20.364-14.046,1.963-.276,3.928-1.029,4.279-3.325a2.447,2.447,0,0,0-2.678-2.6c-3.055,0-6.9,1.882-7.967,5.019H136.774a14.546,14.546,0,0,1,6.9-10.075,22.471,22.471,0,0,1,11.092-2.622c8.049,0,14.824,1.982,13.137,12.61L165.276,36.08a23.319,23.319,0,0,0,.308,9.6h-9.461a27.437,27.437,0,0,1-1.01-3.494ZM149.19,29.524a4.746,4.746,0,0,0-4.556,4.925c-.068,1.443,1.256,2.76,3.35,2.76,3.765,0,7.2-1.744,8.155-8.871a48.816,48.816,0,0,0-6.95,1.186Z" transform="translate(103.636 5.665)" fill="#d82c90"/>
  <path id="パス_25141" data-name="パス 25141" d="M159.258,14.065h11.017l-6.041,37.3H153.105l6.128-37.3Zm11.719-4.711H160.005L161.549,0h11Z" transform="translate(119.17)" fill="#d82c90"/>
  <path id="パス_25142" data-name="パス 25142" d="M194.753,51.368h-10.6l.715-4.316h-.139a15.054,15.054,0,0,1-10.508,4.122c-8.337,0-13.117-8.156-11.348-19.185,1.549-9.762,7.766-19.053,17.314-19.053a9.157,9.157,0,0,1,8.783,5.163h.132L192.056,0h10.992Zm-20.7-19.624c-.836,4.58-.089,9.906,4.924,9.906,5.195,0,7.259-5.326,8.011-9.549.871-5.056-.057-9.693-4.805-9.693-4.874,0-7.378,4.9-8.131,9.335Z" transform="translate(126.492)" fill="#d82c90"/>
  <path id="パス_25143" data-name="パス 25143" d="M193.736,33.182a4.54,4.54,0,0,0,1.147,4.184,5.649,5.649,0,0,0,3.884,1.3c2.077,0,5.308-1.016,5.8-3.99s-2.9-3.469-4.737-3.99c-6.6-1.713-15.326-1.92-13.676-12.052,1.479-9.047,10.665-11.5,17.259-11.5,7.428,0,14.73,2.371,13.594,12.146H206.778c.251-1.593-.1-2.61-.909-3.243a5.252,5.252,0,0,0-3.37-.947c-1.844,0-4.711.213-5.125,2.823-.583,3.544,6.649,4.191,11.543,5.427,6.624,1.518,7.473,6.807,6.969,9.906C214.263,43.307,205.1,46.62,197.568,46.62c-8.036,0-15.715-2.961-14.39-13.438Z" transform="translate(142.46 5.558)" fill="#d82c90"/>
</svg>
