<svg xmlns="http://www.w3.org/2000/svg" width="36.744" height="34.385" viewBox="0 0 36.744 34.385">
  <path id="パス_25443" data-name="パス 25443" d="M11.988,7.717C5.017,8.034-.642,10.4.059,17.457c.374,3.956.738,8.044,4.065,11,1.1-.652.589-1.249.144-1.859C-1.063,17.322.2,8.071,13.891,9.561a.991.991,0,0,0,.3-.645c-.053-2.249,1.22-3.824,3.119-4.931,3.767-2.2,7.8-3.269,12.231-1.832.769.249,1.7.642,1.945-.445.187-.825-.456-1.357-1.416-1.48C23.955-.614,15.223.657,11.988,7.717" transform="matrix(-0.978, 0.208, -0.208, -0.978, 36.744, 27.832)" fill="#2d4f8c"/>
</svg>
