<svg xmlns="http://www.w3.org/2000/svg" width="36.744" height="34.385" viewBox="0 0 36.744 34.385">
  <path id="パス_25440" data-name="パス 25440" d="M11.987,20.737C5.017,20.42-.642,18.059.059,11,.432,7.041.8,2.953,4.123,0c1.1.652.589,1.249.144,1.859C-1.063,11.132.2,20.383,13.891,18.893a.991.991,0,0,1,.3.645c-.053,2.249,1.22,3.824,3.119,4.931,3.767,2.2,7.8,3.269,12.231,1.832.769-.249,1.7-.642,1.945.445.187.825-.456,1.357-1.416,1.48-6.113.843-14.845-.429-18.081-7.489" transform="matrix(0.978, 0.208, -0.208, 0.978, 5.916, 0)" fill="#2d4f8c"/>
</svg>
