<svg xmlns="http://www.w3.org/2000/svg" xmlns:xlink="http://www.w3.org/1999/xlink" width="312.801" height="91.088" viewBox="0 0 312.801 91.088">
  <defs>
    <clipPath id="clip-path">
      <rect id="長方形_953" data-name="長方形 953" width="82.024" height="87.961" fill="none"/>
    </clipPath>
    <clipPath id="clip-path-2">
      <path id="パス_26181" data-name="パス 26181" d="M149.928,7856.739s1.785-8.959,18.812-14.446c2.918,8.492,4.616,11.54,4.616,11.54l4.7-6.88,4.354,9.786Z" fill="none" stroke="#707070" stroke-width="1"/>
    </clipPath>
    <clipPath id="clip-path-3">
      <rect width="54.414" height="18.414" fill="none"/>
    </clipPath>
    <clipPath id="clip-path-4">
      <path id="パス_26182" data-name="パス 26182" d="M173.9,7835.2l-4.154,5.326,4.154,12.7,4.489-7.805Z" fill="none" stroke="#707070" stroke-width="1"/>
    </clipPath>
    <clipPath id="clip-path-5">
      <rect width="19.414" height="18.414" fill="none"/>
    </clipPath>
    <clipPath id="clip-path-6">
      <path id="パス_26183" data-name="パス 26183" d="M200.922,7856.739c.261-.512.61-7.392.61-7.392l4.137,3s6.924-11.758,7.185-11.061,9.8,4.2,14.937,15.448C216.947,7856.663,200.922,7856.739,200.922,7856.739Z" fill="none" stroke="#707070" stroke-width="1"/>
    </clipPath>
    <clipPath id="clip-path-7">
      <rect width="39.414" height="18.414" fill="none"/>
    </clipPath>
    <clipPath id="clip-path-8">
      <path id="パス_26184" data-name="パス 26184" d="M207.364,7834.532l-5.661,8.475v5.494a52.86,52.86,0,0,0,4.455,3.216c0-.235,6.331-12.093,6.331-12.093Z" fill="none" stroke="#707070" stroke-width="1"/>
    </clipPath>
  </defs>
  <g id="グループ_1403" data-name="グループ 1403" transform="translate(-1117.888 -7961.5)">
    <g id="グループ_1198" data-name="グループ 1198" transform="translate(1348.665 7964.627)">
      <g id="グループ_1198-2" data-name="グループ 1198" clip-path="url(#clip-path)">
        <path id="パス_26124" data-name="パス 26124" d="M93.587,111.472a1.049,1.049,0,0,1-.316-1.561c-.119-.719-.206-1.445-.263-2.172a16.241,16.241,0,0,1-6.907,2.923,15.577,15.577,0,0,1-2.213.176c-.067,2.324-.1,4.648-.146,6.972a3.16,3.16,0,0,1,3.18-.172,2.849,2.849,0,0,1,.86.705c.991-.089,1.98-.2,2.96-.369a19.663,19.663,0,0,0,5.114-1.437,11.912,11.912,0,0,1-.912-1.438,15.563,15.563,0,0,1-1.356-3.627" transform="translate(-40.864 -52.575)" fill="#fff"/>
        <path id="パス_26125" data-name="パス 26125" d="M107.823,106.778a6.754,6.754,0,0,0,.693-.185l.034-.011.006,0c.051-.025.1-.048.154-.074q.154-.077.3-.165c.023-.013.044-.029.067-.042a10.529,10.529,0,0,1-1.59-5q-.631.748-1.335,1.433a26.142,26.142,0,0,0,.373,3.96c.137.036.275.061.411.1l.014,0c.058,0,.116.011.175.015.132.008.265.01.4.005.066,0,.255-.031.3-.035" transform="translate(-51.801 -49.432)" fill="#fff"/>
        <path id="パス_26126" data-name="パス 26126" d="M117.516,93.2a7.323,7.323,0,0,1-.966,6.743c2.648.237,4.6-2.324,5.039-4.893a5.072,5.072,0,0,0-1.017-4.16c-1.087-1.324-3.028-2.7-4.844-2.417a1.578,1.578,0,0,1-.278,0,15.5,15.5,0,0,1-.679,1.748,5.907,5.907,0,0,1,2.745,2.974" transform="translate(-56.007 -43.155)" fill="#fff"/>
        <path id="パス_26127" data-name="パス 26127" d="M114.192,102.073q.088-.16.167-.324c.027-.055.052-.11.078-.165a.158.158,0,0,1,.008-.016v0a8.373,8.373,0,0,0,.391-1.414c.007-.057.029-.21.032-.263.009-.12.014-.239.016-.359a6.054,6.054,0,0,0-.035-.674c-.01-.055-.033-.2-.044-.256q-.038-.172-.087-.342c-.037-.125-.083-.245-.125-.369l-.039-.082c-.009-.018-.016-.037-.026-.055a5.679,5.679,0,0,0-.4-.648l-.021-.02c-.043-.044-.082-.094-.123-.139q-.129-.139-.269-.267c-.06-.054-.121-.107-.183-.159l0,0c-.036-.026-.075-.05-.112-.075a8.2,8.2,0,0,0,.726,5.705c.014-.025.032-.048.046-.073" transform="translate(-55.238 -47.062)" fill="#fff"/>
        <path id="パス_26128" data-name="パス 26128" d="M115.882,99.168c-.014-.042-.06-.127-.037-.075.006.013.022.047.039.082l0-.007" transform="translate(-56.528 -48.348)" fill="#ffe164"/>
        <path id="パス_26129" data-name="パス 26129" d="M141.591,148.918a29.762,29.762,0,0,0-3.229-2.8l-.111.459-2.81,11.571h10.48a1.247,1.247,0,0,1-.05-.165,16.956,16.956,0,0,0-4.28-9.06" transform="translate(-66.093 -71.301)" fill="#fff"/>
        <path id="パス_26130" data-name="パス 26130" d="M115.392,148.909l.4-1.63q1.364-5.617,2.729-11.234c-.761-.5-1.535-.965-2.313-1.4-2.8-1.558-5.873-2.6-8.637-4.218a15.183,15.183,0,0,1-2.722-2.033,19.076,19.076,0,0,1-5.311,1.739c-.2.039-.409.071-.614.107a3.224,3.224,0,0,1,.7,1.4c1.983-.474,3.757,1.468,3.971,3.3a17.885,17.885,0,0,1-.632,5.233,49.147,49.147,0,0,1-1.034,5.151,13.4,13.4,0,0,1-2.092,4.169H115.4a1.149,1.149,0,0,1-.007-.588" transform="translate(-48.271 -62.655)" fill="#fae3f0"/>
        <path id="パス_26131" data-name="パス 26131" d="M47.077,28.727A1.181,1.181,0,0,1,47.49,30.3a1.257,1.257,0,0,1-.613.492.972.972,0,0,1-.963-.079.7.7,0,0,0-.825-.145C44.011,31,43.3,32.821,43.22,33.889a6.893,6.893,0,0,0,.753,3.586,2.573,2.573,0,0,0,.349.49c.065-.018.13-.043.2-.055a3.178,3.178,0,0,1,1.976.248,2.935,2.935,0,0,1,1.591,2.194,1.506,1.506,0,0,1,.348.768c.092.567.128,1.149.2,1.72a18.772,18.772,0,0,0,1.214,5.166,17.321,17.321,0,0,0,7.433,8.469c.306-2.084,1.088-4.045,3.256-4.247a3.055,3.055,0,0,1,3.016,1.729,7.908,7.908,0,0,1,.632,4.192A14.79,14.79,0,0,0,74.087,53.6a17.632,17.632,0,0,0,4.234-6.729c.317-.984.55-2,.792-3.01a2.965,2.965,0,0,1,.769-2.649,2.884,2.884,0,0,1,1.477-.819,3.169,3.169,0,0,1,1.91.223,6.305,6.305,0,0,0,.907-2.32c.376-2.1-.378-4.825-3.092-4.047a1.162,1.162,0,0,1-1.131-1.91,22.443,22.443,0,0,0-1.935-11.927,10.644,10.644,0,0,0-3.47-4.356c-.965-.569-3.108-1.521-4.161-.752a1.018,1.018,0,0,1-1.616-.693,1.189,1.189,0,0,1,.453-1.3c1.59-1.162,4.132-.355,5.733.368A10.994,10.994,0,0,1,79.485,18.3a23.634,23.634,0,0,1,2.809,13.546,4.908,4.908,0,0,1,1.338.279,1.2,1.2,0,0,1-.205-1.305c2.055-4.692,1.43-10.431-.433-15.074a18.175,18.175,0,0,0-4.209-6.39C76.633,7.3,73.414,5.131,70.335,6.2c-.951.331-1.53-.581-1.376-1.355A5.92,5.92,0,0,0,67.2,4.668a.954.954,0,0,1-1.145.319C60.909,3.168,55,6.669,51.474,10.218c-4.191,4.214-5.691,10.366-5.417,16.163a1.028,1.028,0,0,1-1.1,1.11c-.145.293-.306.571-.428.856a2.925,2.925,0,0,1,2.545.381m24.84,5.543a1.153,1.153,0,0,1,0-2.3,1.153,1.153,0,0,1,0,2.3m-1.268-9.722a6.346,6.346,0,0,1,2.684.086,6.025,6.025,0,0,1,2.01.829,1.182,1.182,0,0,1,.413,1.576,1.158,1.158,0,0,1-1.576.413,3.888,3.888,0,0,0-.544-.3,6.508,6.508,0,0,0-1.372-.377,4.889,4.889,0,0,0-.994-.006l-.009,0c-.018,0-.035,0-.054,0l-.026,0h0a1.144,1.144,0,0,1-.537-2.224M58.375,33.085a1.153,1.153,0,0,1,0-2.3,1.153,1.153,0,0,1,0,2.3M60.2,25.518c-.093-.018-.186-.034-.28-.049l-.047-.006c-.182-.02-.366-.033-.549-.041a7.808,7.808,0,0,0-1.072.031c-.066.011-.131.024-.2.038a2.578,2.578,0,0,0-.375.114,1.165,1.165,0,0,1-1.417-.8,1.177,1.177,0,0,1,.116-.888,1.252,1.252,0,0,1,.689-.529,4.578,4.578,0,0,1,1.167-.233,7.3,7.3,0,0,1,1.149-.029,7.675,7.675,0,0,1,2.779.619,1.145,1.145,0,0,1-1.037,2.039l-.045-.015-.1-.037q-.132-.047-.267-.086c-.169-.049-.341-.089-.514-.123M66.36,50.209a1.165,1.165,0,0,1-.689.529,1.177,1.177,0,0,1-.888-.116,1.263,1.263,0,0,1-.525-.681l.092.219a2.207,2.207,0,0,0-.188-.314c-.052-.057-.107-.11-.164-.162a2.519,2.519,0,0,0-.239-.138c-.069-.022-.138-.04-.208-.055a2.144,2.144,0,0,0-.229,0,2.377,2.377,0,0,0-.229.063,2.412,2.412,0,0,0-.251.146,2.289,2.289,0,0,0-.236.237l.139-.179,0,0a1.345,1.345,0,0,1-.677.517,1.162,1.162,0,0,1-.887-.116,1.176,1.176,0,0,1-.53-.688,1.159,1.159,0,0,1,.116-.888,3.321,3.321,0,0,1,1.3-1.1,3.617,3.617,0,0,1,1.1-.3,3.125,3.125,0,0,1,.843.036,3.185,3.185,0,0,1,1.514.719,3.319,3.319,0,0,1,.96,1.375,1.11,1.11,0,0,1-.116.888M64.509,39.823a1.153,1.153,0,0,1,0,2.3,1.153,1.153,0,0,1,0-2.3M50.928,29.778c1.02-2.931.967-6.032,1.507-9.054a17.17,17.17,0,0,1,3.282-7.274,7.847,7.847,0,0,1,5.66-3.3,7.964,7.964,0,0,1,6.11,1.8.988.988,0,0,1,.125,1.425,1.188,1.188,0,0,1-1.755.2,5.986,5.986,0,0,0-7.026-.152,11.3,11.3,0,0,0-2.784,3.812,14.713,14.713,0,0,0-1.483,4.71c-.475,3.545-.537,7.262-2.307,10.475a9.015,9.015,0,0,1-6.99,4.92.94.94,0,0,1-.956-.463,1.246,1.246,0,0,1,.956-1.841,4.99,4.99,0,0,0,1.4-.333,8.1,8.1,0,0,0,4.26-4.932" transform="translate(-21.083 -2.191)" fill="#fff"/>
        <path id="パス_26132" data-name="パス 26132" d="M60.872,107.7a17.381,17.381,0,0,1-2.385,6.9,17.447,17.447,0,0,0,4.955,1.553c.31.058.623.1.934.147.055-2.479.017-4.966.119-7.434.015-.381.026-.821.042-1.29a16.471,16.471,0,0,1-2.3-1.3,18.732,18.732,0,0,1-2.559-2.122,9.606,9.606,0,0,1-.363,2.133,1.274,1.274,0,0,1,1.553,1.411" transform="translate(-28.541 -50.826)" fill="#fff"/>
        <path id="パス_26133" data-name="パス 26133" d="M45.978,130.294a19.493,19.493,0,0,1-7.3-2.25,14.625,14.625,0,0,1-5.439,2.948,84.742,84.742,0,0,0-9.809,3.406c-.835.4-1.661.831-2.462,1.309.271.6.478,1.241.682,1.845,1.278,3.777,2.227,7.683,3.136,11.563a1.29,1.29,0,0,1,.028.21H44.262a91.394,91.394,0,0,1,1.325-15.164c.2-1.283.318-2.573.392-3.868" transform="translate(-10.233 -62.484)" fill="#fae3f0"/>
        <path id="パス_26134" data-name="パス 26134" d="M12.29,149.964c-.331-1.164-.674-2.326-1.07-3.469-.081-.235-.165-.47-.253-.7-.013-.034-.046-.117-.079-.2a12.774,12.774,0,0,0-3.022,3.231c-1.715,2.7-2.577,5.864-3.489,8.9a1.169,1.169,0,0,1-.068.165h10.03q-.135-.568-.273-1.135c-.555-2.272-1.136-4.54-1.776-6.79" transform="translate(-2.103 -71.047)" fill="#fff"/>
        <path id="パス_26135" data-name="パス 26135" d="M98.223,58.153a1.153,1.153,0,0,0,0,2.3,1.153,1.153,0,0,0,0-2.3" transform="translate(-47.389 -28.378)" fill="#323232"/>
        <path id="パス_26136" data-name="パス 26136" d="M83.753,75.8a1.153,1.153,0,0,0,0-2.3,1.153,1.153,0,0,0,0,2.3" transform="translate(-40.327 -35.865)" fill="#323232"/>
        <path id="パス_26137" data-name="パス 26137" d="M71.774,55.839a1.153,1.153,0,0,0,0,2.3,1.153,1.153,0,0,0,0-2.3" transform="translate(-34.481 -27.249)" fill="#323232"/>
        <path id="パス_26138" data-name="パス 26138" d="M78.49,78.9a29.225,29.225,0,0,0-6.6-5.8,59.819,59.819,0,0,0-8.947-4.7,15.03,15.03,0,0,1-6-4.3,11.35,11.35,0,0,1-1.588-3.077,5.209,5.209,0,0,0,1.533-.146,5.726,5.726,0,0,0,1.826-.84A10.676,10.676,0,0,0,62.3,62.473a11.022,11.022,0,0,0,5.238.441,1.183,1.183,0,0,0,1.152-1.152,1.16,1.16,0,0,0-1.152-1.152,9.739,9.739,0,0,1-4.327-.243c-.164-.061-.327-.13-.488-.205a7.466,7.466,0,0,0,4.307-3.972,7.946,7.946,0,0,0-1.514-9.455,9.276,9.276,0,0,0-2.9-1.866,2.813,2.813,0,0,0,.4-.335,3.094,3.094,0,0,0,.857-1.934,2.788,2.788,0,0,0-.138-1.047A8.661,8.661,0,0,0,65.429,37.3a6.223,6.223,0,0,0-1.256-4.951,3.869,3.869,0,0,0-.742-.617.9.9,0,0,0,.9-.6c3.734-8.525.694-20.071-6.7-25.681-2.531-1.92-5.8-3.428-8.99-2.32A1.125,1.125,0,0,0,47.876,4c-.154.775.425,1.686,1.376,1.355,3.08-1.07,6.3,1.1,8.45,3.153a18.178,18.178,0,0,1,4.209,6.39c1.862,4.642,2.487,10.382.433,15.073a1.2,1.2,0,0,0,.2,1.305A4.9,4.9,0,0,0,61.211,31,23.632,23.632,0,0,0,58.4,17.452a10.991,10.991,0,0,0-4.526-4.615c-1.6-.723-4.144-1.53-5.734-.368a1.189,1.189,0,0,0-.453,1.3,1.018,1.018,0,0,0,1.616.693c1.053-.77,3.2.183,4.161.752a10.65,10.65,0,0,1,3.47,4.356,22.445,22.445,0,0,1,1.934,11.927A1.162,1.162,0,0,0,60,33.4c2.714-.778,3.468,1.946,3.092,4.047a6.3,6.3,0,0,1-.908,2.319,3.167,3.167,0,0,0-1.91-.223,2.887,2.887,0,0,0-1.477.819,2.966,2.966,0,0,0-.769,2.65c-.242,1.008-.475,2.026-.792,3.009A17.631,17.631,0,0,1,53,52.754,14.792,14.792,0,0,1,43.1,57.3a7.9,7.9,0,0,0-.632-4.192,3.055,3.055,0,0,0-3.016-1.729c-2.168.2-2.95,2.163-3.255,4.247a17.32,17.32,0,0,1-7.433-8.469,18.772,18.772,0,0,1-1.214-5.166c-.069-.571-.1-1.153-.2-1.72A1.506,1.506,0,0,0,27,39.505a2.934,2.934,0,0,0-1.591-2.193,3.174,3.174,0,0,0-1.976-.248c-.066.012-.13.037-.2.055a2.557,2.557,0,0,1-.349-.49,6.9,6.9,0,0,1-.753-3.586c.082-1.068.791-2.889,1.869-3.317a.7.7,0,0,1,.825.144.973.973,0,0,0,.963.079,1.258,1.258,0,0,0,.613-.493,1.181,1.181,0,0,0-.413-1.576A2.925,2.925,0,0,0,23.45,27.5a3.1,3.1,0,0,0-.467.168c-1.85.867-2.974,3.295-3.138,5.239a8.615,8.615,0,0,0,1.546,5.631c.017.023.039.04.057.063a3.065,3.065,0,0,0,0,2.728,2.947,2.947,0,0,0,2.844,1.582,3.384,3.384,0,0,0,1.026-.269c.019.143.037.287.057.43a1.44,1.44,0,0,0-.211.635c-.247,2.608-.233,5.28-1.025,7.8-.468,1.493-2.353,5.757-4.55,4.317-1.244-.815-2.4,1.18-1.163,1.989a4.016,4.016,0,0,0,4.587-.365,9.843,9.843,0,0,0,2.9-4.114,17.063,17.063,0,0,0,1.107-4.5,20.387,20.387,0,0,0,4.125,5.835A18.656,18.656,0,0,0,33.7,56.8a16.459,16.459,0,0,0,2.3,1.3c-.016.468-.027.909-.042,1.289-.1,2.469-.063,4.956-.118,7.435-.312-.049-.625-.089-.934-.147a17.453,17.453,0,0,1-4.955-1.553,17.39,17.39,0,0,0,2.386-6.9,1.274,1.274,0,0,0-1.553-1.411.912.912,0,0,0-.669.8c-.109.679-.236,1.375-.394,2.066a10.978,10.978,0,0,1-2.4,5.119,12.793,12.793,0,0,1-5.9,3.149c-6.19,1.9-13.4,3.886-17.3,9.5C2.065,80.4,1.075,84.007.053,87.41a1.05,1.05,0,0,0,.046.777,1.19,1.19,0,0,0,2.108,0,1.231,1.231,0,0,0,.068-.165c.912-3.037,1.775-6.2,3.489-8.9a12.776,12.776,0,0,1,3.023-3.231l.079.2c.088.232.171.467.252.7.4,1.143.739,2.305,1.07,3.469.64,2.25,1.221,4.518,1.776,6.79.093.378.183.757.273,1.135h2.346a1.3,1.3,0,0,0-.028-.21C13.646,84.1,12.7,80.19,11.42,76.413c-.2-.6-.411-1.245-.683-1.845.8-.477,1.628-.913,2.462-1.309a84.686,84.686,0,0,1,9.809-3.406,14.613,14.613,0,0,0,5.439-2.948,19.484,19.484,0,0,0,7.3,2.25,38.782,38.782,0,0,1-.392,3.868,91.328,91.328,0,0,0-1.325,15.163h2.3a69.718,69.718,0,0,1,.789-11.89c.315-1.944.671-3.87.829-5.836.16-1.992.192-3.991.212-5.988s.027-4,.138-6c.073-1.311-.074-3.416.811-4.508a.691.691,0,0,1,1.165-.023c.869,1.006.532,2.833.488,4.043-.152,4.141-.156,8.285-.282,12.427A1.163,1.163,0,0,0,42.631,71c.479-.666,1.168-3.349,2.424-2.516.5.33.526,1.127.451,1.781a4.424,4.424,0,0,0-.168,1.036,1.157,1.157,0,0,0,2.263.307,7.563,7.563,0,0,0,.147-.844,1.868,1.868,0,0,1,.087-.263c.182-.352.593-.5,1.048-.112.525.444.4,1.456.177,2.3a6.593,6.593,0,0,0-.3.956,1.153,1.153,0,0,0,2.222.612,9.007,9.007,0,0,0,.263-.873c.2-.478.492-.889.937-.728,1.652.6.7,3.4.476,4.592-.734,3.938-1.113,8.145-4.242,10.942h3.147a13.4,13.4,0,0,0,2.092-4.169,49.147,49.147,0,0,0,1.034-5.151,17.885,17.885,0,0,0,.632-5.233c-.214-1.834-1.989-3.776-3.971-3.3a3.224,3.224,0,0,0-.7-1.4c.2-.036.411-.068.614-.107a19.076,19.076,0,0,0,5.311-1.739,15.184,15.184,0,0,0,2.722,2.033c2.764,1.622,5.835,2.66,8.637,4.218.778.433,1.551.9,2.312,1.4L67.516,85.969l-.4,1.63a1.153,1.153,0,0,0,2.222.613l.006-.025,2.81-11.571q.056-.23.111-.459a29.713,29.713,0,0,1,3.229,2.8,16.957,16.957,0,0,1,4.28,9.06,1.171,1.171,0,0,0,.049.165c.327.967,1.64.794,2.062,0A1.152,1.152,0,0,0,82,87.41,19.823,19.823,0,0,0,78.49,78.9M24.683,40.2c-.027.053-.056.1-.088.154s-.077.081-.118.119-.1.059-.146.086-.11.032-.165.045-.126,0-.189,0q-.071-.017-.141-.038c-.052-.028-.1-.056-.154-.088s-.081-.077-.119-.118-.059-.1-.086-.146-.032-.11-.045-.166a1.788,1.788,0,0,1,0-.189c.011-.048.024-.095.038-.141a1.759,1.759,0,0,1,.088-.154c.037-.041.077-.081.118-.119s.1-.059.146-.086.11-.032.166-.045.126,0,.189,0q.071.017.141.038c.052.027.1.056.154.088s.081.077.119.118.059.1.086.146a1.879,1.879,0,0,1,.05.182c0,.047,0,.094,0,.14s-.029.117-.047.174m35.591,2.14c.011-.047.024-.095.038-.141s.056-.1.088-.154.077-.081.118-.119.1-.059.146-.086.11-.032.166-.045.126,0,.189,0q.071.017.141.038c.053.027.1.056.154.088s.081.077.119.118.059.1.086.146.036.121.05.182,0,.094,0,.14-.029.117-.047.174-.056.1-.088.154-.077.081-.119.119-.1.059-.146.086-.11.032-.166.045-.126,0-.189,0c-.048-.011-.095-.024-.141-.038s-.1-.056-.154-.088-.081-.077-.119-.119-.059-.1-.086-.146-.032-.11-.045-.166,0-.126,0-.189m-.83,4.328a1.635,1.635,0,0,0,.279,0c1.816-.284,3.756,1.092,4.844,2.417a5.073,5.073,0,0,1,1.017,4.159c-.435,2.569-2.392,5.131-5.04,4.893a7.321,7.321,0,0,0,.966-6.743,5.9,5.9,0,0,0-2.745-2.974,15.5,15.5,0,0,0,.679-1.748m-1.262,4.057c.037.026.076.049.113.075l0,0c.062.052.123.1.183.158.093.085.183.175.269.267.042.045.081.1.124.139l.02.02a5.71,5.71,0,0,1,.4.648c.009.017.017.036.026.054-.023-.052.023.033.037.075l0,.008c.042.123.088.244.125.369s.062.227.087.342c.012.053.034.2.044.255a5.917,5.917,0,0,1,.035.674q0,.18-.015.358c0,.053-.026.207-.032.264a8.4,8.4,0,0,1-.392,1.414v0l-.008.017c-.026.055-.051.111-.077.165q-.08.164-.168.324c-.013.026-.031.048-.046.073a8.2,8.2,0,0,1-.726-5.705m-8.305,16.02c-.98.166-1.969.28-2.96.369a2.849,2.849,0,0,0-.86-.705,3.16,3.16,0,0,0-3.18.172c.043-2.324.08-4.649.146-6.972a15.578,15.578,0,0,0,2.213-.176,16.241,16.241,0,0,0,6.907-2.923c.057.728.144,1.453.263,2.172a1.049,1.049,0,0,0,.316,1.561,15.563,15.563,0,0,0,1.356,3.627,11.91,11.91,0,0,0,.912,1.438,19.663,19.663,0,0,1-5.114,1.437m5.273-8.038-.014,0c-.136-.035-.275-.061-.411-.1a26.089,26.089,0,0,1-.373-3.961c.467-.456.913-.933,1.335-1.432a10.514,10.514,0,0,0,1.59,5c-.023.014-.044.03-.067.043-.1.058-.2.114-.3.165l-.154.074-.006,0-.034.011a6.987,6.987,0,0,1-.693.185c-.045,0-.234.032-.3.034a3.955,3.955,0,0,1-.4-.005c-.058,0-.117-.01-.175-.014" transform="translate(0 -1.345)" fill="#323232"/>
        <path id="パス_26139" data-name="パス 26139" d="M115.89,99.191l-.039-.082" transform="translate(-56.534 -48.364)" fill="none" stroke="#323232" stroke-linecap="round" stroke-linejoin="round" stroke-width="0"/>
        <path id="パス_26140" data-name="パス 26140" d="M46.549,24.189c-.273-5.8,1.226-11.948,5.417-16.162C55.495,4.479,61.4.977,66.543,2.8a.954.954,0,0,0,1.145-.318,1.223,1.223,0,0,0-.533-1.9c-4.528-1.6-9.632.389-13.382,2.976a21.286,21.286,0,0,0-8.6,11.985,27.548,27.548,0,0,0-.931,8.654,1.153,1.153,0,0,0,1.208,1.11,1.028,1.028,0,0,0,1.1-1.11" transform="translate(-21.575 0)" fill="#323232"/>
        <path id="パス_26141" data-name="パス 26141" d="M46.185,40.387a1.246,1.246,0,0,0-.955,1.841.939.939,0,0,0,.955.463,9.013,9.013,0,0,0,6.99-4.92c1.771-3.213,1.832-6.929,2.307-10.475a14.713,14.713,0,0,1,1.483-4.71,11.3,11.3,0,0,1,2.783-3.812,5.987,5.987,0,0,1,7.026.152,1.189,1.189,0,0,0,1.755-.2A.988.988,0,0,0,68.4,17.3a7.963,7.963,0,0,0-6.11-1.8,7.844,7.844,0,0,0-5.661,3.3,17.177,17.177,0,0,0-3.282,7.273c-.54,3.022-.486,6.123-1.507,9.054a8.1,8.1,0,0,1-4.26,4.932,4.976,4.976,0,0,1-1.4.333" transform="translate(-21.999 -7.536)" fill="#323232"/>
        <path id="パス_26142" data-name="パス 26142" d="M47.007,74.542c-.027-.05-.055-.1-.086-.146s-.078-.08-.119-.118-.1-.061-.154-.088-.094-.027-.141-.038c-.063,0-.126,0-.189,0s-.111.028-.166.045-.1.055-.146.085-.081.078-.119.119-.061.1-.088.154-.027.094-.038.141c0,.063,0,.126,0,.189s.028.112.045.166.055.1.086.146.078.081.119.119.1.06.154.088.094.027.141.038c.063,0,.126,0,.189,0s.111-.028.165-.045.1-.055.146-.086.08-.078.118-.119.061-.1.088-.154.034-.115.047-.174,0-.094,0-.14-.03-.122-.05-.182" transform="translate(-22.329 -36.183)" fill="#fff"/>
        <path id="パス_26143" data-name="パス 26143" d="M117.845,80.045c.038.041.078.081.119.118s.1.061.154.088.094.027.141.038c.063,0,.126,0,.189,0s.112-.027.166-.045.1-.055.146-.086.081-.078.119-.119.06-.1.088-.154.034-.115.047-.174,0-.094,0-.14a1.8,1.8,0,0,0-.049-.182c-.027-.05-.055-.1-.086-.146s-.078-.081-.119-.118a1.761,1.761,0,0,0-.154-.088c-.047-.015-.094-.027-.141-.038q-.094-.005-.189,0c-.056.013-.112.028-.166.045s-.1.055-.146.086-.08.078-.118.119-.061.1-.088.154-.027.094-.038.141c0,.063,0,.126,0,.189s.028.111.045.165.055.1.085.146" transform="translate(-57.442 -38.549)" fill="#fff"/>
        <path id="パス_26144" data-name="パス 26144" d="M87.282,125.739c.222-1.19,1.176-3.993-.476-4.592-.445-.161-.741.25-.937.728a9.008,9.008,0,0,1-.263.873,1.153,1.153,0,0,1-2.222-.612,6.534,6.534,0,0,1,.3-.956c.22-.841.348-1.853-.178-2.3-.455-.384-.866-.24-1.048.112a1.838,1.838,0,0,0-.086.263,7.659,7.659,0,0,1-.148.844,1.157,1.157,0,0,1-2.263-.306,4.428,4.428,0,0,1,.168-1.036c.075-.653.047-1.451-.451-1.781-1.255-.833-1.945,1.85-2.424,2.516a1.163,1.163,0,0,1-2.147-.582c.126-4.141.131-8.286.282-12.427.045-1.21.381-3.038-.488-4.043a.691.691,0,0,0-1.165.023c-.885,1.093-.738,3.2-.811,4.508-.11,2-.117,4-.138,6s-.052,4-.212,5.988c-.159,1.966-.514,3.892-.829,5.836a69.72,69.72,0,0,0-.789,11.891c0,.125,0,.251,0,.376,0,.025-.005.045-.006.069l11.258.674a.934.934,0,0,1,.4-.742c.154-.121.295-.25.437-.377,3.129-2.8,3.508-7,4.242-10.943" transform="translate(-34.622 -49.839)" fill="#fff"/>
        <path id="パス_26145" data-name="パス 26145" d="M82.1,88.628a3.189,3.189,0,0,0-1.514-.719,3.125,3.125,0,0,0-.843-.036,3.632,3.632,0,0,0-1.1.3,3.321,3.321,0,0,0-1.3,1.1,1.159,1.159,0,0,0-.116.888,1.176,1.176,0,0,0,.529.688,1.164,1.164,0,0,0,.888.116,1.342,1.342,0,0,0,.677-.517l0,0-.139.18a2.191,2.191,0,0,1,.236-.237,2.415,2.415,0,0,1,.251-.147c.075-.025.152-.046.229-.063a2.272,2.272,0,0,1,.229,0c.071.015.14.033.209.055a2.417,2.417,0,0,1,.239.139c.057.051.112.1.164.162a2.2,2.2,0,0,1,.188.313l-.092-.219a1.263,1.263,0,0,0,.525.681,1.153,1.153,0,0,0,1.576-.413A1.11,1.11,0,0,0,83.064,90a3.319,3.319,0,0,0-.96-1.375" transform="translate(-37.671 -42.873)" fill="#323232"/>
        <path id="パス_26146" data-name="パス 26146" d="M96.534,45.788h.022c.018,0,.035,0,.054,0l.009,0a4.853,4.853,0,0,1,.994.007,6.494,6.494,0,0,1,1.371.376,3.86,3.86,0,0,1,.544.3,1.159,1.159,0,0,0,1.576-.413,1.181,1.181,0,0,0-.413-1.576,6.015,6.015,0,0,0-2.01-.83A6.347,6.347,0,0,0,96,43.564a1.144,1.144,0,0,0,.537,2.224" transform="translate(-46.431 -21.207)" fill="#323232"/>
        <path id="パス_26147" data-name="パス 26147" d="M73.39,43.474l.1.038.045.014a1.159,1.159,0,0,0,.762.067,1.152,1.152,0,0,0,.275-2.105,7.681,7.681,0,0,0-2.78-.619,7.234,7.234,0,0,0-1.149.03,4.556,4.556,0,0,0-1.168.233,1.254,1.254,0,0,0-.689.529,1.177,1.177,0,0,0-.116.888,1.165,1.165,0,0,0,1.417.8,2.6,2.6,0,0,1,.375-.113c.065-.015.131-.027.2-.038a7.728,7.728,0,0,1,1.072-.032q.276.012.549.041l.047.006c.093.015.187.03.28.049.173.034.345.074.514.123.09.026.179.054.267.086" transform="translate(-33.491 -19.938)" fill="#323232"/>
      </g>
    </g>
    <g id="グループ_1192" data-name="グループ 1192" transform="translate(1117.888 7961.5)">
      <path id="パス_25847" data-name="パス 25847" d="M588.746,70.309l.067-.024.031-.014c-.033.013-.066.026-.1.038" transform="translate(-526.349 -33.612)" fill="#ffe164"/>
      <path id="パス_25848" data-name="パス 25848" d="M558.518,160.464c-.011-.2-.063-.225-.046-.122.017.047.028.1.047.143,0-.007,0-.015,0-.022" transform="translate(-511.866 -76.667)" fill="#ffe164"/>
      <path id="パス_25849" data-name="パス 25849" d="M558.586,160.732c-.009-.019-.012-.041-.02-.061v.005c.008.021.009.032.02.055" transform="translate(-511.913 -76.852)" fill="#ffe164"/>
      <path id="パス_25850" data-name="パス 25850" d="M593.148,70.4a.282.282,0,0,1-.061-.039l.019.018a.442.442,0,0,0,.042.02" transform="translate(-528.425 -33.657)" fill="#ffe164"/>
      <path id="パス_25851" data-name="パス 25851" d="M556.4,99.909c0-.007-.008-.027-.013-.043l0-.007c-.041-.073-.084-.142-.128-.212-.022-.025-.045-.05-.069-.073s-.05-.047-.075-.07c-.07-.044-.141-.087-.214-.128l-.045-.016c-.045-.014-.092-.02-.138-.031a2.266,2.266,0,0,0-.326,0c-.046.01-.092.017-.138.031l-.043.012-.007,0c-.072.041-.142.084-.212.128-.025.023-.049.045-.073.069s-.047.05-.069.075c-.045.07-.087.141-.128.214-.006.015-.011.03-.016.045-.014.045-.02.092-.03.138a2.264,2.264,0,0,0,0,.326c.01.046.017.093.03.138,0,.007.008.028.012.043l0,.007c.041.073.085.142.128.212.023.025.045.05.069.074s.051.047.076.07c.07.044.141.087.213.127l.046.016c.045.014.092.02.138.031a2.266,2.266,0,0,0,.326,0c.046-.01.093-.017.138-.031l.043-.011.006,0c.073-.041.142-.085.212-.128.025-.023.05-.045.073-.069s.047-.05.07-.076c.044-.07.087-.141.128-.213l.016-.046c.019-.063.029-.128.042-.193,0-.036.007-.071.007-.108s0-.072-.007-.108c-.013-.065-.023-.13-.042-.193" transform="translate(-510.047 -47.509)" fill="#ffe164"/>
      <path id="パス_25852" data-name="パス 25852" d="M593.014,70.31c-.026-.027-.043-.034-.053-.034.021.017.043.03.065.046l-.013-.011" transform="translate(-528.365 -33.614)" fill="#ffe164"/>
      <path id="パス_25853" data-name="パス 25853" d="M501.267,158.96c-.1.032-.192.077-.3.1l-.023.008c-1.47.361-2.091-1.9-.624-2.264,3-.737,2.227-4.081.926-6a43.79,43.79,0,0,0-4.988-5.556,1.084,1.084,0,0,1-.713.57,22.193,22.193,0,0,0-10.072,6.53,26.275,26.275,0,0,0-5.271,8.212H499.18a4.889,4.889,0,0,0,2.087-1.6" transform="translate(-474.432 -69.477)" fill="#fff"/>
      <path id="パス_25854" data-name="パス 25854" d="M520.9,128.027a54.406,54.406,0,0,0-4.474-6.484q-.211-.3-.4-.634c-1.895-3.311-2.134-8.73.863-11.351,1.134-.991,2.8.664,1.66,1.66-1.831,1.6-1.734,4.664-1.208,6.835a6.39,6.39,0,0,0,.476,1.273,2.13,2.13,0,0,0,.79-.406,1.2,1.2,0,0,1,.063-1.583c.124-.133.246-.267.363-.405q.078-.092.154-.186c.067-.083-.032.05.074-.1.19-.262.37-.53.536-.808q.268-.447.49-.918a6.144,6.144,0,0,0,.314-.754,14.362,14.362,0,0,0,.826-4.146,1.342,1.342,0,0,1,.133-.5c-.051-.049-.106-.092-.156-.141a20.326,20.326,0,0,1-3.738-4.975,21.92,21.92,0,0,0-7.568,6.041,11.383,11.383,0,0,0-2.229,8.419c.6,3.271,3.563,5.495,5.727,7.789,1.947,2.063,4.093,4.411,4.331,7.37a5.041,5.041,0,0,1-3.5,5.4,4.888,4.888,0,0,1-2.086,1.6H514.6a8.84,8.84,0,0,0,6.547-5.4,8.963,8.963,0,0,0-.244-7.6" transform="translate(-487.599 -49.939)" fill="#fff"/>
      <path id="パス_25855" data-name="パス 25855" d="M532.919,117.436a13.492,13.492,0,0,1-3.339,7.795,1.182,1.182,0,0,1-1.565.077,1.216,1.216,0,0,1-.095-.077c-.024-.024-.041-.052-.063-.077a2.122,2.122,0,0,1-.79.406c.039.08.069.162.111.241a35.982,35.982,0,0,0,3.1,4.264c.225.31.443.624.656.942.011,0,.022,0,.032.007a22.47,22.47,0,0,0,2.454.783,17.2,17.2,0,0,0,2.3.411,40.425,40.425,0,0,0,6.578.011c0-.406-.014-.814.006-1.219a22.091,22.091,0,0,1,2.758-9.162c.336-.647.691-1.287,1.051-1.924a16.712,16.712,0,0,1-13.187-2.479" transform="translate(-496.846 -56.172)" fill="#fff"/>
      <path id="パス_25856" data-name="パス 25856" d="M545.5,155.137a.878.878,0,0,1-.048-.149,11.636,11.636,0,0,1-.315-1.142,29.237,29.237,0,0,1-.727-4.146,32.76,32.76,0,0,1-9.853-.61,11.229,11.229,0,0,1,.881,3.285,11.89,11.89,0,0,1-4.192,10.025H546.08l-.531-6.619c-.017-.214-.039-.429-.052-.644" transform="translate(-498.844 -71.313)" fill="#fae3f0"/>
      <path id="パス_25857" data-name="パス 25857" d="M583.866,145.376a14.558,14.558,0,0,0,.11,4.467c.2,1.572.5,3.134.835,4.683.284,1.317.6,2.628.947,3.932H606.35a19.354,19.354,0,0,0-2.564-5.981,18.846,18.846,0,0,0-4.587-4.69,14.627,14.627,0,0,0-3.77-2.239l-7.494-2.622a1.215,1.215,0,0,1-.707-1.639,6.071,6.071,0,0,1-.782-.436c-.087.133-.171.266-.263.4-.934,1.3-2.007,2.511-2.317,4.129" transform="translate(-523.95 -67.372)" fill="#fff"/>
      <path id="パス_25858" data-name="パス 25858" d="M557.86,58c.034-.149.06-.3.087-.45v-.009c0-.07.014-.14.019-.211a7.2,7.2,0,0,0,.014-.8q-.008-.216-.028-.432c0-.017-.013-.126-.018-.178,0-.023-.006-.045-.007-.05-.047-.287-.1-.572-.177-.855q-.1-.367-.222-.726c-.041-.117-.088-.232-.131-.347-.024-.054-.047-.108-.073-.161a4.235,4.235,0,0,0-.311-.553c-.007-.01-.02-.031-.031-.05l-.006,0c-.066-.054-.119-.135-.18-.2l-.075-.069c-.081-.038-.1-.066-.085-.064a.5.5,0,0,0-.041-.031c-.065-.041-.132-.076-.2-.113l-.006,0c-.128-.039-.254-.078-.386-.108-.052,0-.1-.009-.157-.01-.133,0-.265,0-.4.01l-.022,0-.094.016a4.606,4.606,0,0,0-.644.176l-.055.021c.063-.021.068-.019-.13.052l-.005,0c-.054.026-.107.052-.16.081a1.184,1.184,0,0,1-1.51-.3,1.076,1.076,0,0,1-.142-.115,1.273,1.273,0,0,1-.344-.83c-.045-.43-.091-.86-.143-1.289a11.618,11.618,0,0,0-.476-2.01,13.988,13.988,0,0,1-4.657-2.451,12.761,12.761,0,0,1-1.675.129,1.025,1.025,0,0,1-1.074.755c-6.754-.222-11.561-6.933-13.041-12.957,0-.014,0-.026-.005-.039a6.8,6.8,0,0,0-.835.4,1.056,1.056,0,0,1-.561.875c-5.529,3.208-7.833,10.09-7.462,16.207.074,1.22-1.6,1.52-2.187.593.068.106.114.172.152.221.1.08.113.15,0,0a.439.439,0,0,0-.16-.084c-.137-.038-.272-.109-.411-.151a2.085,2.085,0,0,0-1.031-.1,2.256,2.256,0,0,0-1.4,1.364,5.342,5.342,0,0,0,.023,3.887,5.665,5.665,0,0,0,1.508,2.067,3.343,3.343,0,0,1,1.3.194,3.689,3.689,0,0,1,2.435,3.421,1.123,1.123,0,0,1-.025.246,3.735,3.735,0,0,1-.3,1.193c.03.206.061.411.1.612a15.877,15.877,0,0,0,1.659,4.582,16.216,16.216,0,0,0,7.649,7.459,14.26,14.26,0,0,0,10.909.241,1.182,1.182,0,0,1,.328-.075,33.923,33.923,0,0,0,1.828-3.779c1-2.51,1.079-5.121,1.739-7.7.509-1.993,1.536-5.11,4.078-4.851.333-1.418.656-2.929,2.037-3.653a2.987,2.987,0,0,1,3.221.209,2.847,2.847,0,0,1,.9,1.518,2.668,2.668,0,0,1,1.243.2A1.306,1.306,0,0,1,557.86,58m-20.112,2.182a1.174,1.174,0,0,1,0,2.348,1.174,1.174,0,0,1,0-2.348m-6.9-6.691a1.174,1.174,0,0,1,0-2.348,1.174,1.174,0,0,1,0,2.348m1.785-9.309-.546.312-3.876,2.217a1.174,1.174,0,1,1-1.185-2.027l.546-.312,3.876-2.217a1.174,1.174,0,0,1,1.185,2.027m8.127,24.948a3.248,3.248,0,0,1-2.541,2.926,3.452,3.452,0,0,1-2.119-.264,3.222,3.222,0,0,1-1.8-3.108,3.449,3.449,0,0,1,.8-1.934,3.232,3.232,0,0,1,3.5-.932,3.305,3.305,0,0,1,2.192,3.067,1.114,1.114,0,0,1-.025.246m3.676-15.639a1.174,1.174,0,0,1,0-2.348,1.174,1.174,0,0,1,0,2.348" transform="translate(-492.04 -16.185)" fill="#fff"/>
      <path id="パス_25859" data-name="パス 25859" d="M534.659,24.592a17.483,17.483,0,0,0,4.018,7.648,9.809,9.809,0,0,0,6.759,3.585,1.192,1.192,0,0,1,1.075,1.59v0a12.753,12.753,0,0,0,1.675-.129c-.035-.028-.074-.052-.109-.08a19.854,19.854,0,0,1-6.135-9.059,1.185,1.185,0,0,1,.82-1.444,1.2,1.2,0,0,1,1.444.82c1.53,4.475,4.892,8.84,9.711,10.086a1.057,1.057,0,0,1,.737.6,1.419,1.419,0,0,1,.347.558,13.026,13.026,0,0,1,.66,2.962,4.917,4.917,0,0,1,1.184-.138,22.948,22.948,0,0,0,.579-8.864,22.169,22.169,0,0,0-2.7-8.728,15.948,15.948,0,0,0-5.9-5.644c-4.539-2.619-10.845-3.911-15.484-.837a1.029,1.029,0,0,1-1.512-.353,7.522,7.522,0,0,1-1.132.456,1.3,1.3,0,0,1-1.047,1.734c-4,.467-6.9,4.359-8.481,7.731a17.858,17.858,0,0,0-.8,13.7,5.146,5.146,0,0,1,.791.057c.13-6.42,2.969-13.119,8.651-16.416a1.121,1.121,0,0,1,1.614.528,1.257,1.257,0,0,1,.132.624,6.8,6.8,0,0,1,.835-.4c-.31-1.44,1.912-2.038,2.269-.585" transform="translate(-493.158 -7.524)" fill="#fff"/>
      <path id="パス_25860" data-name="パス 25860" d="M570.507,117.028a9.343,9.343,0,0,1,1.942-4.2,25.593,25.593,0,0,0,2.773-4.88c.723-1.593,1.75-3,2.465-4.592.671-1.494,1.266-3.007,1.993-4.476a10.517,10.517,0,0,0,.671-5.654c0-.058,0-.115-.006-.173q-.427,2.948-1.088,5.854c-.334,1.475-2.6.847-2.264-.624a65.755,65.755,0,0,0,1.376-8.253c.125-1.308.213-2.623.229-3.937,0-.32-.029-2.449-.833-1.939-.01.007-.021.009-.031.016a110.933,110.933,0,0,1-1.5,14.36c-.256,1.488-2.518.853-2.264-.624a108.563,108.563,0,0,0,1.277-11.564c.065-1.014.136-2.028.182-3.042.024-.519.1-1.675-.774-1.2-.412.222-.6.882-.7,1.318-.124.528-.236,1.05-.376,1.571.642,1.191.422,2.942.23,4.241-.384,2.6-.834,5.193-1.23,7.792-.227,1.491-2.489.854-2.264-.624.4-2.653.871-5.3,1.254-7.954.065-.452.427-1.986-.082-2.342-.827-.579-1.448,1.8-1.568,2.2-.689,2.277-.738,4.677-1.422,6.96a38.031,38.031,0,0,1-3.611,7.694,33,33,0,0,0-3.741,8.152,19.677,19.677,0,0,0-.084,8.026c.214,1.228.694,2.435.85,3.663.114.9.146,1.822.219,2.728l.384,4.782h9.8c-.352-1.38-.68-2.765-.964-4.158-.595-2.917-1.285-6.134-.841-9.116" transform="translate(-512.928 -39.215)" fill="#fff"/>
      <path id="パス_25861" data-name="パス 25861" d="M540.1,49.643l-3.876,2.217-.546.312a1.174,1.174,0,1,0,1.185,2.027l3.876-2.217.546-.312a1.174,1.174,0,0,0-1.185-2.027" transform="translate(-500.687 -23.671)" fill="#323232"/>
      <path id="パス_25862" data-name="パス 25862" d="M568.546,67.016a1.174,1.174,0,0,0,0,2.348,1.174,1.174,0,0,0,0-2.348" transform="translate(-516.144 -32.055)" fill="#323232"/>
      <path id="パス_25863" data-name="パス 25863" d="M555.716,84.342a1.174,1.174,0,0,0,0,2.348,1.174,1.174,0,0,0,0-2.348" transform="translate(-510.008 -40.343)" fill="#323232"/>
      <path id="パス_25864" data-name="パス 25864" d="M542.5,67.016a1.174,1.174,0,0,0,0,2.348,1.174,1.174,0,0,0,0-2.348" transform="translate(-503.685 -32.055)" fill="#323232"/>
      <path id="パス_25865" data-name="パス 25865" d="M557.356,45.53a1.027,1.027,0,0,0,1.075-.757,1.191,1.191,0,0,0-1.075-1.59A9.812,9.812,0,0,1,550.6,39.6a17.479,17.479,0,0,1-4.018-7.648c-.36-1.466-2.625-.846-2.264.624,1.479,6.024,6.287,12.735,13.041,12.957" transform="translate(-505.078 -14.882)" fill="#323232"/>
      <path id="パス_25866" data-name="パス 25866" d="M523.459,68.907c.113.15.1.08,0,0" transform="translate(-495.121 -32.96)" fill="#323232"/>
      <path id="パス_25867" data-name="パス 25867" d="M593.04,70.34l-.019-.018c-.022-.016-.044-.03-.065-.046-.017,0,0,.026.085.064" transform="translate(-528.36 -33.614)" fill="#323232"/>
      <path id="パス_25868" data-name="パス 25868" d="M490.208,70.367a10.616,10.616,0,0,0,2.18,9.045c.032.039.067.076.1.115a24.554,24.554,0,0,0-10.954,7.083,28.524,28.524,0,0,0-6.1,9.873h2.489a26.288,26.288,0,0,1,5.271-8.213,22.19,22.19,0,0,1,10.072-6.529,1.085,1.085,0,0,0,.713-.57,43.708,43.708,0,0,1,4.988,5.555c1.3,1.92,2.072,5.264-.925,6-1.466.36-.846,2.625.624,2.264l.023-.008a5.046,5.046,0,0,0,3.794-5.5c-.238-2.959-2.385-5.307-4.332-7.37-2.164-2.294-5.131-4.518-5.727-7.789a11.388,11.388,0,0,1,2.229-8.419,21.921,21.921,0,0,1,7.568-6.041,20.315,20.315,0,0,0,3.738,4.975c.05.049.1.093.156.141a1.343,1.343,0,0,0-.133.5,14.36,14.36,0,0,1-.826,4.146,6.154,6.154,0,0,1-.314.754q-.223.47-.49.918c-.166.278-.347.545-.537.808-.106.147-.007.014-.074.1q-.076.094-.154.186c-.117.139-.239.273-.363.405a1.2,1.2,0,0,0,0,1.66,1.131,1.131,0,0,0,.095.077,1.182,1.182,0,0,0,1.565-.077,13.5,13.5,0,0,0,3.339-7.795,16.712,16.712,0,0,0,13.188,2.479c-.359.637-.714,1.277-1.051,1.924a22.084,22.084,0,0,0-2.758,9.162c-.02.4-.009.812-.006,1.219a40.427,40.427,0,0,1-6.578-.011,17.21,17.21,0,0,1-2.3-.411,22.5,22.5,0,0,1-2.453-.783c-.01,0-.022,0-.032-.007q-.319-.477-.656-.942a36,36,0,0,1-3.1-4.265,6.687,6.687,0,0,1-.586-1.514c-.526-2.171-.623-5.233,1.208-6.835,1.139-1-.526-2.651-1.66-1.66-3,2.621-2.758,8.041-.863,11.351q.19.332.4.634a54.406,54.406,0,0,1,4.474,6.484,8.963,8.963,0,0,1,.244,7.6,8.84,8.84,0,0,1-6.547,5.4h5.4a11.892,11.892,0,0,0,4.192-10.025,11.231,11.231,0,0,0-.881-3.285,32.793,32.793,0,0,0,9.853.61,29.237,29.237,0,0,0,.727,4.146,11.718,11.718,0,0,0,.315,1.142c-.017-.1.034-.074.046.122l0,.022c.008.019.011.042.02.061-.011-.023-.012-.034-.02-.055.013.214.034.429.052.644q.265,3.309.531,6.619h2.348l-.383-4.783c-.073-.906-.1-1.826-.219-2.728-.155-1.228-.635-2.435-.85-3.663a19.665,19.665,0,0,1,.084-8.026,33,33,0,0,1,3.74-8.153,38.052,38.052,0,0,0,3.612-7.694c.684-2.283.732-4.683,1.421-6.96.12-.4.741-2.778,1.568-2.2.51.356.148,1.891.083,2.342-.383,2.656-.85,5.3-1.254,7.954-.225,1.478,2.036,2.115,2.264.624.4-2.6.846-5.191,1.23-7.792.191-1.3.411-3.05-.231-4.242.14-.52.252-1.043.377-1.57.1-.437.287-1.1.7-1.318.873-.471.8.684.774,1.2-.047,1.015-.118,2.029-.183,3.043a108.552,108.552,0,0,1-1.276,11.563c-.255,1.478,2.007,2.112,2.264.624a111.027,111.027,0,0,0,1.5-14.361c.01-.006.02-.009.031-.015.8-.51.837,1.618.833,1.939-.015,1.314-.1,2.629-.229,3.937a65.855,65.855,0,0,1-1.375,8.254c-.333,1.471,1.929,2.1,2.264.624q.657-2.9,1.089-5.853c0,.057,0,.115.005.173a10.513,10.513,0,0,1-.671,5.654c-.726,1.468-1.321,2.982-1.993,4.476-.715,1.591-1.742,3-2.464,4.591a25.579,25.579,0,0,1-2.774,4.88,9.356,9.356,0,0,0-1.942,4.2c-.444,2.982.246,6.2.841,9.116.284,1.393.612,2.778.964,4.158h2.425c-.343-1.3-.664-2.616-.947-3.933-.333-1.549-.636-3.11-.836-4.683a14.588,14.588,0,0,1-.11-4.467c.31-1.618,1.383-2.831,2.317-4.129.093-.129.177-.263.264-.395,1.052-1.607,1.664-3.411,2.574-5.1.4-.738.9-1.411,1.288-2.154.411-.789.744-1.62,1.086-2.44a42.866,42.866,0,0,0,2.048-4.757c.593-2.126.184-4.154.274-6.3.068-1.617.457-3.712-1.1-4.764a1.069,1.069,0,0,0-.654-.2,6.8,6.8,0,0,0-.5-3.659,3.031,3.031,0,0,0-.661-.817,1.166,1.166,0,0,0,1.234-.848,8.907,8.907,0,0,0,0-3.755,7.653,7.653,0,0,0-1.413-3.264,3.445,3.445,0,0,0-.737-.675,24.089,24.089,0,0,0,.747-8.829,26.175,26.175,0,0,0-2.7-9.934c-2.937-5.613-9.154-9.183-15.321-9.958a14.232,14.232,0,0,0-9.662,1.942,1.191,1.191,0,0,0-.328,1.674,1.029,1.029,0,0,0,1.512.353c4.639-3.074,10.946-1.783,15.484.837a15.945,15.945,0,0,1,5.9,5.644,22.169,22.169,0,0,1,2.7,8.728,22.95,22.95,0,0,1-.579,8.864,4.89,4.89,0,0,0-1.184.138,13.026,13.026,0,0,0-.66-2.962,1.419,1.419,0,0,0-.347-.558,1.055,1.055,0,0,0-.737-.6c-4.819-1.246-8.18-5.611-9.711-10.086a1.2,1.2,0,0,0-1.443-.82,1.185,1.185,0,0,0-.82,1.444,19.856,19.856,0,0,0,6.135,9.059,14.034,14.034,0,0,0,4.766,2.531,11.524,11.524,0,0,1,.476,2.01c.053.429.1.859.144,1.289a1.27,1.27,0,0,0,.344.83,1.078,1.078,0,0,0,.142.115,1.185,1.185,0,0,0,1.51.3c.052-.029.106-.056.16-.081l.005,0-.068.024.1-.038-.031.014c.2-.071.193-.073.13-.052L534.8,42a4.642,4.642,0,0,1,.644-.176l.094-.016.022,0c.133-.008.264-.015.4-.01.052,0,.1.007.156.01.131.03.257.069.385.108l.006,0c.067.038.135.073.2.113.013.008.027.02.041.031a.1.1,0,0,1,.053.035l.013.011a.3.3,0,0,0,.061.039c-.019-.007-.027-.014-.042-.02.025.023.051.045.075.069.062.061.114.141.181.2,0,0,0,0,.006,0,.012.019.024.04.031.05a4.235,4.235,0,0,1,.311.553c.025.053.049.107.073.161.043.116.09.231.131.348.084.238.158.481.222.726.074.282.13.567.178.854,0,0,0,.027.007.05.005.052.017.161.018.178q.02.216.028.432a7.459,7.459,0,0,1-.014.8c-.005.07-.015.14-.019.211v.009c-.027.15-.053.3-.087.45a1.309,1.309,0,0,0,.143.927,2.666,2.666,0,0,0-1.243-.2,2.845,2.845,0,0,0-.9-1.518,2.987,2.987,0,0,0-3.221-.209c-1.381.724-1.7,2.235-2.037,3.653-2.541-.26-3.568,2.858-4.078,4.85-.66,2.58-.741,5.191-1.738,7.7a34.009,34.009,0,0,1-1.828,3.779,1.167,1.167,0,0,0-.329.075,14.26,14.26,0,0,1-10.909-.241,16.219,16.219,0,0,1-7.649-7.459,15.894,15.894,0,0,1-1.659-4.582c-.036-.2-.066-.407-.1-.612a3.734,3.734,0,0,0,.3-1.193,1.121,1.121,0,0,0,.025-.246,3.689,3.689,0,0,0-2.435-3.421,3.35,3.35,0,0,0-1.3-.195,5.66,5.66,0,0,1-1.509-2.066,5.347,5.347,0,0,1-.023-3.887,2.257,2.257,0,0,1,1.4-1.364,2.086,2.086,0,0,1,1.031.1c.139.042.273.113.411.15a.45.45,0,0,1,.16.085c-.037-.049-.084-.115-.151-.221.587.927,2.262.628,2.187-.593-.371-6.116,1.932-13,7.461-16.207a1.094,1.094,0,0,0,.429-1.5A1.121,1.121,0,0,0,508.8,22.3c-5.682,3.3-8.521,10-8.651,16.416a5.146,5.146,0,0,0-.791-.057,17.859,17.859,0,0,1,.8-13.7c1.576-3.372,4.477-7.264,8.481-7.731a1.305,1.305,0,0,0,1.048-1.734.918.918,0,0,0-1.048-.614c-4.809.561-8.388,4.5-10.4,8.66-2.335,4.839-3.066,10.644-1.144,15.746a5.764,5.764,0,0,0-2.294,4.65,7.605,7.605,0,0,0,1.911,5.3,3.1,3.1,0,0,0-.322.329,3.62,3.62,0,0,0,3.484,5.919,3.219,3.219,0,0,0,.549-.155c.11.454.236.9.391,1.349.126.362.262.72.407,1.075a1.221,1.221,0,0,0-.148.062c-5,2.7-9.8,6.664-10.867,12.554m10.2-18.43c0,.049,0,.1-.006.146-.027.084-.037.187-.061.268-.009.029-.02.061-.033.092-.056.1-.111.193-.172.287-.027.029-.054.061-.081.089s-.06.06-.091.089c-.006.005-.011.008-.017.013l.058-.033c-.092.049-.176.123-.268.175l-.107.056c-.094.028-.187.057-.284.079.019,0,.03,0,.054,0a.661.661,0,0,0-.134.01.305.305,0,0,0,.053,0l.027-.008c-.124-.007-.149.011-.105.014h-.009c-.1,0-.194,0-.291-.008-.054-.012-.108-.023-.162-.039s-.078-.025-.117-.038c.011.008.019.011.031.021a.486.486,0,0,0-.043-.025l-.058-.019c-.065-.021-.067-.041-.031-.033a1.4,1.4,0,0,1-.151-.077c-.025-.015-.048-.032-.072-.049-.052-.052-.109-.118-.167-.179.028.042.011.056-.031-.007L498.1,52.7c-.009-.008-.019-.02-.028-.027.011.008.015.014.025.021-.021-.032-.043-.063-.063-.1s-.043-.074-.063-.112l0-.005c0,.019.007.026.012.051a.721.721,0,0,0-.03-.1.331.331,0,0,0,.018.045c-.026-.117-.039-.129-.031-.089a1.531,1.531,0,0,1-.057-.17c-.009-.038-.017-.077-.026-.115h0a2.512,2.512,0,0,1,0-.307v0l-.013.049c.011-.042.016-.088.025-.13l0-.014a.589.589,0,0,0-.017.1c.034-.129.034-.15.025-.123.02-.082.045-.163.071-.243.029-.052.054-.1.085-.156.019-.032.04-.063.06-.094a.207.207,0,0,1-.022.018.283.283,0,0,0,.028-.028l.02-.031c.04-.065.071-.075.066-.054a1.347,1.347,0,0,1,.1-.118c.014-.013.053-.042.079-.062.087-.054.2-.1.282-.157.041-.014.082-.029.124-.04s.167-.033.219-.045.111,0,.166,0,.092,0,.137.007c.113.028.222.058.332.093.052.029.108.055.16.086q.055.033.108.069l.013.008,0,0c.075.074.149.148.223.223.028.042.056.083.082.126s.056.1.084.154c.031.1.058.2.084.3,0-.021,0-.035,0-.064a.577.577,0,0,0,0,.079c0,.012.007.023.009.035.013.052,0,.079,0,.07,0,.029.006.059.007.087" transform="translate(-472.149 -5.396)" fill="#323232"/>
      <path id="パス_25869" data-name="パス 25869" d="M518.828,90.63c.009.006.019.019.028.027l0-.007c-.009-.007-.014-.013-.025-.02" transform="translate(-492.905 -43.35)" fill="#fff"/>
      <path id="パス_25870" data-name="パス 25870" d="M521.112,91.644a.664.664,0,0,1,.135-.01c-.025,0-.035,0-.054,0l-.027.008a.265.265,0,0,1-.053,0" transform="translate(-493.998 -43.829)" fill="#fff"/>
      <path id="パス_25871" data-name="パス 25871" d="M518.625,90.271c0-.025-.008-.032-.012-.051a.4.4,0,0,1-.018-.045.758.758,0,0,1,.03.1" transform="translate(-492.794 -43.132)" fill="#fff"/>
      <path id="パス_25872" data-name="パス 25872" d="M518.9,87.626l-.02.031a.742.742,0,0,0,.087-.086c0-.02-.026-.01-.066.054" transform="translate(-492.931 -41.883)" fill="#fff"/>
      <path id="パス_25873" data-name="パス 25873" d="M519.974,91.516c-.012-.01-.02-.013-.031-.021l-.011,0a.482.482,0,0,1,.043.025" transform="translate(-493.433 -43.762)" fill="#fff"/>
      <path id="パス_25874" data-name="パス 25874" d="M519.77,91.423l.058.019a.773.773,0,0,0-.089-.052c-.036-.008-.034.012.031.033" transform="translate(-493.33 -43.713)" fill="#fff"/>
      <path id="パス_25875" data-name="パス 25875" d="M518.92,90.741c.042.064.058.05.031.007a.816.816,0,0,0-.069-.066l.039.059" transform="translate(-492.931 -43.375)" fill="#fff"/>
      <path id="パス_25876" data-name="パス 25876" d="M518.407,88.774c-.009.043-.014.089-.025.13.005-.02.008-.033.013-.049a.551.551,0,0,1,.016-.1c0,.005,0,.01,0,.015" transform="translate(-492.692 -42.455)" fill="#fff"/>
      <path id="パス_25877" data-name="パス 25877" d="M518.828,87.772c.01-.007.013-.011.022-.018l.006-.009a.358.358,0,0,1-.028.028" transform="translate(-492.905 -41.97)" fill="#fff"/>
      <path id="パス_25878" data-name="パス 25878" d="M520.854,87.533c-.028-.052-.054-.1-.084-.154s-.055-.085-.082-.126c-.074-.075-.149-.149-.223-.223l0,0-.013-.008c-.035-.024-.071-.047-.108-.069-.052-.031-.107-.056-.16-.086-.111-.034-.22-.065-.332-.093-.045,0-.091-.006-.137-.006s-.111,0-.166,0-.181.034-.219.045-.083.026-.124.04c-.081.059-.2.1-.282.157-.026.02-.065.05-.079.062a1.426,1.426,0,0,0-.1.118c0,.016-.032.05-.092.095-.021.031-.042.062-.06.094-.03.051-.056.1-.085.156-.026.08-.051.161-.071.243.009-.027.009-.006-.024.123v0a2.518,2.518,0,0,0,0,.307h0c.008.039.016.077.026.115a1.754,1.754,0,0,0,.057.17c-.007-.04.005-.028.031.089l0,.005c.02.038.041.076.063.112s.041.064.063.1a.337.337,0,0,1,.073.072c.058.062.115.128.167.179.024.017.047.033.072.049a1.4,1.4,0,0,0,.151.077.331.331,0,0,1,.1.056c.039.013.077.027.117.038s.108.027.162.039c.1.005.193.012.291.008h.009c-.044,0-.019-.021.105-.015.1-.022.189-.051.284-.079.036-.019.072-.037.107-.056.092-.052.176-.126.269-.175-.03.016-.039.022-.058.033-.075.06-.144.08,0,0l.017-.013c.031-.029.062-.058.091-.089s.054-.059.081-.089c.061-.094.116-.189.172-.287.013-.032.023-.064.033-.092.024-.08.034-.184.061-.268,0-.049.005-.1.006-.146,0-.028,0-.058-.007-.087a.276.276,0,0,1-.01-.121c-.026-.1-.053-.2-.084-.3" transform="translate(-492.7 -41.501)" fill="#fff"/>
      <path id="パス_25879" data-name="パス 25879" d="M523.285,88.88c0-.011-.007-.022-.009-.034,0,.035,0,.069,0,.1.009.009.017-.019,0-.071" transform="translate(-495.033 -42.497)" fill="#fff"/>
      <path id="パス_25880" data-name="パス 25880" d="M523.269,88.693a.574.574,0,0,0,0,.064l0,.016a.5.5,0,0,1,0-.079" transform="translate(-495.029 -42.424)" fill="#fff"/>
      <path id="パス_25881" data-name="パス 25881" d="M519.85,91.444l.011,0a.332.332,0,0,0-.1-.055.865.865,0,0,1,.089.052" transform="translate(-493.352 -43.715)" fill="#323232"/>
      <path id="パス_25882" data-name="パス 25882" d="M518.962,87.58a.7.7,0,0,1-.087.086l-.006.009c.06-.045.089-.08.092-.095" transform="translate(-492.926 -41.891)" fill="#323232"/>
      <path id="パス_25883" data-name="パス 25883" d="M518.878,90.676a.728.728,0,0,1,.069.066.323.323,0,0,0-.073-.072l0,.006" transform="translate(-492.927 -43.369)" fill="#323232"/>
      <path id="パス_25884" data-name="パス 25884" d="M522.34,91.1c-.143.081-.074.061,0,0" transform="translate(-494.546 -43.574)" fill="#323232"/>
      <path id="パス_25885" data-name="パス 25885" d="M523.267,88.815a.288.288,0,0,0,.01.121c0-.035,0-.069-.006-.1l0-.016" transform="translate(-495.028 -42.482)" fill="#323232"/>
      <path id="パス_25886" data-name="パス 25886" d="M591.056,142.689l7.494,2.622a14.63,14.63,0,0,1,3.77,2.239,18.859,18.859,0,0,1,4.587,4.69,19.372,19.372,0,0,1,2.564,5.981h2.4a20.949,20.949,0,0,0-7.046-11.679,18.631,18.631,0,0,0-5-3.266c-1.4-.509-2.818-.986-4.227-1.478l-3.922-1.372a1,1,0,0,0-1.331.624,1.215,1.215,0,0,0,.707,1.639" transform="translate(-527.07 -67.134)" fill="#323232"/>
      <path id="パス_25887" data-name="パス 25887" d="M473.428,13.38a4.22,4.22,0,0,0,.773.01,6,6,0,0,0,3.091,2.577,6.5,6.5,0,0,0,2.752.359,5.91,5.91,0,0,0,7.42,2.109,1.182,1.182,0,0,0,.421-1.606,1.2,1.2,0,0,0-1.606-.422,3.51,3.51,0,0,1-3.81-.778,5.2,5.2,0,0,0,1.22-.885,3.952,3.952,0,0,0,1.184-3.261,2.533,2.533,0,0,0-2.439-2.189c-2.63-.071-3.457,2.477-3.18,4.714a4.242,4.242,0,0,1-1.338-.306,3.52,3.52,0,0,1-1.436-1.117,8.969,8.969,0,0,0,2.766-3.157,4.112,4.112,0,0,0,.456-3.855,2.574,2.574,0,0,0-3.326-1.193c-2.268.91-3.323,3.793-3.123,6.078.016.175.051.343.078.514-1.65-.485-2.074-2.488-1.706-3.962.507-2.025,2.032-3.549,3.443-5,1.055-1.082-.6-2.744-1.659-1.66-2.031,2.085-4.068,4.38-4.261,7.428-.164,2.595,1.569,5.3,4.28,5.6m8.66-1.678c.409-.186.519.044.461.428a2.052,2.052,0,0,1-1.052,1.36l-.013.007c-.051-.588.013-1.526.6-1.795m-5.394-4.771c.3-.288.87-.721.984-.079.128.725-.589,1.669-.972,2.23a6.318,6.318,0,0,1-1.119,1.26,4.039,4.039,0,0,1,1.106-3.411" transform="translate(-469.137 0)" fill="#323232"/>
      <path id="パス_25888" data-name="パス 25888" d="M558.523,160.539c-.019-.045-.03-.1-.047-.143a.814.814,0,0,0,.048.149v-.005" transform="translate(-511.87 -76.721)" fill="#323232"/>
      <path id="パス_25889" data-name="パス 25889" d="M554.439,94.975a3.232,3.232,0,0,0-3.5.932,3.449,3.449,0,0,0-.8,1.934,3.222,3.222,0,0,0,1.8,3.108,3.447,3.447,0,0,0,2.118.265,3.248,3.248,0,0,0,2.541-2.926,1.1,1.1,0,0,0,.025-.246,3.306,3.306,0,0,0-2.191-3.067m-.164,3.175c-.013.065-.023.13-.043.193,0,.016-.01.03-.016.046-.041.073-.083.143-.128.213-.023.026-.046.051-.07.076s-.048.046-.073.069c-.07.044-.14.087-.212.128l-.007,0-.043.011c-.045.014-.092.02-.138.031a2.259,2.259,0,0,1-.326,0c-.046-.01-.093-.017-.138-.031l-.046-.016c-.073-.041-.143-.083-.213-.128-.026-.022-.052-.045-.076-.069s-.046-.049-.069-.074c-.044-.07-.087-.139-.128-.212l0-.007c0-.015-.009-.035-.012-.043-.014-.045-.02-.092-.03-.138a2.246,2.246,0,0,1,0-.326c.01-.046.017-.093.03-.138.005-.016.01-.03.016-.045.041-.073.083-.143.128-.214.022-.026.045-.051.069-.075s.049-.046.074-.069c.07-.044.139-.088.212-.128l.007,0,.043-.012c.045-.014.092-.02.138-.031a2.259,2.259,0,0,1,.326,0c.046.011.093.017.138.031l.045.016c.073.041.143.083.214.128.026.023.051.046.075.07s.046.049.069.073c.044.07.088.139.128.212l0,.007.012.043c.019.063.03.128.043.193,0,.036.007.072.007.108s-.005.072-.007.108" transform="translate(-507.88 -45.341)" fill="#323232"/>
    </g>
    <g id="グループ_1224" data-name="グループ 1224" transform="translate(1086.888 195.838)">
      <g id="マスクグループ_21" data-name="マスクグループ 21" clip-path="url(#clip-path-2)">
        <g id="リピートグリッド_13" data-name="リピートグリッド 13" transform="translate(138.793 7839.793)" clip-path="url(#clip-path-3)">
          <g transform="translate(-138.793 -7839.793)">
            <line id="線_235" data-name="線 235" x2="17" y2="17" transform="translate(139.5 7840.5)" fill="none" stroke="#fae3f0" stroke-width="2"/>
          </g>
          <g transform="translate(-132.793 -7839.793)">
            <line id="線_235-2" data-name="線 235" x2="17" y2="17" transform="translate(139.5 7840.5)" fill="none" stroke="#fae3f0" stroke-width="2"/>
          </g>
          <g transform="translate(-126.793 -7839.793)">
            <line id="線_235-3" data-name="線 235" x2="17" y2="17" transform="translate(139.5 7840.5)" fill="none" stroke="#fae3f0" stroke-width="2"/>
          </g>
          <g transform="translate(-120.793 -7839.793)">
            <line id="線_235-4" data-name="線 235" x2="17" y2="17" transform="translate(139.5 7840.5)" fill="none" stroke="#fae3f0" stroke-width="2"/>
          </g>
          <g transform="translate(-114.793 -7839.793)">
            <line id="線_235-5" data-name="線 235" x2="17" y2="17" transform="translate(139.5 7840.5)" fill="none" stroke="#fae3f0" stroke-width="2"/>
          </g>
          <g transform="translate(-108.793 -7839.793)">
            <line id="線_235-6" data-name="線 235" x2="17" y2="17" transform="translate(139.5 7840.5)" fill="none" stroke="#fae3f0" stroke-width="2"/>
          </g>
          <g transform="translate(-102.793 -7839.793)">
            <line id="線_235-7" data-name="線 235" x2="17" y2="17" transform="translate(139.5 7840.5)" fill="none" stroke="#fae3f0" stroke-width="2"/>
          </g>
          <g transform="translate(-96.793 -7839.793)">
            <line id="線_235-8" data-name="線 235" x2="17" y2="17" transform="translate(139.5 7840.5)" fill="none" stroke="#fae3f0" stroke-width="2"/>
          </g>
          <g transform="translate(-90.793 -7839.793)">
            <line id="線_235-9" data-name="線 235" x2="17" y2="17" transform="translate(139.5 7840.5)" fill="none" stroke="#fae3f0" stroke-width="2"/>
          </g>
          <g transform="translate(-84.793 -7839.793)">
            <line id="線_235-10" data-name="線 235" x2="17" y2="17" transform="translate(139.5 7840.5)" fill="none" stroke="#fae3f0" stroke-width="2"/>
          </g>
        </g>
      </g>
      <g id="マスクグループ_22" data-name="マスクグループ 22" clip-path="url(#clip-path-4)">
        <g id="リピートグリッド_14" data-name="リピートグリッド 14" transform="translate(159.793 7833.086)" clip-path="url(#clip-path-5)">
          <g transform="translate(-138.793 -7839.793)">
            <line id="線_235-11" data-name="線 235" x2="17" y2="17" transform="translate(139.5 7840.5)" fill="none" stroke="#fae3f0" stroke-width="2"/>
          </g>
          <g transform="translate(-132.793 -7839.793)">
            <line id="線_235-12" data-name="線 235" x2="17" y2="17" transform="translate(139.5 7840.5)" fill="none" stroke="#fae3f0" stroke-width="2"/>
          </g>
          <g transform="translate(-126.793 -7839.793)">
            <line id="線_235-13" data-name="線 235" x2="17" y2="17" transform="translate(139.5 7840.5)" fill="none" stroke="#fae3f0" stroke-width="2"/>
          </g>
          <g transform="translate(-120.793 -7839.793)">
            <line id="線_235-14" data-name="線 235" x2="17" y2="17" transform="translate(139.5 7840.5)" fill="none" stroke="#fae3f0" stroke-width="2"/>
          </g>
        </g>
      </g>
      <g id="マスクグループ_23" data-name="マスクグループ 23" clip-path="url(#clip-path-6)">
        <g id="リピートグリッド_15" data-name="リピートグリッド 15" transform="translate(187.793 7841.793)" clip-path="url(#clip-path-7)">
          <g transform="translate(-138.793 -7839.793)">
            <line id="線_235-15" data-name="線 235" x2="17" y2="17" transform="translate(139.5 7840.5)" fill="none" stroke="#fae3f0" stroke-width="2"/>
          </g>
          <g transform="translate(-132.793 -7839.793)">
            <line id="線_235-16" data-name="線 235" x2="17" y2="17" transform="translate(139.5 7840.5)" fill="none" stroke="#fae3f0" stroke-width="2"/>
          </g>
          <g transform="translate(-126.793 -7839.793)">
            <line id="線_235-17" data-name="線 235" x2="17" y2="17" transform="translate(139.5 7840.5)" fill="none" stroke="#fae3f0" stroke-width="2"/>
          </g>
          <g transform="translate(-120.793 -7839.793)">
            <line id="線_235-18" data-name="線 235" x2="17" y2="17" transform="translate(139.5 7840.5)" fill="none" stroke="#fae3f0" stroke-width="2"/>
          </g>
          <g transform="translate(-114.793 -7839.793)">
            <line id="線_235-19" data-name="線 235" x2="17" y2="17" transform="translate(139.5 7840.5)" fill="none" stroke="#fae3f0" stroke-width="2"/>
          </g>
          <g transform="translate(-108.793 -7839.793)">
            <line id="線_235-20" data-name="線 235" x2="17" y2="17" transform="translate(139.5 7840.5)" fill="none" stroke="#fae3f0" stroke-width="2"/>
          </g>
          <g transform="translate(-102.793 -7839.793)">
            <line id="線_235-21" data-name="線 235" x2="17" y2="17" transform="translate(139.5 7840.5)" fill="none" stroke="#fae3f0" stroke-width="2"/>
          </g>
        </g>
      </g>
      <g id="マスクグループ_24" data-name="マスクグループ 24" clip-path="url(#clip-path-8)">
        <g id="リピートグリッド_16" data-name="リピートグリッド 16" transform="translate(183.793 7834.793)" clip-path="url(#clip-path-7)">
          <g transform="translate(-138.793 -7839.793)">
            <line id="線_236" data-name="線 236" x2="17" y2="17" transform="translate(139.5 7840.5)" fill="none" stroke="#fae3f0" stroke-width="2"/>
          </g>
          <g transform="translate(-132.793 -7839.793)">
            <line id="線_237" data-name="線 237" x2="17" y2="17" transform="translate(139.5 7840.5)" fill="none" stroke="#fae3f0" stroke-width="2"/>
          </g>
          <g transform="translate(-126.793 -7839.793)">
            <line id="線_238" data-name="線 238" x2="17" y2="17" transform="translate(139.5 7840.5)" fill="none" stroke="#fae3f0" stroke-width="2"/>
          </g>
          <g transform="translate(-120.793 -7839.793)">
            <line id="線_239" data-name="線 239" x2="17" y2="17" transform="translate(139.5 7840.5)" fill="none" stroke="#fae3f0" stroke-width="2"/>
          </g>
          <g transform="translate(-114.793 -7839.793)">
            <line id="線_240" data-name="線 240" x2="17" y2="17" transform="translate(139.5 7840.5)" fill="none" stroke="#fae3f0" stroke-width="2"/>
          </g>
          <g transform="translate(-108.793 -7839.793)">
            <line id="線_241" data-name="線 241" x2="17" y2="17" transform="translate(139.5 7840.5)" fill="none" stroke="#fae3f0" stroke-width="2"/>
          </g>
          <g transform="translate(-102.793 -7839.793)">
            <line id="線_242" data-name="線 242" x2="17" y2="17" transform="translate(139.5 7840.5)" fill="none" stroke="#fae3f0" stroke-width="2"/>
          </g>
        </g>
      </g>
    </g>
    <g id="グループ_1191" data-name="グループ 1191" transform="translate(1235.687 7966.5)">
      <path id="パス_25810" data-name="パス 25810" d="M84.029,102.425c.015-.07.008-.129,0-.076,0,.03,0,.061,0,.09l0-.015" transform="translate(-42.144 -53.997)" fill="#ffe164"/>
      <path id="パス_25811" data-name="パス 25811" d="M63.972,62.546l-.006,0,.019,0h0l.1-.017-.116.018" transform="translate(-32.549 -34.96)" fill="#ffe164"/>
      <path id="パス_25812" data-name="パス 25812" d="M63.86,62.569l.016,0c-.074.009-.167.028-.016,0" transform="translate(-32.46 -34.977)" fill="#ffe164"/>
      <path id="パス_25813" data-name="パス 25813" d="M82.306,126.551a2.748,2.748,0,0,1,2.2.068,3.17,3.17,0,0,1,1.136.905,2.677,2.677,0,0,1,2.537-1.052c1.51.154,2.32,1.291,2.739,2.7a2.8,2.8,0,0,1,3.61,1.222,4.141,4.141,0,0,1,.2.475c.592-.75,1.165-1.513,1.707-2.3a10.707,10.707,0,0,1-3.455-4.91,27.552,27.552,0,0,1-1.105-6.4,16.092,16.092,0,0,1-9.653,3.957c0,1.031-.016,2.064.014,3.091.021.748.049,1.495.077,2.241" transform="translate(-41.277 -61.14)" fill="#fff"/>
      <path id="パス_25814" data-name="パス 25814" d="M80.6,101.33c.018-.028.024-.042.037-.063s0-.015.006-.022a.727.727,0,0,1-.043.086" transform="translate(-40.503 -53.478)" fill="#ffe164"/>
      <path id="パス_25815" data-name="パス 25815" d="M82.467,104.087h-.011c-.128.01-.064.013.011,0" transform="translate(-41.359 -54.838)" fill="#ffe164"/>
      <path id="パス_25816" data-name="パス 25816" d="M80.672,102.9c.017.058.052.1.026.04-.01-.022-.023-.043-.034-.066l.008.026" transform="translate(-40.536 -54.257)" fill="#ffe164"/>
      <path id="パス_25817" data-name="パス 25817" d="M82.553,104.077c.039,0,.078-.008.117-.01l-.112.008-.014,0h.009" transform="translate(-41.436 -54.829)" fill="#ffe164"/>
      <path id="パス_25818" data-name="パス 25818" d="M83.638,103.379l.015-.015c.037-.039.052-.076.03-.054l-.01.019-.034.05" transform="translate(-41.959 -54.463)" fill="#ffe164"/>
      <path id="パス_25819" data-name="パス 25819" d="M83.52,103.538c.018-.031.04-.061.062-.09l-.013.013c-.016.023-.027.04-.049.077" transform="translate(-41.902 -54.533)" fill="#ffe164"/>
      <path id="パス_25820" data-name="パス 25820" d="M84.016,102.635c0-.031,0-.063,0-.094v.006c0,.028,0,.046,0,.088" transform="translate(-42.14 -54.099)" fill="#ffe164"/>
      <path id="パス_25821" data-name="パス 25821" d="M94.354,60.666c-.109-.05-.016,0,.054.026l-.054-.026" transform="translate(-47.061 -34.058)" fill="#ffe164"/>
      <path id="パス_25822" data-name="パス 25822" d="M80.578,102.707c.016.028.031.057.045.086l0,0c-.013-.026-.021-.044-.043-.082" transform="translate(-40.495 -54.178)" fill="#ffe164"/>
      <path id="パス_25823" data-name="パス 25823" d="M80.72,101.079c.008-.032-.017-.011-.034.044,0,.012-.006.023-.01.035.007-.015.014-.029.021-.043s.016-.024.023-.037" transform="translate(-40.542 -53.392)" fill="#ffe164"/>
      <path id="パス_25824" data-name="パス 25824" d="M80.585,101.583c.015.029.029.056.035.07.018.037.036.075.057.111s.034.052.051.078c.053.058.1.116.163.169.108.064.12.078.088.062.052.031.105.061.159.089.023.008.046.016.07.023.126.037.406.033.021.026.11,0,.216.014.326.009l.025,0h0c.073-.016.142-.039.212-.062l.072-.039c.037-.021.072-.045.107-.069.05-.049.1-.1.149-.148a.681.681,0,0,1,.057-.082c.033-.055.062-.114.093-.17.012-.035.023-.071.033-.106s.021-.081.03-.122,0-.079.006-.1c0-.038.007-.076.006-.115s0-.065,0-.1c-.022-.1-.048-.206-.08-.307-.018-.037-.036-.073-.056-.109s-.05-.081-.075-.121a2.39,2.39,0,0,0-.174-.183l-.038-.033-.041-.024c-.045-.028-.092-.054-.139-.078s-.078-.029-.095-.033c-.036-.011-.073-.02-.109-.029l-.05-.01h-.034c-.049,0-.1,0-.145,0s-.149.031-.182.041l-.045.012c-.07.041-.139.081-.207.123-.032.03-.065.059-.1.091l-.05.054c-.032.05-.064.1-.094.15a.583.583,0,0,1-.051.1c-.028.091-.053.182-.077.275,0,.015,0,.032,0,.044,0,.046-.007.115-.007.181.011.05.019.1.031.148s.034.116.052.175" transform="translate(-40.459 -52.972)" fill="#ffe164"/>
      <path id="パス_25825" data-name="パス 25825" d="M81.257,103.7h0a.386.386,0,0,1-.057-.042l0,0-.057-.034c.041.023.077.055.117.08" transform="translate(-40.764 -54.615)" fill="#ffe164"/>
      <path id="パス_25826" data-name="パス 25826" d="M107.7,103.7c2.648-.386,5.384-1.464,6.859-3.817.033-.054.057-.109.089-.163a14.826,14.826,0,0,1-3.246-3.243,31.838,31.838,0,0,1-2.266-3.488,21.166,21.166,0,0,1-2.071,6.883,19.716,19.716,0,0,1-2.677,3.894,1.188,1.188,0,0,1,.328.727c.04.422.077.853.115,1.286a10.185,10.185,0,0,0,2.05-.883.937.937,0,0,1,.82-1.2" transform="translate(-51.884 -49.527)" fill="#fff"/>
      <path id="パス_25827" data-name="パス 25827" d="M61.334,120.947c-.36,2.681-.738,5.62-2.251,7.938l.166.207a2.731,2.731,0,0,1,2,.359,8.9,8.9,0,0,1,2.389,2.757q.035-2.246.111-4.491c.064-1.821.167-3.64.241-5.461.026-.638.043-1.294.086-1.948a18.332,18.332,0,0,1-3.689-2.152l-.191,1.622c.566.027,1.222.549,1.138,1.17" transform="translate(-30.214 -61.567)" fill="#fff"/>
      <path id="パス_25828" data-name="パス 25828" d="M81.444,54.377A138.323,138.323,0,0,0,77.4,37.753a65.018,65.018,0,0,0-5.841-13.976C69.272,20,66.1,16.3,61.744,14.944c-4.056-1.268-9.349-1.062-12.689,1.846a1.233,1.233,0,0,1-1.881-.346L46.121,17.5a1.14,1.14,0,0,1-.479,1.948c-3.583.838-5.539,4.623-6.76,7.777A59.977,59.977,0,0,0,36.069,37.9c-.824,4.4-1.773,8.791-2.463,13.214-.641,4.109-1.517,9.542,1.227,13.115,2.259,2.943,6.338,3.867,9.784,4.507a1.016,1.016,0,0,1,.755,1.457,3.3,3.3,0,0,1,1.649.051,1.033,1.033,0,0,1,.357-.151,1.088,1.088,0,0,1,.281-.04c.011,0,.023,0,.035,0l.191-1.622c-.049-.037-.1-.069-.149-.106a19.294,19.294,0,0,1-6.687-9.382,2.886,2.886,0,0,1-.939.456,2.938,2.938,0,0,1-1.731-.051,3.162,3.162,0,0,1-1.531-1.173,2.97,2.97,0,0,1-.275-2.775,7.7,7.7,0,0,1-2.287-5.723c.035-2,.752-4.7,2.694-5.667a3.419,3.419,0,0,1,2.51-.151c.1.03.194.069.291.106.91-7.018.556-16.3,7.893-19.723a1.174,1.174,0,0,1,1.039,0,1.283,1.283,0,0,1,.721,1.344A8.445,8.445,0,0,0,51.2,25.9a1.06,1.06,0,0,1-.319-.964,1.205,1.205,0,0,1,.149-.394c1.991-3.326,7.507-3.088,10.514-1.522,3.222,1.678,5.215,5.063,6.655,8.264,1.821,4.044,3.03,8.339,4.485,12.521a57.324,57.324,0,0,0,5.5,12.253,16.4,16.4,0,0,0,3.2,3.832,12.176,12.176,0,0,0,.058-5.514" transform="translate(-17.712 -11.845)" fill="#fff"/>
      <path id="パス_25829" data-name="パス 25829" d="M52.239,35.532c-3.42,1.6-4.838,4.949-5.566,8.461-.767,3.7-.827,7.495-1.448,11.215a1.181,1.181,0,0,1-1.443.82c-.676-.195-1.535-.939-2.272-.7-1.164.379-1.479,2.578-1.5,3.61a5.546,5.546,0,0,0,1.584,4.1c.053-.023.1-.051.157-.071a2.949,2.949,0,0,1,3.131.8,1.2,1.2,0,0,1,1.18,1.164,15.888,15.888,0,0,0,4.986,9.5,16.277,16.277,0,0,0,4.287,2.945,3.359,3.359,0,0,1,1.681-2.211,3.405,3.405,0,0,1,3.677.581A4.8,4.8,0,0,1,61.935,78.8a12.889,12.889,0,0,0,7.039-2.345A17.529,17.529,0,0,0,74.891,68.9a24.871,24.871,0,0,0,1.472-8.12,1.178,1.178,0,0,1,.023-.147C74,55.18,72.51,49.25,70.4,43.768c-1.19-3.1-2.737-6.572-5.421-8.665a7.234,7.234,0,0,0-4.5-1.538c-1.316-.006-3.3.162-4.055,1.424a1.156,1.156,0,0,1-1.857.173,8.449,8.449,0,0,1-1.762-.311.963.963,0,0,1-.575.681M67.351,53.7a1.174,1.174,0,0,1,0-2.348,1.174,1.174,0,0,1,0,2.348M64.7,45.518a6.685,6.685,0,0,1,2.817-.4,7.166,7.166,0,0,1,2.556.812,1.174,1.174,0,0,1-1.185,2.027c-.144-.074-.29-.142-.437-.21l-.064-.028c-.074-.029-.149-.055-.224-.081a4.869,4.869,0,0,0-.485-.135c-.071-.016-.144-.03-.216-.042h-.006a4.454,4.454,0,0,0-.534-.018c-.088,0-.176.007-.264.014l-.1.009a9.1,9.1,0,0,0-1.236.317,1.174,1.174,0,1,1-.624-2.264M61.513,61.4a1.174,1.174,0,0,1,0,2.348,1.174,1.174,0,0,1,0-2.348M59.207,67.67a3.24,3.24,0,0,1,3.479-1.626,3.356,3.356,0,0,1,2.568,2.62,3.634,3.634,0,0,1-.336,2.344A3.272,3.272,0,0,1,63.2,72.5a3.211,3.211,0,0,1-3.532-.9,3.519,3.519,0,0,1-.464-3.934M53.815,54.881a1.174,1.174,0,0,1,0-2.348,1.174,1.174,0,0,1,0,2.348M55.363,47.9a1.2,1.2,0,0,1-.539.7,1.285,1.285,0,0,1-.9.118l-.028,0c-.253-.011-.092-.009,0,0l.029,0c-.05,0-.1-.012-.15-.017q-.163-.017-.326-.027a6.166,6.166,0,0,0-.636-.007c-.093,0-.186.011-.278.02l-.037.006a4.367,4.367,0,0,0-.476.108q-.131.038-.261.085l-.048.018c-.129.061-.257.121-.381.19a7.364,7.364,0,0,0-.852.572,1.135,1.135,0,0,1-.9.118,1.186,1.186,0,0,1-.7-.539,1.2,1.2,0,0,1-.118-.9,1.285,1.285,0,0,1,.539-.7,6.384,6.384,0,0,1,2.157-1.116,7.326,7.326,0,0,1,3.1-.066,1.187,1.187,0,0,1,.82,1.444" transform="translate(-21.092 -21.106)" fill="#fff"/>
      <path id="パス_25830" data-name="パス 25830" d="M10.8,89.255a12.407,12.407,0,0,1,3.54-2.82c1.675-.844,3.414-1.573,5.106-2.388,1.454-.7,2.9-1.4,4.388-2.027.148.48.295.96.445,1.44q.707,2.254,1.44,4.5c.483,1.479.97,2.957,1.473,4.43a1.19,1.19,0,0,0,2.145.28l3.432-5c1.189,2.576,2.356,5.159,3.364,7.813a1.3,1.3,0,0,0,.122.239h2.1a.893.893,0,0,0,.119-.524,1.165,1.165,0,0,0-.073-.34c-1.61-4.239-3.51-8.408-5.5-12.48-.368-.752-.824-1.632-.29-2.419.382-.562.8-.567,1.246-.116A28.536,28.536,0,0,1,37.3,84.964a1.183,1.183,0,0,0,2.187-.593c-.01-5.046.169-10.09.431-15.129.052-.984.038-4.358,1.7-3.3.729.464.675,1.873.687,2.61.023,1.476,0,2.952.047,4.427.092,3.039.267,6.067.257,9.109a1.175,1.175,0,0,0,2.348,0c.093-1.2-.118-2.405.032-3.6.083-.654.5-1.7,1.148-1.1a3.485,3.485,0,0,1,.841,2.191A13.7,13.7,0,0,0,46.986,82a1.175,1.175,0,0,0,2.348,0,16.354,16.354,0,0,0-.011-2.158c.011-.137.008-.276.024-.411.079-.68.365-2.3,1.122-2.079.184.053.417.427.548.778a6.892,6.892,0,0,1,.36,1.929c.018.252.019.507.026.76a7.709,7.709,0,0,0-.039,1.728,1.175,1.175,0,0,0,2.348,0c.045-.5.075-1.118.069-1.771a2.153,2.153,0,0,1,.226-.594c.736-1.241,1.169.588,1.248,1.176a41.322,41.322,0,0,1,.25,7.071,22.056,22.056,0,0,1-1.342,6.841,1.226,1.226,0,0,0-.068.284,1,1,0,0,0,0,.163h2.393A23.227,23.227,0,0,0,57.708,90.3a12.111,12.111,0,0,1,1.361,1.733,1.191,1.191,0,0,0,2.027,0c1.1-1.544,2.164-3.123,3.194-4.719A60.421,60.421,0,0,0,67.558,81.8,40.022,40.022,0,0,1,75.7,87.329c2.532,2.274,4.8,5.032,5.625,8.389h2.392a1.287,1.287,0,0,0-.029-.258C82.34,89.072,76.53,84.377,71.226,81.169c-.885-.536-1.8-1.013-2.718-1.469.043-.107.09-.213.131-.321a1.152,1.152,0,0,0-.3-1.142L63,73.045a1.184,1.184,0,0,0-1.844.237c-.3.627-.634,1.237-.988,1.84a8.113,8.113,0,0,1-2.132-2.707,19.144,19.144,0,0,1-1.345-6.485c-.038-.434-.075-.864-.115-1.286a1.189,1.189,0,0,0-.328-.727,19.676,19.676,0,0,0,2.677-3.894A21.155,21.155,0,0,0,61,53.14a31.854,31.854,0,0,0,2.265,3.487,14.839,14.839,0,0,0,3.246,3.243c-.032.054-.055.109-.089.163-1.475,2.353-4.212,3.431-6.859,3.817a.938.938,0,0,0-.821,1.2,1.289,1.289,0,0,0,1.445,1.066,12.3,12.3,0,0,0,7.069-3.335,9.723,9.723,0,0,0,1.369-1.837,5.74,5.74,0,0,0,4.413-.346c1.357-.664.169-2.689-1.185-2.027a3.381,3.381,0,0,1-2.291.275,11.556,11.556,0,0,0,.586-3.532,37.986,37.986,0,0,0-1.331-7.952c-.692-3.275-1.353-6.524-2.3-9.738-1.64-5.566-3.5-11.256-6.384-16.319-2.5-4.388-5.961-8.552-10.772-10.447C44.3,8.863,37.627,9.31,33.427,12.967a.982.982,0,0,0-.221,1.314,1.232,1.232,0,0,0,1.881.346c3.34-2.907,8.633-3.114,12.689-1.846,4.354,1.361,7.527,5.054,9.817,8.834a65.018,65.018,0,0,1,5.841,13.976,138.126,138.126,0,0,1,4.041,16.624,12.176,12.176,0,0,1-.058,5.514,16.4,16.4,0,0,1-3.2-3.832,57.376,57.376,0,0,1-5.5-12.253c-1.455-4.182-2.665-8.477-4.485-12.521-1.441-3.2-3.433-6.586-6.655-8.264-3.007-1.566-8.524-1.8-10.515,1.522a1.205,1.205,0,0,0-.149.394,1.187,1.187,0,0,0,2.176.79c.756-1.262,2.739-1.43,4.055-1.425a7.237,7.237,0,0,1,4.5,1.539c2.684,2.094,4.231,5.566,5.422,8.665,2.105,5.481,3.594,11.411,5.981,16.864a1.177,1.177,0,0,0-.023.147,24.884,24.884,0,0,1-1.472,8.12,17.53,17.53,0,0,1-5.917,7.558,12.887,12.887,0,0,1-7.038,2.345,4.8,4.8,0,0,0-1.238-3.046,3.405,3.405,0,0,0-3.677-.581,3.36,3.36,0,0,0-1.681,2.211A16.26,16.26,0,0,1,33.7,63.019a15.888,15.888,0,0,1-4.987-9.5,1.2,1.2,0,0,0-1.179-1.164,2.949,2.949,0,0,0-3.131-.8c-.055.02-.1.049-.157.071a5.546,5.546,0,0,1-1.584-4.1c.018-1.032.333-3.231,1.5-3.61.737-.24,1.6.5,2.272.7a1.181,1.181,0,0,0,1.444-.82c.621-3.72.681-7.518,1.448-11.215.728-3.512,2.146-6.864,5.565-8.461a1.107,1.107,0,0,0-.147-2.025,1.173,1.173,0,0,0-1.038,0c-7.337,3.427-6.983,12.7-7.894,19.723-.1-.037-.192-.076-.291-.106a3.419,3.419,0,0,0-2.51.151c-1.942.97-2.659,3.663-2.694,5.667A7.694,7.694,0,0,0,22.6,53.239a2.97,2.97,0,0,0,.275,2.775,3.161,3.161,0,0,0,1.531,1.173,2.938,2.938,0,0,0,1.731.051,2.894,2.894,0,0,0,.939-.456,19.3,19.3,0,0,0,6.688,9.382,18.367,18.367,0,0,0,3.837,2.258c-.042.654-.061,1.31-.086,1.949-.074,1.82-.177,3.64-.24,5.46q-.078,2.244-.112,4.491a8.9,8.9,0,0,0-2.389-2.757,2.728,2.728,0,0,0-2-.358L32.613,77c1.512-2.318,1.891-5.257,2.251-7.938.085-.634-.6-1.168-1.174-1.174a1.1,1.1,0,0,0-.281.04,1.038,1.038,0,0,0-.357.151,1.41,1.41,0,0,0-.536.983,18.769,18.769,0,0,1-1.459,6c-.416-.522-.839-1.039-1.253-1.562a1.175,1.175,0,0,0-1.66,0c-1.514,1.844-3.172,3.629-4.569,5.563a1.493,1.493,0,0,0-.278.625c-1.844.757-3.631,1.657-5.425,2.519-3.041,1.461-6.081,2.59-8.453,5.084a38.751,38.751,0,0,0-5.622,8.3,1.3,1.3,0,0,0-.054.126H6.408A33.843,33.843,0,0,1,10.8,89.255m51.69-13.436,3.64,3.543a45.752,45.752,0,0,1-3.99,6.968q-1.016,1.567-2.081,3.1a18.943,18.943,0,0,0-2.18-2.227c0-.151.006-.3,0-.451-.01-1.417-.075-2.842-.179-4.257a44.722,44.722,0,0,0,4.785-6.679m-17.8-6.057A16.09,16.09,0,0,0,54.335,65.8a27.52,27.52,0,0,0,1.105,6.4,10.707,10.707,0,0,0,3.455,4.91c-.543.782-1.116,1.545-1.708,2.3a4.221,4.221,0,0,0-.2-.475,2.8,2.8,0,0,0-3.611-1.222c-.418-1.408-1.228-2.545-2.738-2.7a2.676,2.676,0,0,0-2.537,1.052,3.184,3.184,0,0,0-1.137-.905,2.749,2.749,0,0,0-2.2-.068c-.029-.747-.056-1.494-.077-2.241-.03-1.027-.009-2.06-.014-3.091M25.972,54.433c-.013.058-.029.117-.047.174s-.052.094-.081.139-.074.076-.113.112-.1.058-.147.084-.088.025-.133.036c-.06,0-.12,0-.18,0s-.105-.026-.157-.043-.094-.052-.139-.081-.076-.074-.112-.113-.058-.1-.083-.146-.026-.089-.036-.133c0-.061,0-.121,0-.181s.026-.105.042-.157.052-.094.081-.139.074-.076.113-.112.1-.057.147-.083.088-.026.133-.036c.06,0,.12,0,.18,0s.105.026.157.042.093.052.139.081.076.074.112.113.057.1.083.147.033.109.045.164,0,.088,0,.132m2.992,21.746q.914,1.151,1.839,2.294a3.815,3.815,0,0,0-.684,1.366,5.115,5.115,0,0,0,.672,3.582c.283.588.552,1.183.826,1.775l-2.929,4.272q-1.549-4.643-2.979-9.326l3.254-3.963" transform="translate(-3.744 -9.683)" fill="#323232"/>
      <path id="パス_25831" data-name="パス 25831" d="M87.163,58.348a9.1,9.1,0,0,1,1.236-.317l.1-.009c.088-.007.176-.012.264-.014a4.453,4.453,0,0,1,.534.018H89.3c.073.012.145.026.217.042A4.869,4.869,0,0,1,90,58.2c.075.026.15.052.224.081l.064.028c.147.068.293.136.437.21A1.174,1.174,0,1,0,91.911,56.5a7.166,7.166,0,0,0-2.556-.812,6.685,6.685,0,0,0-2.817.4,1.174,1.174,0,1,0,.624,2.264m3.061-.068.054.026c-.07-.03-.163-.076-.054-.026" transform="translate(-42.93 -31.673)" fill="#323232"/>
      <path id="パス_25832" data-name="パス 25832" d="M66.491,62.611c-.092-.009-.253-.011,0,0" transform="translate(-33.692 -34.995)" fill="#323232"/>
      <path id="パス_25833" data-name="パス 25833" d="M63.951,62.564l-.016,0,.037-.006h0l-.019,0" transform="translate(-32.535 -34.975)" fill="#323232"/>
      <path id="パス_25834" data-name="パス 25834" d="M59.421,58.23a6.393,6.393,0,0,0-2.157,1.116,1.291,1.291,0,0,0-.539.7,1.2,1.2,0,0,0,.118.9,1.182,1.182,0,0,0,.7.539,1.135,1.135,0,0,0,.9-.118A7.294,7.294,0,0,1,59.3,60.8c.125-.07.252-.13.381-.19l.048-.018q.129-.046.261-.085a4.367,4.367,0,0,1,.476-.108c-.152.025-.058.005.016,0l.006,0,.116-.018-.1.017c.092-.009.185-.015.278-.019a6.035,6.035,0,0,1,.637.007c.109.006.217.016.326.027.05.005.1.015.15.017h-.03l.028,0a1.285,1.285,0,0,0,.9-.118,1.174,1.174,0,0,0-.28-2.145,7.328,7.328,0,0,0-3.1.066" transform="translate(-29.067 -32.809)" fill="#323232"/>
      <path id="パス_25835" data-name="パス 25835" d="M91.379,67.656a1.174,1.174,0,0,0,0,2.348,1.174,1.174,0,0,0,0-2.348" transform="translate(-45.119 -37.412)" fill="#323232"/>
      <path id="パス_25836" data-name="パス 25836" d="M80.187,89.268a1.174,1.174,0,0,0,0-2.348,1.174,1.174,0,0,0,0,2.348" transform="translate(-39.766 -46.627)" fill="#323232"/>
      <path id="パス_25837" data-name="パス 25837" d="M65.431,69.926a1.174,1.174,0,0,0,0,2.348,1.174,1.174,0,0,0,0-2.348" transform="translate(-32.708 -38.498)" fill="#323232"/>
      <path id="パス_25838" data-name="パス 25838" d="M45.1,94.4c-.036-.039-.073-.077-.112-.113s-.091-.056-.139-.081-.1-.03-.157-.043-.12,0-.18,0c-.045.011-.089.022-.133.036s-.1.054-.147.084-.077.073-.113.112-.056.091-.081.138-.03.1-.042.157,0,.121,0,.18q.016.067.036.133c.026.05.053.1.083.147s.073.077.112.113.091.056.139.081.1.031.157.043.12,0,.18,0q.067-.016.133-.036c.05-.026.1-.053.147-.083s.077-.073.113-.112.056-.091.081-.139.034-.115.047-.174c0-.043,0-.088,0-.131s-.028-.111-.045-.165-.053-.1-.083-.146" transform="translate(-22.996 -50.09)" fill="#fff"/>
      <path id="パス_25839" data-name="パス 25839" d="M42.482,71.431c-3.446-.641-7.525-1.565-9.784-4.507-2.744-3.573-1.868-9.007-1.227-13.115C32.161,49.386,33.11,45,33.934,40.6a59.977,59.977,0,0,1,2.812-10.677c1.222-3.154,3.178-6.939,6.76-7.777a1.14,1.14,0,0,0,.479-1.947,1.112,1.112,0,0,0-1.1-.316c-3.567.834-5.912,3.975-7.414,7.116A48.911,48.911,0,0,0,31.929,38.63c-.916,4.607-1.847,9.235-2.611,13.868-.776,4.708-1.722,10.461.827,14.814,2.411,4.116,7.313,5.565,11.713,6.383a1.211,1.211,0,0,0,1.38-.807,1.016,1.016,0,0,0-.755-1.457" transform="translate(-15.578 -14.542)" fill="#323232"/>
      <path id="パス_25840" data-name="パス 25840" d="M80.4,146.67a22.041,22.041,0,0,0,1.342-6.841,41.325,41.325,0,0,0-.25-7.071c-.079-.588-.513-2.416-1.248-1.176a2.146,2.146,0,0,0-.225.594c.006.653-.025,1.266-.07,1.771a1.175,1.175,0,0,1-2.348,0,7.735,7.735,0,0,1,.039-1.727c-.007-.254-.008-.508-.026-.76a6.915,6.915,0,0,0-.36-1.929c-.131-.351-.364-.725-.548-.778-.756-.219-1.043,1.4-1.122,2.079-.016.136-.013.275-.023.412a16.536,16.536,0,0,1,.011,2.158,1.175,1.175,0,0,1-2.348,0,13.694,13.694,0,0,1-.009-2.419,3.487,3.487,0,0,0-.841-2.191c-.646-.6-1.065.447-1.148,1.1-.151,1.194.061,2.4-.032,3.6a1.175,1.175,0,0,1-2.348,0c.01-3.042-.165-6.07-.257-9.109-.045-1.476-.024-2.952-.047-4.427-.012-.738.042-2.147-.687-2.611-1.665-1.059-1.651,2.315-1.7,3.3-.262,5.038-.441,10.083-.431,15.129a1.183,1.183,0,0,1-2.187.592,28.551,28.551,0,0,0-3.453-5.124c-.45-.45-.864-.446-1.246.116-.535.787-.079,1.667.289,2.419,1.993,4.072,3.894,8.242,5.5,12.48a1.187,1.187,0,0,1,.073.34.9.9,0,0,1-.12.523H80.326a1,1,0,0,1,0-.162,1.247,1.247,0,0,1,.068-.284" transform="translate(-29.976 -61.081)" fill="#fff"/>
      <path id="パス_25841" data-name="パス 25841" d="M83.626,103.385l.034-.05.01-.019a.676.676,0,0,0-.058.082l.013-.013" transform="translate(-41.947 -54.469)" fill="#323232"/>
      <path id="パス_25842" data-name="パス 25842" d="M84.024,102.458c0-.03,0-.06,0-.09,0,.017,0,.051-.006.1v-.005" transform="translate(-42.143 -54.016)" fill="#323232"/>
      <path id="パス_25843" data-name="パス 25843" d="M80.663,102.869c.011.022.023.043.034.066-.006-.015-.02-.041-.035-.07l0,0" transform="translate(-40.535 -54.253)" fill="#323232"/>
      <path id="パス_25844" data-name="パス 25844" d="M82.534,104.085l.014,0-.025,0h.011" transform="translate(-41.426 -54.836)" fill="#323232"/>
      <path id="パス_25845" data-name="パス 25845" d="M80.434,102.226a3.272,3.272,0,0,0,1.715-1.492,3.634,3.634,0,0,0,.336-2.344,3.356,3.356,0,0,0-2.568-2.62A3.241,3.241,0,0,0,76.438,97.4a3.517,3.517,0,0,0,.464,3.933,3.21,3.21,0,0,0,3.532.9m-2.06-3.286c0-.013,0-.03,0-.045.024-.093.049-.183.077-.274-.012.021-.018.035-.037.063a.656.656,0,0,0,.043-.086c0-.011.006-.023.01-.035.018-.055.042-.075.034-.044.03-.051.062-.1.094-.15.016-.018.032-.037.05-.054s.064-.061.1-.091c.068-.042.137-.082.207-.123l.045-.012c.032-.009.128-.028.181-.04s.1,0,.145,0h.034l.05.01c.037.008.074.018.11.029l.095.033c.047.025.093.051.138.079l.041.023.038.033a2.3,2.3,0,0,1,.173.183c.026.04.052.079.075.12s.038.073.056.109a3.107,3.107,0,0,1,.079.306c0,.033,0,.065,0,.1s0,.077-.006.115c.007-.053.014.005,0,.076l0,.015c0,.031,0,.063,0,.094,0-.042,0-.06,0-.089-.009.041-.018.082-.03.122s-.021.071-.033.106c-.031.056-.06.114-.093.17.021-.022.007.016-.03.054L80,99.748c-.021.03-.043.059-.062.09.022-.037.033-.054.049-.077-.049.05-.1.1-.148.148-.035.024-.071.048-.107.069l-.072.039c-.07.022-.139.045-.212.062h0l.112-.008c-.039,0-.078.008-.117.01h-.009c-.075.014-.139.01-.011,0-.11,0-.216-.008-.326-.01.384.007.1.011-.021-.026l-.07-.022c-.054-.029-.106-.057-.159-.089.032.016.019,0-.088-.062l0,.005a.427.427,0,0,0,.057.042l0,0c-.04-.025-.077-.057-.117-.08l.057.034c-.058-.053-.11-.111-.163-.169-.017-.026-.035-.052-.051-.079s-.039-.073-.057-.111c.026.061-.01.019-.027-.04l-.008-.026c-.014-.029-.029-.058-.045-.086.022.038.03.056.044.082-.018-.058-.037-.116-.052-.175s-.02-.1-.031-.147c0-.066.006-.136.007-.181" transform="translate(-38.324 -50.833)" fill="#323232"/>
      <path id="パス_25846" data-name="パス 25846" d="M80.692,101.13c-.007.014-.015.028-.021.042s0,.015-.006.022a.6.6,0,0,0,.051-.1c-.007.012-.016.023-.023.037" transform="translate(-40.536 -53.406)" fill="#323232"/>
    </g>
  </g>
</svg>
