<svg xmlns="http://www.w3.org/2000/svg" xmlns:xlink="http://www.w3.org/1999/xlink" width="311.871" height="86.051" viewBox="0 0 311.871 86.051">
  <defs>
    <clipPath id="clip-path">
      <rect id="長方形_946" data-name="長方形 946" width="82.044" height="84.451" fill="none"/>
    </clipPath>
    <clipPath id="clip-path-2">
      <path id="パス_26177" data-name="パス 26177" d="M2491.6,898.092a30.8,30.8,0,0,1,14.719-15.846,118.769,118.769,0,0,0,16.078,5.439s-.435,6.177-4.12,10.408C2511.812,898.136,2491.6,898.092,2491.6,898.092Z" transform="translate(-2458)" fill="none" stroke="#707070" stroke-width="1"/>
    </clipPath>
    <clipPath id="clip-path-3">
      <rect width="29" height="17" fill="none"/>
    </clipPath>
    <clipPath id="clip-path-4">
      <path id="パス_26178" data-name="パス 26178" d="M2531.047,898.112l3.459-9.684s10.3,1.693,22.667-7.065c14.2,6.329,14.572,16.749,14.572,16.749Z" transform="translate(-2458)" fill="none" stroke="#707070" stroke-width="1"/>
    </clipPath>
    <clipPath id="clip-path-5">
      <rect width="43" height="17" fill="none"/>
    </clipPath>
    <clipPath id="clip-path-6">
      <rect id="長方形_877" data-name="長方形 877" width="84.43" height="83.371" fill="none"/>
    </clipPath>
    <clipPath id="clip-path-7">
      <path id="パス_26179" data-name="パス 26179" d="M2800.328,899.083s-6.035-12.2-18.693-16.543c-12.069,2.061-15.6,2.576-15.6,2.576L2760,892.549l.589,6.534Z" transform="translate(-2458)" fill="none" stroke="#707070" stroke-width="1"/>
    </clipPath>
    <clipPath id="clip-path-8">
      <rect width="54.414" height="21.414" fill="none"/>
    </clipPath>
    <clipPath id="clip-path-9">
      <path id="パス_26180" data-name="パス 26180" d="M2752.207,899.083l-2.144-14.409-12.732-2.355s-12.658,2.429-20.533,17.368C2727.764,899.761,2752.207,899.083,2752.207,899.083Z" transform="translate(-2458)" fill="none" stroke="#707070" stroke-width="1"/>
    </clipPath>
    <clipPath id="clip-path-11">
      <rect id="長方形_881" data-name="長方形 881" width="85.151" height="85.442" fill="none"/>
    </clipPath>
  </defs>
  <g id="グループ_1216" data-name="グループ 1216" transform="translate(-32 -813.642)">
    <g id="グループ_1172" data-name="グループ 1172" transform="translate(146 813.642)" clip-path="url(#clip-path)">
      <path id="パス_25735" data-name="パス 25735" d="M94.1,40.674c-.105-.048-.016,0,.052.025l-.052-.025" transform="translate(-46.686 -20.18)" fill="#ffe164"/>
      <path id="パス_25736" data-name="パス 25736" d="M12.036,141.761c-.019-.008-.026-.009-.041-.015a.393.393,0,0,1-.052-.008.641.641,0,0,1,.093.023" transform="translate(-5.929 -70.36)" fill="#ffe164"/>
      <path id="パス_25737" data-name="パス 25737" d="M63.6,42.579l.015,0c-.07.009-.161.027-.015,0" transform="translate(-31.534 -21.135)" fill="#ffe164"/>
      <path id="パス_25738" data-name="パス 25738" d="M63.714,42.555l-.006,0,.019,0h0l.1-.016-.112.017" transform="translate(-31.625 -21.116)" fill="#ffe164"/>
      <path id="パス_25739" data-name="パス 25739" d="M79.283,141.054c-3.834-5.111-9.715-8.6-15.382-11.424a1.13,1.13,0,0,1-.5.109l-4.612,0-19.983-.019L26.281,129.7a1.085,1.085,0,0,1-.611-.177c-1.515.544-3.076.986-4.574,1.54a27.3,27.3,0,0,0-9.218,5.366c-3.172,2.948-4.883,6.808-6.7,10.634H82.44a31.1,31.1,0,0,0-3.157-6.014" transform="translate(-2.57 -64.298)" fill="#fff"/>
      <path id="パス_25740" data-name="パス 25740" d="M11.915,141.731l-.029-.007a.2.2,0,0,0,.029.007" transform="translate(-5.9 -70.353)" fill="#ffe164"/>
      <path id="パス_25741" data-name="パス 25741" d="M12.62,141.743c-.043.011-.048.025.076,0a.435.435,0,0,0-.076,0" transform="translate(-6.251 -70.361)" fill="#ffe164"/>
      <path id="パス_25742" data-name="パス 25742" d="M12.8,141.74a.181.181,0,0,1,.041,0,.133.133,0,0,0-.032,0l-.006,0h0" transform="translate(-6.353 -70.36)" fill="#ffe164"/>
      <path id="パス_25743" data-name="パス 25743" d="M30.912,90.653A15.631,15.631,0,0,1,28.3,86.226c-.056-.165-.1-.333-.151-.5a.918.918,0,0,1-.322.224c.008.044.018.086.022.131q.05.574.1,1.148l.7,7.975a1.142,1.142,0,0,1-1.133,1.133A1.163,1.163,0,0,1,26.378,95.2q-.051-.574-.1-1.148l-.654-7.476a12.8,12.8,0,0,0-6.535,5.155,10.493,10.493,0,0,0-1.439,4.913,20.892,20.892,0,0,0,.845,5.071,7.84,7.84,0,0,1-1.89,6.892c-1.733,2.123-5.1,4.548-8.122,4.528a6.674,6.674,0,0,0,.783.481c.069.035.139.067.208.1l.012.006c.137.05.274.1.415.139.093.025.2.038.3.059-.039-.015-.019-.022.081.015l.014,0c.068,0,.136.006.2,0,.023,0,.054-.006.084-.01a.242.242,0,0,1,.085,0,2.391,2.391,0,0,0,.376-.117.812.812,0,0,1,.258-.054,29.158,29.158,0,0,1,10.084-6.337c2.876-1.123,6.03-1.708,8.633-3.441,2.665-1.775,3.639-4.625,3.647-7.726a1.052,1.052,0,0,1,.93-1.078v-.914a19.8,19.8,0,0,1-3.68-3.612" transform="translate(-4.21 -42.555)" fill="#afccff"/>
      <path id="パス_25744" data-name="パス 25744" d="M80.966,109.825a17.43,17.43,0,0,1-2.653-8.836A16.1,16.1,0,0,1,73.944,104a15.549,15.549,0,0,1-11.537.584,18.377,18.377,0,0,1-5.116-2.74v.914a1.093,1.093,0,0,1,1.337,1.078c-.01,3.781-1.3,7.185-4.42,9.441h1.026l19.983.019,9.233.009a14,14,0,0,1-3.483-3.478" transform="translate(-26.909 -50.132)" fill="#fff"/>
      <path id="パス_25745" data-name="パス 25745" d="M79.237,88.793s-.03.019-.064.051l.03-.021c.02-.015.036-.028.034-.03" transform="translate(-39.302 -44.078)" fill="#ffe164"/>
      <path id="パス_25746" data-name="パス 25746" d="M82.858,87.874c-.028,0-.056-.008-.083-.015l.047.012h.018l.018,0" transform="translate(-41.09 -43.614)" fill="#ffe164"/>
      <path id="パス_25747" data-name="パス 25747" d="M83,87.9l-.057-.01L83,87.9" transform="translate(-41.172 -43.628)" fill="#ffe164"/>
      <path id="パス_25748" data-name="パス 25748" d="M80.25,88.224a.555.555,0,0,0,.094-.032c0-.007-.018,0-.094.032" transform="translate(-39.837 -43.778)" fill="#ffe164"/>
      <path id="パス_25749" data-name="パス 25749" d="M80.222,88.258a.246.246,0,0,1-.029.009c.007,0,.012,0,.018,0l.008,0h0" transform="translate(-39.809 -43.812)" fill="#ffe164"/>
      <path id="パス_25750" data-name="パス 25750" d="M79.133,88.9l0,0c-.057.04-.037.027,0,0" transform="translate(-39.267 -44.128)" fill="#ffe164"/>
      <path id="パス_25751" data-name="パス 25751" d="M77.508,32.376a1.662,1.662,0,0,0-1.656-.445,3.2,3.2,0,0,0-.718.3c-.274.148-.253.285-.1-.027-.522,1.054-2.083.487-2.111-.572-.2-7.553-5.136-17.2-13.7-17.156a1.119,1.119,0,0,1-.99-1.626,17.99,17.99,0,0,0-2.213.417,1.064,1.064,0,0,1-.74,1.421c-3.925,1.039-8.269,3.136-10.4,6.763-2.509,4.271-3.369,9.25-1.422,13.908a1.127,1.127,0,0,1-.521,1.28,2.042,2.042,0,0,1-1.305.25c-.27-.053-.525-.174-.8-.217a1.916,1.916,0,0,0-2.225,1.18,5.6,5.6,0,0,0,.613,5.164c.06.1.125.187.188.279a3.162,3.162,0,0,1,.895-.509,2.9,2.9,0,0,1,3.109.825,3.106,3.106,0,0,1,.511.827,2.855,2.855,0,0,1,.185.708,1.717,1.717,0,0,1,.038.248,2.559,2.559,0,0,1-.006.256,1.049,1.049,0,0,1,.3.393,4.27,4.27,0,0,1,.194.87,11.849,11.849,0,0,0,.908,3.193,17.956,17.956,0,0,0,6,6.781,14.677,14.677,0,0,0,8.674,2.528,13.661,13.661,0,0,0,9.169-4.374,18.054,18.054,0,0,0,4.632-9.331c0-.06.045-.388.051-.457.022-.236.04-.471.059-.707q.061-.765.116-1.53c0-.051.006-.1.008-.156a2.881,2.881,0,0,1,.452-2.061,3.1,3.1,0,0,1,1.5-1.154,2.476,2.476,0,0,1,.468-.117,5.9,5.9,0,0,0,1.9-4.129,4.118,4.118,0,0,0-1.064-3.021m-25.5,3.317a1.134,1.134,0,0,1,0-2.266,1.134,1.134,0,0,1,0,2.266m1.8-8.637a1.156,1.156,0,0,1-.521.677,1.238,1.238,0,0,1-.873.114l-.027,0c-.245-.011-.089-.009,0,0l.028,0c-.048,0-.1-.012-.145-.017q-.157-.017-.315-.026a5.952,5.952,0,0,0-.614-.007c-.09,0-.179.011-.268.019l-.036.006a4.18,4.18,0,0,0-.459.1c-.085.024-.169.052-.252.082l-.046.017c-.124.059-.248.117-.368.184a7.108,7.108,0,0,0-.823.552,1.1,1.1,0,0,1-.873.114,1.144,1.144,0,0,1-.677-.521,1.159,1.159,0,0,1-.114-.873,1.246,1.246,0,0,1,.521-.677,6.165,6.165,0,0,1,2.082-1.077,7.072,7.072,0,0,1,2.989-.064,1.146,1.146,0,0,1,.792,1.394M59.631,42.2a1.134,1.134,0,0,1,0,2.266,1.134,1.134,0,0,1,0-2.266m3.932,9.076a1.153,1.153,0,0,1-.8.332,1.129,1.129,0,0,1-.8-.332,2,2,0,0,0-.181-.205c-.023-.022-.047-.043-.072-.065-.072-.046-.141-.095-.216-.136-.023-.013-.088-.044-.142-.07s-.156-.058-.186-.067c-.109-.033-.22-.061-.332-.084l-.033-.006c.068.016.094.032-.093-.013-.1-.009-.209-.014-.314-.013s-.228.015-.342.018l-.132.025a3.828,3.828,0,0,0-.374.1l-.063.027a.179.179,0,0,1-.1.037,3.556,3.556,0,0,0-.322.176c-.049.03-.1.062-.146.095l-.034.024-.035.025c-.155.145-.528.548-.565.595a1.133,1.133,0,0,1-1.934-.8,1.231,1.231,0,0,1,.332-.8,4.8,4.8,0,0,1,3.719-1.786,4.081,4.081,0,0,1,3.171,1.323,1.169,1.169,0,0,1,0,1.6m1.849-16.759a1.134,1.134,0,0,1,0-2.266,1.134,1.134,0,0,1,0,2.266M68.419,26.7a1.153,1.153,0,0,1-1.55.406c-.139-.072-.28-.137-.422-.2l-.062-.027c-.072-.028-.144-.054-.217-.078a4.7,4.7,0,0,0-.468-.13c-.069-.016-.139-.029-.209-.041h-.005a4.3,4.3,0,0,0-.516-.017c-.085,0-.17.007-.255.014l-.094.009a8.732,8.732,0,0,0-1.194.306,1.133,1.133,0,1,1-.6-2.185,6.454,6.454,0,0,1,2.719-.387,6.918,6.918,0,0,1,2.467.784,1.149,1.149,0,0,1,.406,1.55" transform="translate(-18.974 -6.377)" fill="#fff"/>
      <path id="パス_25752" data-name="パス 25752" d="M60.087,5.989C69.276,5.941,75,15.2,75.923,23.588a4.395,4.395,0,0,1,.714-.169A25.779,25.779,0,0,0,73.371,9.57C70.9,5.05,65.814,2.533,60.75,2.436A1.158,1.158,0,0,1,60.158.323a19.952,19.952,0,0,0-4.307.442,1.258,1.258,0,0,1-1.012,1.67A15.073,15.073,0,0,0,47.567,5.63,18.565,18.565,0,0,0,40.244,17.3a30.772,30.772,0,0,0,.461,10.9,5.215,5.215,0,0,1,.884-.027,18.029,18.029,0,0,1,2.2-14.077c2.431-4.138,7.258-6.614,11.755-7.805a1.075,1.075,0,0,1,1.342.765A17.9,17.9,0,0,1,59.1,6.63a1.032,1.032,0,0,1,.99-.641" transform="translate(-19.834 -0.16)" fill="#afccff"/>
      <path id="パス_25753" data-name="パス 25753" d="M91.134,51.385a1.134,1.134,0,0,0,0,2.266,1.134,1.134,0,0,0,0-2.266" transform="translate(-44.697 -25.508)" fill="#323232"/>
      <path id="パス_25754" data-name="パス 25754" d="M79.655,73.408a1.134,1.134,0,0,0,0-2.266,1.134,1.134,0,0,0,0,2.266" transform="translate(-38.998 -35.316)" fill="#323232"/>
      <path id="パス_25755" data-name="パス 25755" d="M79.164,88.879l.035-.025-.03.021,0,0" transform="translate(-39.298 -44.108)" fill="#323232"/>
      <path id="パス_25756" data-name="パス 25756" d="M74.533,85.142a1.233,1.233,0,0,0-.332.8,1.133,1.133,0,0,0,1.934.8c.037-.047.41-.45.565-.595-.032.023-.052.036,0,0,.035-.033.062-.055.064-.051s-.015.015-.034.03l.034-.024c.048-.033.1-.064.147-.095a3.48,3.48,0,0,1,.321-.176c-.007,0-.012,0-.018,0a.246.246,0,0,0,.029-.009c.076-.036.1-.039.094-.032l.063-.027a3.839,3.839,0,0,1,.374-.1l.132-.025c.114,0,.228-.018.342-.018s.21,0,.314.013l-.047-.012c.027.007.055.011.083.015l.057.01.033.006c.112.023.223.05.332.084.03.009.124.045.186.067s.118.057.142.07c.075.041.145.09.216.136.024.022.049.043.072.065a2.07,2.07,0,0,1,.182.205,1.128,1.128,0,0,0,.8.332,1.153,1.153,0,0,0,.8-.332,1.169,1.169,0,0,0,0-1.6,4.084,4.084,0,0,0-3.171-1.323,4.8,4.8,0,0,0-3.719,1.786" transform="translate(-36.834 -41.379)" fill="#323232"/>
      <path id="パス_25757" data-name="パス 25757" d="M82.887,87.883h-.018c.187.046.161.029.093.014l-.057-.01-.018,0" transform="translate(-41.137 -43.625)" fill="#323232"/>
      <path id="パス_25758" data-name="パス 25758" d="M80.237,88.228l-.008,0a.178.178,0,0,0,.1-.037.567.567,0,0,1-.093.032h0" transform="translate(-39.826 -43.781)" fill="#323232"/>
      <path id="パス_25759" data-name="パス 25759" d="M64.522,53.713a1.134,1.134,0,0,0,0,2.266,1.134,1.134,0,0,0,0-2.266" transform="translate(-31.486 -26.664)" fill="#323232"/>
      <path id="パス_25760" data-name="パス 25760" d="M12.647,141.74a.432.432,0,0,1,.076,0h0l.007,0a.242.242,0,0,0-.085,0" transform="translate(-6.278 -70.358)" fill="#323232"/>
      <path id="パス_25761" data-name="パス 25761" d="M11.868,141.712l.029.007a.315.315,0,0,0,.051.008c-.1-.037-.12-.03-.081-.015" transform="translate(-5.882 -70.342)" fill="#323232"/>
      <path id="パス_25762" data-name="パス 25762" d="M82.01,81.853a42.885,42.885,0,0,0-2.389-4.97,29.628,29.628,0,0,0-7.529-7.726,60.252,60.252,0,0,0-8.424-5.216c-2.342-1.219-4.766-2.237-6.609-4.2-2.545-2.709-3.267-6.472-3.367-10.069a1.071,1.071,0,0,0-.38-.822,19.8,19.8,0,0,0,2.324-3.77,18.732,18.732,0,0,0,1.78-5.922c.012-.11.018-.222.029-.332a2.907,2.907,0,0,0,1.569.016,2.938,2.938,0,0,0,2.14-2.97,1.728,1.728,0,0,0-.038-.248,2.846,2.846,0,0,0-.185-.708,3.081,3.081,0,0,0-.511-.826,2.434,2.434,0,0,0-.257-.257c.173-.212.35-.42.511-.643a7.239,7.239,0,0,0,1.2-5.158,5.577,5.577,0,0,0-2.742-4.416c-.009-.005-.02-.007-.029-.011a1.184,1.184,0,0,0,.034-.181,24.354,24.354,0,0,0-.868-8.167,29.556,29.556,0,0,0-2.926-7.4C52.463,2.875,46.63.117,41,.009A1.073,1.073,0,0,0,40.4.162c.463-.007.926-.008,1.389-.008v0c-.463,0-.926,0-1.389.008A1.158,1.158,0,0,0,41,2.275c5.065.1,10.15,2.615,12.621,7.134a25.781,25.781,0,0,1,3.265,13.85,4.292,4.292,0,0,0-.714.169c-.924-8.388-6.647-17.648-15.836-17.6a1.032,1.032,0,0,0-.99.641,2.542,2.542,0,0,1,2.449,1.239,2.542,2.542,0,0,0-2.449-1.239,1.119,1.119,0,0,0,.99,1.626c8.562-.046,13.5,9.6,13.7,17.156.028,1.059,1.59,1.626,2.112.572-.155.312-.177.175.1.027a3.173,3.173,0,0,1,.718-.3A1.66,1.66,0,0,1,58.614,26a4.116,4.116,0,0,1,1.064,3.02,5.9,5.9,0,0,1-1.9,4.129,2.476,2.476,0,0,0-.468.117,3.1,3.1,0,0,0-1.5,1.154,2.881,2.881,0,0,0-.452,2.061c0,.052,0,.1-.008.156q-.056.765-.116,1.53c-.019.236-.038.472-.059.708-.007.068-.048.4-.051.456a18.054,18.054,0,0,1-4.632,9.332,13.663,13.663,0,0,1-9.169,4.374,14.677,14.677,0,0,1-8.674-2.528,17.96,17.96,0,0,1-6-6.781,11.852,11.852,0,0,1-.908-3.194,4.273,4.273,0,0,0-.194-.87,1.051,1.051,0,0,0-.3-.393,2.553,2.553,0,0,0,.006-.256,1.728,1.728,0,0,0-.038-.248,2.866,2.866,0,0,0-.185-.708,3.1,3.1,0,0,0-.511-.826,2.9,2.9,0,0,0-3.109-.825,3.157,3.157,0,0,0-.895.509c-.063-.092-.128-.179-.188-.279a5.6,5.6,0,0,1-.613-5.164,1.916,1.916,0,0,1,2.225-1.18c.276.043.531.164.8.217a2.038,2.038,0,0,0,1.305-.25,1.127,1.127,0,0,0,.521-1.28c-1.946-4.658-1.087-9.636,1.422-13.907,2.131-3.627,6.476-5.724,10.4-6.764a1.064,1.064,0,0,0,.74-1.42,3.55,3.55,0,0,1-.626.066,3.55,3.55,0,0,0,.626-.066,1.075,1.075,0,0,0-1.342-.765c-4.5,1.191-9.324,3.667-11.755,7.805A18.029,18.029,0,0,0,21.835,28a5.164,5.164,0,0,0-.884.027,30.773,30.773,0,0,1-.461-10.9A18.565,18.565,0,0,1,27.813,5.469a15.078,15.078,0,0,1,7.271-3.195A1.257,1.257,0,0,0,36.1.6c-.368.086-.735.183-1.1.305.368-.122.735-.219,1.1-.305a.888.888,0,0,0-1.012-.6c-5.343.616-9.944,4.017-13.129,8.217A18.474,18.474,0,0,0,18.6,14.994a28.581,28.581,0,0,0-.5,8.888,36.309,36.309,0,0,0,.731,5.055,5.837,5.837,0,0,0-1.715,3.485,8.347,8.347,0,0,0,1.971,6.357,4.23,4.23,0,0,0,.342.338,2.8,2.8,0,0,0,.487,1.668,3.09,3.09,0,0,0,1.135.984,17.143,17.143,0,0,0-5.958,3.672,12.478,12.478,0,0,0-3.825,8.339,14.98,14.98,0,0,0,.618,4.8,6.335,6.335,0,0,1,.184,3.827A9.9,9.9,0,0,1,7.99,67.032c-1.654,1.045-4.111,2.04-5.642.3a1.082,1.082,0,0,0-1.86.571,1.167,1.167,0,0,0-.2,1.355,8.7,8.7,0,0,0,2.951,3.313,6.477,6.477,0,0,0,1.929.926,21.332,21.332,0,0,0-2.225,3.6L.206,82.727c-.007.014-.006.028-.013.042H2.687c1.818-3.827,3.529-7.687,6.7-10.635a27.313,27.313,0,0,1,9.218-5.366c1.5-.554,3.058-1,4.574-1.54a1.089,1.089,0,0,0,.611.177l12.526.012,19.983.019,4.612,0a1.13,1.13,0,0,0,.5-.109c5.666,2.827,11.547,6.312,15.382,11.424a31.072,31.072,0,0,1,3.157,6.014H82.04a1.137,1.137,0,0,0-.029-.916M57.653,35.778c.026-.049.054-.1.084-.144s.077-.08.117-.117.1-.059.152-.087.092-.026.139-.037c.062,0,.124,0,.186,0s.109.027.163.045.1.054.144.084.079.077.116.117.06.1.087.152.034.113.046.171,0,.092,0,.138a1.847,1.847,0,0,1-.049.179c-.026.049-.054.1-.084.144s-.077.079-.117.116-.1.06-.151.087-.092.027-.139.038c-.062,0-.124,0-.186,0s-.109-.027-.163-.044-.1-.054-.144-.084-.08-.077-.117-.117-.059-.1-.086-.151-.027-.093-.038-.139a1.762,1.762,0,0,1,0-.186c.013-.055.027-.109.044-.163m-35.9,3.141c.026-.049.054-.1.084-.144s.077-.08.117-.116.1-.06.151-.087.093-.027.139-.038a1.77,1.77,0,0,1,.186,0c.055.012.109.027.163.044s.1.054.144.084.08.077.117.117.059.1.087.152.033.113.046.171,0,.092,0,.138-.03.12-.048.18-.054.1-.085.144-.077.079-.117.116-.1.06-.152.087-.092.027-.139.038c-.062,0-.124,0-.186,0s-.109-.027-.163-.044-.1-.054-.144-.084-.079-.077-.116-.117-.06-.1-.087-.151-.027-.092-.038-.139c0-.062,0-.124,0-.186s.027-.109.044-.163M48.388,63.162,28.4,63.143H27.378c3.125-2.256,4.41-5.66,4.42-9.441a1.093,1.093,0,0,0-1.337-1.078v0a1.052,1.052,0,0,0-.93,1.078c-.008,3.1-.981,5.951-3.647,7.726-2.6,1.733-5.757,2.319-8.633,3.441A29.158,29.158,0,0,0,7.168,71.205a.815.815,0,0,0-.258.054,2.393,2.393,0,0,1-.376.117.157.157,0,0,1,.032,0,.181.181,0,0,0-.041,0c-.124.027-.118.013-.076,0a.774.774,0,0,1-.085.01c-.068,0-.136,0-.2,0l-.014,0c.015.006.022.007.04.015a.625.625,0,0,0-.092-.023l-.029-.007c-.1-.021-.2-.034-.3-.059-.141-.039-.278-.089-.415-.139l-.012-.006c-.069-.035-.139-.066-.208-.1a6.631,6.631,0,0,1-.783-.481c3.026.02,6.389-2.405,8.122-4.527a7.843,7.843,0,0,0,1.89-6.893,20.868,20.868,0,0,1-.845-5.071,10.494,10.494,0,0,1,1.439-4.913,12.8,12.8,0,0,1,6.535-5.155q.327,3.738.654,7.476.051.574.1,1.148a1.163,1.163,0,0,0,1.133,1.133,1.142,1.142,0,0,0,1.133-1.133l-.7-7.975q-.05-.573-.1-1.148c0-.044-.014-.087-.022-.131a.925.925,0,0,0,.323-.224c.048.168.094.336.15.5A15.643,15.643,0,0,0,26.782,48.1a19.8,19.8,0,0,0,3.68,3.612v0a18.387,18.387,0,0,0,5.117,2.74,15.547,15.547,0,0,0,11.537-.584,16.09,16.09,0,0,0,4.369-3.008,17.43,17.43,0,0,0,2.653,8.835,14,14,0,0,0,3.483,3.478l-9.233-.009" transform="translate(-0.08 0)" fill="#323232"/>
      <path id="パス_25763" data-name="パス 25763" d="M43.07,77.542c.037.041.076.08.116.117s.1.058.144.084.108.032.163.044.124,0,.186,0c.047-.011.094-.024.139-.038s.1-.055.151-.087.08-.076.117-.116.058-.095.084-.144.035-.119.049-.179,0-.092,0-.138-.029-.114-.046-.171-.055-.1-.087-.152-.076-.08-.117-.117-.094-.058-.144-.084-.108-.032-.163-.044-.124,0-.186,0c-.047.011-.093.023-.139.037s-.1.055-.152.087-.08.076-.117.117-.058.095-.084.144-.032.108-.044.163,0,.124,0,.186c.011.046.023.093.037.139s.055.1.087.151" transform="translate(-21.317 -37.983)" fill="#fff"/>
      <path id="パス_25764" data-name="パス 25764" d="M114.273,71.153c.027.051.055.1.087.151s.076.08.116.117.095.058.144.084.108.032.163.044.124,0,.186,0c.047-.011.093-.023.139-.038s.1-.055.152-.087.08-.076.117-.116.058-.095.085-.144.035-.119.048-.179,0-.092,0-.138-.028-.114-.046-.171-.055-.1-.087-.152-.076-.08-.117-.117-.095-.058-.144-.084-.108-.032-.163-.045-.124,0-.186,0c-.046.011-.093.023-.138.037s-.1.055-.152.087-.08.076-.117.117-.058.095-.084.144-.032.108-.044.163,0,.124,0,.186c.011.047.023.094.038.139" transform="translate(-56.706 -34.886)" fill="#fff"/>
      <path id="パス_25765" data-name="パス 25765" d="M115.987,79.076a1.163,1.163,0,0,0-1.133-1.133,1.142,1.142,0,0,0-1.133,1.133q.349,3.987.7,7.974.051.574.1,1.148a1.163,1.163,0,0,0,1.133,1.133,1.142,1.142,0,0,0,1.133-1.133l-.7-7.975q-.05-.573-.1-1.148" transform="translate(-56.45 -38.692)" fill="#323232"/>
      <path id="パス_25766" data-name="パス 25766" d="M86.854,38.264a8.807,8.807,0,0,1,1.194-.306l.094-.009c.085-.007.17-.012.255-.014a4.288,4.288,0,0,1,.515.017h.006c.07.012.14.025.209.04a4.7,4.7,0,0,1,.468.13c.073.024.145.05.217.078l.062.027c.142.065.283.131.422.2a1.133,1.133,0,0,0,1.144-1.956,6.907,6.907,0,0,0-2.467-.783,6.453,6.453,0,0,0-2.719.386,1.133,1.133,0,1,0,.6,2.185m2.955-.065.052.025c-.067-.029-.157-.074-.052-.025" transform="translate(-42.399 -17.705)" fill="#323232"/>
      <path id="パス_25767" data-name="パス 25767" d="M66.23,42.62c-.089-.009-.245-.011,0,0" transform="translate(-32.812 -21.153)" fill="#323232"/>
      <path id="パス_25768" data-name="パス 25768" d="M63.693,42.573l-.015,0,.036-.006h0l-.019,0" transform="translate(-31.61 -21.132)" fill="#323232"/>
      <path id="パス_25769" data-name="パス 25769" d="M62.059,38.168a7.08,7.08,0,0,0-2.989.063,6.176,6.176,0,0,0-2.082,1.078,1.246,1.246,0,0,0-.521.677,1.159,1.159,0,0,0,.114.873,1.145,1.145,0,0,0,.677.521,1.1,1.1,0,0,0,.873-.114,7.108,7.108,0,0,1,.823-.552c.12-.067.244-.125.368-.184l.047-.017c.083-.03.167-.057.252-.082a4.2,4.2,0,0,1,.459-.1c-.145.024-.055.006.016,0l.006,0,.112-.018-.1.017c.089-.009.179-.015.268-.019a6.106,6.106,0,0,1,.615.007q.158.01.314.026c.048.005.1.014.145.017l-.028,0,.027,0a1.235,1.235,0,0,0,.873-.114,1.133,1.133,0,0,0-.271-2.071" transform="translate(-28.012 -18.883)" fill="#323232"/>
      <path id="パス_25770" data-name="パス 25770" d="M17.87,141.242l21.264.012,33.826.019,7.676,0a1.134,1.134,0,0,0,0-2.266L59.372,139l-33.826-.019-7.676,0a1.134,1.134,0,0,0,0,2.266" transform="translate(-8.328 -68.989)" fill="#afccff"/>
      <path id="パス_25771" data-name="パス 25771" d="M81.443,152.554l-7.394,0-17.76-.009-21.493-.01L16.2,152.523c-3.009,0-6.052-.133-9.06,0-.044,0-.088,0-.132,0a1.134,1.134,0,0,0,0,2.266l7.394,0,17.76.009,21.493.01,18.593.009c3.009,0,6.052.133,9.06,0,.044,0,.088,0,.132,0a1.134,1.134,0,0,0,0-2.266" transform="translate(-2.937 -75.684)" fill="#afccff"/>
      <path id="パス_25772" data-name="パス 25772" d="M101.963,97.559c.1,3.475.707,7.1,2.709,10.021a16.107,16.107,0,0,0,6.432,5.22c5.919,2.9,12.2,6.476,16.224,11.841a32.8,32.8,0,0,1,3.26,6.243c.606,1.324,2.56.174,1.957-1.144a42.883,42.883,0,0,0-2.389-4.97,29.622,29.622,0,0,0-7.529-7.726,60.219,60.219,0,0,0-8.423-5.216c-2.343-1.219-4.766-2.238-6.609-4.2-2.545-2.709-3.267-6.472-3.367-10.069a1.134,1.134,0,0,0-2.266,0" transform="translate(-50.615 -47.886)" fill="#323232"/>
      <path id="パス_25773" data-name="パス 25773" d="M29.452,105.559c-.008,3.1-.982,5.951-3.647,7.726-2.6,1.733-5.757,2.318-8.634,3.441-6.073,2.371-11.4,6.245-14.3,12.222L.125,134.584c-.636,1.306,1.318,2.456,1.956,1.144,2.032-4.177,3.75-8.505,7.226-11.736a27.315,27.315,0,0,1,9.219-5.366c2.956-1.095,6.165-1.746,8.766-3.622,3.129-2.255,4.415-5.661,4.425-9.444a1.134,1.134,0,0,0-2.266,0" transform="translate(0 -51.857)" fill="#323232"/>
    </g>
    <g id="グループ_1215" data-name="グループ 1215">
      <g id="マスクグループ_17" data-name="マスクグループ 17" clip-path="url(#clip-path-2)">
        <g id="リピートグリッド_9" data-name="リピートグリッド 9" transform="translate(36 881.5)" clip-path="url(#clip-path-3)">
          <g transform="translate(-36 -881.5)">
            <line id="線_233" data-name="線 233" y2="17" transform="translate(36.5 881.5)" fill="none" stroke="#afccff" stroke-width="1"/>
          </g>
          <g transform="translate(-32 -881.5)">
            <line id="線_233-2" data-name="線 233" y2="17" transform="translate(36.5 881.5)" fill="none" stroke="#afccff" stroke-width="1"/>
          </g>
          <g transform="translate(-28 -881.5)">
            <line id="線_233-3" data-name="線 233" y2="17" transform="translate(36.5 881.5)" fill="none" stroke="#afccff" stroke-width="1"/>
          </g>
          <g transform="translate(-24 -881.5)">
            <line id="線_233-4" data-name="線 233" y2="17" transform="translate(36.5 881.5)" fill="none" stroke="#afccff" stroke-width="1"/>
          </g>
          <g transform="translate(-20 -881.5)">
            <line id="線_233-5" data-name="線 233" y2="17" transform="translate(36.5 881.5)" fill="none" stroke="#afccff" stroke-width="1"/>
          </g>
          <g transform="translate(-16 -881.5)">
            <line id="線_233-6" data-name="線 233" y2="17" transform="translate(36.5 881.5)" fill="none" stroke="#afccff" stroke-width="1"/>
          </g>
          <g transform="translate(-12 -881.5)">
            <line id="線_233-7" data-name="線 233" y2="17" transform="translate(36.5 881.5)" fill="none" stroke="#afccff" stroke-width="1"/>
          </g>
          <g transform="translate(-8 -881.5)">
            <line id="線_233-8" data-name="線 233" y2="17" transform="translate(36.5 881.5)" fill="none" stroke="#afccff" stroke-width="1"/>
          </g>
        </g>
      </g>
      <g id="マスクグループ_18" data-name="マスクグループ 18" clip-path="url(#clip-path-4)">
        <g id="リピートグリッド_10" data-name="リピートグリッド 10" transform="translate(74 881.092)" clip-path="url(#clip-path-5)">
          <g transform="translate(-36 -881.5)">
            <line id="線_233-9" data-name="線 233" y2="17" transform="translate(36.5 881.5)" fill="none" stroke="#afccff" stroke-width="1"/>
          </g>
          <g transform="translate(-32 -881.5)">
            <line id="線_233-10" data-name="線 233" y2="17" transform="translate(36.5 881.5)" fill="none" stroke="#afccff" stroke-width="1"/>
          </g>
          <g transform="translate(-28 -881.5)">
            <line id="線_233-11" data-name="線 233" y2="17" transform="translate(36.5 881.5)" fill="none" stroke="#afccff" stroke-width="1"/>
          </g>
          <g transform="translate(-24 -881.5)">
            <line id="線_233-12" data-name="線 233" y2="17" transform="translate(36.5 881.5)" fill="none" stroke="#afccff" stroke-width="1"/>
          </g>
          <g transform="translate(-20 -881.5)">
            <line id="線_233-13" data-name="線 233" y2="17" transform="translate(36.5 881.5)" fill="none" stroke="#afccff" stroke-width="1"/>
          </g>
          <g transform="translate(-16 -881.5)">
            <line id="線_233-14" data-name="線 233" y2="17" transform="translate(36.5 881.5)" fill="none" stroke="#afccff" stroke-width="1"/>
          </g>
          <g transform="translate(-12 -881.5)">
            <line id="線_233-15" data-name="線 233" y2="17" transform="translate(36.5 881.5)" fill="none" stroke="#afccff" stroke-width="1"/>
          </g>
          <g transform="translate(-8 -881.5)">
            <line id="線_233-16" data-name="線 233" y2="17" transform="translate(36.5 881.5)" fill="none" stroke="#afccff" stroke-width="1"/>
          </g>
          <g transform="translate(-4 -881.5)">
            <line id="線_233-17" data-name="線 233" y2="17" transform="translate(36.5 881.5)" fill="none" stroke="#afccff" stroke-width="1"/>
          </g>
          <g transform="translate(0 -881.5)">
            <line id="線_233-18" data-name="線 233" y2="17" transform="translate(36.5 881.5)" fill="none" stroke="#afccff" stroke-width="1"/>
          </g>
          <g transform="translate(4 -881.5)">
            <line id="線_233-19" data-name="線 233" y2="17" transform="translate(36.5 881.5)" fill="none" stroke="#afccff" stroke-width="1"/>
          </g>
        </g>
      </g>
      <g id="グループ_1085" data-name="グループ 1085" transform="translate(32 814.721)" clip-path="url(#clip-path-6)">
        <path id="パス_25450" data-name="パス 25450" d="M70.446,69.067a13.813,13.813,0,0,0,6.426-5.086,18.025,18.025,0,0,0,3.146-8.352,33.121,33.121,0,0,0,.012-4.052,1.147,1.147,0,0,1,.818-1.074,5.217,5.217,0,0,0,.775-.372,5.378,5.378,0,0,0,1.584-1.254,4.555,4.555,0,0,0,.736-3.289,5.491,5.491,0,0,0-1.281-3.413,1.71,1.71,0,0,0-1.569-.535,3.5,3.5,0,0,0-.937.3c-.137.064-.261.143-.393.215h0c-.607.879-1.957.207-1.948-.777A25.1,25.1,0,0,1,75,38.348a53.59,53.59,0,0,1-4.75-6.627c-1.4,1.188-2.8,2.373-4.249,3.5a1.233,1.233,0,0,1-.108.069,1.275,1.275,0,0,1-.117.105c-2.18,1.608-4.92,1.8-7.516,2.136-1.217.156-1.344-1.516-.562-2.076a9.834,9.834,0,0,0,2.941-2.817c.049-.082.083-.172.128-.257l-.129.081a27.647,27.647,0,0,0-4.722,3.942,24.393,24.393,0,0,0-6.876,11.869c-.007.03-.019.055-.028.084a1.035,1.035,0,0,1-1.361.985c-.1-.033-.212-.057-.32-.08-.058-.012-.261-.039-.282-.045l-.062,0c-.076-.005-.152-.009-.229-.011-.153,0-.305.006-.459.015h-.008c-.069.022-.147.028-.217.045-.089.022-.175.056-.263.077l-.024,0-.007,0c-.126.072-.251.141-.37.223-.028.027-.1.087-.13.122s-.093.106-.124.14-.093.145-.109.172-.172.331-.1.173a4.7,4.7,0,0,0-.345,1.609,5.045,5.045,0,0,0,.195,1.746,3.583,3.583,0,0,0,.318.767c.043.074.091.144.139.214l0,0c.025.031.05.061.075.091a14.729,14.729,0,0,0,1.4,1.38,3.749,3.749,0,0,1,.411-1.052,2.794,2.794,0,0,1,2.59-1.378,2.635,2.635,0,0,1,.967-1.53,2.875,2.875,0,0,1,2.944-.111c1.319.692,1.621,2.141,1.94,3.5a2.489,2.489,0,0,1,.827.07c2.2.587,2.86,3.363,3.22,5.313a30.8,30.8,0,0,0,1.757,7.191c.145.327.3.651.451.972a8.451,8.451,0,0,0,4.233.805,11.128,11.128,0,0,0,4.381-.7M57.613,47.3a1.115,1.115,0,0,1,0-2.228,1.115,1.115,0,0,1,0,2.228m1.293-6.957a9.865,9.865,0,0,1-4.356,2.521,1.138,1.138,0,0,1-1.37-.778,1.123,1.123,0,0,1,.778-1.37,7.123,7.123,0,0,0,.755-.213c.071-.025.142-.051.212-.078.136-.062.271-.125.4-.2a8.578,8.578,0,0,0,.985-.616c.078-.056.155-.113.232-.172l.034-.027.129-.1c.213-.175.42-.356.624-.542a1.139,1.139,0,0,1,1.575,0,1.121,1.121,0,0,1,0,1.575M70.6,45.009a1.115,1.115,0,0,1,0-2.228,1.115,1.115,0,0,1,0,2.228M67.078,37.53a1.13,1.13,0,0,1,1.524-.4c.1.058.209.112.317.162l.119.047c.246.092.5.169.749.237a13.123,13.123,0,0,0,1.521.3c.23.029.46.055.692.073a1.142,1.142,0,0,1,1.114,1.114A1.119,1.119,0,0,1,72,40.181a11,11,0,0,1-4.523-1.127,1.134,1.134,0,0,1-.4-1.524M65.8,52.993a1.115,1.115,0,0,1,0,2.228,1.115,1.115,0,0,1,0-2.228m.2,7.947c-.032.028-.064.055-.1.084a2.359,2.359,0,0,0-.174.178l-.012.017a1.142,1.142,0,0,1-1.524.4,1.121,1.121,0,0,1-.4-1.524,4.014,4.014,0,0,1,5.559-1.027,1.316,1.316,0,0,1,.512.666,1.123,1.123,0,0,1-.112.859,1.137,1.137,0,0,1-.665.512,1.117,1.117,0,0,1-.859-.112,3.269,3.269,0,0,0-.459-.283l-.066-.023q-.128-.041-.259-.069l-.131-.026-.013,0c-.046,0-.091,0-.117,0-.089,0-.178,0-.266.006H66.9a3.844,3.844,0,0,0-.5.132l-.03.011c-.076.037-.151.077-.224.12-.021.012-.067.035-.112.06-.008.007,0,.006-.019.018" transform="translate(-22.511 -16.016)" fill="#fff"/>
        <path id="パス_25451" data-name="パス 25451" d="M95.991,113.267a14.976,14.976,0,0,1-1.884-6.172,15.523,15.523,0,0,1-4.553,2.371,14.121,14.121,0,0,1-5.1.552,18.777,18.777,0,0,1-2.083-.187c2.179,3.983,4.53,7.834,4.722,12.575a22.774,22.774,0,0,1-.29,4.49,1.218,1.218,0,0,1,.169-.018,41.2,41.2,0,0,0,11.38-2.09,46.229,46.229,0,0,0,5.36-1.911,11.215,11.215,0,0,0,3.2-1.846,1.236,1.236,0,0,1,.135-.109c-2.068-1.012-4.166-1.965-6.165-3.1a13.15,13.15,0,0,1-4.9-4.553" transform="translate(-41.59 -54.071)" fill="#fff"/>
        <path id="パス_25452" data-name="パス 25452" d="M79.7,2.449c.329.182.182.041,0,0" transform="translate(-40.239 -1.236)" fill="#ffe164"/>
        <path id="パス_25453" data-name="パス 25453" d="M79.181,2.538a.746.746,0,0,1,.254-.1c-.1-.022-.21-.014-.254.1" transform="translate(-39.978 -1.226)" fill="#ffe164"/>
        <path id="パス_25454" data-name="パス 25454" d="M46.855,31.688a26.7,26.7,0,0,1,5.9-9.694,29.955,29.955,0,0,1,5.054-4.577c.724-.488,1.475-.936,2.2-1.428A10.706,10.706,0,0,0,61,15.26c.112-.1.507-.506.475-.426.525-1.293,2.6-.8,2.148.593a21.024,21.024,0,0,1-1.811,4.689,7.609,7.609,0,0,1-.589.809,7.9,7.9,0,0,0,2.712-1.212c1.768-1.386,3.479-2.848,5.19-4.3a1.129,1.129,0,0,1,1.75.225,43.888,43.888,0,0,0,5.161,7.5,25.63,25.63,0,0,0,1.869,2.1c.362-1.039.685-2.094.955-3.157a12.568,12.568,0,0,0,.522-3.5,11.069,11.069,0,0,0-1.328-4.173,24.937,24.937,0,0,0-5.705-7.5,7.516,7.516,0,0,0-3.716-2.086c-1.455-.289-3.206-.681-4.645-.156a22.807,22.807,0,0,1-2.342,1.022c-.629.152-1.126-.206-1.7-.406A7.209,7.209,0,0,0,58.1,4.884a11.7,11.7,0,0,0-7.42,2.473,18.835,18.835,0,0,0-5.383,5.827,16.788,16.788,0,0,0-2.015,8.944,18.523,18.523,0,0,0,.757,4.71,9.09,9.09,0,0,0,1.385,3.129c.464.585.954,1.15,1.434,1.722" transform="translate(-21.846 -2.224)" fill="#323232"/>
        <path id="パス_25455" data-name="パス 25455" d="M37.763,131.679a68.678,68.678,0,0,0,13.088,4.58,8.237,8.237,0,0,0-.334-1.829,29.5,29.5,0,0,0-2.216-4.782c-.279-.538-.534-1.089-.783-1.641-1.488.629-2.99,1.236-4.509,1.782-1.757.631-3.521,1.193-5.245,1.89" transform="translate(-19.066 -64.629)" fill="#fff"/>
        <path id="パス_25456" data-name="パス 25456" d="M90.535,90.022c.053.008.122.02.125.021a.238.238,0,0,0-.125-.021" transform="translate(-45.71 -45.451)" fill="#ffe164"/>
        <path id="パス_25457" data-name="パス 25457" d="M68.348,107.618c-.015-5.64-3.414-9.984-5.8-14.83a23.439,23.439,0,0,1-2.2-6.608c-.17-1.031-.257-2.073-.517-3.088a7.5,7.5,0,0,0-.9-2.542c-.876-1.163-1.059.394-.995,1.088.05.544.129,1,.221,1.6.35,2.241.723,4.479,1.064,6.721.214,1.405-1.933,2.005-2.148.592-.395-2.59-.856-5.171-1.221-7.766a6.871,6.871,0,0,1-.011-2.96,2.851,2.851,0,0,1,.3-.653c-.194-.933-.35-2.515-1.15-2.811s-.641.815-.616,1.3c.047.92.107,1.839.166,2.758a103.187,103.187,0,0,0,1.212,10.975c.242,1.4-1.905,2-2.148.592a106.53,106.53,0,0,1-1.423-13.628c-.01-.006-.02-.009-.03-.015-.8-.506-.794,1.682-.788,1.966.023,1.206.1,2.41.214,3.61a62.482,62.482,0,0,0,1.306,7.834c.317,1.4-1.832,1.99-2.148.593q-.624-2.753-1.033-5.553c0,.054,0,.107-.006.161-.142,1.962-.206,3.865.787,5.646.865,1.552,2.174,2.8,3.078,4.336s1.5,3.217,2.294,4.8c1.469,2.931,3.381,5.909,3.285,9.317a20.346,20.346,0,0,1-2.175,7.642c-.5,1.09-1.048,2.159-1.642,3.2h9.593q1.07-3.313,2.141-6.626a24.677,24.677,0,0,0,1.285-7.654" transform="translate(-25.053 -38.528)" fill="#fff"/>
        <path id="パス_25458" data-name="パス 25458" d="M90.27,44.425a11.009,11.009,0,0,0,4.522,1.127,1.119,1.119,0,0,0,1.114-1.114,1.142,1.142,0,0,0-1.114-1.114c-.231-.018-.461-.045-.692-.073a13.245,13.245,0,0,1-1.52-.305c-.253-.068-.5-.145-.749-.236l-.12-.047c-.108-.05-.213-.1-.317-.162a1.114,1.114,0,0,0-1.124,1.924" transform="translate(-45.304 -21.386)" fill="#323232"/>
        <path id="パス_25459" data-name="パス 25459" d="M66.049,45.63c-.2.185-.411.366-.624.542l-.129.1-.035.027c-.076.059-.154.116-.232.172a8.529,8.529,0,0,1-.984.616c-.132.07-.267.133-.4.2-.07.027-.141.053-.212.078a7.156,7.156,0,0,1-.755.213,1.124,1.124,0,0,0-.778,1.37,1.138,1.138,0,0,0,1.37.778,9.866,9.866,0,0,0,4.356-2.521,1.121,1.121,0,0,0,0-1.575,1.139,1.139,0,0,0-1.575,0" transform="translate(-31.229 -22.878)" fill="#323232"/>
        <path id="パス_25460" data-name="パス 25460" d="M96.031,54.06a1.115,1.115,0,0,0,0,2.228,1.115,1.115,0,0,0,0-2.228" transform="translate(-47.942 -27.294)" fill="#323232"/>
        <path id="パス_25461" data-name="パス 25461" d="M86.346,76.912a1.115,1.115,0,0,0,0-2.228,1.115,1.115,0,0,0,0,2.228" transform="translate(-43.052 -37.707)" fill="#323232"/>
        <path id="パス_25462" data-name="パス 25462" d="M85.8,87.923l.03-.012a3.839,3.839,0,0,1,.5-.132h.03c.089-.006.178-.008.267-.007.025,0,.07,0,.116,0l.013,0c.044.009.088.016.131.025a2.594,2.594,0,0,1,.259.07l.066.023a3.266,3.266,0,0,1,.459.283,1.115,1.115,0,0,0,.859.112,1.115,1.115,0,0,0,.778-1.37,1.316,1.316,0,0,0-.512-.666,4.014,4.014,0,0,0-5.559,1.027,1.12,1.12,0,0,0,.4,1.523,1.14,1.14,0,0,0,1.524-.4l.012-.016a2.361,2.361,0,0,1,.174-.178c.031-.029.064-.056.1-.084l.019-.018c.045-.026.091-.048.112-.06.073-.043.148-.083.224-.119m1.1-.135-.125-.021a.244.244,0,0,1,.125.021" transform="translate(-41.95 -43.196)" fill="#323232"/>
        <path id="パス_25463" data-name="パス 25463" d="M69.8,58.686a1.115,1.115,0,0,0,0,2.228,1.115,1.115,0,0,0,0-2.228" transform="translate(-34.697 -29.63)" fill="#323232"/>
        <path id="パス_25464" data-name="パス 25464" d="M119.256,97.46c0-.076-.028-.115,0,0" transform="translate(-60.204 -49.17)" fill="#fff"/>
        <path id="パス_25465" data-name="パス 25465" d="M119.223,97.2c.011-.025.012-.036.019-.056s0-.012,0-.017a.545.545,0,0,1-.019.073" transform="translate(-60.194 -49.037)" fill="#fff"/>
        <path id="パス_25466" data-name="パス 25466" d="M119.26,96.975V97a1.209,1.209,0,0,0,.03-.123c-.01-.007-.032.031-.031.1" transform="translate(-60.213 -48.911)" fill="#fff"/>
        <path id="パス_25467" data-name="パス 25467" d="M120.481,94.985c-.057-.226-.13-.448-.207-.667-.084-.238-.176-.473-.271-.707-.021-.051-.04-.1-.064-.153l-.012-.026-.034-.077a.838.838,0,0,0-.089.213s.087-.211.04-.095c-.014.035-.029.069-.043.1q-.1.237-.189.476a9.11,9.11,0,0,0-.29.876c-.014.052-.022.111-.031.169.008.006,0,.056-.03.141,0,.063.005.126,0,.188s.026.115.043.173a.843.843,0,0,0,.049.123,1.456,1.456,0,0,1,.108.2c.021.024.041.048.064.071s.055.051.083.077l.006,0c.111.06.192.085.019.032.048.015.1.031.152.049l.023.011h.153c.041-.011.1-.031.11-.034h.005l.02-.015c.024-.017.053-.034.082-.051a1.357,1.357,0,0,1,.157-.164l0-.007c.027-.049.057-.1.086-.148.007-.013.011-.018.016-.026s0-.016.008-.03c.026-.091.047-.183.069-.274,0-.051.005-.1.006-.153q0-.03,0-.062c-.016-.069-.029-.14-.046-.209" transform="translate(-60.213 -47.134)" fill="#fff"/>
        <path id="パス_25468" data-name="パス 25468" d="M119.261,97v.018c.03-.085.038-.135.03-.141a1.178,1.178,0,0,1-.03.123" transform="translate(-60.213 -48.912)" fill="#323232"/>
        <path id="パス_25469" data-name="パス 25469" d="M72.591,68.318A78.625,78.625,0,0,0,63,63.126a17.145,17.145,0,0,1-5.809-3.846c-1.937-2.226-2.466-5.266-2.583-8.125.329-.351.649-.71.948-1.09a19.64,19.64,0,0,0,1.273-1.835,2.907,2.907,0,0,0,.188,1.038,2.868,2.868,0,0,0,2.906,1.972,3.031,3.031,0,0,0,2.6-2.88,1.056,1.056,0,0,0,.023-.236,8.615,8.615,0,0,0-1-3.152c-.232-.522-.484-1.036-.742-1.547V36.243a1.083,1.083,0,0,0-.114-.469,6.943,6.943,0,0,0,2.123-2.05,7.58,7.58,0,0,0,.7-5.3,6.372,6.372,0,0,0-2.752-4.574,3.857,3.857,0,0,0-2.51-.414c.3-.88.581-1.767.819-2.663a19.508,19.508,0,0,0,.667-3.67,9.236,9.236,0,0,0-.627-3.678,25.015,25.015,0,0,0-5.318-8.6,21.3,21.3,0,0,0-3.643-3.281,10.876,10.876,0,0,0-4.7-1.391,7.927,7.927,0,0,0-4.439.367c-.471.209-.929.453-1.405.65-.024.01-.086.028-.153.048l-.008,0a4.921,4.921,0,0,0-.762-.3,11.3,11.3,0,0,0-8.4.8A19.316,19.316,0,0,0,19.5,15.632a21.291,21.291,0,0,0,1.261,11.587,10.777,10.777,0,0,0,1.9,2.894q.377.447.751.9a3.938,3.938,0,0,0-1.593.584,4.5,4.5,0,0,0-1.837,3.117,7.03,7.03,0,0,0,.712,4.732,10.983,10.983,0,0,0,2.646,2.711,1.381,1.381,0,0,0,.749.307c0,.011,0,.023,0,.034a1.009,1.009,0,0,0-.621.189c-1.1.744-1.162,2.043-1.113,3.261.028.709.1,1.418.081,2.127-.024.831-.156,1.648-.131,2.483a9.94,9.94,0,0,0,1.446,5.038c.982,1.557,2.276,2.867,3.153,4.5.225.417.433.843.635,1.272-3.468,1.445-7.488,2.6-11.027,4.2A27.651,27.651,0,0,0,4.357,75.521c-1.572,2.43-2.812,5.056-4.244,7.567A1.176,1.176,0,0,0,0,83.371H2.51c2.224-4.025,4.16-8.254,7.715-11.316a28.977,28.977,0,0,1,5.911-3.83,1.086,1.086,0,0,0,.3.219A71.711,71.711,0,0,0,31.688,73.9a18.781,18.781,0,0,1-1.206,4.016,34.922,34.922,0,0,1-2.6,5.163,1.17,1.17,0,0,0-.126.3h2.517c.594-1.043,1.146-2.113,1.641-3.2a20.34,20.34,0,0,0,2.175-7.642c.1-3.408-1.816-6.386-3.284-9.317-.8-1.587-1.389-3.272-2.294-4.8S26.3,55.622,25.435,54.07c-.993-1.781-.929-3.684-.787-5.646,0-.054,0-.107.005-.161q.405,2.8,1.033,5.552c.316,1.4,2.465.807,2.148-.592a62.5,62.5,0,0,1-1.305-7.834c-.115-1.2-.192-2.4-.214-3.61-.005-.285-.01-2.472.788-1.966.01.006.02.009.03.015a106.618,106.618,0,0,0,1.423,13.628c.243,1.41,2.39.812,2.148-.593A103.047,103.047,0,0,1,29.494,41.89c-.059-.919-.119-1.838-.166-2.758-.025-.485-.187-1.6.616-1.3s.957,1.878,1.15,2.811a2.9,2.9,0,0,0-.3.653,6.878,6.878,0,0,0,.011,2.96c.365,2.594.826,5.176,1.221,7.766.215,1.413,2.363.812,2.148-.592-.342-2.243-.714-4.48-1.064-6.721-.093-.593-.171-1.054-.222-1.6-.064-.694.119-2.251.995-1.088a7.5,7.5,0,0,1,.9,2.542c.259,1.014.347,2.056.516,3.088a23.439,23.439,0,0,0,2.2,6.608c2.389,4.846,5.788,9.19,5.8,14.83a24.677,24.677,0,0,1-1.285,7.654l-2.14,6.626h2.35c.936-2.793,1.945-5.611,2.6-8.487a1.073,1.073,0,0,0,.567.15A43.64,43.64,0,0,0,57.6,72.791a50.214,50.214,0,0,0,5.653-2.063A12,12,0,0,0,66.9,68.534a1.018,1.018,0,0,0,.328-.78c.378.2.761.388,1.133.6a30.346,30.346,0,0,1,8.408,6.48,29.481,29.481,0,0,1,4.771,8.54h2.38a36.769,36.769,0,0,0-4.132-8.256,26.973,26.973,0,0,0-7.2-6.8m-43.356-3.3A29.5,29.5,0,0,1,31.451,69.8a8.214,8.214,0,0,1,.334,1.829A68.621,68.621,0,0,1,18.7,67.049c1.724-.7,3.488-1.258,5.245-1.889,1.519-.546,3.022-1.153,4.51-1.782.25.553.5,1.1.783,1.641M59.052,48.29c-.028-.114,0-.076,0,0m1.259-.013c-.022.092-.043.183-.07.275,0,.014-.005.021-.007.03l-.016.026c-.029.048-.059.1-.086.148l0,.007a1.392,1.392,0,0,0-.157.164c-.029.018-.058.035-.082.051a.173.173,0,0,0-.02.016h0c-.015,0-.07.023-.111.034H59.6l-.024-.011c-.048-.018-.1-.035-.152-.05.173.053.092.028-.019-.031l-.006,0c-.028-.025-.056-.05-.083-.077s-.043-.047-.064-.07a1.358,1.358,0,0,0-.108-.2.97.97,0,0,1-.049-.123c-.016-.057-.028-.115-.042-.173s0-.125,0-.188c-.007.02-.008.031-.019.055a.547.547,0,0,0,.019-.073v-.024c0-.068.021-.106.031-.1.009-.058.017-.117.031-.169a8.974,8.974,0,0,1,.29-.876c.06-.159.124-.318.189-.476l.043-.1c.047-.116-.041.1-.04.095a.827.827,0,0,1,.089-.213l.034.077.012.026c.024.05.043.1.063.153.1.233.188.468.272.706.078.22.151.442.207.667.017.069.03.14.046.21,0,.021,0,.042,0,.062,0,.05,0,.1-.006.153M39.46,1.212c.182.041.329.183,0,0m0,0a.735.735,0,0,0-.254.1c.044-.115.153-.123.254-.1M22.19,24.613a18.48,18.48,0,0,1-.757-4.71,16.788,16.788,0,0,1,2.015-8.944,18.837,18.837,0,0,1,5.384-5.827,11.7,11.7,0,0,1,7.42-2.473,7.205,7.205,0,0,1,1.845.395c.574.2,1.07.558,1.7.406a22.8,22.8,0,0,0,2.341-1.022c1.439-.525,3.19-.132,4.645.156A7.518,7.518,0,0,1,50.5,4.68a24.949,24.949,0,0,1,5.705,7.5,11.083,11.083,0,0,1,1.328,4.173,12.586,12.586,0,0,1-.522,3.5c-.27,1.063-.593,2.118-.956,3.157a25.719,25.719,0,0,1-1.869-2.1,43.892,43.892,0,0,1-5.161-7.5,1.128,1.128,0,0,0-1.75-.225c-1.711,1.455-3.422,2.917-5.19,4.3A7.893,7.893,0,0,1,39.373,18.7a7.545,7.545,0,0,0,.589-.809A21.024,21.024,0,0,0,41.773,13.2c.452-1.4-1.623-1.885-2.148-.593.033-.08-.363.33-.475.426a10.79,10.79,0,0,1-.988.729c-.723.492-1.473.94-2.2,1.428a29.953,29.953,0,0,0-5.054,4.577,26.7,26.7,0,0,0-5.9,9.694c-.481-.572-.97-1.137-1.435-1.722a9.089,9.089,0,0,1-1.385-3.129M38.87,51.972a30.746,30.746,0,0,1-1.757-7.191c-.36-1.95-1.025-4.726-3.22-5.313a2.489,2.489,0,0,0-.827-.07c-.319-1.354-.621-2.8-1.94-3.5a2.874,2.874,0,0,0-2.944.111,2.638,2.638,0,0,0-.968,1.53,2.794,2.794,0,0,0-2.59,1.378,3.734,3.734,0,0,0-.411,1.052,14.612,14.612,0,0,1-1.4-1.38c-.026-.03-.051-.06-.075-.091l0,0c-.048-.071-.1-.14-.139-.214a3.583,3.583,0,0,1-.318-.767,5.058,5.058,0,0,1-.2-1.746,4.687,4.687,0,0,1,.346-1.609c-.069.158.079-.134.1-.173s.083-.129.109-.172.1-.119.123-.14.1-.095.131-.122c.119-.082.244-.151.37-.222l.007,0,.024,0c.089-.021.174-.055.263-.077.07-.017.149-.023.218-.045h.007c.153-.009.305-.018.459-.015.076,0,.153.005.229.011l.062,0c.02.006.223.033.281.045a3.253,3.253,0,0,1,.32.08,1.034,1.034,0,0,0,1.361-.984c.009-.029.021-.054.028-.085A24.4,24.4,0,0,1,33.4,20.39a27.693,27.693,0,0,1,4.722-3.942l.129-.081c-.045.085-.08.175-.128.257a9.836,9.836,0,0,1-2.942,2.817c-.782.559-.655,2.232.562,2.076,2.6-.333,5.336-.529,7.516-2.136a1.213,1.213,0,0,0,.117-.105c.036-.023.073-.041.108-.068,1.447-1.128,2.85-2.312,4.249-3.5a53.59,53.59,0,0,0,4.75,6.627A25.023,25.023,0,0,0,55.3,25.365c-.009.984,1.341,1.656,1.948.777h0c.132-.072.256-.151.393-.215a3.5,3.5,0,0,1,.937-.3,1.707,1.707,0,0,1,1.569.535,5.486,5.486,0,0,1,1.282,3.413,4.558,4.558,0,0,1-.736,3.288,5.387,5.387,0,0,1-1.585,1.254,5.194,5.194,0,0,1-.775.372,1.148,1.148,0,0,0-.818,1.074,33.026,33.026,0,0,1-.012,4.052,18.018,18.018,0,0,1-3.146,8.352,13.812,13.812,0,0,1-6.426,5.086,11.13,11.13,0,0,1-4.381.7,8.449,8.449,0,0,1-4.233-.805c-.155-.322-.306-.646-.451-.972M65.327,66.958a11.219,11.219,0,0,1-3.2,1.846,46.235,46.235,0,0,1-5.36,1.911,41.21,41.21,0,0,1-11.38,2.09,1.216,1.216,0,0,0-.169.018,22.774,22.774,0,0,0,.29-4.49c-.193-4.741-2.544-8.592-4.723-12.575a18.661,18.661,0,0,0,2.083.187,14.12,14.12,0,0,0,5.1-.551,15.526,15.526,0,0,0,4.553-2.371A14.985,14.985,0,0,0,54.4,59.2a13.151,13.151,0,0,0,4.9,4.553c2,1.135,4.1,2.088,6.165,3.1a1.289,1.289,0,0,0-.136.109" transform="translate(0 0)" fill="#323232"/>
        <path id="パス_25470" data-name="パス 25470" d="M132.38,101a1.14,1.14,0,0,0,.4,1.524,15.817,15.817,0,0,0,10.528,3.032,1.142,1.142,0,0,0,1.114-1.114,1.123,1.123,0,0,0-1.114-1.114,13.913,13.913,0,0,1-9.4-2.728,1.121,1.121,0,0,0-1.524.4" transform="translate(-66.76 -50.709)" fill="#323232"/>
        <path id="パス_25471" data-name="パス 25471" d="M161.536,102.132a3.4,3.4,0,0,0,.162-3.63,3.532,3.532,0,0,0-5.4-.558c-.989,1.038.584,2.616,1.575,1.575.046-.049.093-.1.143-.142l.036-.025c.059-.036.119-.07.18-.1l.028-.01c.05-.014.252-.059.277-.072a3.7,3.7,0,0,1,.371-.007l.034,0c.066.013.132.027.2.045s.126.038.188.06l.039.02c.059.036.335.232.208.121.052.046.1.1.151.147.027.029.036.038.045.046-.011-.009-.02-.016.005.024.007.01.044.077.064.11s.038.106.042.119.019.078.03.118.01.1.01.118a1.308,1.308,0,0,1-.1.58,1.209,1.209,0,0,1-.833.754,1.119,1.119,0,0,0,.3,2.188,1.79,1.79,0,0,1,1.4.75,1.569,1.569,0,0,1,.15,1.548,1.6,1.6,0,0,1-1.236,1.013,1.8,1.8,0,0,1-1.6-.595c-.973-1.057-2.546.522-1.575,1.575a3.919,3.919,0,0,0,6.389-.982,3.839,3.839,0,0,0-.2-3.685,4.2,4.2,0,0,0-1.072-1.107" transform="translate(-78.754 -48.943)" fill="#323232"/>
      </g>
    </g>
    <g id="マスクグループ_19" data-name="マスクグループ 19" clip-path="url(#clip-path-7)">
      <g id="リピートグリッド_11" data-name="リピートグリッド 11" transform="translate(297.793 878.793)" clip-path="url(#clip-path-8)">
        <g transform="translate(-297.793 -878.793)">
          <line id="線_234" data-name="線 234" x1="20" y2="20" transform="translate(298.5 879.5)" fill="none" stroke="#afccff" stroke-width="2"/>
        </g>
        <g transform="translate(-291.793 -878.793)">
          <line id="線_234-2" data-name="線 234" x1="20" y2="20" transform="translate(298.5 879.5)" fill="none" stroke="#afccff" stroke-width="2"/>
        </g>
        <g transform="translate(-285.793 -878.793)">
          <line id="線_234-3" data-name="線 234" x1="20" y2="20" transform="translate(298.5 879.5)" fill="none" stroke="#afccff" stroke-width="2"/>
        </g>
        <g transform="translate(-279.793 -878.793)">
          <line id="線_234-4" data-name="線 234" x1="20" y2="20" transform="translate(298.5 879.5)" fill="none" stroke="#afccff" stroke-width="2"/>
        </g>
        <g transform="translate(-273.793 -878.793)">
          <line id="線_234-5" data-name="線 234" x1="20" y2="20" transform="translate(298.5 879.5)" fill="none" stroke="#afccff" stroke-width="2"/>
        </g>
        <g transform="translate(-267.793 -878.793)">
          <line id="線_234-6" data-name="線 234" x1="20" y2="20" transform="translate(298.5 879.5)" fill="none" stroke="#afccff" stroke-width="2"/>
        </g>
        <g transform="translate(-261.793 -878.793)">
          <line id="線_234-7" data-name="線 234" x1="20" y2="20" transform="translate(298.5 879.5)" fill="none" stroke="#afccff" stroke-width="2"/>
        </g>
        <g transform="translate(-255.793 -878.793)">
          <line id="線_234-8" data-name="線 234" x1="20" y2="20" transform="translate(298.5 879.5)" fill="none" stroke="#afccff" stroke-width="2"/>
        </g>
        <g transform="translate(-249.793 -878.793)">
          <line id="線_234-9" data-name="線 234" x1="20" y2="20" transform="translate(298.5 879.5)" fill="none" stroke="#afccff" stroke-width="2"/>
        </g>
        <g transform="translate(-243.793 -878.793)">
          <line id="線_234-10" data-name="線 234" x1="20" y2="20" transform="translate(298.5 879.5)" fill="none" stroke="#afccff" stroke-width="2"/>
        </g>
      </g>
    </g>
    <g id="マスクグループ_20" data-name="マスクグループ 20" clip-path="url(#clip-path-9)">
      <g id="リピートグリッド_12" data-name="リピートグリッド 12" transform="translate(239.793 879.793)" clip-path="url(#clip-path-8)">
        <g transform="translate(-297.793 -878.793)">
          <line id="線_234-11" data-name="線 234" x1="20" y2="20" transform="translate(298.5 879.5)" fill="none" stroke="#afccff" stroke-width="2"/>
        </g>
        <g transform="translate(-291.793 -878.793)">
          <line id="線_234-12" data-name="線 234" x1="20" y2="20" transform="translate(298.5 879.5)" fill="none" stroke="#afccff" stroke-width="2"/>
        </g>
        <g transform="translate(-285.793 -878.793)">
          <line id="線_234-13" data-name="線 234" x1="20" y2="20" transform="translate(298.5 879.5)" fill="none" stroke="#afccff" stroke-width="2"/>
        </g>
        <g transform="translate(-279.793 -878.793)">
          <line id="線_234-14" data-name="線 234" x1="20" y2="20" transform="translate(298.5 879.5)" fill="none" stroke="#afccff" stroke-width="2"/>
        </g>
        <g transform="translate(-273.793 -878.793)">
          <line id="線_234-15" data-name="線 234" x1="20" y2="20" transform="translate(298.5 879.5)" fill="none" stroke="#afccff" stroke-width="2"/>
        </g>
        <g transform="translate(-267.793 -878.793)">
          <line id="線_234-16" data-name="線 234" x1="20" y2="20" transform="translate(298.5 879.5)" fill="none" stroke="#afccff" stroke-width="2"/>
        </g>
        <g transform="translate(-261.793 -878.793)">
          <line id="線_234-17" data-name="線 234" x1="20" y2="20" transform="translate(298.5 879.5)" fill="none" stroke="#afccff" stroke-width="2"/>
        </g>
        <g transform="translate(-255.793 -878.793)">
          <line id="線_234-18" data-name="線 234" x1="20" y2="20" transform="translate(298.5 879.5)" fill="none" stroke="#afccff" stroke-width="2"/>
        </g>
        <g transform="translate(-249.793 -878.793)">
          <line id="線_234-19" data-name="線 234" x1="20" y2="20" transform="translate(298.5 879.5)" fill="none" stroke="#afccff" stroke-width="2"/>
        </g>
        <g transform="translate(-243.793 -878.793)">
          <line id="線_234-20" data-name="線 234" x1="20" y2="20" transform="translate(298.5 879.5)" fill="none" stroke="#afccff" stroke-width="2"/>
        </g>
      </g>
    </g>
    <g id="グループ_1089" data-name="グループ 1089" transform="translate(258.72 813.642)" clip-path="url(#clip-path-11)">
      <path id="パス_25515" data-name="パス 25515" d="M155.2,18.556c-.166-.038-.062-.01,0,0" transform="translate(-76.278 -9.116)" fill="#ffe164"/>
      <path id="パス_25516" data-name="パス 25516" d="M161.947,45.855l.018-.01c-.068.015-.187.105-.018.01" transform="translate(-79.598 -22.545)" fill="#ffe164"/>
      <path id="パス_25517" data-name="パス 25517" d="M83.985,93.988l0,.007c.04.071.082.138.125.206.022.024.044.048.067.071s.049.046.074.069q.1.065.208.124l.044.015c.044.014.09.02.135.03a2.209,2.209,0,0,0,.318,0c.045-.01.09-.016.135-.03l.042-.011.006,0c.071-.04.139-.082.207-.125.023-.022.048-.044.071-.067s.046-.048.068-.073c.043-.069.085-.137.125-.208.005-.015.011-.029.015-.044.019-.062.029-.125.042-.188,0-.035.007-.07.007-.105s-.005-.07-.007-.105c-.013-.063-.023-.127-.042-.188l-.012-.042,0-.007c-.04-.071-.082-.138-.125-.206-.022-.024-.044-.048-.067-.071s-.049-.046-.074-.068c-.068-.043-.137-.085-.208-.125l-.044-.015c-.044-.014-.09-.02-.135-.03a2.207,2.207,0,0,0-.318,0c-.045.01-.09.016-.135.03l-.041.012-.007,0c-.071.04-.138.082-.207.125-.024.022-.048.044-.071.067s-.046.048-.068.073c-.043.069-.084.137-.124.208-.006.015-.011.029-.016.045-.013.044-.019.09-.029.135a2.2,2.2,0,0,0,0,.317c.01.045.016.09.029.135,0,.007.008.026.012.042" transform="translate(-41.278 -45.631)" fill="#ffe164"/>
      <path id="パス_25518" data-name="パス 25518" d="M94.144,116.516a16.5,16.5,0,0,1-1.97-7.284,15.819,15.819,0,0,1-9.329,3.4,1.162,1.162,0,0,1-.352-.046c-.41.2-.815.4-1.2.6a4.03,4.03,0,0,0-.86.513s0,.006,0,.009V113.7l-.007,0c0,.077.022.283.024.314.038.322.1.637.151.956.933-.178,1.867-.354,2.8-.519,1.449-.256,2.9-.287,3.951.9a5.2,5.2,0,0,1,1.088,3.368,2.654,2.654,0,0,1,.58,1.008,5.709,5.709,0,0,1,.076,2.7,2.709,2.709,0,0,1,.582,1.071,1.2,1.2,0,0,1,.448-.111,76.234,76.234,0,0,0,7.6-.688,28.317,28.317,0,0,0,2.9-.572c.066-.017.131-.042.2-.059-.563-.289-1.125-.579-1.675-.891a13.166,13.166,0,0,1-5-4.669" transform="translate(-39.549 -53.717)" fill="#fff"/>
      <path id="パス_25519" data-name="パス 25519" d="M78.7,107.914a17.962,17.962,0,0,0,2.885-1.326,1.45,1.45,0,0,0,.413-.368.92.92,0,0,0,.055-.2.909.909,0,0,0-.374-.676c-.418-.209-1.266.137-1.679.272-.624.2-1.232.451-1.846.68a28.825,28.825,0,0,0-3.31,1.4,16.222,16.222,0,0,0-2.086,1.379l-.035.025,0,0c-.059.058-.128.108-.188.167s-.12.132-.183.194c-.013.019-.024.036-.041.065-.063.11-.125.221-.185.333l0,.008c-.026.073-.053.145-.077.22a6.1,6.1,0,0,0-.228,1,16.293,16.293,0,0,0-.067,2.821c.669-.155,1.349-.268,2.011-.392l.317-.06c-.049-1.162-.547-2.286.411-3.288A6.724,6.724,0,0,1,76.379,109c.764-.386,1.542-.74,2.325-1.085" transform="translate(-35.271 -51.774)" fill="#fff"/>
      <path id="パス_25520" data-name="パス 25520" d="M90.122,149.817c-.013.011.022.051.076.1-.015-.07-.04-.131-.076-.1" transform="translate(-44.318 -73.671)" fill="#ffe164"/>
      <path id="パス_25521" data-name="パス 25521" d="M162.85,45.151a.132.132,0,0,0-.032.02l-.018.032a.22.22,0,0,1,.049-.052" transform="translate(-80.06 -22.204)" fill="#ffe164"/>
      <path id="パス_25522" data-name="パス 25522" d="M162.976,44.037l.011.04c.006.007.011.019.018.016s-.01-.025-.028-.056" transform="translate(-80.146 -21.656)" fill="#ffe164"/>
      <path id="パス_25523" data-name="パス 25523" d="M162.963,44.87c.048-.082.016-.057-.012-.012-.007.024-.012.044-.016.06l.028-.048" transform="translate(-80.126 -22.039)" fill="#ffe164"/>
      <path id="パス_25524" data-name="パス 25524" d="M162.929,45.018l0,.007c0,.009,0,.019,0,.026a.089.089,0,0,1,0-.033" transform="translate(-80.12 -22.138)" fill="#ffe164"/>
      <path id="パス_25525" data-name="パス 25525" d="M162.95,43.954c-.022-.09-.025-.063-.016-.018l.019.031,0-.013" transform="translate(-80.123 -21.586)" fill="#ffe164"/>
      <path id="パス_25526" data-name="パス 25526" d="M85.462,146.858c0-.181,0-.362.008-.543.013-.29.039-.579.064-.869l-.36.027q.114.705.289,1.384" transform="translate(-41.885 -71.526)" fill="#ffe164"/>
      <path id="パス_25527" data-name="パス 25527" d="M78.115,24.6a19.814,19.814,0,0,1-6.471,9.655,11.059,11.059,0,0,1-5.312,2.609,23.707,23.707,0,0,1-5.57-.221,15.14,15.14,0,0,1-2.952,1.437,22.028,22.028,0,0,1-.08,2.629l1.768.565a5.243,5.243,0,0,1,.511-.66A6.4,6.4,0,0,1,66.5,38.987a5.724,5.724,0,0,1,3.763,3.584h2.913a5.464,5.464,0,0,1,1.037-1.914A5.963,5.963,0,0,1,80.512,39a5.765,5.765,0,0,1,2.88,2.152l2.4-.585c-.16-6-2.449-12.823-7.678-15.962m3.732,13.4a1.163,1.163,0,0,1-1.565.41c-.164-.088-.333-.166-.5-.242l-.059-.023-.265-.1c-.429-.166-.857-.332-1.28-.515a6.286,6.286,0,0,1-2.245-1.59,1.173,1.173,0,0,1,0-1.617,1.15,1.15,0,0,1,1.617,0,4.858,4.858,0,0,0,.481.483l.09.076c.08.056.159.113.242.166a7.489,7.489,0,0,0,.947.5l.131.056.272.107c.17.066.341.13.511.2a11.3,11.3,0,0,1,1.214.538,1.162,1.162,0,0,1,.411,1.565" transform="translate(-28.39 -12.1)" fill="#fff"/>
      <path id="パス_25528" data-name="パス 25528" d="M98.954,59.576c-.01-.066-.022-.132-.036-.2-.025-.115-.055-.23-.091-.343,0,0-.08-.214-.077-.218a2.846,2.846,0,0,0-.579-.879,3.454,3.454,0,0,0-2.037-1.069,3.415,3.415,0,0,0-3.829,1.968c-.014.039-.044.119-.05.142-.028.095-.059.188-.083.283-.019.077-.035.154-.05.232-.008.039-.014.065-.019.083s0,.048,0,.09c0,.183-.008.364.005.548a.374.374,0,0,1,0,.052c.01.059.02.118.033.177.017.077.036.153.057.23.026.095.057.188.09.28.009.025.014.039.016.048l.028.057c.077.159.168.307.26.458a1.081,1.081,0,0,0,.214.281,3.677,3.677,0,0,0,3.934,1,3.392,3.392,0,0,0,1.63-1.15c.016-.029.122-.182.121-.18.052-.082.1-.167.148-.253s.082-.158.118-.239l.026-.077a2.644,2.644,0,0,0,.177-.988c0-.036-.019-.34-.013-.338m-3.253.891a1.144,1.144,0,0,1,0-2.287,1.144,1.144,0,0,1,0,2.287" transform="translate(-45.292 -27.942)" fill="#fff"/>
      <path id="パス_25529" data-name="パス 25529" d="M68.312,56.875A4.036,4.036,0,0,0,64.5,58.324a2.689,2.689,0,0,0,.283,3.515,4.132,4.132,0,0,0,4.183.953,3.7,3.7,0,0,0,1.71-1.134,2.7,2.7,0,0,0-.165-3.669,3.852,3.852,0,0,0-2.2-1.114m-.475,3.593a1.144,1.144,0,0,1,0-2.287,1.144,1.144,0,0,1,0,2.287" transform="translate(-31.461 -27.943)" fill="#fff"/>
      <path id="パス_25530" data-name="パス 25530" d="M64.671,5.6c-5.151-2.48-11.805-.818-15.7,3.19-3.216,3.306-5.233,7.739-6.788,12.022A108.351,108.351,0,0,0,38.311,33.94c-.946,4.216-2.2,8.746-.478,12.918A9.344,9.344,0,0,0,44.887,52.8a10.182,10.182,0,0,1-4.507-5.566c-.476-1.4,1.734-1.994,2.206-.608a7.762,7.762,0,0,0,3.525,4.243c.565.325.806.487,1.259.327A6.657,6.657,0,0,1,45.3,47.934a22.469,22.469,0,0,1-1.326-6.13c-.14-4.857,1.7-9.6,1.322-14.456a.979.979,0,0,1,1.028-1.1,1.266,1.266,0,0,1,.315-.16,12.449,12.449,0,0,0,2.75-1.322.87.87,0,0,1,.461-.317,12.956,12.956,0,0,0,4.735-5.959,1.168,1.168,0,0,1,1.407-.8,1.153,1.153,0,0,1,.8,1.407,15.46,15.46,0,0,1-3.674,5.616,12.816,12.816,0,0,0,2.524.007,8.684,8.684,0,0,0,4.39-2.167,17.964,17.964,0,0,0,6.21-10.595c.257-1.377,2.26-.884,2.223.406a1.247,1.247,0,0,1,.142.059C74.981,15.87,77.831,24,77.885,31.045A4.485,4.485,0,0,1,80.1,31.2a4.864,4.864,0,0,1,2.8,3.535,7.894,7.894,0,0,1-1.054,5.846,3.124,3.124,0,0,1,.166.948,1.084,1.084,0,0,1-.025.242,3.028,3.028,0,0,1-.717,1.69,2.76,2.76,0,0,1-1.541.9,3.092,3.092,0,0,1-1.553-.106c-.138.872-.3,1.749-.472,2.609a18.289,18.289,0,0,1-3.54,7.415,3.35,3.35,0,0,0,2.319-.825,1.115,1.115,0,0,1,.482-1.885,8.475,8.475,0,0,0,4.308-3.108,11.124,11.124,0,0,0,2.052-5.273,30.9,30.9,0,0,0-.88-10.976c-.7-3.121-1.549-6.222-2.454-9.288a45.891,45.891,0,0,0-3.856-9.745c-1.459-2.57-3.491-5.208-6.6-5.655a1.15,1.15,0,0,1-.8-1.407,1.024,1.024,0,0,1,.1-.187,6.062,6.062,0,0,0-2.476-1.1,1.212,1.212,0,0,1-1.685.778" transform="translate(-18.185 -2.181)" fill="#323232"/>
      <path id="パス_25531" data-name="パス 25531" d="M85.4,61.519a1.6,1.6,0,0,0-1.476-.606,2.933,2.933,0,0,0-.76.211c-.316.137-.392.384-.09-.094a1.16,1.16,0,0,1-2.109-.385l-1.511.368c.027.165.038.335.049.505a1.226,1.226,0,0,1,.027.276,5.518,5.518,0,0,1-4.512,5.247A5.964,5.964,0,0,1,68.931,64.6a4.813,4.813,0,0,1-.762-2.022H65.63a5.683,5.683,0,0,1-4.738,4.481,6.288,6.288,0,0,1-6.261-2.523,4.782,4.782,0,0,1-.757-3.394l-1.254-.4a69.09,69.09,0,0,0-.966,7.3,14.27,14.27,0,0,0,.142,3.089c.169.945.521,1.842.781,2.764.482,1.708.951,3.218,2.8,3.8a1.153,1.153,0,0,1,0,2.205c.2-.061-.227.208-.283.246l-.034.02a6.581,6.581,0,0,0,.364.648c.074.114.153.225.233.335.042.05.082.1.125.151a7.735,7.735,0,0,0,.54.57c.2.188.4.366.613.536.024.016.044.032.058.043l.007.006c.011.009.015.013,0,0,.022.018.045.035.068.051.113.083.228.165.343.245.475.329.969.63,1.467.921a1.165,1.165,0,0,1,.41,1.565.987.987,0,0,1-.3.343,1.193,1.193,0,0,1-1.26.067,16.753,16.753,0,0,1-2.8-1.977v2.368a1.118,1.118,0,0,1,1.5,1.052c-.008,3.183-.9,6.335-3.346,8.507a15.572,15.572,0,0,1-5.15,2.857c.223.039.446.079.668.115,1.976.325,3.973.515,5.969.672a1.166,1.166,0,0,1,1.144,1.144,1.132,1.132,0,0,1-.145.529,1.119,1.119,0,0,0,.306-.089,16.825,16.825,0,0,1-.5-4.648,4.544,4.544,0,0,1,2.208-3.284c.082-.051.168-.094.252-.14a1.247,1.247,0,0,1-.043-.266c-.117-2.121-.266-4.848,1.224-6.579a3.038,3.038,0,0,1,.223-.213,7.366,7.366,0,0,1,.735-.605l.162-.129c.125-.1.251-.2.379-.291.256-.19.52-.364.793-.529a15.824,15.824,0,0,1,1.782-.908c1.367-.605,2.776-1.13,4.183-1.635s3.165-.957,4.373.2a3.046,3.046,0,0,1,.81,3.2,15.055,15.055,0,0,0,4.291-3.282,16.819,16.819,0,0,0,4.155-7.9c.172-.908.3-1.824.475-2.732a4.8,4.8,0,0,1,.193-.832,1.406,1.406,0,0,1,.155-.289A2.618,2.618,0,0,1,81.606,69a3.089,3.089,0,0,1,.719-1.744,2.882,2.882,0,0,1,3.106-.828c.061.023.115.054.174.079a5.664,5.664,0,0,0,.566-2.072,4.057,4.057,0,0,0-.77-2.918m-18.348,7.8a1.144,1.144,0,0,1,0,2.287,1.144,1.144,0,0,1,0-2.287m3.177,8.766a3.164,3.164,0,0,1-2.475,2.85,3.363,3.363,0,0,1-2.064-.258,3.139,3.139,0,0,1-1.753-3.028,3.36,3.36,0,0,1,.776-1.885,3.148,3.148,0,0,1,3.405-.908,3.22,3.22,0,0,1,2.135,2.988,1.088,1.088,0,0,1-.024.24" transform="translate(-23.568 -29.823)" fill="#fff"/>
      <path id="パス_25532" data-name="パス 25532" d="M76.128,142.353a11.275,11.275,0,0,0-.886-2.765,19.409,19.409,0,0,1-1.408-5.879.987.987,0,0,1,1.118-1.092,1.372,1.372,0,0,1,.306-.063l2.638-.2c.817-.062,1.206.777,1.1,1.447a.851.851,0,0,1-.026.186c.006-.014.006-.015.011-.027.03-.13.09-.213,0,0a.428.428,0,0,0-.012.05c-.01.086-.02.173-.029.259-.053.486-.092.974-.11,1.463-.011.292-.014.583,0,.875.006.156.019.311.028.466a4.864,4.864,0,0,0,.4.306c.057.028.084.042.1.049.05.017.1.035.15.048.025.01.038.017.051.023l.041,0c.049,0,.1,0,.147,0a.5.5,0,0,1,.094-.026l.007,0c.036-.023.042-.025.054-.033l.024-.022a.739.739,0,0,1,.055-.058l.013-.019c.033-.059.069-.121.1-.179.016-.026.026-.042.036-.055s.01-.039.021-.073c.071-.228.137-.453.187-.687.236-1.1.353-2.248.527-3.364a6.447,6.447,0,0,0,.1-1.5c-.007-.007-.042-.226-.042-.226,0-.021,0-.031-.007-.045a.389.389,0,0,1-.044-.088c-.055-.134-.057-.107-.047-.062.01.011.027.023.028.031.012.1-.016.021-.028-.031-.032-.034-.085-.071-.1-.09.045.049.068.072.085.09l.022.022-.022-.022a.612.612,0,0,0-.111-.089c-.05-.029-.1-.054-.157-.082s-.094-.035-.142-.051a4.538,4.538,0,0,0-.448-.119c-.056-.012-.295-.049-.36-.061a13.737,13.737,0,0,0-2.164-.049c-.389.019-.779.05-1.166.088q-.283.028-.565.061l-.274.034-.038,0-.013,0c-.816.118-1.633.247-2.438.425a1.144,1.144,0,1,1-.608-2.205,33.252,33.252,0,0,1,4.032-.618,13.521,13.521,0,0,1,3.987.061,2.5,2.5,0,0,0-.12-1.066.279.279,0,0,0-.02-.033l-.076-.063c-.057-.048-.2-.179-.209-.183a2.919,2.919,0,0,0-.88,0q-.417.007-.834.026a38.1,38.1,0,0,0-6.528,1.062A1.144,1.144,0,0,1,71.06,126a39.13,39.13,0,0,1,8.141-1.172c.085,0,.167,0,.251,0a2.314,2.314,0,0,0-.22-.6c-.366-.651-.966-.6-1.64-.5-1.725.269-3.44.644-5.156.966a13.784,13.784,0,0,0-4.073,1.04c-1.285.7-1.454,1.791-1.255,3.156.386,2.654.8,5.307,1.207,7.959.362,2.356.939,4.726,1.112,7.106a9.345,9.345,0,0,1-.13,2.3h6.418c.072-.246.143-.493.2-.74a9.308,9.308,0,0,0,.217-3.165" transform="translate(-32.967 -60.817)" fill="#fff"/>
      <path id="パス_25533" data-name="パス 25533" d="M92.965,130.992c.039.113.035.06,0,0" transform="translate(-45.717 -64.418)" fill="#ffe164"/>
      <path id="パス_25534" data-name="パス 25534" d="M65.687,103.51l-.055-.043-.009-.008-.032-.021a.85.85,0,0,1,.1.072" transform="translate(-32.255 -50.867)" fill="#ffe164"/>
      <path id="パス_25535" data-name="パス 25535" d="M162.788,43.719c.044.054.124.132.017.019l-.017-.019" transform="translate(-80.054 -21.5)" fill="#ffe164"/>
      <path id="パス_25536" data-name="パス 25536" d="M162.751,45.265l.007-.012-.042.053,0,0s.015,0,.036-.042" transform="translate(-80.018 -22.254)" fill="#ffe164"/>
      <path id="パス_25537" data-name="パス 25537" d="M97.011,44.794l-.272-.107c-.029-.011-.084-.035-.131-.056a7.5,7.5,0,0,1-.948-.5c-.082-.053-.162-.109-.241-.165l-.091-.076a4.9,4.9,0,0,1-.48-.483,1.15,1.15,0,0,0-1.617,0,1.172,1.172,0,0,0,0,1.617,6.277,6.277,0,0,0,2.245,1.59c.422.184.85.35,1.279.516l.266.1.058.023c.17.077.339.155.5.242a1.144,1.144,0,1,0,1.155-1.974,11.353,11.353,0,0,0-1.214-.539c-.17-.067-.341-.132-.511-.2" transform="translate(-45.688 -21.185)" fill="#323232"/>
      <path id="パス_25538" data-name="パス 25538" d="M98.117,59.5a1.144,1.144,0,0,0,0,2.287,1.144,1.144,0,0,0,0-2.287" transform="translate(-47.708 -29.258)" fill="#323232"/>
      <path id="パス_25539" data-name="パス 25539" d="M84.49,80a1.144,1.144,0,0,0,0-2.287,1.144,1.144,0,0,0,0,2.287" transform="translate(-41.006 -38.216)" fill="#323232"/>
      <path id="パス_25540" data-name="パス 25540" d="M70.505,59.5a1.144,1.144,0,0,0,0,2.287,1.144,1.144,0,0,0,0-2.287" transform="translate(-34.129 -29.258)" fill="#323232"/>
      <path id="パス_25541" data-name="パス 25541" d="M87.551,71.128c-2.765-1.664-5.676-3.067-8.579-4.471a16.162,16.162,0,0,1-5.633-3.816c-2.039-2.425-2.484-5.75-2.568-8.807a1.186,1.186,0,0,0-.1-.455c.435-.466.848-.966,1.246-1.481a18.288,18.288,0,0,0,3.541-7.415c.172-.86.334-1.737.472-2.609a3.093,3.093,0,0,0,1.553.105,2.76,2.76,0,0,0,1.541-.9,3.026,3.026,0,0,0,.717-1.689,1.087,1.087,0,0,0,.025-.243A3.139,3.139,0,0,0,79.6,38.4a7.9,7.9,0,0,0,1.054-5.846,4.865,4.865,0,0,0-2.8-3.536,4.493,4.493,0,0,0-2.214-.155c-.054-7.041-2.9-15.175-9.282-18.617a1.338,1.338,0,0,0-.142-.059c.037-1.29-1.966-1.783-2.223-.406a17.96,17.96,0,0,1-6.21,10.594,8.684,8.684,0,0,1-4.39,2.167,12.772,12.772,0,0,1-2.524-.007,15.471,15.471,0,0,0,3.674-5.615,1.153,1.153,0,0,0-.8-1.407,1.168,1.168,0,0,0-1.407.8,12.957,12.957,0,0,1-4.735,5.96.867.867,0,0,0-.461.317,12.415,12.415,0,0,1-2.75,1.322,1.284,1.284,0,0,0-.315.161.979.979,0,0,0-1.028,1.1c.374,4.852-1.462,9.6-1.322,14.456a22.472,22.472,0,0,0,1.326,6.13,6.659,6.659,0,0,0,2.073,3.261c-.454.16-.694,0-1.259-.327a7.759,7.759,0,0,1-3.525-4.243c-.472-1.385-2.681-.791-2.205.608a10.178,10.178,0,0,0,4.506,5.566,9.343,9.343,0,0,1-7.054-5.941c-1.718-4.173-.468-8.7.479-12.918a108.167,108.167,0,0,1,3.867-13.125C41.483,14.35,43.5,9.917,46.716,6.612c3.9-4.009,10.554-5.67,15.7-3.191a1.212,1.212,0,0,0,1.685-.778.945.945,0,0,0-.531-1.2A16.4,16.4,0,0,0,47.2,3.163C43.078,6.216,40.557,11,38.642,15.648a98.757,98.757,0,0,0-4.571,14.573c-.623,2.6-1.116,5.247-1.512,7.892a13.821,13.821,0,0,0,.622,6.652c1.74,4.921,6.139,8.695,11.558,8.209a1.163,1.163,0,0,0,1.044-.89,8.168,8.168,0,0,0,1.239,1.541c.085.083.179.157.267.236a16.724,16.724,0,0,0,2.8,1.976,1.192,1.192,0,0,0,1.26-.067.993.993,0,0,0,.3-.344,1.164,1.164,0,0,0-.41-1.564c-.5-.292-.993-.593-1.467-.922-.115-.08-.23-.162-.343-.245-.022-.016-.046-.033-.068-.051h0c.012.009.008,0,0-.005l-.007-.005c-.015-.012-.034-.027-.058-.044l.009.008.055.043h0a.894.894,0,0,0-.1-.072l.032.021c-.211-.17-.417-.348-.613-.536a7.745,7.745,0,0,1-.54-.571c-.043-.049-.083-.1-.125-.15-.08-.11-.159-.221-.233-.335a6.533,6.533,0,0,1-.364-.649l.034-.02c.055-.038.484-.307.283-.246a1.153,1.153,0,0,0,0-2.205c-1.848-.585-2.318-2.1-2.8-3.8-.26-.922-.612-1.818-.781-2.763a14.245,14.245,0,0,1-.142-3.089,69.1,69.1,0,0,1,.966-7.3l1.254.4A4.782,4.782,0,0,0,47,34.716a6.288,6.288,0,0,0,6.261,2.522A5.683,5.683,0,0,0,58,32.758h2.539A4.818,4.818,0,0,0,61.3,34.78a5.964,5.964,0,0,0,6.088,2.439A5.519,5.519,0,0,0,71.9,31.971a1.227,1.227,0,0,0-.027-.276c-.011-.17-.022-.341-.049-.505l1.511-.368a1.16,1.16,0,0,0,2.109.385c-.3.478-.226.231.09.094a2.9,2.9,0,0,1,.76-.211,1.6,1.6,0,0,1,1.476.606,4.057,4.057,0,0,1,.77,2.918,5.666,5.666,0,0,1-.566,2.072c-.058-.026-.113-.056-.174-.08a2.883,2.883,0,0,0-3.106.828,3.094,3.094,0,0,0-.719,1.744,2.606,2.606,0,0,0,.112.98,1.387,1.387,0,0,0-.155.29,4.782,4.782,0,0,0-.193.832c-.172.908-.3,1.824-.475,2.731a16.821,16.821,0,0,1-4.155,7.9,15.064,15.064,0,0,1-4.291,3.282,3.046,3.046,0,0,0-.81-3.2c-1.209-1.16-2.969-.707-4.373-.2s-2.816,1.03-4.183,1.634a16,16,0,0,0-1.782.908c-.272.164-.537.339-.793.529-.128.1-.254.193-.379.292-.1.076-.142.113-.162.129a7.293,7.293,0,0,0-.735.6c-.075.071-.155.135-.223.213-1.489,1.731-1.341,4.458-1.224,6.579a1.246,1.246,0,0,0,.043.267c-.084.046-.17.088-.252.14a4.544,4.544,0,0,0-2.208,3.284,18.65,18.65,0,0,0,.538,4.9c.459,3.012.877,6.03,1.4,9.032a19.733,19.733,0,0,1,.461,3.762,6.965,6.965,0,0,1-.176,1.378h2.307a9.343,9.343,0,0,0,.13-2.3c-.172-2.38-.75-4.75-1.112-7.106-.408-2.651-.82-5.3-1.207-7.959-.2-1.365-.031-2.454,1.255-3.156a13.785,13.785,0,0,1,4.073-1.04c1.716-.322,3.431-.7,5.156-.966.674-.105,1.273-.153,1.64.5a2.312,2.312,0,0,1,.22.6c-.084,0-.166,0-.251,0a39.1,39.1,0,0,0-8.142,1.173,1.144,1.144,0,0,0,.608,2.205,38.107,38.107,0,0,1,6.529-1.062q.416-.02.833-.026a2.921,2.921,0,0,1,.88,0c.011,0,.152.135.209.183l.076.063a.251.251,0,0,1,.02.033,2.5,2.5,0,0,1,.12,1.066,13.5,13.5,0,0,0-3.987-.062,33.126,33.126,0,0,0-4.032.619,1.144,1.144,0,1,0,.608,2.205c.806-.179,1.622-.308,2.438-.426l.014,0,.037,0,.274-.034q.283-.033.565-.061c.388-.038.777-.069,1.167-.088a13.737,13.737,0,0,1,2.164.049c.065.013.3.049.36.061.151.033.3.071.448.119.048.016.1.034.142.051s.106.053.157.082a.631.631,0,0,1,.111.089c-.018-.018-.04-.041-.085-.09.017.019.071.056.1.09-.011-.046-.009-.072.047.062a.392.392,0,0,0,.044.087c0,.015,0,.024.007.045,0,0,.035.219.042.226a6.42,6.42,0,0,1-.1,1.5c-.173,1.116-.291,2.26-.527,3.364-.05.234-.116.459-.188.687-.011.034-.016.055-.021.073s-.019.029-.035.055c-.035.058-.07.12-.1.179l-.013.019a.647.647,0,0,0-.055.058l-.024.022c-.013.008-.019.01-.054.033l-.007,0a.492.492,0,0,0-.094.026c-.049,0-.1,0-.147,0l-.041,0c-.013-.007-.026-.013-.051-.023-.051-.014-.1-.031-.15-.048-.011-.007-.038-.021-.1-.049a4.928,4.928,0,0,1-.4-.306c-.01-.155-.023-.31-.028-.466-.01-.291-.007-.583,0-.875.018-.489.057-.977.11-1.464.01-.086.019-.172.03-.258a.412.412,0,0,1,.012-.051c-.005.012,0,.013-.011.027a.821.821,0,0,0,.026-.186c.1-.671-.286-1.51-1.1-1.447l-2.638.2a1.426,1.426,0,0,0-.306.063A.987.987,0,0,0,56.8,72.892a19.394,19.394,0,0,0,1.407,5.879,11.254,11.254,0,0,1,.886,2.765A9.311,9.311,0,0,1,58.88,84.7c-.053.247-.125.493-.2.74h2.364c.033-.153.076-.309.106-.46a10.487,10.487,0,0,0-.376-5.924c-.134-.35-.265-.7-.394-1.04a4.082,4.082,0,0,0,.579.457,2.883,2.883,0,0,0,3.5-.231A5.4,5.4,0,0,0,65.7,74.913c.116-.856.371-1.926.476-2.98a1.189,1.189,0,0,0,.332.033c2.744-.141,5.489-.355,8.207-.769a16.041,16.041,0,0,0,5.2-1.43c.022-.012.037-.026.057-.039,1.278.612,2.557,1.222,3.8,1.892a40.452,40.452,0,0,1,7.82,5.222,22.548,22.548,0,0,1,6.094,8.6H100.1a1.192,1.192,0,0,0-.068-.286c-2.32-6.187-6.9-10.669-12.481-14.027m-32.4-37.413a3.706,3.706,0,0,1-1.71,1.134,4.132,4.132,0,0,1-4.183-.953,2.689,2.689,0,0,1-.283-3.515,4.036,4.036,0,0,1,3.813-1.449,3.851,3.851,0,0,1,2.2,1.114,2.7,2.7,0,0,1,.166,3.669m14.284-.756-.026.077c-.036.081-.077.161-.119.239s-.1.17-.147.253c0,0-.105.151-.121.18a3.394,3.394,0,0,1-1.63,1.15,3.678,3.678,0,0,1-3.935-1,1.092,1.092,0,0,1-.214-.281c-.091-.15-.182-.3-.26-.458l-.028-.057c0-.009-.007-.023-.016-.048-.034-.092-.064-.185-.09-.28-.022-.076-.041-.153-.057-.23-.013-.059-.023-.118-.033-.177a.446.446,0,0,0,0-.052c-.013-.184-.007-.365,0-.548,0-.042,0-.07,0-.09s.011-.044.019-.083c.016-.077.032-.155.051-.232.024-.1.054-.189.082-.283.007-.023.037-.1.05-.142a3.711,3.711,0,0,1,.26-.483,3.651,3.651,0,0,1,3.569-1.486A3.454,3.454,0,0,1,68.815,30a2.84,2.84,0,0,1,.579.879s.077.22.076.218q.053.169.091.343c.014.064.026.13.037.2-.007,0,.012.3.013.338a2.656,2.656,0,0,1-.177.988m1.5-3.908a5.764,5.764,0,0,0-2.88-2.152,5.963,5.963,0,0,0-6.3,1.657,5.462,5.462,0,0,0-1.037,1.915H57.81a5.723,5.723,0,0,0-3.763-3.584,6.4,6.4,0,0,0-6.493,1.631,5.238,5.238,0,0,0-.511.66l-1.769-.565a22.029,22.029,0,0,0,.08-2.629,15.145,15.145,0,0,0,2.953-1.437,23.707,23.707,0,0,0,5.57.221A11.061,11.061,0,0,0,59.19,22.16a19.805,19.805,0,0,0,6.47-9.655c5.23,3.139,7.519,9.958,7.679,15.962l-2.4.585m5.331,10.211c.012-.052.027-.1.043-.155s.054-.1.084-.14.058-.06.088-.088q.069-.045.14-.084c.051-.017.1-.031.156-.043s.113,0,.169,0,.1.026.156.043.1.054.14.084.06.058.088.088c.03.046.058.093.084.14a2.068,2.068,0,0,1,.058.206c0,.012,0,.022,0,.034s0,.022,0,.034a2.077,2.077,0,0,1-.058.207c-.025.048-.054.095-.084.14q-.043.046-.088.088-.069.045-.14.084c-.051.016-.1.031-.156.043s-.113,0-.169,0-.1-.027-.156-.043-.095-.054-.14-.084q-.046-.043-.088-.088-.045-.069-.084-.14c-.016-.051-.031-.1-.043-.156s0-.113,0-.17M59.519,74.789c-.008.181-.006.362-.008.543q-.175-.68-.289-1.384l.36-.027c-.025.29-.051.579-.064.869m2.221,1.356c.037-.031.061.03.076.1-.054-.049-.089-.089-.076-.1M55.155,58.4c-.959,1-.46,2.125-.411,3.288l-.317.06c-.662.124-1.342.237-2.011.392a16.287,16.287,0,0,1,.067-2.821,6.1,6.1,0,0,1,.228-1c.024-.074.051-.146.077-.219l0-.008c.06-.112.122-.222.184-.333.017-.029.028-.046.041-.065.063-.063.119-.133.183-.195s.129-.108.188-.167l0,0,.035-.024a16.208,16.208,0,0,1,2.086-1.38,28.828,28.828,0,0,1,3.31-1.4c.614-.229,1.223-.477,1.846-.68.413-.135,1.261-.481,1.679-.271a.909.909,0,0,1,.374.676.952.952,0,0,1-.055.2,1.45,1.45,0,0,1-.413.368,17.962,17.962,0,0,1-2.885,1.326c-.783.345-1.561.7-2.325,1.086A6.723,6.723,0,0,0,55.155,58.4m8.028,8.177c.035.06.039.113,0,0m13.824,1.844a28.34,28.34,0,0,1-2.9.573c-2.514.383-5.061.558-7.6.688a1.19,1.19,0,0,0-.448.11,2.716,2.716,0,0,0-.582-1.071,5.7,5.7,0,0,0-.077-2.7,2.644,2.644,0,0,0-.58-1.008,5.2,5.2,0,0,0-1.088-3.369c-1.051-1.186-2.5-1.156-3.951-.9-.935.166-1.869.341-2.8.519-.048-.319-.113-.635-.151-.956,0-.03-.021-.236-.024-.314l.007,0v.006s0-.006,0-.009a4.03,4.03,0,0,1,.86-.513c.385-.2.791-.4,1.2-.6a1.193,1.193,0,0,0,.352.046,15.816,15.816,0,0,0,9.329-3.4A16.5,16.5,0,0,0,70.53,62.8a13.162,13.162,0,0,0,5,4.669c.55.312,1.112.6,1.674.891-.066.018-.13.042-.2.059" transform="translate(-15.935 0)" fill="#323232"/>
      <path id="パス_25542" data-name="パス 25542" d="M13.937,127.245a41.955,41.955,0,0,1,6.471-2.911,18.81,18.81,0,0,0,4.162,1.018c2.128.342,4.275.56,6.424.728a1.153,1.153,0,0,0,1.144-1.144,1.166,1.166,0,0,0-1.144-1.144c-2-.157-3.993-.347-5.969-.671-.222-.037-.445-.076-.668-.115a15.566,15.566,0,0,0,5.15-2.857c2.445-2.172,3.338-5.324,3.346-8.507a1.118,1.118,0,0,0-1.5-1.052,1.046,1.046,0,0,0-.789,1.052c-.007,2.694-.715,5.237-2.832,7.025-2.011,1.7-4.627,2.328-7.06,3.153-5.739,1.945-11.326,4.825-15.453,9.358A26.856,26.856,0,0,0,0,139.8H2.444a25.9,25.9,0,0,1,11.494-12.558" transform="translate(0 -54.361)" fill="#323232"/>
      <path id="パス_25543" data-name="パス 25543" d="M100.227,8.36c3.111.447,5.144,3.085,6.6,5.655a45.891,45.891,0,0,1,3.856,9.745c.905,3.066,1.758,6.167,2.454,9.288a30.9,30.9,0,0,1,.88,10.976,11.125,11.125,0,0,1-2.052,5.273,8.475,8.475,0,0,1-4.308,3.108,1.115,1.115,0,0,0-.482,1.885,1.073,1.073,0,0,0,1.09.32,10.024,10.024,0,0,0,4.4-2.7,11.634,11.634,0,0,0,3.019-4.934c1.26-3.9.853-8.2.14-12.169-.628-3.5-1.593-6.934-2.556-10.35a55.618,55.618,0,0,0-4.029-10.8c-1.742-3.319-4.425-6.932-8.4-7.5a1.2,1.2,0,0,0-1.31.612,1.023,1.023,0,0,0-.1.187,1.15,1.15,0,0,0,.8,1.407" transform="translate(-48.878 -3.019)" fill="#323232"/>
      <path id="パス_25544" data-name="パス 25544" d="M118.837,77.223q.043.046.088.088.069.045.14.084c.051.017.1.031.156.043s.113,0,.169,0,.1-.026.156-.043.095-.054.14-.084q.046-.043.088-.088c.03-.046.058-.093.084-.14a2.08,2.08,0,0,0,.058-.207c0-.011,0-.022,0-.034s0-.022,0-.033a2.044,2.044,0,0,0-.058-.207c-.025-.048-.054-.095-.084-.14q-.043-.046-.088-.088-.068-.045-.14-.084c-.051-.017-.1-.031-.156-.043s-.113,0-.169,0-.1.026-.156.043-.095.054-.14.084q-.046.043-.088.088c-.03.045-.058.093-.084.14s-.031.1-.043.156,0,.113,0,.169.027.1.043.156.054.095.084.14" transform="translate(-58.377 -37.495)" fill="#fff"/>
      <path id="パス_25545" data-name="パス 25545" d="M148.008,14.206a7.358,7.358,0,0,0-3.235,2.3c-.632.633-1.278,1.252-1.928,1.866a1.154,1.154,0,0,0,0,1.617,1.167,1.167,0,0,0,1.617,0q.629-.594,1.248-1.2a22.647,22.647,0,0,1,1.993-1.935c-.129.1.159-.1.2-.126.114-.072.232-.135.35-.2.014-.007.065-.028.091-.04s.074-.026.112-.038c.054-.017.109-.034.164-.048,0,0,.135-.022.187-.034s.177,0,.22,0,.089.02.133.032.178.07.2.074c.067.036.133.076.2.117a.723.723,0,0,0,.127.127l.049.084.006.016v0a1.516,1.516,0,0,0,0,.2c-.018.075-.036.15-.059.224l-.014.041c-.036.046-.1.2-.119.24-.035.059-.075.115-.114.171-.006,0-.082.1-.133.153-.077.08-.166.147-.244.226.184-.186-.045.029-.12.078-.116.073-.25.125-.363.2l0,0c-.059.022-.119.045-.18.065-.132.043-.267.079-.4.109-.053.012-.106.022-.16.032l-.049.011-.1.008a1.169,1.169,0,0,0-1.144,1.144,1.156,1.156,0,0,0,1.144,1.144,4.9,4.9,0,0,0,3.447-1.641,3.286,3.286,0,0,0,.637-3.456,3.287,3.287,0,0,0-3.749-1.572m1,2.17c-.062-.01-.166-.038,0,0" transform="translate(-70.083 -6.935)" fill="#323232"/>
      <path id="パス_25546" data-name="パス 25546" d="M158.408,38.291a6.559,6.559,0,0,0-2.988-.844c-.686-.071-1.376-.116-2.065-.139a1.153,1.153,0,0,0-1.144,1.144,1.167,1.167,0,0,0,1.144,1.144c.438.015.875.041,1.312.073q.56.042,1.118.108l.03,0c.081.012.161.025.241.04a4.607,4.607,0,0,1,.467.108c.1.029.2.066.3.1l.03.01.06.034c.095.047.187.1.277.153.044.027.087.057.132.085l.008.005c.059.052.119.1.175.16.025.026.049.053.073.079s.054.088.088.144c-.009-.044-.007-.072.016.018l0,.013c.018.03.032.055.028.056s-.012-.01-.018-.017c.008.034.017.068.027.1s0,.066,0,.1,0,.046,0,.07-.026.075-.042.129c.027-.045.059-.07.011.012l-.028.049a.121.121,0,0,0,0,.033c0-.007,0-.017,0-.026l-.046.08a.123.123,0,0,1,.031-.02.229.229,0,0,0-.05.052l-.007.012c-.021.039-.032.045-.037.042-.044.047-.1.089-.142.135-.028.018-.055.037-.084.054s-.066.037-.1.055a2.264,2.264,0,0,0-.275.088l-.023,0-.057,0q-.07,0-.14,0a2.06,2.06,0,0,0-.3-.076l-.038-.011c-.069-.032-.138-.065-.2-.1-.125-.067-.246-.141-.365-.219s-.236-.161-.351-.245l-.152-.115c.158.119,0,0-.069-.055a1.246,1.246,0,0,0-.809-.335,1.144,1.144,0,0,0-.809,1.952c1.118.878,2.3,1.689,3.791,1.428a3.189,3.189,0,0,0,2.5-2.3,3.141,3.141,0,0,0-1.515-3.374m-.822,2.275.017.019c.107.113.026.035-.017-.019m-.385,1.091c-.168.1-.049.005.018-.01l-.018.01" transform="translate(-74.852 -18.347)" fill="#323232"/>
      <path id="パス_25547" data-name="パス 25547" d="M162.756,45.223c.006-.011.012-.021.018-.032-.05.032-.07.079-.061.086l0,0,.042-.053" transform="translate(-80.016 -22.223)" fill="#323232"/>
      <path id="パス_25548" data-name="パス 25548" d="M162.939,43.977a.171.171,0,0,0,.03.071c0-.014-.008-.027-.011-.04l-.019-.031" transform="translate(-80.128 -21.626)" fill="#323232"/>
      <path id="パス_25549" data-name="パス 25549" d="M162.947,44.9a.129.129,0,0,0-.02.068l0-.007c0-.017.009-.037.016-.061" transform="translate(-80.122 -22.079)" fill="#323232"/>
      <path id="パス_25550" data-name="パス 25550" d="M81.173,94.257a3.361,3.361,0,0,0,2.063.258,3.164,3.164,0,0,0,2.475-2.85,1.087,1.087,0,0,0,.024-.24A3.221,3.221,0,0,0,83.6,88.436a3.147,3.147,0,0,0-3.405.908,3.357,3.357,0,0,0-.777,1.884,3.14,3.14,0,0,0,1.754,3.029m.543-2.991c.01-.045.016-.09.03-.135,0-.015.01-.029.015-.044.04-.071.081-.14.125-.208.022-.025.044-.05.068-.073s.048-.045.072-.067c.068-.043.136-.085.206-.125l.007,0,.042-.012c.044-.014.089-.02.135-.03a2.2,2.2,0,0,1,.317,0c.045.011.09.016.135.03l.044.015c.071.04.14.081.208.125.025.022.05.045.074.068s.045.047.067.071c.043.068.085.136.125.207l0,.006.012.042a1.82,1.82,0,0,1,.042.188c0,.035.007.07.008.105s-.006.07-.008.105a1.822,1.822,0,0,1-.042.188c0,.015-.01.03-.015.045-.04.071-.081.139-.124.208-.023.025-.045.05-.069.074s-.047.045-.071.067c-.068.043-.136.085-.206.125l-.007,0-.042.011c-.044.014-.09.02-.135.03a2.2,2.2,0,0,1-.317,0c-.045-.01-.09-.016-.135-.03l-.045-.015c-.071-.04-.139-.081-.208-.124-.025-.022-.05-.045-.074-.068s-.045-.048-.067-.072c-.043-.068-.085-.136-.126-.206l0-.007c0-.015-.009-.034-.011-.042-.014-.044-.02-.09-.03-.135a2.207,2.207,0,0,1,0-.317" transform="translate(-39.05 -43.403)" fill="#323232"/>
      <path id="パス_25551" data-name="パス 25551" d="M90.544,143.787c.09-.213.03-.13,0,0" transform="translate(-44.527 -70.645)" fill="#323232"/>
      <path id="パス_25552" data-name="パス 25552" d="M94.118,138.2l.022.022" transform="translate(-46.284 -67.962)" fill="none" stroke="#323232" stroke-linecap="round" stroke-linejoin="round" stroke-width="0"/>
      <path id="パス_25553" data-name="パス 25553" d="M94.181,138.231c0-.009-.018-.021-.029-.032.012.052.041.131.029.032" transform="translate(-46.301 -67.962)" fill="#323232"/>
    </g>
  </g>
</svg>
