<svg id="グループ_1195" data-name="グループ 1195" xmlns="http://www.w3.org/2000/svg" width="96.908" height="95.177" viewBox="0 0 96.908 95.177">
  <path id="パス_26033" data-name="パス 26033" d="M488.693,47.942c.006-.09.016-.18.018-.27a3.509,3.509,0,0,0-.02-.481c-.012-.035-.056-.263-.066-.3-.021-.085-.046-.17-.068-.255l-.268-1-5.018,1.347c.1.387.206.775.311,1.161.012.043.024.087.036.131.026.091.057.18.087.27a.369.369,0,0,0,.015.035,4.325,4.325,0,0,0,.23.418c.041.065.085.128.131.191l.037.039c.124.129.249.253.382.374l.022.02.029.018c.074.049.147.1.223.144.1.062.212.116.321.168.036.015.088.036.113.044.085.027.169.055.255.077.1.027.2.047.308.068h.006a4.408,4.408,0,0,0,.49.011c.077,0,.154-.01.231-.018l.056-.013c.148-.035.3-.07.44-.118.041-.013.18-.074.189-.076.062-.031.123-.06.183-.094a3.5,3.5,0,0,0,.36-.233c.02-.025.213-.194.25-.232.062-.064.12-.131.18-.2a.223.223,0,0,0,.014-.019,4.319,4.319,0,0,0,.271-.441s.041-.09.069-.147.058-.157.057-.153c.045-.136.071-.276.109-.413.006-.021.01-.032.014-.046v-.006" transform="translate(-466.536 -21.206)" fill="#fff"/>
  <path id="パス_26034" data-name="パス 26034" d="M492.444,52.13c.034-.046.066-.094,0,0" transform="translate(-470.798 -24.2)" fill="#ffe164"/>
  <path id="パス_26035" data-name="パス 26035" d="M487.84,54.038c-.059-.008-.179-.013,0,0" transform="translate(-468.615 -25.108)" fill="#ffe164"/>
  <path id="パス_26036" data-name="パス 26036" d="M476.417,30.829a8.132,8.132,0,0,1,1.341.768,3.54,3.54,0,0,1,.59,1.575l.042.159L483.356,32a4.755,4.755,0,0,1-.274-1.39c0-.551.435-.923.7-1.362a5.2,5.2,0,0,0,.576-1.3,5.225,5.225,0,1,0-10.16-.5,5.206,5.206,0,0,0,2.215,3.388" transform="translate(-462.279 -9.884)" fill="#ffe164"/>
  <path id="パス_26037" data-name="パス 26037" d="M484.128,51.176c.019.041.031.062,0,0" transform="translate(-466.934 -23.782)" fill="#ffe164"/>
  <path id="パス_26038" data-name="パス 26038" d="M484.641,22.442a7.632,7.632,0,0,0-14.791,3.766,7.637,7.637,0,0,0,3.959,5l.5,1.848c.208.777.413,1.556.625,2.332a5.115,5.115,0,0,0,3.159,3.478,5,5,0,0,0,6.544-5.956c-.2-.826-.44-1.646-.661-2.468q-.227-.844-.452-1.688a7.783,7.783,0,0,0,1.121-6.309M472.13,25.365a5.225,5.225,0,1,1,10.16.5,5.2,5.2,0,0,1-.576,1.3c-.268.438-.7.81-.7,1.362a4.758,4.758,0,0,0,.273,1.39l-4.966,1.333-.042-.159a3.549,3.549,0,0,0-.589-1.575,8.2,8.2,0,0,0-1.342-.768,5.206,5.206,0,0,1-2.215-3.388M477.4,35.2c.03.062.019.041,0,0m2.03,1.536c-.179-.013-.059-.008,0,0m2.421-1c.066-.094.034-.045,0,0m.388-.729s-.035.093-.057.153-.071.15-.069.147a4.336,4.336,0,0,1-.271.441c0,.006-.011.015-.014.019-.06.066-.118.133-.18.2-.037.038-.23.207-.25.232a3.509,3.509,0,0,1-.36.233c-.06.034-.121.064-.183.094-.01,0-.149.063-.19.076-.145.048-.291.082-.44.118l-.056.013c-.077.009-.154.014-.231.018a4.279,4.279,0,0,1-.49-.011h-.006c-.1-.021-.207-.041-.308-.068-.086-.022-.171-.05-.255-.078-.025-.008-.077-.029-.113-.044-.11-.052-.218-.107-.322-.168-.076-.046-.149-.095-.223-.144l-.029-.018-.022-.02c-.133-.12-.257-.244-.382-.373l-.037-.039c-.046-.062-.09-.125-.131-.191a4.305,4.305,0,0,1-.23-.417.358.358,0,0,1-.015-.035c-.03-.09-.061-.179-.087-.27-.012-.043-.024-.087-.036-.131-.1-.386-.208-.774-.311-1.161l5.018-1.348.268,1c.022.085.047.17.068.255.01.04.054.268.066.3a3.524,3.524,0,0,1,.02.481c0,.091-.012.18-.018.271v.005c0,.015-.008.025-.014.047-.038.138-.065.277-.109.413" transform="translate(-460.207 -7.808)" fill="#323232"/>
  <path id="パス_26039" data-name="パス 26039" d="M469.245,4.261l.088.389a1.214,1.214,0,0,0,1.482.841,1.231,1.231,0,0,0,.841-1.481q-.31-1.366-.619-2.731L470.948.89a1.214,1.214,0,0,0-1.482-.841,1.231,1.231,0,0,0-.842,1.482l.62,2.731" transform="translate(-459.714 -0.001)" fill="#323232"/>
  <path id="パス_26040" data-name="パス 26040" d="M459.645,10.373l.316.316a1.243,1.243,0,0,0,.852.353,1.2,1.2,0,0,0,1.2-1.2,1.258,1.258,0,0,0-.353-.852l-2.219-2.219-.316-.316a1.242,1.242,0,0,0-.852-.353,1.2,1.2,0,0,0-1.2,1.2,1.259,1.259,0,0,0,.353.852l2.219,2.219" transform="translate(-454.362 -2.835)" fill="#323232"/>
  <path id="パス_26041" data-name="パス 26041" d="M452.889,19.972l2.37.418.343.06a1.3,1.3,0,0,0,.928-.121,1.2,1.2,0,0,0,.432-1.648,1.178,1.178,0,0,0-.72-.554l-2.37-.418-.343-.06a1.3,1.3,0,0,0-.928.122,1.2,1.2,0,0,0-.432,1.648,1.179,1.179,0,0,0,.72.554" transform="translate(-452.008 -8.188)" fill="#323232"/>
  <path id="パス_26042" data-name="パス 26042" d="M555.2,105.073s.012.011.018.013l0,0c-.005,0-.011-.01-.016-.01" transform="translate(-499.959 -48.828)" fill="#ffe164"/>
  <path id="パス_26043" data-name="パス 26043" d="M560.71,102.828c.014.046.035.065.012-.027,0-.017-.01-.033-.014-.05a.566.566,0,0,0,0,.077" transform="translate(-502.519 -47.748)" fill="#ffe164"/>
  <path id="パス_26044" data-name="パス 26044" d="M554.634,101.645c0,.013-.005.025-.007.038a2.824,2.824,0,0,0,0,.357.2.2,0,0,1,0,.024v0c.011.05.021.1.033.15a2.368,2.368,0,0,1,.114.33l.007.014q.035.066.074.13c.026.044.055.087.084.13a.1.1,0,0,1,.038.031c.081.078.226.246.256.277l0,0c.036.025.072.05.108.073s.191.087.273.135a.113.113,0,0,1,.038.029c.05.017.1.035.152.049.07.019.139.034.209.049.119.006.238.015.358.01l.053-.007c0-.01.063-.028.115-.014.117-.026.228-.062.342-.1l.014,0,.01-.006c.043-.025.089-.046.132-.07a2.623,2.623,0,0,1,.279-.189l.017-.014c.036-.034.071-.068.106-.1s.07-.084.11-.121c.071-.112.137-.224.2-.34.019-.056.05-.127.058-.151a3.2,3.2,0,0,1,.076-.347c0-.058.006-.116.007-.174,0-.03-.014-.12-.022-.2a.167.167,0,0,1,0-.083c-.031-.124-.063-.246-.1-.369l0,0c-.037-.065-.069-.132-.107-.2s-.073-.112-.11-.169l-.007-.006-.262-.262-.013-.011-.036-.026c-.042-.028-.084-.054-.126-.08-.065-.039-.141-.07-.207-.11-.138-.044-.276-.081-.417-.117-.061,0-.123-.008-.185-.009s-.127,0-.19,0c.012,0-.122.014-.149.021-.05.011-.1.024-.149.037s-.1.033-.154.05a3.753,3.753,0,0,1-.372.2c-.042.028-.227.107-.057.037s0,0-.048.05c-.019.018-.108.125-.177.2a.121.121,0,0,1-.065.063c-.027.042-.056.084-.081.126-.039.064-.071.132-.108.2v0c-.037.116-.077.23-.1.35a1.26,1.26,0,0,1-.029.151c.009-.025.01-.03.016-.048.016-.1.055-.167,0,0" transform="translate(-499.689 -46.564)" fill="#fff"/>
  <path id="パス_26045" data-name="パス 26045" d="M555.29,101.29c.023-.045.022-.077-.046.033l-.016.025a.4.4,0,0,0,.062-.057" transform="translate(-499.973 -47.05)" fill="#ffe164"/>
  <path id="パス_26046" data-name="パス 26046" d="M560.712,102.676c-.007.009-.005.022-.008.034l0,.006a.112.112,0,0,1,.006-.04" transform="translate(-502.518 -47.713)" fill="#ffe164"/>
  <path id="パス_26047" data-name="パス 26047" d="M555.2,101.446s.008-.006.012-.007l0-.005s-.014.013-.016.013" transform="translate(-499.959 -47.135)" fill="#ffe164"/>
  <path id="パス_26048" data-name="パス 26048" d="M556.384,100.446c-.138.044-.057.021.012,0l-.012,0" transform="translate(-500.475 -46.675)" fill="#ffe164"/>
  <path id="パス_26049" data-name="パス 26049" d="M558.232,106.289c-.007-.005-.019,0-.028-.006l-.024.006a.167.167,0,0,1,.052,0" transform="translate(-501.345 -49.389)" fill="#ffe164"/>
  <path id="パス_26050" data-name="パス 26050" d="M560.73,103.7v-.007c-.005.074-.005.152,0,.007" transform="translate(-502.528 -48.186)" fill="#ffe164"/>
  <path id="パス_26051" data-name="パス 26051" d="M540.689,58.161a.1.1,0,0,0-.05.026.139.139,0,0,1,.05-.026" transform="translate(-493.194 -27.027)" fill="#ffe164"/>
  <path id="パス_26052" data-name="パス 26052" d="M558.1,106.295h0a.754.754,0,0,0-.091.007c0,.006.018.008.09-.007" transform="translate(-501.266 -49.395)" fill="#ffe164"/>
  <path id="パス_26053" data-name="パス 26053" d="M556.4,106.055l.062.02a.186.186,0,0,0-.035-.028c-.063-.027-.141-.028-.026.009" transform="translate(-500.489 -49.271)" fill="#ffe164"/>
  <path id="パス_26054" data-name="パス 26054" d="M556.582,106.133c0-.006-.011-.009-.015-.014h0s.017.011.018.015" transform="translate(-500.594 -49.313)" fill="#ffe164"/>
  <path id="パス_26055" data-name="パス 26055" d="M555.266,105.152c.065.1.04.026,0-.027a.212.212,0,0,0-.035-.027l.035.054" transform="translate(-499.975 -48.838)" fill="#ffe164"/>
  <path id="パス_26056" data-name="パス 26056" d="M541.515,57.686a.17.17,0,0,0-.057.026l.057-.026" transform="translate(-493.574 -26.807)" fill="#ffe164"/>
  <path id="パス_26057" data-name="パス 26057" d="M501.8,161.484a1.209,1.209,0,0,1-.053-2.325c3.076-.756,2.285-4.188.95-6.157a44.931,44.931,0,0,0-5.118-5.7,1.112,1.112,0,0,1-.731.585,22.779,22.779,0,0,0-10.335,6.7,26.6,26.6,0,0,0-5.63,9.041h18.8c.73-.675,1.432-1.464,2.122-2.142" transform="translate(-465.424 -68.449)" fill="#fff"/>
  <path id="パス_26058" data-name="パス 26058" d="M555.931,127.21a19.116,19.116,0,0,1-2.61-7.737,16.106,16.106,0,0,1-15.982,1.687,16.571,16.571,0,0,1-3.068-1.674,13.841,13.841,0,0,1-3.426,7.992,1.218,1.218,0,0,1-1.7,0c-.013-.013-.022-.028-.034-.042q-.348.34-.709.666a37.893,37.893,0,0,0,3.161,4.337q.346.476.672.965c.012,0,.022,0,.034.009,4.441,1.65,9.5,1.841,14.18,1.657a40.874,40.874,0,0,0,14.834-3.08,14.77,14.77,0,0,1-5.349-4.779" transform="translate(-487.506 -55.519)" fill="#fff"/>
  <path id="パス_26059" data-name="パス 26059" d="M520.045,119.728c.127-.136.252-.274.372-.415q.08-.095.158-.191c.069-.086-.033.051.077-.1.194-.269.38-.544.55-.829q.274-.459.5-.942a6.328,6.328,0,0,0,.322-.774,14.725,14.725,0,0,0,.849-4.255,1.373,1.373,0,0,1,.138-.518,20.553,20.553,0,0,1-3.99-5.211l-.016-.031a22.478,22.478,0,0,0-7.758,6.194,11.683,11.683,0,0,0-2.287,8.639c.612,3.356,3.656,5.638,5.877,7.992,2,2.117,4.2,4.526,4.444,7.563a5.177,5.177,0,0,1-3.917,5.653,1.21,1.21,0,0,1-.587,0c-.69.678-1.391,1.467-2.122,2.142h2.209a.946.946,0,0,1,.788-.567,9.055,9.055,0,0,0,6.93-5.591,9.2,9.2,0,0,0-.251-7.794c-1.216-2.414-3.047-4.453-4.591-6.653-.115-.163-.221-.339-.327-.516a9.761,9.761,0,0,1-2.224,1.083,9.761,9.761,0,0,0,2.224-1.083c-2.018-3.382-2.317-9.056.8-11.783,1.163-1.017,2.872.681,1.7,1.7-1.879,1.643-1.779,4.786-1.239,7.014a6.9,6.9,0,0,0,.619,1.594q.361-.328.709-.666a1.228,1.228,0,0,1,.034-1.661" transform="translate(-478.408 -49.473)" fill="#fff"/>
  <path id="パス_26060" data-name="パス 26060" d="M559.916,57.255c-.284-1.12-.767-2.558-2.134-2.535a2.976,2.976,0,0,0-1.374.372,1.135,1.135,0,0,1-1.452-.244,1.217,1.217,0,0,1-.244-.18,1.307,1.307,0,0,1-.353-.852c-.046-.441-.093-.882-.148-1.322a11.87,11.87,0,0,0-.488-2.062,14.3,14.3,0,0,1-4.532-2.316,4.711,4.711,0,0,1-1.958-.094,1.054,1.054,0,0,1-1.109.8c-6.931-.228-11.864-7.114-13.382-13.3a1.242,1.242,0,0,1-.023-.5,2.709,2.709,0,0,0-.893.43A1.1,1.1,0,0,1,531.3,36.8c-5.674,3.292-8.037,10.354-7.657,16.63.076,1.252-1.642,1.559-2.245.608.069.108.117.176.155.226.1.083.118.157,0,0a.45.45,0,0,0-.163-.086c-.1-.026-.205-.085-.3-.119a2.317,2.317,0,0,0-1.065-.154,2.048,2.048,0,0,0-1.4,1.117,5.1,5.1,0,0,0-.323,3.648,5.7,5.7,0,0,0,1.771,2.755,3.418,3.418,0,0,1,1.306.2,3.786,3.786,0,0,1,2.5,3.511,1.154,1.154,0,0,1-.026.253,3.822,3.822,0,0,1-.317,1.236c0,.018,0,.038.008.056a16.911,16.911,0,0,0,1.064,3.719,17.741,17.741,0,0,0,6.636,8.168,14.427,14.427,0,0,0,17.672-1.71,18.218,18.218,0,0,0,4.786-7.41,15.685,15.685,0,0,0,.488-3.089,2.932,2.932,0,0,1,.047-.3,3.874,3.874,0,0,1,.87-2.9,3.707,3.707,0,0,1,4.028-1.074c.067.025.128.061.194.089.021-.04.046-.079.066-.119a6.8,6.8,0,0,0,.517-4.8m-20.533,5.269a1.205,1.205,0,0,1,0,2.409,1.205,1.205,0,0,1,0-2.409m-7.075-6.866a1.205,1.205,0,0,1,0-2.409,1.205,1.205,0,0,1,0,2.409m2.114-8.818a1.218,1.218,0,0,1-1.648.432c-.1-.062-.208-.112-.312-.169l-.07-.025a3.344,3.344,0,0,0-.484-.111,2.28,2.28,0,0,0-.94.091c-.08.024-.16.051-.239.08h0a4.564,4.564,0,0,0-.466.261l-.1.071a.359.359,0,0,1-.055.034l-.07.071a1.234,1.234,0,0,1-1.7,0,1.212,1.212,0,0,1,0-1.7,5,5,0,0,1,2.552-1.256,4.621,4.621,0,0,1,3.109.577,1.228,1.228,0,0,1,.432,1.648m8.9,24.97a4.059,4.059,0,0,1-3.2,3.707,4.042,4.042,0,0,1-3.887-6.6,4.038,4.038,0,0,1,4.4-1.174,4.119,4.119,0,0,1,2.708,3.817,1.154,1.154,0,0,1-.025.253m2.926-16.152a1.205,1.205,0,0,1,0-2.409,1.205,1.205,0,0,1,0,2.409" transform="translate(-482.728 -16.28)" fill="#fff"/>
  <path id="パス_26061" data-name="パス 26061" d="M536.145,26.871a17.941,17.941,0,0,0,4.123,7.848A10.066,10.066,0,0,0,547.2,38.4,1.22,1.22,0,0,1,548.314,40a4.71,4.71,0,0,0,1.958.094,20.18,20.18,0,0,1-6.654-9.576,1.216,1.216,0,0,1,.842-1.482,1.233,1.233,0,0,1,1.481.841c1.57,4.592,5.02,9.071,9.964,10.35a1.083,1.083,0,0,1,.756.613,1.455,1.455,0,0,1,.356.573,13.379,13.379,0,0,1,.678,3.041,5.212,5.212,0,0,1,1.217-.154,23.569,23.569,0,0,0,.591-9.085,22.756,22.756,0,0,0-2.766-8.956,16.365,16.365,0,0,0-6.058-5.791c-4.657-2.688-11.129-4.013-15.889-.859a1.109,1.109,0,0,1-1.711-.729,4.256,4.256,0,0,1-1.025.784A1.337,1.337,0,0,1,531,21.5c-4.108.479-7.085,4.473-8.7,7.933a18.322,18.322,0,0,0-.82,14.054,5.276,5.276,0,0,1,.811.059c.134-6.588,3.047-13.462,8.877-16.845a1.176,1.176,0,0,1,1.737.745,2.718,2.718,0,0,1,.893-.43,1.21,1.21,0,0,1,2.346-.142" transform="translate(-483.809 -8.262)" fill="#fff"/>
  <path id="パス_26062" data-name="パス 26062" d="M563.468,146.886a49.967,49.967,0,0,1-28.428,2.292,11.507,11.507,0,0,1,.9,3.355,12.2,12.2,0,0,1-5.1,10.9H560.2q.21-1.068.421-2.136l2.846-14.411" transform="translate(-488.638 -68.257)" fill="#ffe164"/>
  <path id="パス_26063" data-name="パス 26063" d="M593.6,146.277q-.108.552-.218,1.1-1.556,7.885-3.114,15.77H610.7a19.4,19.4,0,0,0-4.581-8.622c-3.5-3.773-8.008-6-12.517-8.251" transform="translate(-516.255 -67.973)" fill="#fff"/>
  <path id="パス_26064" data-name="パス 26064" d="M554.648,102.809c.055-.167.016-.1,0,0" transform="translate(-499.704 -47.728)" fill="#323232"/>
  <path id="パス_26065" data-name="パス 26065" d="M556.533,106.093h0a.109.109,0,0,0-.037-.028.148.148,0,0,1,.035.028" transform="translate(-500.563 -49.287)" fill="#323232"/>
  <path id="パス_26066" data-name="パス 26066" d="M555.227,105.092l0,0a.218.218,0,0,1,.035.027.1.1,0,0,0-.037-.031" transform="translate(-499.973 -48.836)" fill="#323232"/>
  <path id="パス_26067" data-name="パス 26067" d="M555.287,101.326a.4.4,0,0,1-.062.057l0,0a.122.122,0,0,0,.065-.062" transform="translate(-499.97 -47.086)" fill="#323232"/>
  <path id="パス_26068" data-name="パス 26068" d="M558.011,106.291a.754.754,0,0,1,.091-.007l.025-.007c-.052-.014-.116,0-.115.014" transform="translate(-501.266 -49.384)" fill="#323232"/>
  <path id="パス_26069" data-name="パス 26069" d="M560.706,102.822a.556.556,0,0,1,0-.077l0-.006a.169.169,0,0,0,0,.084" transform="translate(-502.515 -47.742)" fill="#323232"/>
  <path id="パス_26070" data-name="パス 26070" d="M551.125,97.107a4.042,4.042,0,0,0,3.887,6.6,4.058,4.058,0,0,0,3.2-3.707,1.111,1.111,0,0,0,.026-.253,4.118,4.118,0,0,0-2.709-3.817,4.037,4.037,0,0,0-4.4,1.174m4.69,2.872v.007c-.005.145-.006.067,0-.007m-2.294-1.738.012,0c-.069.025-.15.048-.012,0m-.95,1.208c.027-.119.066-.233.1-.35l0,0c.037-.065.069-.133.108-.2.025-.043.054-.085.081-.127,0,0-.008.007-.013.007s.012-.01.016-.013l.016-.024c.069-.11.07-.078.046-.033.069-.073.157-.18.177-.2.05-.046.2-.113.048-.049s.015-.01.057-.038a3.621,3.621,0,0,0,.372-.2c.051-.017.1-.035.155-.05s.1-.026.148-.037c.028-.006.162-.018.149-.02.063,0,.126,0,.19,0s.123.006.185.009c.141.035.278.073.417.117.065.041.141.072.207.111.042.025.085.052.126.079l.037.027.013.011.261.262.007.006c.037.056.076.111.11.169s.07.131.107.2l0,0c.039.123.071.245.1.369,0-.011,0-.025.008-.033a.11.11,0,0,0-.006.04c0,.017.01.033.014.05.023.092,0,.072-.012.027.007.078.021.168.021.2,0,.058,0,.116-.008.175a3.375,3.375,0,0,0-.076.346c-.008.024-.039.095-.058.151-.066.116-.131.228-.2.34-.039.036-.074.083-.11.12s-.07.07-.106.1l-.016.014a2.646,2.646,0,0,0-.278.19c-.043.025-.089.045-.132.07l-.01.006-.014,0c-.114.034-.226.07-.342.1.009,0,.021,0,.028.007s-.033,0-.052,0h0c-.072.015-.089.013-.09.007l-.053.007c-.12,0-.238,0-.358-.01-.07-.016-.139-.031-.209-.05-.052-.014-.1-.032-.153-.049,0,.005.014.009.016.014s-.013-.01-.018-.015l-.062-.02c-.115-.036-.036-.035.026-.008-.082-.048-.232-.109-.274-.135s-.072-.049-.108-.073l0-.005c-.031-.03-.176-.2-.257-.277.04.053.065.127,0,.027l-.035-.054s-.015-.013-.018-.013.01.007.016.01c-.028-.043-.058-.085-.084-.13s-.05-.086-.073-.13l-.008-.014a2.4,2.4,0,0,0-.113-.33c-.012-.05-.022-.1-.033-.149v0c0-.009,0-.012,0-.023a2.813,2.813,0,0,1,0-.357.312.312,0,0,1,.006-.039c-.006.019-.007.024-.016.048a1.493,1.493,0,0,0,.029-.151" transform="translate(-497.612 -44.471)" fill="#323232"/>
  <path id="パス_26071" data-name="パス 26071" d="M539.44,52.885a5.008,5.008,0,0,0-2.552,1.256,1.212,1.212,0,0,0,0,1.7,1.233,1.233,0,0,0,1.7,0c.013-.012.041-.041.07-.07a.387.387,0,0,0,.055-.035c.034-.024.069-.048.1-.07a4.636,4.636,0,0,1,.467-.261h0c.078-.029.158-.056.238-.08a3.664,3.664,0,0,1,.408-.088,3.6,3.6,0,0,1,.532,0,3.252,3.252,0,0,1,.484.112l.07.025c.1.056.21.107.312.168a1.2,1.2,0,1,0,1.216-2.08,4.616,4.616,0,0,0-3.109-.577m-.707,2.823a.1.1,0,0,1,.05-.026.134.134,0,0,0-.05.026m.438-.255a.17.17,0,0,1,.057-.026l-.057.026" transform="translate(-491.288 -24.549)" fill="#323232"/>
  <path id="パス_26072" data-name="パス 26072" d="M569.661,71.473a1.205,1.205,0,0,0,0-2.409,1.205,1.205,0,0,0,0,2.409" transform="translate(-506.139 -32.094)" fill="#323232"/>
  <path id="パス_26073" data-name="パス 26073" d="M556.832,86.39a1.205,1.205,0,0,0,0,2.409,1.205,1.205,0,0,0,0-2.409" transform="translate(-500.178 -40.145)" fill="#323232"/>
  <path id="パス_26074" data-name="パス 26074" d="M543.614,69.064a1.205,1.205,0,0,0,0,2.409,1.205,1.205,0,0,0,0-2.409" transform="translate(-494.036 -32.094)" fill="#323232"/>
  <path id="パス_26075" data-name="パス 26075" d="M558.784,45.546a10.066,10.066,0,0,1-6.936-3.679,17.936,17.936,0,0,1-4.123-7.848c-.369-1.505-2.693-.868-2.323.64,1.518,6.181,6.451,13.068,13.382,13.3,1.55.051,1.548-2.358,0-2.409" transform="translate(-495.388 -15.41)" fill="#323232"/>
  <path id="パス_26076" data-name="パス 26076" d="M524.544,70.953c.118.157.1.083,0,0" transform="translate(-485.715 -32.972)" fill="#323232"/>
  <path id="パス_26077" data-name="パス 26077" d="M549.527,86.659a67.943,67.943,0,0,0-8.356-4.6c-2.33-1.127-4.7-2.186-6.478-4.131-2.3-2.517-3.087-6.047-3.458-9.336a1.37,1.37,0,0,0-.049-.229,20.77,20.77,0,0,0,2.5-2.9A20.152,20.152,0,0,0,536.517,60a9.6,9.6,0,0,0,.277-1.159,3.939,3.939,0,0,0,2.38.308,3.726,3.726,0,0,0,2.927-3.385,1.147,1.147,0,0,0,.025-.253,3.744,3.744,0,0,0-.479-1.78,9.171,9.171,0,0,0,1.192-6.7,6.6,6.6,0,0,0-2.215-4.084,24.713,24.713,0,0,0,.767-9.063,26.851,26.851,0,0,0-2.773-10.194c-3.013-5.76-9.393-9.423-15.721-10.219a14.6,14.6,0,0,0-9.915,1.993c-1.286.852-.081,2.939,1.216,2.08,4.761-3.154,11.232-1.829,15.889.859a16.371,16.371,0,0,1,6.058,5.792,22.757,22.757,0,0,1,2.766,8.956,23.571,23.571,0,0,1-.591,9.085,5.213,5.213,0,0,0-1.217.154,13.415,13.415,0,0,0-.678-3.041,1.456,1.456,0,0,0-.357-.573,1.083,1.083,0,0,0-.756-.613c-4.945-1.278-8.394-5.757-9.964-10.35a1.233,1.233,0,0,0-1.482-.841,1.216,1.216,0,0,0-.841,1.482c1.809,5.292,5.669,10.253,11.186,11.893a11.871,11.871,0,0,1,.489,2.062c.055.44.1.881.148,1.322a1.306,1.306,0,0,0,.352.852,1.219,1.219,0,0,0,.244.18,1.136,1.136,0,0,0,1.452.244,2.971,2.971,0,0,1,1.374-.372c1.368-.023,1.85,1.415,2.135,2.535a6.8,6.8,0,0,1-.517,4.8c-.021.041-.045.079-.066.119-.065-.029-.126-.064-.194-.089a3.707,3.707,0,0,0-4.028,1.074,3.879,3.879,0,0,0-.87,2.9,2.963,2.963,0,0,0-.047.3,15.657,15.657,0,0,1-.488,3.089,18.219,18.219,0,0,1-4.786,7.41,14.426,14.426,0,0,1-17.671,1.71,17.738,17.738,0,0,1-6.637-8.168,16.921,16.921,0,0,1-1.064-3.719c0-.018,0-.038-.008-.057a3.845,3.845,0,0,0,.317-1.236,1.152,1.152,0,0,0,.025-.253,3.785,3.785,0,0,0-2.5-3.511,3.418,3.418,0,0,0-1.306-.2,5.7,5.7,0,0,1-1.771-2.755,5.1,5.1,0,0,1,.322-3.648,2.049,2.049,0,0,1,1.4-1.117,2.313,2.313,0,0,1,1.064.154c.1.035.2.093.3.119a.443.443,0,0,1,.163.086c-.038-.051-.086-.118-.154-.226.6.951,2.32.644,2.245-.608-.381-6.276,1.982-13.338,7.656-16.63a1.205,1.205,0,0,0-1.216-2.08c-5.831,3.384-8.744,10.257-8.877,16.845a5.276,5.276,0,0,0-.811-.059,18.323,18.323,0,0,1,.82-14.054c1.617-3.46,4.594-7.454,8.7-7.933,1.521-.178,1.54-2.589,0-2.409-4.935.576-8.608,4.615-10.669,8.886-2.4,4.966-3.147,10.923-1.175,16.158a5.916,5.916,0,0,0-2.354,4.771,7.8,7.8,0,0,0,1.961,5.436,3.233,3.233,0,0,0-.331.338,3.715,3.715,0,0,0,3.575,6.074,3.3,3.3,0,0,0,.563-.16,16.608,16.608,0,0,0,.81,2.491,1.3,1.3,0,0,0-.143.06c-5.13,2.77-10.061,6.838-11.151,12.882a10.894,10.894,0,0,0,2.237,9.282c.033.04.069.078.1.118a25.2,25.2,0,0,0-11.24,7.268,28.93,28.93,0,0,0-6.469,10.744h2.542a26.6,26.6,0,0,1,5.63-9.041,22.773,22.773,0,0,1,10.335-6.7,1.113,1.113,0,0,0,.731-.585,44.842,44.842,0,0,1,5.118,5.7c1.335,1.97,2.126,5.4-.95,6.158-1.5.369-.868,2.693.64,2.323a5.178,5.178,0,0,0,3.917-5.654c-.245-3.037-2.447-5.446-4.445-7.563-2.22-2.354-5.265-4.636-5.877-7.993a11.68,11.68,0,0,1,2.287-8.639,22.488,22.488,0,0,1,7.757-6.194c.006.011.01.021.016.032a20.56,20.56,0,0,0,3.99,5.211,1.382,1.382,0,0,0-.138.518,14.736,14.736,0,0,1-.848,4.255,6.312,6.312,0,0,1-.322.774q-.229.483-.5.942c-.17.285-.355.559-.55.829-.109.151-.007.014-.076.1-.052.064-.1.128-.158.191-.121.142-.245.28-.373.416a1.2,1.2,0,0,0,1.7,1.7,13.841,13.841,0,0,0,3.425-7.992,16.578,16.578,0,0,0,3.068,1.674,16.11,16.11,0,0,0,15.982-1.687,19.108,19.108,0,0,0,2.609,7.737,14.767,14.767,0,0,0,5.349,4.779,40.865,40.865,0,0,1-14.834,3.08c-4.682.185-9.74-.007-14.18-1.657-.012,0-.022,0-.034-.009-.218-.325-.442-.648-.673-.965-1.343-1.848-3.231-3.663-3.78-5.93-.54-2.228-.64-5.37,1.239-7.014,1.169-1.022-.54-2.72-1.7-1.7-3.28,2.869-2.782,9.007-.474,12.3,1.543,2.2,3.375,4.24,4.591,6.653a9.2,9.2,0,0,1,.251,7.794,9.054,9.054,0,0,1-6.93,5.591.946.946,0,0,0-.788.567h5.737a12.2,12.2,0,0,0,5.1-10.9,11.52,11.52,0,0,0-.9-3.355,49.955,49.955,0,0,0,28.428-2.292q-1.423,7.206-2.845,14.412-.211,1.067-.422,2.135h2.449l3.114-15.77q.109-.552.218-1.1c4.509,2.248,9.02,4.479,12.518,8.251a19.407,19.407,0,0,1,4.581,8.622h2.466c-1.37-6.274-5.3-11.155-10.6-14.713M537.11,55.284c0-.005,0-.01,0-.015s.006-.021.009-.028c.021-.085.047-.167.073-.25.029-.053.056-.108.087-.16.02-.033.041-.064.062-.1-.009.006-.012.011-.023.019.01-.007.019-.02.029-.029l.021-.032c.041-.066.072-.077.067-.056a1.47,1.47,0,0,1,.108-.121c.014-.013.055-.043.081-.064.088-.055.206-.1.289-.161.042-.014.084-.029.127-.041s.171-.034.225-.046.113,0,.17,0,.094,0,.141.006c.115.029.227.06.34.1.054.031.112.057.164.088.037.022.075.046.111.071l.013.009,0,0,.229.229c.028.043.058.085.085.13s.057.106.086.158c.032.1.06.205.086.309,0-.022,0-.036,0-.065a.518.518,0,0,0,0,.081c0,.012.007.023.01.035.013.053.005.081,0,.072,0,.031.007.061.007.089,0,.05,0,.1-.006.149-.027.086-.038.192-.063.275-.01.03-.02.062-.034.095-.057.1-.114.2-.176.295-.028.03-.055.062-.082.09s-.062.062-.094.092a.2.2,0,0,1-.017.013c.02-.012.029-.018.06-.034-.1.05-.181.126-.275.179-.036.02-.074.038-.11.058-.1.029-.192.059-.291.081.02,0,.03,0,.056,0a.721.721,0,0,0-.138.01c-.009,0-.02,0-.026,0h-.01c-.1,0-.2,0-.3-.008-.056-.012-.111-.024-.167-.04s-.08-.025-.12-.039a.383.383,0,0,1,.032.022.4.4,0,0,0-.044-.026l-.059-.019c-.067-.021-.069-.042-.032-.034a1.6,1.6,0,0,1-.155-.079c-.025-.016-.049-.033-.073-.05-.054-.052-.112-.12-.172-.184.029.044.011.058-.032-.007l-.039-.06c-.01-.008-.02-.021-.029-.028.011.007.015.014.025.021-.022-.032-.044-.065-.064-.1s-.044-.076-.065-.115l0-.006c0,.02.007.027.012.053a.785.785,0,0,0-.031-.1.32.32,0,0,1-.014-.044,1.741,1.741,0,0,1-.059-.175c-.01-.039-.018-.079-.026-.118h0a2.576,2.576,0,0,1,0-.315v0c0,.017-.008.029-.013.05.012-.042.016-.09.026-.133m-35.149-.236c0,.05,0,.1-.006.149-.027.086-.038.192-.063.275-.009.029-.02.062-.033.094-.057.1-.114.2-.176.295-.028.03-.055.063-.083.091s-.062.062-.094.092l-.017.013.059-.034c-.095.05-.18.126-.275.18-.036.02-.073.037-.11.058-.1.029-.192.059-.291.081.02,0,.03,0,.056,0a.679.679,0,0,0-.138.01l-.026,0h-.01c-.1,0-.2,0-.3-.008-.056-.012-.111-.024-.167-.04s-.08-.025-.12-.039c.011.008.019.011.032.021a.494.494,0,0,0-.044-.026l-.059-.019c-.067-.021-.069-.042-.032-.034a1.445,1.445,0,0,1-.155-.079c-.025-.016-.049-.033-.074-.05-.053-.053-.112-.121-.171-.184.028.043.011.058-.031-.007l-.039-.06c-.01-.008-.02-.021-.03-.028.011.008.016.014.025.021-.022-.033-.044-.065-.064-.1s-.044-.076-.065-.115l0-.005c0,.02.008.027.012.052a.768.768,0,0,0-.031-.1.255.255,0,0,1-.014-.045,1.6,1.6,0,0,1-.059-.175c-.01-.04-.018-.079-.026-.118h0a2.487,2.487,0,0,1,0-.315v0c0,.017-.007.03-.013.05.012-.043.017-.09.026-.134l0-.014c0-.012.006-.021.009-.028.021-.085.047-.167.073-.249.029-.054.056-.108.087-.16.019-.033.041-.064.062-.1a.276.276,0,0,1-.023.019.286.286,0,0,0,.029-.028l.021-.032c.041-.066.073-.077.068-.056a1.376,1.376,0,0,1,.108-.121c.014-.013.055-.043.081-.064.089-.055.206-.1.289-.161.042-.014.084-.029.127-.041s.171-.034.224-.046.113,0,.17,0,.094,0,.141.007c.116.028.228.06.341.095.054.031.111.057.164.088s.075.046.111.071l.013.009,0,0c.077.076.153.152.229.229.028.043.058.085.085.13s.057.105.086.158c.032.1.06.205.086.309,0-.022,0-.036,0-.065a.6.6,0,0,0,0,.081c0,.012.007.024.01.036.013.053,0,.081,0,.072,0,.03.007.061.007.089" transform="translate(-463.217 -6.196)" fill="#323232"/>
  <path id="パス_26078" data-name="パス 26078" d="M592.727,94.559a.682.682,0,0,1,.138-.01c-.026,0-.036,0-.056,0l-.028.008a.306.306,0,0,1-.054,0" transform="translate(-517.398 -43.935)" fill="#fff"/>
  <path id="パス_26079" data-name="パス 26079" d="M592.7,94.57l-.026,0c.006,0,.017,0,.026,0" transform="translate(-517.376 -43.947)" fill="#fff"/>
  <path id="パス_26080" data-name="パス 26080" d="M591.591,94.433c-.013-.011-.021-.013-.032-.022l-.012,0a.5.5,0,0,1,.044.026" transform="translate(-516.85 -43.871)" fill="#fff"/>
  <path id="パス_26081" data-name="パス 26081" d="M591.387,94.34l.059.019a.785.785,0,0,0-.091-.053c-.037-.009-.035.012.032.034" transform="translate(-516.75 -43.822)" fill="#fff"/>
  <path id="パス_26082" data-name="パス 26082" d="M590.585,90.488c0-.021-.027-.011-.068.056l-.02.032a.805.805,0,0,0,.088-.088" transform="translate(-516.362 -42.045)" fill="#fff"/>
  <path id="パス_26083" data-name="パス 26083" d="M591.5,89.686c-.047,0-.094-.006-.141-.006s-.113,0-.17,0-.186.035-.224.046-.085.027-.128.041c-.083.061-.2.106-.289.161-.026.02-.067.051-.081.064a1.471,1.471,0,0,0-.108.121c0,.016-.033.051-.095.1-.021.032-.042.064-.062.1-.031.052-.058.107-.087.16-.026.083-.052.165-.073.25.01-.028.01-.007-.025.126v0a2.482,2.482,0,0,0,0,.315h0c.009.04.016.079.026.118a1.691,1.691,0,0,0,.058.175c-.008-.041.005-.029.032.091l0,.005c.021.039.042.078.065.115s.043.066.064.1a.349.349,0,0,1,.075.074c.06.063.119.131.172.184l.073.05a1.543,1.543,0,0,0,.155.079.338.338,0,0,1,.1.057c.04.013.08.027.12.039s.11.027.166.04c.1.005.2.012.3.008h.01c-.046,0-.02-.022.108-.015.1-.022.194-.052.291-.081.036-.02.073-.037.11-.058.094-.054.18-.13.275-.179-.031.016-.04.022-.06.034-.076.062-.147.082,0,0,.006-.005.012-.008.017-.013q.048-.044.094-.092c.028-.028.055-.061.083-.09.061-.1.119-.195.176-.295.013-.033.025-.065.034-.095.025-.082.035-.188.063-.275,0-.05.005-.1.006-.149,0-.028,0-.059-.007-.089a.286.286,0,0,1-.01-.124c-.027-.1-.055-.207-.087-.309-.029-.053-.055-.107-.086-.158s-.056-.087-.085-.13l-.229-.229,0,0-.013-.009c-.036-.025-.074-.048-.111-.071-.052-.032-.11-.058-.164-.088-.113-.035-.225-.067-.34-.1" transform="translate(-516.138 -41.673)" fill="#fff"/>
  <path id="パス_26084" data-name="パス 26084" d="M590.054,91.651c0-.01.006-.019.008-.028l-.008.028" transform="translate(-516.156 -42.577)" fill="#fff"/>
  <path id="パス_26085" data-name="パス 26085" d="M590.443,93.546c.01.006.019.02.029.028l0-.006c-.01-.007-.014-.014-.025-.021" transform="translate(-516.337 -43.47)" fill="#fff"/>
  <path id="パス_26086" data-name="パス 26086" d="M590.241,93.189c-.005-.026-.008-.033-.012-.052a.382.382,0,0,1-.018-.047.752.752,0,0,1,.031.1" transform="translate(-516.229 -43.258)" fill="#fff"/>
  <path id="パス_26087" data-name="パス 26087" d="M590.2,93.05c-.005-.015-.009-.03-.014-.044a.331.331,0,0,0,.014.044" transform="translate(-516.216 -43.22)" fill="#fff"/>
  <path id="パス_26088" data-name="パス 26088" d="M590.443,90.688c.011-.007.013-.012.022-.019l.006-.01a.369.369,0,0,1-.029.028" transform="translate(-516.337 -42.13)" fill="#fff"/>
  <path id="パス_26089" data-name="パス 26089" d="M590.537,93.658c.042.065.06.051.032.007a.84.84,0,0,0-.071-.067l.039.06" transform="translate(-516.363 -43.495)" fill="#fff"/>
  <path id="パス_26090" data-name="パス 26090" d="M594.884,91.609c0,.029,0,.043,0,.065l0,.016a.582.582,0,0,1,0-.081" transform="translate(-518.4 -42.57)" fill="#fff"/>
  <path id="パス_26091" data-name="パス 26091" d="M590.023,91.69c-.01.044-.014.091-.026.134.005-.02.009-.034.013-.05a.583.583,0,0,1,.017-.1c0,.005,0,.01,0,.015" transform="translate(-516.13 -42.602)" fill="#fff"/>
  <path id="パス_26092" data-name="パス 26092" d="M594.9,91.8c0-.012-.007-.024-.01-.035,0,.036,0,.071.005.108.009.009.017-.019,0-.072" transform="translate(-518.404 -42.641)" fill="#fff"/>
  <path id="パス_26093" data-name="パス 26093" d="M592.661,94.56l.026,0a.268.268,0,0,0,.055,0l.028-.007c-.127-.007-.154.011-.108.014" transform="translate(-517.358 -43.934)" fill="#323232"/>
  <path id="パス_26094" data-name="パス 26094" d="M591.467,94.361l.012,0a.341.341,0,0,0-.1-.057.88.88,0,0,1,.091.053" transform="translate(-516.771 -43.824)" fill="#323232"/>
  <path id="パス_26095" data-name="パス 26095" d="M593.958,94.014c-.147.083-.076.062,0,0" transform="translate(-517.93 -43.688)" fill="#323232"/>
  <path id="パス_26096" data-name="パス 26096" d="M594.892,91.855c0-.036,0-.071-.006-.108a.157.157,0,0,0,0-.016.286.286,0,0,0,.01.124" transform="translate(-518.399 -42.627)" fill="#323232"/>
  <path id="パス_26097" data-name="パス 26097" d="M590.58,90.5a.811.811,0,0,1-.088.088l-.006.01c.062-.047.091-.082.095-.1" transform="translate(-516.357 -42.054)" fill="#323232"/>
  <path id="パス_26098" data-name="パス 26098" d="M590.047,91.614c0,.01-.006.018-.008.028a.575.575,0,0,0-.017.1c.035-.133.035-.155.025-.126" transform="translate(-516.141 -42.568)" fill="#323232"/>
  <path id="パス_26099" data-name="パス 26099" d="M590.182,92.988c.005.015.009.03.014.044a.313.313,0,0,0,.018.047c-.027-.12-.04-.132-.032-.091" transform="translate(-516.215 -43.201)" fill="#323232"/>
  <path id="パス_26100" data-name="パス 26100" d="M590.489,93.586l0,.006a.742.742,0,0,1,.071.067.349.349,0,0,0-.075-.074" transform="translate(-516.358 -43.489)" fill="#323232"/>
  <path id="パス_26101" data-name="パス 26101" d="M521.061,93.565c-.013-.01-.021-.013-.032-.021l-.012,0c.014.009.032.016.044.025" transform="translate(-484.076 -43.468)" fill="#fff"/>
  <path id="パス_26102" data-name="パス 26102" d="M522.2,93.692a.683.683,0,0,1,.138-.01c-.026,0-.036,0-.056,0l-.028.008a.266.266,0,0,1-.054,0" transform="translate(-484.624 -43.532)" fill="#fff"/>
  <path id="パス_26103" data-name="パス 26103" d="M519.914,89.821c.01-.007.013-.011.023-.018l.006-.01c-.01.009-.019.021-.029.028" transform="translate(-483.563 -41.727)" fill="#fff"/>
  <path id="パス_26104" data-name="パス 26104" d="M519.524,90.783c0-.01.006-.019.009-.028,0,.007-.005.017-.009.028" transform="translate(-483.382 -42.173)" fill="#fff"/>
  <path id="パス_26105" data-name="パス 26105" d="M519.494,90.822c-.01.044-.014.091-.026.134l.013-.05a.562.562,0,0,1,.017-.1l0,.014" transform="translate(-483.356 -42.198)" fill="#fff"/>
  <path id="パス_26106" data-name="パス 26106" d="M520.056,89.62c0-.021-.027-.011-.068.056l-.021.032a.725.725,0,0,0,.089-.088" transform="translate(-483.588 -41.641)" fill="#fff"/>
  <path id="パス_26107" data-name="パス 26107" d="M522.176,93.7l-.026,0c.006,0,.017,0,.026,0" transform="translate(-484.602 -43.544)" fill="#fff"/>
  <path id="パス_26108" data-name="パス 26108" d="M520.912,91.432c-.046,0-.019-.021.108-.014.1-.022.194-.052.291-.082.036-.02.074-.037.11-.058.095-.053.18-.13.275-.179-.031.016-.039.022-.059.034-.077.062-.148.083,0,0l.017-.013c.032-.029.063-.06.094-.091s.055-.061.083-.091c.062-.1.119-.195.176-.295.013-.032.025-.065.034-.094.025-.083.035-.189.063-.275,0-.05.005-.1.006-.149,0-.029,0-.059-.008-.09a.3.3,0,0,1-.01-.124c-.026-.1-.054-.207-.086-.309-.029-.052-.056-.107-.087-.158s-.056-.087-.085-.13c-.076-.077-.152-.153-.229-.229l0,0-.013-.009c-.036-.024-.073-.048-.111-.07s-.11-.058-.164-.088c-.113-.035-.225-.066-.34-.1-.047,0-.094-.006-.141-.006s-.113,0-.17,0-.186.035-.224.046-.085.027-.127.041c-.083.061-.2.107-.289.162-.026.02-.067.05-.081.064a1.329,1.329,0,0,0-.108.121c0,.016-.033.051-.1.1-.021.032-.042.063-.062.1-.031.052-.057.107-.087.16-.027.083-.052.165-.074.249.01-.028.01-.006-.025.127v0a2.457,2.457,0,0,0,0,.316h0c.008.04.017.079.026.118a1.69,1.69,0,0,0,.058.175c-.007-.041.005-.029.033.092l0,.005c.021.039.042.077.065.115s.043.066.064.1a.332.332,0,0,1,.075.073c.06.063.119.131.172.184.025.018.049.034.074.05a1.489,1.489,0,0,0,.154.079.335.335,0,0,1,.1.057c.04.013.079.028.12.039s.11.027.166.039c.1.005.2.012.3.008h.01" transform="translate(-483.364 -41.271)" fill="#fff"/>
  <path id="パス_26109" data-name="パス 26109" d="M519.712,92.321c0-.026-.008-.033-.012-.052a.312.312,0,0,1-.018-.047.787.787,0,0,1,.031.1" transform="translate(-483.455 -42.856)" fill="#fff"/>
  <path id="パス_26110" data-name="パス 26110" d="M519.914,92.679c.009.006.019.02.03.028l0-.006c-.01-.007-.014-.014-.025-.021" transform="translate(-483.563 -43.068)" fill="#fff"/>
  <path id="パス_26111" data-name="パス 26111" d="M520.007,92.791c.043.065.06.051.032.007a.792.792,0,0,0-.071-.067l.039.06" transform="translate(-483.588 -43.092)" fill="#fff"/>
  <path id="パス_26112" data-name="パス 26112" d="M520.858,93.473l.059.019a.792.792,0,0,0-.091-.053c-.037-.009-.035.012.032.034" transform="translate(-483.976 -43.42)" fill="#fff"/>
  <path id="パス_26113" data-name="パス 26113" d="M519.669,92.184c-.005-.015-.008-.03-.014-.045a.334.334,0,0,0,.014.045" transform="translate(-483.443 -42.817)" fill="#fff"/>
  <path id="パス_26114" data-name="パス 26114" d="M524.355,90.741c0,.029,0,.043,0,.065l0,.016a.6.6,0,0,1,0-.081" transform="translate(-485.626 -42.168)" fill="#fff"/>
  <path id="パス_26115" data-name="パス 26115" d="M524.371,90.929c0-.012-.007-.024-.01-.035,0,.036,0,.071.005.108.009.009.018-.019,0-.072" transform="translate(-485.63 -42.239)" fill="#fff"/>
  <path id="パス_26116" data-name="パス 26116" d="M519.518,90.746c0,.01-.006.019-.009.028a.545.545,0,0,0-.017.1c.035-.133.035-.154.025-.126" transform="translate(-483.368 -42.164)" fill="#323232"/>
  <path id="パス_26117" data-name="パス 26117" d="M520.938,93.493l.012,0a.34.34,0,0,0-.1-.057.9.9,0,0,1,.091.053" transform="translate(-483.997 -43.422)" fill="#323232"/>
  <path id="パス_26118" data-name="パス 26118" d="M520.05,89.628a.727.727,0,0,1-.089.088l-.006.01c.063-.047.092-.082.1-.1" transform="translate(-483.582 -41.65)" fill="#323232"/>
  <path id="パス_26119" data-name="パス 26119" d="M519.96,92.718l0,.006a.752.752,0,0,1,.071.067.334.334,0,0,0-.075-.074" transform="translate(-483.585 -43.085)" fill="#323232"/>
  <path id="パス_26120" data-name="パス 26120" d="M519.653,92.12c.006.015.009.03.014.045a.4.4,0,0,0,.018.047c-.027-.12-.04-.132-.032-.092" transform="translate(-483.441 -42.798)" fill="#323232"/>
  <path id="パス_26121" data-name="パス 26121" d="M523.428,93.146c-.148.083-.077.062,0,0" transform="translate(-485.156 -43.285)" fill="#323232"/>
  <path id="パス_26122" data-name="パス 26122" d="M522.132,93.693l.026,0a.269.269,0,0,0,.055,0l.028-.007c-.127-.007-.154.011-.108.014" transform="translate(-484.584 -43.531)" fill="#323232"/>
  <path id="パス_26123" data-name="パス 26123" d="M524.363,90.988c0-.036,0-.072-.006-.108,0-.005,0-.011,0-.016a.3.3,0,0,0,.01.124" transform="translate(-485.625 -42.224)" fill="#323232"/>
</svg>
