<svg id="グループ_1177" data-name="グループ 1177" xmlns="http://www.w3.org/2000/svg" xmlns:xlink="http://www.w3.org/1999/xlink" width="84.423" height="87.819" viewBox="0 0 84.423 87.819">
  <defs>
    <clipPath id="clip-path">
      <rect id="長方形_947" data-name="長方形 947" width="84.423" height="87.819" fill="none"/>
    </clipPath>
  </defs>
  <g id="グループ_1176" data-name="グループ 1176" clip-path="url(#clip-path)">
    <path id="パス_25774" data-name="パス 25774" d="M11.886,143.5a.2.2,0,0,0,.03.007l-.03-.007" transform="translate(-5.727 -69.14)" fill="#ffe164"/>
    <path id="パス_25775" data-name="パス 25775" d="M12.7,143.517a.4.4,0,0,0-.078,0c-.044.011-.049.025.078,0" transform="translate(-6.067 -69.148)" fill="#ffe164"/>
    <path id="パス_25776" data-name="パス 25776" d="M12.039,143.537c-.019-.008-.026-.009-.042-.015a.337.337,0,0,1-.053-.008.667.667,0,0,1,.095.023" transform="translate(-5.755 -69.146)" fill="#ffe164"/>
    <path id="パス_25777" data-name="パス 25777" d="M12.8,143.516a.186.186,0,0,1,.042,0,.134.134,0,0,0-.033,0l-.006,0h0" transform="translate(-6.166 -69.146)" fill="#ffe164"/>
    <path id="パス_25778" data-name="パス 25778" d="M76.92,84.7l.046.112.013.027a7,7,0,0,0,.393.685c.027.04.056.079.085.118l0,0c.086.1.171.2.263.291s.165.159.25.235c.027.025.056.048.084.072a5.046,5.046,0,0,0,.5.32c.1.053.2.1.294.147l.01.006.051.016c.18.061.359.119.544.162.118.027.238.042.356.069l-.075-.016c-.044-.008-.052-.011,0,0a1.217,1.217,0,0,0,.124.016,4.726,4.726,0,0,0,.562.01c.095,0,.191-.018.287-.022.026,0,.053-.008.079-.013a5.632,5.632,0,0,0,.582-.149c.033-.011.13-.046.191-.068s.14-.063.162-.074a5.51,5.51,0,0,0,.489-.287l.079-.049c.01-.01.023-.022.045-.04.073-.064.146-.126.216-.193a4.578,4.578,0,0,0,.335-.367c.028-.042.135-.186.159-.222.055-.088.109-.177.159-.268s.1-.189.143-.284l0-.005c.014-.035.028-.07.04-.105s.021-.083.035-.123Z" transform="translate(-37.061 -40.81)" fill="#fff"/>
    <path id="パス_25779" data-name="パス 25779" d="M29.371,84.715v8.255a1.167,1.167,0,0,1-2.332,0v-7A13.355,13.355,0,0,0,19.4,91.581a10.8,10.8,0,0,0-1.481,5.055,21.5,21.5,0,0,0,.869,5.218,8.068,8.068,0,0,1-1.945,7.092c-1.783,2.184-5.244,4.679-8.358,4.659a6.872,6.872,0,0,0,.806.5c.071.036.143.069.215.1l.012.006c.141.052.282.1.428.143.1.026.2.04.3.061-.04-.015-.019-.022.083.016l.015,0c.07,0,.14.005.21,0,.024,0,.055-.006.087-.01a.249.249,0,0,1,.088,0,2.464,2.464,0,0,0,.387-.121.836.836,0,0,1,.265-.056,30,30,0,0,1,10.377-6.52c2.959-1.155,6.205-1.758,8.883-3.541,2.743-1.826,3.744-4.76,3.753-7.95a1.062,1.062,0,0,1,.706-1.041,9.337,9.337,0,0,1,.389-2.589A21.018,21.018,0,0,1,31.953,88.4a15.1,15.1,0,0,1-2.157-4.65c-.045-.2-.078-.409-.115-.614a2.964,2.964,0,0,0-.366.058,1.215,1.215,0,0,1,.055.353Z" transform="translate(-4.086 -40.056)" fill="#afccff"/>
    <path id="パス_25780" data-name="パス 25780" d="M62.689,3.338A15.574,15.574,0,0,0,54.839,5.97a19,19,0,0,0-8.65,11.79,32.184,32.184,0,0,0-.6,7.769q.04,1.314.165,2.624c.01.107.023.213.035.32a5.129,5.129,0,0,1,.912.057A18.49,18.49,0,0,1,50.162,14.37c2.871-4.034,7.957-6.185,12.7-7.006a1.246,1.246,0,0,1,1.441,1.071,5.14,5.14,0,0,1,2.133.22,1.015,1.015,0,0,1,1.108-1.211A13.386,13.386,0,0,1,73.815,9.5c5.523,3.6,8.376,10.864,8.49,17.4a4.912,4.912,0,0,1,.753-.1c0-.016,0-.031,0-.047a26.234,26.234,0,0,0-2.14-14.521C78.8,7.483,73.853,4.413,68.749,3.869a1.264,1.264,0,0,1-1.1-1.456,17.775,17.775,0,0,0-3.838-.326,1.143,1.143,0,0,1-1.121,1.252" transform="translate(-21.954 -1.005)" fill="#afccff"/>
    <path id="パス_25781" data-name="パス 25781" d="M61.671,15.475c-4.085.707-8.8,2.426-11.31,5.935C47.409,25.542,46,30.581,47.576,35.527a1.184,1.184,0,0,1-.815,1.434c-.991.33-1.37-.1-2.113-.252-1.406-.28-2.141.573-2.588,1.84a6.01,6.01,0,0,0,.656,4.833l.005.007a2.994,2.994,0,0,1,2.651-.356,3.186,3.186,0,0,1,1.523,1.17,2.967,2.967,0,0,1,.511,1.669,1.077,1.077,0,0,1-.025.248c-.006.064-.009.128-.019.191a2.82,2.82,0,0,1,.423,1.475,11.725,11.725,0,0,0,.693,3.325,18.607,18.607,0,0,0,5.508,7.341,14.94,14.94,0,0,0,8.531,3.332A14.057,14.057,0,0,0,72.335,58.2,18.354,18.354,0,0,0,78,48.96c.216-.9.332-1.838.479-2.753.006-.034.01-.065.015-.1a2.465,2.465,0,0,1,0-.415,3.2,3.2,0,0,1,.743-1.8,2.959,2.959,0,0,1,2.008-1.008,6,6,0,0,0,2.338-3.966,4.444,4.444,0,0,0-.747-3.218,1.748,1.748,0,0,0-1.627-.7,3.064,3.064,0,0,0-.772.216c-.379.161-.44.429-.133-.075a1.175,1.175,0,0,1-2.173-.589c.472-7.69-3.61-18.192-12.4-18.911a1.2,1.2,0,0,1-1.107-1.121,5.139,5.139,0,0,0-2.133-.22.959.959,0,0,1-.821,1.178M52.353,29.062a1.181,1.181,0,0,1,.419-1.595,6.56,6.56,0,0,1,2.294-.913,7.407,7.407,0,0,1,3.129.217,1.166,1.166,0,1,1-.62,2.249c-.236-.064-.474-.122-.715-.166l-.163-.028-.073-.008c-.057-.006-.115-.011-.173-.015a5.133,5.133,0,0,0-.558-.008c-.09,0-.179.012-.269.019a5.321,5.321,0,0,0-.932.268l-.058.027q-.12.058-.238.119c-.152.08-.3.165-.449.254a1.187,1.187,0,0,1-1.6-.419m4.3,7.377c-.086-.021-.172-.034-.259-.05a3.5,3.5,0,0,0-.621,0,8.08,8.08,0,0,0-1.449.463,1.132,1.132,0,0,1-.9-.118,1.178,1.178,0,0,1-.536-.7,1.191,1.191,0,0,1,.117-.9,1.271,1.271,0,0,1,.7-.536,7.82,7.82,0,0,1,1.453-.47,4.982,4.982,0,0,1,2.116.057,1.166,1.166,0,0,1,.278,2.131,1.22,1.22,0,0,1-.9.117m16.8-.185a1.189,1.189,0,0,1-.7.536,1.231,1.231,0,0,1-.865-.1,4.4,4.4,0,0,0-.9-.248,3.862,3.862,0,0,0-.6-.005,2.967,2.967,0,0,0-.529.135,1.139,1.139,0,0,1-.9-.117,1.166,1.166,0,0,1-.418-1.6,1.262,1.262,0,0,1,.7-.536,4.031,4.031,0,0,1,1.885-.205,5.826,5.826,0,0,1,1.909.545,1.151,1.151,0,0,1,.535.7,1.178,1.178,0,0,1-.117.9m-5.4-9.484a7.406,7.406,0,0,1,3.129-.217,6.56,6.56,0,0,1,2.294.913A1.166,1.166,0,0,1,72.3,29.48c-.157-.094-.314-.184-.476-.268q-.117-.061-.238-.118l-.048-.022a4.924,4.924,0,0,0-.916-.261l-.02,0c-.093-.009-.187-.015-.28-.018a5.193,5.193,0,0,0-.561.012l-.165.015c-.082.013-.165.025-.247.041-.228.044-.453.1-.677.159a1.166,1.166,0,1,1-.62-2.249m-.136,21.658a1.178,1.178,0,0,1,1.166,1.166,6.532,6.532,0,0,1-1.576,3.948,5.8,5.8,0,0,1-5.95,1.563,6.3,6.3,0,0,1-4.208-5.511.946.946,0,0,1,.312-.788c.009-.011.019-.02.027-.031h0a1.071,1.071,0,0,1,.825-.347h9.4ZM63.457,43.55a1.167,1.167,0,0,1,0,2.332,1.167,1.167,0,0,1,0-2.332" transform="translate(-20.14 -6.868)" fill="#fff"/>
    <path id="パス_25782" data-name="パス 25782" d="M58.756,105.039c-.01,3.891-1.333,7.394-4.548,9.714h1.056l20.562.02,9.5.009a14.411,14.411,0,0,1-3.584-3.579,17.558,17.558,0,0,1-2.694-8.64,17.015,17.015,0,0,1-4.93,2.71,16.036,16.036,0,0,1-11.79-.675,18.16,18.16,0,0,1-4.81-3.189A9.3,9.3,0,0,0,57.13,104a1.152,1.152,0,0,1,1.626,1.041" transform="translate(-26.118 -48.86)" fill="#fff"/>
    <path id="パス_25783" data-name="パス 25783" d="M65.649,131.409a1.17,1.17,0,0,1-.514.112l-4.746,0L39.827,131.5l-12.889-.012a1.12,1.12,0,0,1-.63-.182c-1.559.56-3.165,1.014-4.706,1.585a28.115,28.115,0,0,0-9.486,5.522c-3.237,3.009-4.993,6.941-6.847,10.846H84.681a31.322,31.322,0,0,0-3.2-6.092c-3.946-5.26-10-8.847-15.828-11.755" transform="translate(-2.539 -63.263)" fill="#fff"/>
    <path id="パス_25784" data-name="パス 25784" d="M63.61,40.84c.148-.088.3-.174.449-.253q.117-.062.238-.119l.058-.027a5.29,5.29,0,0,1,.932-.268c.09-.007.179-.016.269-.019a5.134,5.134,0,0,1,.558.009c.058,0,.116.009.173.015l.072.009c.054.009.109.018.163.028.24.045.478.1.715.166a1.166,1.166,0,1,0,.62-2.248,7.407,7.407,0,0,0-3.129-.217,6.57,6.57,0,0,0-2.294.913A1.166,1.166,0,0,0,63.61,40.84" transform="translate(-29.802 -18.229)" fill="#323232"/>
    <path id="パス_25785" data-name="パス 25785" d="M97.513,40.422a1.188,1.188,0,0,0-.418-1.595,6.554,6.554,0,0,0-2.294-.913,7.406,7.406,0,0,0-3.129.217,1.166,1.166,0,0,0,.62,2.249c.223-.061.449-.116.677-.159.082-.016.164-.028.247-.041l.165-.015a5.19,5.19,0,0,1,.561-.012c.094,0,.187.009.28.018l.02,0a4.977,4.977,0,0,1,.916.261l.048.022c.08.038.159.077.238.118.162.084.319.174.476.267a1.179,1.179,0,0,0,1.595-.418" transform="translate(-43.753 -18.229)" fill="#323232"/>
    <path id="パス_25786" data-name="パス 25786" d="M63.7,55.137a1.133,1.133,0,0,0,.9.118,8.034,8.034,0,0,1,1.449-.463,3.5,3.5,0,0,1,.621,0c.087.016.174.029.259.05a1.225,1.225,0,0,0,.9-.117,1.166,1.166,0,0,0-.279-2.131,4.99,4.99,0,0,0-2.116-.058,7.843,7.843,0,0,0-1.452.471,1.269,1.269,0,0,0-.7.536,1.166,1.166,0,0,0,.418,1.595" transform="translate(-30.415 -25.271)" fill="#323232"/>
    <path id="パス_25787" data-name="パス 25787" d="M97.755,53.094a5.822,5.822,0,0,0-1.908-.545,4.036,4.036,0,0,0-1.885.205,1.264,1.264,0,0,0-.7.536,1.166,1.166,0,0,0,.418,1.595,1.142,1.142,0,0,0,.9.118,2.877,2.877,0,0,1,.53-.135,3.794,3.794,0,0,1,.6.005,4.4,4.4,0,0,1,.9.248,1.226,1.226,0,0,0,.865.1,1.166,1.166,0,0,0,.815-1.434,1.155,1.155,0,0,0-.536-.7" transform="translate(-44.859 -25.304)" fill="#323232"/>
    <path id="パス_25788" data-name="パス 25788" d="M82.546,70.789a1.167,1.167,0,0,0,0,2.332,1.167,1.167,0,0,0,0-2.332" transform="translate(-39.229 -34.107)" fill="#323232"/>
    <path id="パス_25789" data-name="パス 25789" d="M11.951,143.5c-.1-.038-.123-.031-.083-.016l.03.007a.5.5,0,0,0,.053.008" transform="translate(-5.709 -69.128)" fill="#323232"/>
    <path id="パス_25790" data-name="パス 25790" d="M12.725,143.514h0l.006,0a.248.248,0,0,0-.088,0,.4.4,0,0,1,.078,0" transform="translate(-6.093 -69.144)" fill="#323232"/>
    <path id="パス_25791" data-name="パス 25791" d="M.129,166c-.654,1.344,1.357,2.528,2.014,1.177.2-.409.393-.82.588-1.23H.155L.129,166" transform="translate(0 -79.955)" fill="#323232"/>
    <path id="パス_25792" data-name="パス 25792" d="M158.518,165.948c.05.11.1.221.149.332.487,1.062,1.81.576,2.078-.332Z" transform="translate(-76.376 -79.955)" fill="#323232"/>
    <path id="パス_25793" data-name="パス 25793" d="M84.383,85.147a44.17,44.17,0,0,0-2.458-5.115,30.5,30.5,0,0,0-7.747-7.95,62.042,62.042,0,0,0-8.667-5.367c-2.411-1.254-4.9-2.3-6.8-4.321-2.618-2.787-3.361-6.66-3.464-10.362a1.239,1.239,0,0,0-.054-.321,20.7,20.7,0,0,0,2.638-3.467,19.038,19.038,0,0,0,2.429-5.9c.037-.185.064-.372.1-.558a3.2,3.2,0,0,0,1.7.146A2.861,2.861,0,0,0,63.66,41a3.131,3.131,0,0,0,.741-1.752A1.075,1.075,0,0,0,64.426,39a2.969,2.969,0,0,0-.51-1.669,3.545,3.545,0,0,0-.339-.4,7.85,7.85,0,0,0,2.291-5.9,5.759,5.759,0,0,0-2.431-4.675A28.838,28.838,0,0,0,60.96,9.839C58.454,4.428,52.651,1.147,46.873.531c-1.491-.159-1.479,2.174,0,2.332,5.1.544,10.055,3.614,12.172,8.37a26.236,26.236,0,0,1,2.14,14.521c0,.016,0,.031,0,.047a4.9,4.9,0,0,0-.753.1c-.114-6.541-2.967-13.809-8.49-17.4a13.394,13.394,0,0,0-6.269-2.06c-1.5-.122-1.487,2.21,0,2.332,8.787.72,12.868,11.222,12.4,18.912a1.175,1.175,0,0,0,2.173.589c-.307.5-.246.236.133.075a3.086,3.086,0,0,1,.772-.216,1.749,1.749,0,0,1,1.627.7,4.444,4.444,0,0,1,.747,3.218,6,6,0,0,1-2.338,3.966,2.961,2.961,0,0,0-2.008,1.008,3.2,3.2,0,0,0-.743,1.8,2.465,2.465,0,0,0,0,.415c0,.033-.009.064-.015.1-.148.916-.264,1.85-.479,2.754a18.353,18.353,0,0,1-5.662,9.236,14.052,14.052,0,0,1-9.818,3.588,14.939,14.939,0,0,1-8.531-3.331,18.611,18.611,0,0,1-5.508-7.341,11.729,11.729,0,0,1-.693-3.325,2.818,2.818,0,0,0-.423-1.475c.01-.063.013-.127.019-.191A1.105,1.105,0,0,0,27.344,39a2.974,2.974,0,0,0-.511-1.669,3.193,3.193,0,0,0-1.523-1.17,2.994,2.994,0,0,0-2.651.356l-.005-.007A6.012,6.012,0,0,1,22,31.682c.447-1.267,1.183-2.12,2.588-1.84.743.148,1.122.582,2.114.252a1.184,1.184,0,0,0,.814-1.434c-1.577-4.946-.167-9.985,2.785-14.118,2.506-3.509,7.225-5.227,11.31-5.935,1.476-.255.85-2.5-.62-2.248-4.747.822-9.833,2.972-12.7,7.006a18.49,18.49,0,0,0-3.462,14.161,5.13,5.13,0,0,0-.912-.057c-.012-.107-.025-.213-.035-.32q-.127-1.308-.165-2.623a32.207,32.207,0,0,1,.6-7.769,19,19,0,0,1,8.65-11.791,15.574,15.574,0,0,1,7.851-2.632,1.167,1.167,0,0,0,0-2.332C35.232.155,30,3.422,26.435,7.567a19.009,19.009,0,0,0-3.918,6.807,30.739,30.739,0,0,0-1.158,8.844,37.073,37.073,0,0,0,.309,4.976,6.011,6.011,0,0,0-2.17,3.833,8.73,8.73,0,0,0,1.567,6.315,4.146,4.146,0,0,0,.3.349c-.006.046-.018.089-.023.136a2.916,2.916,0,0,0,.409,1.707A2.947,2.947,0,0,0,23,41.689a3.208,3.208,0,0,0,1.974.247,2.494,2.494,0,0,0,.5-.152c.077.643.172,1.283.309,1.91a15.105,15.105,0,0,0,2.157,4.65,19.591,19.591,0,0,0,8.344,7.394,16.032,16.032,0,0,0,11.789.675,17.015,17.015,0,0,0,4.93-2.71,17.562,17.562,0,0,0,2.694,8.64,14.422,14.422,0,0,0,3.584,3.579l-9.5-.009-20.563-.019H28.167c3.215-2.321,4.538-5.824,4.548-9.715a1.167,1.167,0,0,0-2.332,0c-.008,3.19-1.01,6.124-3.753,7.95-2.678,1.783-5.924,2.386-8.883,3.541A30,30,0,0,0,7.371,74.19a.85.85,0,0,0-.265.056,2.52,2.52,0,0,1-.387.121.168.168,0,0,1,.033,0,.186.186,0,0,0-.042,0c-.127.027-.122.013-.078,0a.776.776,0,0,1-.087.01c-.07,0-.14,0-.21,0l-.015,0c.015.006.022.007.041.015a.634.634,0,0,0-.095-.023.2.2,0,0,1-.03-.007c-.1-.021-.209-.035-.3-.061-.145-.04-.286-.091-.428-.143l-.012-.006c-.071-.035-.143-.068-.214-.1a6.872,6.872,0,0,1-.806-.5c3.114.021,6.575-2.475,8.358-4.659A8.068,8.068,0,0,0,14.775,61.8a21.527,21.527,0,0,1-.87-5.219,10.805,10.805,0,0,1,1.482-5.055,13.36,13.36,0,0,1,7.643-5.612v7a1.167,1.167,0,0,0,2.332,0V43.492a1.167,1.167,0,0,0-2.332,0v.018a16.852,16.852,0,0,0-7.5,4.169,12.84,12.84,0,0,0-3.936,8.582,15.4,15.4,0,0,0,.636,4.94,6.518,6.518,0,0,1,.19,3.938,10.192,10.192,0,0,1-4.2,4.757c-1.7,1.076-4.23,2.1-5.806.306A1.114,1.114,0,0,0,.5,70.789a1.2,1.2,0,0,0-.2,1.394,8.942,8.942,0,0,0,3.037,3.409,6.679,6.679,0,0,0,1.985.953,21.919,21.919,0,0,0-2.29,3.7l-2.8,5.746H2.809c1.854-3.906,3.61-7.838,6.847-10.846a28.108,28.108,0,0,1,9.486-5.522c1.541-.571,3.147-1.025,4.706-1.585a1.12,1.12,0,0,0,.63.182l12.889.012,20.562.019,4.746,0a1.163,1.163,0,0,0,.514-.112C69.018,71.054,75.07,74.641,79.015,79.9a31.322,31.322,0,0,1,3.2,6.092h2.228a1.183,1.183,0,0,0-.064-.846M60.771,38.912c.013-.058.029-.115.047-.17s.059-.1.092-.153c.032-.033.064-.066.1-.1.05-.033.1-.064.153-.092s.113-.034.17-.048.124,0,.186,0,.115.03.17.048.1.059.153.092c.034.031.066.064.1.1.033.05.063.1.091.153a2.089,2.089,0,0,1,.062.223c0,.013,0,.027,0,.04s0,.027,0,.04a2.047,2.047,0,0,1-.062.222c-.028.053-.059.1-.091.153-.032.034-.064.067-.1.1-.05.033-.1.063-.153.092s-.113.034-.17.047a1.844,1.844,0,0,1-.186,0c-.057-.013-.114-.029-.17-.047s-.1-.059-.153-.092q-.051-.047-.1-.1c-.033-.05-.063-.1-.092-.153s-.034-.112-.047-.17,0-.124,0-.186m-35.762.133a2.047,2.047,0,0,1-.062.222c-.028.053-.059.1-.091.153-.032.034-.064.067-.1.1-.05.033-.1.063-.153.092s-.113.034-.17.047a1.854,1.854,0,0,1-.186,0c-.057-.013-.114-.029-.17-.047s-.1-.059-.153-.092c-.034-.031-.066-.064-.1-.1-.033-.05-.063-.1-.091-.153a1.719,1.719,0,0,1-.048-.17c0-.062,0-.124,0-.186a1.77,1.77,0,0,1,.048-.17c.028-.052.059-.1.091-.153.032-.033.064-.066.1-.1.05-.033.1-.064.153-.092s.113-.034.17-.048.124,0,.186,0,.114.03.17.048.1.059.153.092c.034.031.066.064.1.1.033.05.063.1.091.153a2.09,2.09,0,0,1,.062.223c0,.013,0,.027,0,.04s0,.027,0,.04" transform="translate(-0.078 0)" fill="#323232"/>
    <path id="パス_25794" data-name="パス 25794" d="M46.882,74.621a2.047,2.047,0,0,0-.062-.222c-.028-.053-.059-.1-.091-.153q-.047-.051-.1-.1c-.05-.033-.1-.063-.153-.092s-.113-.034-.17-.047a1.859,1.859,0,0,0-.186,0c-.057.013-.114.029-.17.047s-.1.059-.153.092q-.051.047-.1.1c-.033.05-.063.1-.091.153a1.757,1.757,0,0,0-.048.17c0,.062,0,.124,0,.186a1.767,1.767,0,0,0,.048.17c.028.052.059.1.091.153q.047.051.1.1c.05.032.1.063.153.091s.113.034.17.048.124,0,.186,0,.114-.03.17-.048.1-.059.153-.091q.051-.047.1-.1c.033-.05.063-.1.091-.153a2.055,2.055,0,0,0,.062-.223c0-.013,0-.027,0-.04s0-.027,0-.04" transform="translate(-21.951 -35.657)" fill="#fff"/>
    <path id="パス_25795" data-name="パス 25795" d="M117.361,75.176c.05.033.1.063.153.092s.112.034.17.047a1.848,1.848,0,0,0,.186,0c.058-.013.115-.029.17-.047s.1-.059.153-.092c.033-.032.066-.064.1-.1.033-.05.063-.1.091-.153a2.051,2.051,0,0,0,.062-.222c0-.013,0-.027,0-.04s0-.027,0-.04a2.059,2.059,0,0,0-.062-.223c-.028-.052-.059-.1-.091-.153-.032-.034-.064-.066-.1-.1-.05-.033-.1-.064-.153-.092s-.113-.034-.17-.048-.124,0-.186,0-.114.03-.17.048-.1.059-.153.092c-.034.031-.066.064-.1.1-.033.05-.064.1-.092.153s-.034.113-.047.17,0,.124,0,.186.029.114.047.17.059.1.092.153q.047.051.1.1" transform="translate(-56.431 -35.657)" fill="#fff"/>
    <path id="パス_25796" data-name="パス 25796" d="M115.856,82.883v9.423a1.167,1.167,0,0,0,2.332,0V82.883a1.167,1.167,0,0,0-2.332,0" transform="translate(-55.821 -39.391)" fill="#323232"/>
    <path id="パス_25797" data-name="パス 25797" d="M20.44,8.587a1.176,1.176,0,0,0,1.649,0,1.19,1.19,0,0,0,0-1.649L19.876,4.587l-.308-.327a1.176,1.176,0,0,0-1.649,0,1.19,1.19,0,0,0,0,1.649L20.132,8.26l.308.327" transform="translate(-8.474 -1.89)" fill="#323232"/>
    <path id="パス_25798" data-name="パス 25798" d="M13.248,22.063a1.185,1.185,0,0,0-.418-1.595l-2.807-1.579-.4-.223A1.166,1.166,0,1,0,8.45,20.68l2.807,1.579.4.222a1.182,1.182,0,0,0,1.595-.418" transform="translate(-3.799 -8.921)" fill="#323232"/>
    <path id="パス_25799" data-name="パス 25799" d="M8.816,38.449,5.6,38.485l-.463,0a1.166,1.166,0,0,0,0,2.332l3.212-.035.462-.005a1.166,1.166,0,0,0,0-2.332" transform="translate(-1.915 -18.525)" fill="#323232"/>
    <path id="パス_25800" data-name="パス 25800" d="M131.246,2.407a1.172,1.172,0,0,0-.824-.341,1.187,1.187,0,0,0-.824.341l-2.213,2.352-.308.327a1.217,1.217,0,0,0-.341.824,1.186,1.186,0,0,0,.341.824,1.172,1.172,0,0,0,.824.341,1.187,1.187,0,0,0,.824-.341l2.213-2.352.308-.327a1.217,1.217,0,0,0,.341-.824,1.186,1.186,0,0,0-.341-.824" transform="translate(-61.062 -0.995)" fill="#323232"/>
    <path id="パス_25801" data-name="パス 25801" d="M136.88,20.63l2.807-1.579.4-.222a1.166,1.166,0,0,0-1.177-2.014L136.1,18.394l-.4.222a1.166,1.166,0,0,0,1.177,2.014" transform="translate(-65.105 -8.027)" fill="#323232"/>
    <path id="パス_25802" data-name="パス 25802" d="M139.266,38.933l3.212.036.462,0a1.166,1.166,0,0,0,0-2.332l-3.212-.035-.463-.005a1.166,1.166,0,1,0,0,2.332" transform="translate(-66.537 -17.635)" fill="#323232"/>
    <path id="パス_25803" data-name="パス 25803" d="M72.978,80.2a1.072,1.072,0,0,0-.826.347h0c-.009.01-.019.02-.027.031a.946.946,0,0,0-.312.788,6.3,6.3,0,0,0,4.208,5.511,5.8,5.8,0,0,0,5.95-1.563,6.532,6.532,0,0,0,1.576-3.948A1.178,1.178,0,0,0,82.379,80.2h-9.4Zm7.907,2.56,0,.005c-.047.1-.092.191-.143.284s-.1.18-.159.268c-.023.037-.131.18-.159.222a4.66,4.66,0,0,1-.335.366c-.07.067-.143.13-.216.193l-.045.04c-.017.01-.041.024-.079.049-.16.1-.32.2-.489.287l-.162.074-.191.068a5.767,5.767,0,0,1-.582.149c-.025.006-.052.01-.079.014-.1,0-.192.018-.287.022a4.84,4.84,0,0,1-.562-.01,1.226,1.226,0,0,1-.125-.016l.076.017c-.118-.027-.238-.042-.356-.069-.185-.043-.363-.1-.544-.162l-.051-.017-.01-.005c-.1-.05-.2-.095-.293-.148a5.137,5.137,0,0,1-.5-.319c-.028-.024-.058-.047-.084-.072-.085-.077-.169-.154-.25-.235s-.177-.193-.263-.291l0,0c-.028-.039-.057-.078-.084-.118a7,7,0,0,1-.393-.685l-.013-.027-.046-.112h6.5c-.014.04-.02.083-.035.123s-.027.07-.04.105" transform="translate(-34.597 -38.642)" fill="#323232"/>
    <path id="パス_25804" data-name="パス 25804" d="M82.32,89.03c-.052-.01-.045-.008,0,0" transform="translate(-39.645 -42.892)" fill="#323232"/>
    <path id="パス_25805" data-name="パス 25805" d="M17.9,143.084l21.88.012,34.807.019,7.9,0a1.167,1.167,0,0,0,0-2.332l-21.88-.012-34.807-.02-7.9,0a1.167,1.167,0,0,0,0,2.332" transform="translate(-8.083 -67.816)" fill="#afccff"/>
    <path id="パス_25806" data-name="パス 25806" d="M83.633,154.332l-7.609,0-18.275-.008-22.116-.011L16.5,154.3c-3.1,0-6.228-.137-9.322,0-.045,0-.091,0-.136,0a1.167,1.167,0,0,0,0,2.332l7.609,0,18.275.009,22.116.01,19.132.009c3.1,0,6.228.137,9.322,0,.045,0,.091,0,.136,0a1.167,1.167,0,0,0,0-2.332" transform="translate(-2.851 -74.313)" fill="#afccff"/>
    <path id="パス_25807" data-name="パス 25807" d="M101.963,99.367c.1,3.576.727,7.3,2.787,10.311a16.574,16.574,0,0,0,6.619,5.372c6.091,2.985,12.554,6.664,16.695,12.185a33.753,33.753,0,0,1,3.354,6.423c.624,1.363,2.634.179,2.014-1.177a44.133,44.133,0,0,0-2.458-5.115,30.473,30.473,0,0,0-7.747-7.95,61.964,61.964,0,0,0-8.667-5.367c-2.41-1.254-4.9-2.3-6.8-4.321-2.618-2.787-3.362-6.659-3.464-10.361a1.167,1.167,0,0,0-2.332,0" transform="translate(-49.127 -47.333)" fill="#323232"/>
    <path id="パス_25808" data-name="パス 25808" d="M30.307,107.367c-.009,3.19-1.01,6.124-3.753,7.95-2.678,1.783-5.924,2.385-8.884,3.541-6.249,2.44-11.726,6.426-14.719,12.576q-1.411,2.9-2.821,5.8c-.654,1.344,1.356,2.527,2.013,1.177,2.091-4.3,3.858-8.752,7.436-12.076a28.107,28.107,0,0,1,9.486-5.522c3.042-1.127,6.343-1.8,9.02-3.727,3.22-2.32,4.543-5.825,4.554-9.718a1.167,1.167,0,0,0-2.332,0" transform="translate(0 -51.188)" fill="#323232"/>
  </g>
</svg>
