<svg xmlns="http://www.w3.org/2000/svg" xmlns:xlink="http://www.w3.org/1999/xlink" width="86.265" height="86.749" viewBox="0 0 86.265 86.749">
  <defs>
    <clipPath id="clip-path">
      <path id="パス_26202" data-name="パス 26202" d="M2475.929,6465.378s8.726-14.8,19.413-15.981c14.8,1.863,22.06,5.393,43.532-.686,17.844,9.707,20.1,16.667,20.1,16.667Z" transform="translate(-2460 -1)" fill="none" stroke="#707070" stroke-width="1"/>
    </clipPath>
    <clipPath id="clip-path-3">
      <rect width="95.414" height="21.414" fill="none"/>
    </clipPath>
    <clipPath id="clip-path-4">
      <rect id="長方形_945" data-name="長方形 945" width="86.265" height="86.749" fill="none"/>
    </clipPath>
  </defs>
  <g id="グループ_1322" data-name="グループ 1322" transform="translate(-15 -6377.9)">
    <g id="グループ_1321" data-name="グループ 1321">
      <g id="マスクグループ_32" data-name="マスクグループ 32" clip-path="url(#clip-path)">
        <rect id="長方形_966" data-name="長方形 966" width="91" height="19" transform="translate(12 6446)" fill="#fff"/>
      </g>
      <g id="マスクグループ_27" data-name="マスクグループ 27" clip-path="url(#clip-path)">
        <g id="リピートグリッド_12" data-name="リピートグリッド 12" transform="translate(7.994 6445.793)" clip-path="url(#clip-path-3)">
          <g transform="translate(-297.793 -878.793)">
            <line id="線_234" data-name="線 234" x1="20" y2="20" transform="translate(298.5 879.5)" fill="none" stroke="#afccff" stroke-width="2"/>
          </g>
          <g transform="translate(-291.793 -878.793)">
            <line id="線_234-2" data-name="線 234" x1="20" y2="20" transform="translate(298.5 879.5)" fill="none" stroke="#afccff" stroke-width="2"/>
          </g>
          <g transform="translate(-285.793 -878.793)">
            <line id="線_234-3" data-name="線 234" x1="20" y2="20" transform="translate(298.5 879.5)" fill="none" stroke="#afccff" stroke-width="2"/>
          </g>
          <g transform="translate(-279.793 -878.793)">
            <line id="線_234-4" data-name="線 234" x1="20" y2="20" transform="translate(298.5 879.5)" fill="none" stroke="#afccff" stroke-width="2"/>
          </g>
          <g transform="translate(-273.793 -878.793)">
            <line id="線_234-5" data-name="線 234" x1="20" y2="20" transform="translate(298.5 879.5)" fill="none" stroke="#afccff" stroke-width="2"/>
          </g>
          <g transform="translate(-267.793 -878.793)">
            <line id="線_234-6" data-name="線 234" x1="20" y2="20" transform="translate(298.5 879.5)" fill="none" stroke="#afccff" stroke-width="2"/>
          </g>
          <g transform="translate(-261.793 -878.793)">
            <line id="線_234-7" data-name="線 234" x1="20" y2="20" transform="translate(298.5 879.5)" fill="none" stroke="#afccff" stroke-width="2"/>
          </g>
          <g transform="translate(-255.793 -878.793)">
            <line id="線_234-8" data-name="線 234" x1="20" y2="20" transform="translate(298.5 879.5)" fill="none" stroke="#afccff" stroke-width="2"/>
          </g>
          <g transform="translate(-249.793 -878.793)">
            <line id="線_234-9" data-name="線 234" x1="20" y2="20" transform="translate(298.5 879.5)" fill="none" stroke="#afccff" stroke-width="2"/>
          </g>
          <g transform="translate(-243.793 -878.793)">
            <line id="線_234-10" data-name="線 234" x1="20" y2="20" transform="translate(298.5 879.5)" fill="none" stroke="#afccff" stroke-width="2"/>
          </g>
          <g transform="translate(-237.793 -878.793)">
            <line id="線_234-11" data-name="線 234" x1="20" y2="20" transform="translate(298.5 879.5)" fill="none" stroke="#afccff" stroke-width="2"/>
          </g>
          <g transform="translate(-231.793 -878.793)">
            <line id="線_234-12" data-name="線 234" x1="20" y2="20" transform="translate(298.5 879.5)" fill="none" stroke="#afccff" stroke-width="2"/>
          </g>
          <g transform="translate(-225.793 -878.793)">
            <line id="線_234-13" data-name="線 234" x1="20" y2="20" transform="translate(298.5 879.5)" fill="none" stroke="#afccff" stroke-width="2"/>
          </g>
          <g transform="translate(-219.793 -878.793)">
            <line id="線_234-14" data-name="線 234" x1="20" y2="20" transform="translate(298.5 879.5)" fill="none" stroke="#afccff" stroke-width="2"/>
          </g>
          <g transform="translate(-213.793 -878.793)">
            <line id="線_234-15" data-name="線 234" x1="20" y2="20" transform="translate(298.5 879.5)" fill="none" stroke="#afccff" stroke-width="2"/>
          </g>
          <g transform="translate(-207.793 -878.793)">
            <line id="線_234-16" data-name="線 234" x1="20" y2="20" transform="translate(298.5 879.5)" fill="none" stroke="#afccff" stroke-width="2"/>
          </g>
        </g>
      </g>
    </g>
    <g id="グループ_1171" data-name="グループ 1171" transform="translate(15 6377.9)">
      <g id="グループ_1170" data-name="グループ 1170" transform="translate(0)" clip-path="url(#clip-path-4)">
        <path id="パス_25714" data-name="パス 25714" d="M68.79,62.911a3.775,3.775,0,0,0,1.743-1.157,2.75,2.75,0,0,0-.168-3.741,3.928,3.928,0,0,0-2.241-1.136,4.115,4.115,0,0,0-3.887,1.477,2.741,2.741,0,0,0,.289,3.584,4.213,4.213,0,0,0,4.265.972m-1.15-4.7a1.167,1.167,0,0,1,0,2.332,1.167,1.167,0,0,1,0-2.332" transform="translate(-30.693 -27.378)" fill="#fff"/>
        <path id="パス_25715" data-name="パス 25715" d="M57.537,38.35a22.353,22.353,0,0,1-.081,2.68l1.8.576a5.345,5.345,0,0,1,.521-.673A6.521,6.521,0,0,1,66.4,39.27a5.834,5.834,0,0,1,3.837,3.654h2.97a5.571,5.571,0,0,1,1.058-1.952,6.08,6.08,0,0,1,6.42-1.69,5.878,5.878,0,0,1,2.936,2.195l2.449-.6c-.162-6.121-2.5-13.074-7.829-16.274a20.2,20.2,0,0,1-6.6,9.845,11.278,11.278,0,0,1-5.416,2.66,24.2,24.2,0,0,1-5.679-.225,15.454,15.454,0,0,1-3.011,1.464M76.3,36.192a6.7,6.7,0,0,1,2.8-.354,7.044,7.044,0,0,1,2.527.841,1.166,1.166,0,0,1-1.177,2.013c-.161-.087-.323-.169-.488-.246l-.043-.019c-.063-.029-.133-.052-.194-.074a4.611,4.611,0,0,0-.473-.14q-.113-.027-.229-.048l-.013,0A8.091,8.091,0,0,0,78,38.17l-.114.02c-.1.018-.2.039-.295.062-.226.053-.449.118-.67.188a1.166,1.166,0,1,1-.62-2.248" transform="translate(-27.683 -11.855)" fill="#fff"/>
        <path id="パス_25716" data-name="パス 25716" d="M98.829,59.975c0-.036-.02-.346-.012-.345-.01-.067-.023-.134-.037-.2-.026-.118-.056-.234-.093-.349,0,0-.082-.219-.078-.222a2.9,2.9,0,0,0-.59-.9,3.522,3.522,0,0,0-2.076-1.09,3.486,3.486,0,0,0-3.905,2.007c-.013.039-.044.121-.051.145-.029.1-.06.191-.084.289-.02.079-.035.158-.051.236-.008.04-.014.066-.019.085s0,.049,0,.092c0,.187-.008.372.005.559a.383.383,0,0,1,0,.053c.01.061.021.121.034.181.017.078.037.156.059.234.027.1.059.191.092.285a.484.484,0,0,1,.016.049l.029.059c.079.161.172.313.265.466a1.1,1.1,0,0,0,.219.286,3.749,3.749,0,0,0,4.011,1.02,3.458,3.458,0,0,0,1.662-1.173c.017-.03.125-.186.123-.183q.08-.126.151-.258c.042-.08.084-.161.121-.244l.026-.078a2.7,2.7,0,0,0,.18-1.007M95.5,60.54a1.167,1.167,0,0,1,0-2.332,1.167,1.167,0,0,1,0,2.332" transform="translate(-44.243 -27.377)" fill="#fff"/>
        <path id="パス_25717" data-name="パス 25717" d="M80.819,91.243c.066.116.126.236.2.346.017.025.035.049.053.074.068.064.124.145.19.212s.153.153.235.225c.021.019.1.08.136.108l.076.051q.1.066.206.125c.079.045.161.084.243.126l.008,0c.147.048.29.1.44.137.075.019.152.031.229.047l.048.008c.153.008.305.016.459.01.016,0,.069,0,.123,0l.022-.005c.032-.007.065-.011.1-.018a3.656,3.656,0,0,0,.474-.124c.041-.014.081-.032.123-.044l.029-.008c.032-.019.064-.039.082-.049.138-.072.267-.155.4-.24l.016-.01.014-.013c.059-.053.119-.1.176-.16s.127-.133.19-.2c.012-.013.025-.028.037-.043.09-.143.19-.278.27-.428.023-.043.045-.088.066-.133Z" transform="translate(-38.939 -43.962)" fill="#fff"/>
        <path id="パス_25718" data-name="パス 25718" d="M86.073,94.048a.98.98,0,0,0-.127.021c.059,0,.117-.006.127-.021" transform="translate(-41.41 -45.313)" fill="#ffe164"/>
        <path id="パス_25719" data-name="パス 25719" d="M85.067,72.429a15.572,15.572,0,0,1,.337-1.783,1.671,1.671,0,0,1,.218-.478,2.668,2.668,0,0,1-.116-1,3.156,3.156,0,0,1,.733-1.778,2.939,2.939,0,0,1,3.167-.844c.064.024.12.056.182.083.019-.037.041-.074.06-.111a5.325,5.325,0,0,0,.237-4.117,2.287,2.287,0,0,0-1.442-1.477,2.179,2.179,0,0,0-1.137.138,2.461,2.461,0,0,1-.295.116.369.369,0,0,0-.146.066c-.142.189-.122.086,0,0,.036-.048.079-.109.138-.2a1.182,1.182,0,0,1-2.149-.392l-1.542.375c.028.168.039.342.051.515a1.282,1.282,0,0,1,.027.282,5.626,5.626,0,0,1-4.6,5.35,6.082,6.082,0,0,1-6.207-2.486,4.907,4.907,0,0,1-.777-2.062H69.217a5.8,5.8,0,0,1-4.831,4.568A6.411,6.411,0,0,1,58,64.615a4.876,4.876,0,0,1-.772-3.461l-1.279-.408a70.442,70.442,0,0,0-.985,7.446,14.484,14.484,0,0,0,.145,3.149c.173.964.531,1.878.8,2.818.491,1.742.97,3.281,2.855,3.879a1.176,1.176,0,0,1,0,2.248c.2-.062-.232.212-.289.251l-.024.015c.871,1.734,2.506,2.764,4.177,3.758,2.1,1.25,4.091,2.4,6.582,2.6a13.832,13.832,0,0,0,11.12-4.533,18.667,18.667,0,0,0,4.738-9.952m-14.4-2.94a1.167,1.167,0,0,1,0,2.332,1.167,1.167,0,0,1,0-2.332m3.624,9.237a4.834,4.834,0,0,1-4.963,1.38,5.511,5.511,0,0,1-3.713-4.462c0-.017,0-.033,0-.05a1.3,1.3,0,0,1-.04-.26,1.088,1.088,0,0,1,.4-.861,1.056,1.056,0,0,1,.1-.08,1.254,1.254,0,0,1,.312-.158c.019-.006.031-.02.05-.025s.04-.005.059-.009.068-.011.1-.016.052-.007.079-.008.047-.008.07-.008H74.45a1.178,1.178,0,0,1,1.166,1.166,5.72,5.72,0,0,1-1.326,3.392" transform="translate(-26.473 -29.219)" fill="#fff"/>
        <path id="パス_25720" data-name="パス 25720" d="M64.939,5.626C59.688,3.1,52.9,4.791,48.927,8.878c-3.279,3.37-5.336,7.89-6.921,12.258a110.491,110.491,0,0,0-3.943,13.381c-.965,4.3-2.239,8.918-.488,13.171a9.527,9.527,0,0,0,7.192,6.058,10.382,10.382,0,0,1-4.595-5.675c-.486-1.426,1.768-2.033,2.249-.62a7.914,7.914,0,0,0,3.594,4.326c.576.331.821.5,1.284.334a6.788,6.788,0,0,1-2.113-3.325,22.908,22.908,0,0,1-1.352-6.25c-.143-4.952,1.729-9.791,1.348-14.739a1,1,0,0,1,1.048-1.117,1.29,1.29,0,0,1,.321-.163,12.693,12.693,0,0,0,2.8-1.348.887.887,0,0,1,.47-.323,13.21,13.21,0,0,0,4.828-6.076,1.191,1.191,0,0,1,1.434-.815,1.176,1.176,0,0,1,.815,1.434,15.77,15.77,0,0,1-3.746,5.726,13.061,13.061,0,0,0,2.573.007,8.855,8.855,0,0,0,4.476-2.21,18.316,18.316,0,0,0,6.332-10.8c.262-1.4,2.3-.9,2.267.414a1.264,1.264,0,0,1,.145.061C75.46,16.1,78.366,24.41,78.413,31.6c.067-.013.136-.027.2-.038a3.914,3.914,0,0,1,3.4,1.02c1.634,1.51,1.93,3.968,1.544,6.051a7.932,7.932,0,0,1-1.089,2.692,3.175,3.175,0,0,1,.157.936,1.1,1.1,0,0,1-.025.247,3.088,3.088,0,0,1-.731,1.723,2.814,2.814,0,0,1-1.572.916,3.149,3.149,0,0,1-1.6-.114c-.045.247-.091.493-.134.74a22.353,22.353,0,0,1-1.605,5.585,20.224,20.224,0,0,1-2.313,3.86,5.263,5.263,0,0,0,2.4-.736,1.144,1.144,0,0,1,.428-1.986,8.641,8.641,0,0,0,4.392-3.169,11.343,11.343,0,0,0,2.092-5.376,31.508,31.508,0,0,0-.9-11.191c-.709-3.182-1.579-6.344-2.5-9.47a46.819,46.819,0,0,0-3.932-9.936c-1.487-2.62-3.559-5.31-6.732-5.766a1.173,1.173,0,0,1-.814-1.434,1.109,1.109,0,0,1,.173-.335,9.094,9.094,0,0,0-2.626-.9,1.232,1.232,0,0,1-1.691.708" transform="translate(-17.685 -2.137)" fill="#323232"/>
        <path id="パス_25721" data-name="パス 25721" d="M56.245,109.18c-.008,3.245-.919,6.459-3.412,8.674a15.98,15.98,0,0,1-5.325,2.938c1.278.23,2.58.365,3.832.5a146.819,146.819,0,0,0,20.415.632c3.163-.1,6.336-.274,9.475-.687a33.57,33.57,0,0,0,3.333-.59c.229-.054.451-.11.664-.168-.578-.3-1.153-.594-1.717-.914a13.42,13.42,0,0,1-5.1-4.76,16.817,16.817,0,0,1-2.008-7.42,15.547,15.547,0,0,1-12.853,3.109,22.183,22.183,0,0,1-6.932-3.367,12.515,12.515,0,0,1-2.165-1.743v2.828a1.169,1.169,0,0,1,1.79.967" transform="translate(-22.89 -50.776)" fill="#fff"/>
        <path id="パス_25722" data-name="パス 25722" d="M93.633,48.851c.221-.07.444-.135.67-.188.1-.023.2-.044.295-.063l.113-.019a8.1,8.1,0,0,1,1.016-.009l.013,0c.077.014.152.031.229.048a4.834,4.834,0,0,1,.472.14c.062.022.132.045.194.074l.044.02c.165.076.327.16.488.246a1.166,1.166,0,0,0,1.177-2.014,7.043,7.043,0,0,0-2.527-.84,6.7,6.7,0,0,0-2.8.354,1.166,1.166,0,1,0,.62,2.248" transform="translate(-44.398 -22.266)" fill="#323232"/>
        <path id="パス_25723" data-name="パス 25723" d="M97.866,59.5a1.167,1.167,0,0,0,0,2.332,1.167,1.167,0,0,0,0-2.332" transform="translate(-46.61 -28.666)" fill="#323232"/>
        <path id="パス_25724" data-name="パス 25724" d="M84.238,80.044a1.167,1.167,0,0,0,0-2.332,1.167,1.167,0,0,0,0,2.332" transform="translate(-40.044 -37.442)" fill="#323232"/>
        <path id="パス_25725" data-name="パス 25725" d="M70.254,61.829a1.167,1.167,0,0,0,0-2.332,1.167,1.167,0,0,0,0,2.332" transform="translate(-33.306 -28.666)" fill="#323232"/>
        <path id="パス_25726" data-name="パス 25726" d="M72.877,72.523c-2.819-1.7-5.788-3.127-8.747-4.559a16.479,16.479,0,0,1-5.743-3.891c-2.079-2.472-2.533-5.862-2.618-8.98a1.2,1.2,0,0,0-.1-.46,20.226,20.226,0,0,0,3.6-5.417,22.354,22.354,0,0,0,1.605-5.585c.043-.247.089-.493.134-.739a3.154,3.154,0,0,0,1.6.113,2.814,2.814,0,0,0,1.572-.916,3.085,3.085,0,0,0,.731-1.722,1.107,1.107,0,0,0,.025-.248,3.175,3.175,0,0,0-.157-.935,7.939,7.939,0,0,0,1.089-2.693c.386-2.083.09-4.541-1.544-6.051a3.913,3.913,0,0,0-3.4-1.019c-.064.01-.132.025-.2.038-.048-7.186-2.953-15.5-9.465-19.01a1.269,1.269,0,0,0-.145-.061c.037-1.315-2-1.818-2.267-.414a18.315,18.315,0,0,1-6.332,10.8,8.85,8.85,0,0,1-4.476,2.21,13.022,13.022,0,0,1-2.573-.007,15.766,15.766,0,0,0,3.746-5.726,1.176,1.176,0,0,0-.815-1.434,1.191,1.191,0,0,0-1.434.814,13.209,13.209,0,0,1-4.828,6.076.884.884,0,0,0-.47.323,12.67,12.67,0,0,1-2.8,1.348,1.31,1.31,0,0,0-.321.164A1,1,0,0,0,27.5,25.661c.381,4.947-1.49,9.786-1.348,14.739A22.913,22.913,0,0,0,27.5,46.65a6.786,6.786,0,0,0,2.113,3.325c-.463.163-.708,0-1.284-.334a7.911,7.911,0,0,1-3.594-4.326c-.481-1.413-2.734-.806-2.249.62a10.38,10.38,0,0,0,4.595,5.675,9.526,9.526,0,0,1-7.192-6.057c-1.751-4.254-.477-8.872.488-13.171A110.472,110.472,0,0,1,24.321,19c1.585-4.367,3.642-8.887,6.921-12.257C35.218,2.655,42,.961,47.255,3.489c1.346.648,2.53-1.362,1.177-2.014A16.723,16.723,0,0,0,31.74,3.226c-4.207,3.113-6.777,7.991-8.729,12.729A100.692,100.692,0,0,0,18.35,30.814c-.635,2.653-1.138,5.35-1.542,8.047a14.091,14.091,0,0,0,.634,6.782c1.774,5.018,6.259,8.865,11.785,8.37a1.191,1.191,0,0,0,1.077-.957,10.867,10.867,0,0,0,3.426,3.3,22.2,22.2,0,0,0,6.932,3.368,15.55,15.55,0,0,0,12.853-3.11,16.817,16.817,0,0,0,2.008,7.42,13.42,13.42,0,0,0,5.1,4.76c.564.32,1.139.618,1.717.914-.213.058-.435.114-.664.168a33.451,33.451,0,0,1-3.333.59c-3.139.413-6.312.586-9.475.687a146.991,146.991,0,0,1-20.416-.632c-1.252-.135-2.553-.271-3.831-.5a15.961,15.961,0,0,0,5.325-2.938c2.493-2.215,3.4-5.429,3.412-8.674a1.167,1.167,0,0,0-2.332,0c-.007,2.747-.729,5.34-2.887,7.163-2.05,1.731-4.718,2.373-7.2,3.214C15.086,70.766,9.389,73.7,5.181,78.324A27.283,27.283,0,0,0,0,86.75H2.51A26.479,26.479,0,0,1,14.068,74.312a42.8,42.8,0,0,1,6.6-2.968A25.558,25.558,0,0,0,27.183,72.7c3.252.406,6.529.611,9.8.736a132.706,132.706,0,0,0,20.83-.579c2.409-.29,5.106-.55,7.28-1.725.022-.012.038-.027.059-.039,1.3.624,2.607,1.246,3.878,1.929A41.245,41.245,0,0,1,77,78.348a23.059,23.059,0,0,1,6.063,8.4h2.5c-2.374-6.268-7.03-10.817-12.7-14.227M62.6,40.154a2.119,2.119,0,0,1-.059.211q-.04.073-.085.143-.044.047-.09.09-.07.046-.143.085c-.052.017-.105.032-.159.044s-.115,0-.173,0-.106-.027-.159-.044-.1-.055-.143-.085q-.047-.044-.09-.09-.046-.07-.086-.143c-.017-.052-.032-.105-.044-.159s0-.115,0-.173.027-.106.044-.158.055-.1.086-.143q.044-.047.09-.09.07-.046.143-.086c.052-.017.105-.032.159-.044s.115,0,.173,0,.106.027.159.044.1.055.143.086q.047.044.09.09.046.07.085.143a2.11,2.11,0,0,1,.059.21c0,.011,0,.023,0,.034s0,.023,0,.034M29.854,26.495a15.427,15.427,0,0,0,3.011-1.465,24.172,24.172,0,0,0,5.679.225A11.28,11.28,0,0,0,43.96,22.6a20.2,20.2,0,0,0,6.6-9.845c5.332,3.2,7.667,10.153,7.829,16.274l-2.449.6A5.874,5.874,0,0,0,53,27.427a6.079,6.079,0,0,0-6.419,1.69,5.563,5.563,0,0,0-1.058,1.952h-2.97a5.835,5.835,0,0,0-3.837-3.654,6.521,6.521,0,0,0-6.62,1.663,5.342,5.342,0,0,0-.521.673l-1.8-.576a22.45,22.45,0,0,0,.081-2.68m24.731,6.1a2.7,2.7,0,0,1-.181,1.007l-.026.078c-.037.083-.078.164-.121.244s-.1.174-.15.258c0,0-.107.154-.123.183a3.458,3.458,0,0,1-1.662,1.173,3.75,3.75,0,0,1-4.012-1.02,1.114,1.114,0,0,1-.219-.286c-.093-.153-.186-.305-.265-.466l-.029-.059c0-.009-.007-.023-.016-.049q-.051-.141-.093-.285c-.022-.078-.041-.156-.058-.234-.013-.06-.023-.12-.034-.181a.457.457,0,0,0,0-.053c-.013-.188-.007-.372,0-.559,0-.042,0-.072,0-.092s.011-.045.02-.085c.016-.079.032-.158.051-.236.024-.1.055-.192.084-.289.007-.023.038-.105.051-.145a3.784,3.784,0,0,1,.265-.492A3.722,3.722,0,0,1,51.7,29.5a3.521,3.521,0,0,1,2.076,1.09,2.887,2.887,0,0,1,.591.9s.078.224.078.222q.054.173.093.349c.014.065.027.133.037.2-.007,0,.012.308.013.345m-14.091,0a2.906,2.906,0,0,1-.654,1.778A3.774,3.774,0,0,1,38.1,35.534a4.213,4.213,0,0,1-4.265-.972,2.741,2.741,0,0,1-.289-3.584A4.115,4.115,0,0,1,37.431,29.5a3.926,3.926,0,0,1,2.241,1.136,2.9,2.9,0,0,1,.822,1.963M53.856,53.163A13.832,13.832,0,0,1,42.736,57.7c-2.491-.2-4.482-1.354-6.582-2.6-1.671-.995-3.306-2.024-4.177-3.758L32,51.318c.056-.038.493-.313.288-.251a1.176,1.176,0,0,0,0-2.248c-1.885-.6-2.363-2.137-2.855-3.879-.265-.94-.624-1.854-.8-2.817a14.556,14.556,0,0,1-.145-3.15,70.586,70.586,0,0,1,.985-7.445l1.279.408a4.873,4.873,0,0,0,.771,3.461,6.411,6.411,0,0,0,6.384,2.572A5.794,5.794,0,0,0,42.744,33.4h2.589a4.912,4.912,0,0,0,.777,2.062,6.081,6.081,0,0,0,6.207,2.486,5.626,5.626,0,0,0,4.6-5.35,1.247,1.247,0,0,0-.028-.282c-.011-.174-.022-.347-.05-.515l1.541-.376a1.182,1.182,0,0,0,2.15.393c-.059.093-.1.153-.138.2a.37.37,0,0,1,.147-.065,2.545,2.545,0,0,0,.294-.116A2.175,2.175,0,0,1,61.97,31.7a2.289,2.289,0,0,1,1.442,1.477,5.326,5.326,0,0,1-.237,4.116c-.019.038-.041.074-.061.111-.061-.027-.118-.059-.181-.082a2.94,2.94,0,0,0-3.167.844,3.154,3.154,0,0,0-.733,1.778,2.663,2.663,0,0,0,.115,1,1.688,1.688,0,0,0-.218.479,15.581,15.581,0,0,0-.336,1.782,18.673,18.673,0,0,1-4.738,9.953" transform="translate(0 0)" fill="#323232"/>
        <path id="パス_25727" data-name="パス 25727" d="M111.94,50.142a8.641,8.641,0,0,1-4.392,3.169c-1.458.353-.841,2.6.62,2.248a10.219,10.219,0,0,0,4.483-2.752,11.87,11.87,0,0,0,3.078-5.031c1.285-3.978.87-8.366.143-12.408-.64-3.564-1.625-7.07-2.606-10.552A56.662,56.662,0,0,0,109.158,13.8c-1.775-3.384-4.512-7.068-8.568-7.65a1.207,1.207,0,0,0-1.434.814A1.174,1.174,0,0,0,99.97,8.4c3.172.455,5.245,3.145,6.732,5.766a46.813,46.813,0,0,1,3.932,9.935c.923,3.126,1.792,6.289,2.5,9.47a31.5,31.5,0,0,1,.9,11.192,11.337,11.337,0,0,1-2.092,5.376" transform="translate(-47.756 -2.957)" fill="#323232"/>
        <path id="パス_25728" data-name="パス 25728" d="M116.452,61.792c-.122.086-.142.189,0,0" transform="translate(-56.06 -29.772)" fill="#323232"/>
        <path id="パス_25729" data-name="パス 25729" d="M119.433,76.377q-.07-.046-.143-.085c-.052-.017-.105-.032-.159-.044s-.116,0-.173,0-.107.027-.159.044-.1.055-.143.085q-.047.044-.09.09c-.031.047-.06.094-.086.143s-.032.105-.044.159,0,.116,0,.173.027.106.044.158a1.657,1.657,0,0,0,.086.143q.044.047.09.09c.046.031.094.059.143.085s.105.032.159.044.115,0,.173,0,.106-.027.158-.044.1-.055.144-.085q.047-.044.09-.09.046-.069.085-.143a1.975,1.975,0,0,0,.059-.21c0-.011,0-.023,0-.034s0-.023,0-.034a1.985,1.985,0,0,0-.059-.211q-.04-.073-.085-.143-.044-.047-.09-.09" transform="translate(-57.063 -36.736)" fill="#fff"/>
        <path id="パス_25730" data-name="パス 25730" d="M84.332,86.743H76.621c-.024,0-.047.006-.071.008s-.052.006-.078.008-.068.008-.1.017c-.019,0-.039,0-.059.009s-.031.019-.05.025a1.229,1.229,0,0,0-.312.159,1.057,1.057,0,0,0-.1.08,1.088,1.088,0,0,0-.395.861,1.268,1.268,0,0,0,.04.26c0,.017,0,.034,0,.05a5.51,5.51,0,0,0,3.713,4.462,4.834,4.834,0,0,0,4.963-1.38A5.72,5.72,0,0,0,85.5,87.909a1.178,1.178,0,0,0-1.166-1.166m-3.44,3.807a.978.978,0,0,1,.127-.021c-.01.016-.068.02-.127.021m1.646-.915c-.012.015-.024.03-.037.043-.063.067-.124.136-.19.2s-.117.107-.176.16l-.014.013-.016.01a4.611,4.611,0,0,1-.4.24c-.018.009-.051.03-.082.049l-.029.008c-.042.012-.082.031-.123.044a3.746,3.746,0,0,1-.474.124c-.032.006-.065.01-.1.017l-.022.006h-.123c-.154.006-.306,0-.459-.01l-.048-.008c-.076-.016-.153-.028-.229-.046-.15-.037-.293-.09-.44-.137l-.008,0c-.081-.042-.163-.081-.243-.126s-.139-.081-.206-.125l-.076-.051c-.035-.028-.115-.09-.136-.108q-.122-.108-.235-.225c-.065-.067-.122-.148-.19-.212-.018-.024-.036-.049-.053-.074-.076-.11-.136-.229-.2-.346h4.639c-.021.045-.042.09-.066.133-.08.15-.18.284-.27.428" transform="translate(-36.354 -41.794)" fill="#323232"/>
        <path id="パス_25731" data-name="パス 25731" d="M152.2,91.708a3.942,3.942,0,0,1-.5.33,3.78,3.78,0,0,1,.687.593,3.681,3.681,0,0,1,.392.543,4.837,4.837,0,0,1,.382-.6,3.651,3.651,0,0,1,.578-.593,4.465,4.465,0,0,1-.52-.382,4,4,0,0,1-.453-.461,3.681,3.681,0,0,1-.57.566" transform="translate(-73.091 -43.913)" fill="#ffe164"/>
        <path id="パス_25732" data-name="パス 25732" d="M14.145,37.475a4.061,4.061,0,0,1,1.141,1.112c.056.086.1.178.149.267.075-.15.149-.3.238-.444a3.867,3.867,0,0,1,.893-1,4.185,4.185,0,0,1-.787-.628,4.53,4.53,0,0,1-.329-.4,3.962,3.962,0,0,1-.405.461,3.861,3.861,0,0,1-.9.639" transform="translate(-6.815 -17.526)" fill="#ffe164"/>
        <path id="パス_25733" data-name="パス 25733" d="M5.521,32.426c1.052.38,2.784.665,3.349,1.746.64,1.227.582,2.822.874,4.155a1.175,1.175,0,0,0,2.248,0,17.689,17.689,0,0,1,.941-4.22c.588-1.289,2.035-1.373,3.288-1.53a1.2,1.2,0,0,0,1.166-1.166,1.185,1.185,0,0,0-1.166-1.166c-1.108-.047-2.533-.091-3.348-.961a4.026,4.026,0,0,1-.864-2.675c0-.055.008-.112.012-.167A1.184,1.184,0,0,0,12,26.122c0-.258,0-.511,0-.752a1.167,1.167,0,0,0-2.332,0c0,.361.009.727.025,1.092-.059.951-.089,2.186-.847,2.88s-2.057.683-3.012.794a1.172,1.172,0,0,0-.31,2.29m5.7-1.492a4.185,4.185,0,0,0,.787.628,3.886,3.886,0,0,0-.893,1c-.088.144-.163.293-.238.444-.05-.089-.093-.181-.149-.267a4.047,4.047,0,0,0-1.141-1.112,3.861,3.861,0,0,0,.9-.639,3.914,3.914,0,0,0,.405-.461,4.53,4.53,0,0,0,.329.4" transform="translate(-2.261 -11.681)" fill="#323232"/>
        <path id="パス_25734" data-name="パス 25734" d="M142.5,87.581c1.049.325,2.744.552,3.4,1.417a4.939,4.939,0,0,1,.494,1.535c.141.687.227,1.385.4,2.065a1.175,1.175,0,0,0,2.249,0,12.945,12.945,0,0,1,1.012-3.718c.56-1,2.209-1.045,3.3-1.161a1.2,1.2,0,0,0,1.166-1.166,1.184,1.184,0,0,0-1.166-1.166,6.076,6.076,0,0,1-3.322-.715,2.913,2.913,0,0,1-.966-2.338c0-.032.006-.065.008-.1a.913.913,0,0,0-.021-.261c0-.23,0-.457,0-.671a1.167,1.167,0,0,0-2.332,0c0,.307.01.618.026.93v0a3.073,3.073,0,0,1-.857,2.394,6.532,6.532,0,0,1-3.078.659,1.172,1.172,0,0,0-.31,2.29m5.885-1.26a4.5,4.5,0,0,0,.52.381,3.673,3.673,0,0,0-.578.593,4.862,4.862,0,0,0-.382.6,3.588,3.588,0,0,0-.392-.543,3.76,3.76,0,0,0-.687-.593,4,4,0,0,0,.5-.33,3.705,3.705,0,0,0,.569-.566,3.994,3.994,0,0,0,.453.461" transform="translate(-68.257 -38.631)" fill="#323232"/>
      </g>
    </g>
  </g>
</svg>
