<svg id="グループ_1200" data-name="グループ 1200" xmlns="http://www.w3.org/2000/svg" xmlns:xlink="http://www.w3.org/1999/xlink" width="88.522" height="95.382" viewBox="0 0 88.522 95.382">
  <defs>
    <clipPath id="clip-path">
      <rect id="長方形_954" data-name="長方形 954" width="88.522" height="95.382" fill="none"/>
    </clipPath>
  </defs>
  <g id="グループ_1199" data-name="グループ 1199" clip-path="url(#clip-path)">
    <path id="パス_26148" data-name="パス 26148" d="M114.671,95.173c-.034-.03-.146-.119-.2-.159-.115-.082-.24-.147-.36-.219a8.792,8.792,0,0,0,1.291,6.042c.028-.059.062-.115.089-.175s.046-.117.067-.176c.051-.139.1-.279.141-.421a7.618,7.618,0,0,0,.2-.814c.011-.057.019-.114.029-.172.013-.14.028-.281.035-.422a6.627,6.627,0,0,0-.008-.825c0-.064-.012-.128-.017-.192v-.008c-.024-.124-.044-.248-.072-.371a6.8,6.8,0,0,0-.233-.761c-.032-.064-.061-.129-.093-.193-.059-.113-.121-.225-.188-.333-.042-.068-.088-.134-.131-.2l-.038-.055c-.037-.041-.167-.2-.192-.227q-.152-.165-.318-.316" transform="translate(-51.016 -42.414)" fill="#fff"/>
    <path id="パス_26149" data-name="パス 26149" d="M108.068,100.009a21.855,21.855,0,0,1-2.011,2.447,1.373,1.373,0,0,1,.045.319c.018.91.064,1.835.157,2.757a1.734,1.734,0,0,1,.5.132c-.185-.08.251.085.336.111.17.052.341.091.516.131.04.009.255.034.185.029.029,0,.057.007.086.008.146.007.292.013.439.009.067,0,.26-.022.3-.021.117-.02.236-.041.352-.071.149-.038.293-.1.44-.138l.017,0c.051-.024.1-.046.151-.071a5.847,5.847,0,0,0,.691-.419,11.747,11.747,0,0,1-2.2-5.22" transform="translate(-47.454 -44.748)" fill="#fff"/>
    <path id="パス_26150" data-name="パス 26150" d="M115.666,86.529a1.42,1.42,0,0,1-.2.029,16.209,16.209,0,0,1-.548,1.9,6.31,6.31,0,0,1,3.171,2.841,7.993,7.993,0,0,1-.356,7.472,3.958,3.958,0,0,0,2.764-1.044,7.154,7.154,0,0,0,2.049-6.676c-.642-2.658-4.033-5.227-6.879-4.522" transform="translate(-51.418 -38.663)" fill="#fff"/>
    <path id="パス_26151" data-name="パス 26151" d="M84.589,92.945a1.046,1.046,0,0,0-.136.022c.063,0,.125-.006.136-.022" transform="translate(-37.787 -41.587)" fill="#ffe164"/>
    <path id="パス_26152" data-name="パス 26152" d="M79.326,90.14c.07.124.134.251.215.369.018.027.038.052.057.079.072.068.133.154.2.227s.164.164.25.24c.022.02.108.086.145.115l.08.054c.072.047.146.091.22.134s.172.09.258.135l.009,0c.156.051.309.107.469.146.081.02.163.033.245.05l.05.008c.164.008.325.017.489.01.017,0,.073,0,.131,0l.024-.006c.034-.008.069-.012.1-.019a3.875,3.875,0,0,0,.505-.132c.044-.015.087-.034.132-.047l.03-.008c.034-.02.069-.042.088-.052.148-.077.285-.166.423-.256l.017-.011.015-.014c.062-.057.127-.112.187-.171s.136-.141.2-.213a.529.529,0,0,0,.039-.046c.1-.152.2-.3.288-.455.025-.046.048-.093.07-.141Z" transform="translate(-35.493 -40.332)" fill="#fff"/>
    <path id="パス_26153" data-name="パス 26153" d="M61.064,109.386a18.758,18.758,0,0,1-2.574,7.445,18.83,18.83,0,0,0,5.348,1.676,44.532,44.532,0,0,0,8.07.687A47.5,47.5,0,0,0,80,118.588a21.23,21.23,0,0,0,5.52-1.551,12.928,12.928,0,0,1-.985-1.552,20.511,20.511,0,0,1-2.12-8.39,17.519,17.519,0,0,1-6.191,3.071,17.241,17.241,0,0,1-12.561-1.645,19.78,19.78,0,0,1-4.015-2.905l-.213,2.24a1.373,1.373,0,0,1,1.632,1.53" transform="translate(-26.171 -47.256)" fill="#fff"/>
    <path id="パス_26154" data-name="パス 26154" d="M84.712,31.336c1.774-5.256.737-11.3-1.716-16.172A20.179,20.179,0,0,0,77.9,8.591C75.536,6.641,71.7,4.415,68.589,5.81c-1.291.58-2.43-1.057-1.632-1.884a5.286,5.286,0,0,0-1.9-.587,1.266,1.266,0,0,1-1.488,1.636c-5.679-1.465-11.71,2.984-15.14,7.09-4,4.789-5.095,11.545-4.277,17.592a1.275,1.275,0,0,1-.868,1.529,1.2,1.2,0,0,1-.4.027c.114.233.232.465.34.7a2.879,2.879,0,0,1,2.384.445,1.286,1.286,0,0,1,.349.33c-.027-.707-.06-1.407-.06-2.073,0,.666.033,1.366.06,2.073a1.269,1.269,0,0,1,.03,1.4c0,2.039-.29,3.979-1.837,5.174,2.957-.625,4.832-3.3,5.578-6.107.863-3.239.455-6.568.785-9.863A18.993,18.993,0,0,1,53.27,15.2a8.476,8.476,0,0,1,5.666-4.175A8.648,8.648,0,0,1,65.7,12.23a1.29,1.29,0,0,1,.481,1.417,9.682,9.682,0,0,0,1.129.97,1.075,1.075,0,0,1,.4-.828c1.619-1.43,4.251-1,6.126-.365a11.894,11.894,0,0,1,5.488,4.567c3.014,4.1,4.211,9.321,4.343,14.352a5.3,5.3,0,0,1,1.295.144,1.05,1.05,0,0,1-.251-1.152" transform="translate(-19.187 -1.494)" fill="#fff"/>
    <path id="パス_26155" data-name="パス 26155" d="M81.648,43.127c-1.207.464-1.857-1.008-1.289-1.894,0-.011,0-.02,0-.031A24.283,24.283,0,0,0,77.1,28.425c-1-1.6-2.431-3.519-4.192-4.328a8.208,8.208,0,0,0-2.413-.663c-.491-.059-1.49-.17-1.868.163a1.313,1.313,0,0,1-2.156-.931,9.722,9.722,0,0,1-1.128-.97,1.091,1.091,0,0,1-1.736.73,6.538,6.538,0,0,0-6.884-.233c-2.07,1.186-3.24,4.013-3.92,6.182-.909,2.9-.682,5.865-.854,8.859-.3,5.135-2.35,11.5-8.191,12.518-1.568.274-2.235-2.122-.661-2.4.072-.013.14-.032.211-.047,1.547-1.2,1.837-3.135,1.837-5.174a1.116,1.116,0,0,1-1.634.42.671.671,0,0,1-.1-.069.363.363,0,0,1-.082-.012.705.705,0,0,0-.52,0c-1.08.4-1.675,2.31-1.785,3.323a7.12,7.12,0,0,0,1.041,4.113,2.917,2.917,0,0,0,.52.634,3.127,3.127,0,0,1,2.187-.048A3.4,3.4,0,0,1,46.4,51.74a2.871,2.871,0,0,1,.434.98,1.433,1.433,0,0,1,.421.627,17.591,17.591,0,0,1,.394,1.923,20.447,20.447,0,0,0,1.789,5.5,18.123,18.123,0,0,0,11.354,9.323c5.779,1.442,11.479-1.041,15.218-5.486a19.071,19.071,0,0,0,3.98-7.791c.236-1.034.387-2.094.544-3.147a2.909,2.909,0,0,1-.141-1.136,3.413,3.413,0,0,1,.792-1.922,3.183,3.183,0,0,1,3.433-.915c.054.02.1.048.153.07a6.8,6.8,0,0,0,.677-2.535c.208-2.411-.857-5.234-3.8-4.1M64.564,50.64a1.244,1.244,0,0,1,0,2.487,1.244,1.244,0,0,1,0-2.487m-7.445-6.657a1.244,1.244,0,0,1,0-2.487,1.244,1.244,0,0,1,0,2.487m1.534-6.78-.069-.012c-.087,0-.189-.024-.267-.03a8.463,8.463,0,0,0-1.2-.007q-.164.011-.328.027l-.07.008c-.163.026-.325.052-.486.088a4.921,4.921,0,0,0-.5.136l-.061.023-.06.029a1.271,1.271,0,0,1-1.7-.446,1.254,1.254,0,0,1,.446-1.7,6.766,6.766,0,0,1,2.692-.646,7.662,7.662,0,0,1,2.809.269,1.27,1.27,0,0,1,.868,1.529,1.254,1.254,0,0,1-1.529.868,4.635,4.635,0,0,0-.546-.136m9.858,24.521A5.156,5.156,0,0,1,63.219,63.2a5.876,5.876,0,0,1-3.959-4.758c0-.018,0-.036,0-.054a1.352,1.352,0,0,1-.043-.277,1.16,1.16,0,0,1,.422-.918,1.215,1.215,0,0,1,.1-.085,1.3,1.3,0,0,1,.333-.169c.02-.007.033-.022.054-.027s.041-.006.062-.01.072-.012.108-.017.056-.008.085-.009.05-.008.075-.008h8.222a1.256,1.256,0,0,1,1.243,1.243,6.1,6.1,0,0,1-1.413,3.617M71.79,43.984a1.244,1.244,0,0,1,0-2.487,1.244,1.244,0,0,1,0,2.487m3.153-6.963a1.264,1.264,0,0,1-1.7.446c-.036-.019-.073-.034-.11-.052a6.241,6.241,0,0,0-1.249-.329,6.4,6.4,0,0,0-1.289-.015,4.319,4.319,0,0,0-.572.126,1.243,1.243,0,1,1-.661-2.4,6.276,6.276,0,0,1,2.626-.2,7.136,7.136,0,0,1,2.51.717,1.263,1.263,0,0,1,.446,1.7" transform="translate(-18.347 -9.544)" fill="#fff"/>
    <path id="パス_26156" data-name="パス 26156" d="M146.465,160.282c-.711-3.666-1.956-7.079-4.619-9.778a32,32,0,0,0-3.484-3.027q-.06.248-.12.5L135.2,160.485a1.192,1.192,0,0,1-.285.54h12.04a1.057,1.057,0,0,1-.493-.744" transform="translate(-60.367 -65.987)" fill="#fff"/>
    <path id="パス_26157" data-name="パス 26157" d="M14.409,159c-.6-2.453-1.226-4.9-1.916-7.328-.357-1.256-.728-2.51-1.154-3.744-.088-.254-.178-.506-.273-.758-.014-.037-.049-.125-.085-.216a13.8,13.8,0,0,0-3.262,3.487c-1.851,2.917-2.782,6.328-3.766,9.606a1.17,1.17,0,0,1-.608.744H14.852c-.015-.044-.034-.084-.045-.132-.129-.554-.264-1.106-.4-1.659" transform="translate(-1.496 -65.753)" fill="#fff"/>
    <path id="パス_26158" data-name="パス 26158" d="M81.822,151.739l.427-1.759q1.472-6.062,2.945-12.124c-.822-.535-1.656-1.042-2.5-1.509-3.024-1.681-6.338-2.8-9.322-4.552a16.43,16.43,0,0,1-2.937-2.194,20.588,20.588,0,0,1-5.732,1.877,50.646,50.646,0,0,1-13.518.691c-3.712-.288-7.829-.832-11.1-2.763a15.779,15.779,0,0,1-5.869,3.181c-3.547,1.179-7.2,2.067-10.586,3.676-.9.427-1.793.9-2.657,1.412.293.648.516,1.34.737,1.991,1.379,4.076,2.4,8.292,3.383,12.479a1.217,1.217,0,0,1-.065.793H82.19a1.163,1.163,0,0,1-.369-1.2" transform="translate(-9.384 -57.901)" fill="#ffe164"/>
    <path id="パス_26159" data-name="パス 26159" d="M26.61,6.363a1.243,1.243,0,1,0,2.147-1.255L26.229,1.179l-.36-.56a1.265,1.265,0,0,0-1.7-.446,1.262,1.262,0,0,0-.446,1.7L26.25,5.8l.36.559" transform="translate(-10.536 0)" fill="#323232"/>
    <path id="パス_26160" data-name="パス 26160" d="M7.706,24.948a1.264,1.264,0,0,0,.869,1.529l4.459,1.089.627.154a1.244,1.244,0,0,0,.661-2.4l-4.46-1.089-.627-.154a1.263,1.263,0,0,0-1.529.869" transform="translate(-3.433 -10.758)" fill="#323232"/>
    <path id="パス_26161" data-name="パス 26161" d="M13.255,9.771a1.253,1.253,0,0,0-1.7.446,1.271,1.271,0,0,0,.446,1.7L16.734,15l.684.446a1.253,1.253,0,0,0,1.7-.446,1.271,1.271,0,0,0-.446-1.7l-4.735-3.085-.684-.445" transform="translate(-5.098 -4.296)" fill="#323232"/>
    <path id="パス_26162" data-name="パス 26162" d="M95.746,60.316a1.244,1.244,0,0,0,0-2.487,1.244,1.244,0,0,0,0,2.487" transform="translate(-42.303 -25.875)" fill="#323232"/>
    <path id="パス_26163" data-name="パス 26163" d="M82.669,74.375a1.244,1.244,0,0,0,0,2.487,1.244,1.244,0,0,0,0-2.487" transform="translate(-36.452 -33.278)" fill="#323232"/>
    <path id="パス_26164" data-name="パス 26164" d="M69.194,57.829a1.244,1.244,0,0,0,0,2.487,1.244,1.244,0,0,0,0-2.487" transform="translate(-30.423 -25.875)" fill="#323232"/>
    <path id="パス_26165" data-name="パス 26165" d="M77.875,83.169l.12-.5A32.054,32.054,0,0,1,81.479,85.7c2.663,2.7,3.908,6.112,4.619,9.778a1.057,1.057,0,0,0,.493.744h1.192a1.257,1.257,0,0,0,.713-1.4,21.39,21.39,0,0,0-3.788-9.188,31.529,31.529,0,0,0-7.125-6.261,64.523,64.523,0,0,0-9.655-5.076c-2.438-1.147-4.837-2.431-6.48-4.641a13.249,13.249,0,0,1-2.207-5,5.627,5.627,0,0,0,3.289-.066,6.389,6.389,0,0,0,1.962-1.111,11.582,11.582,0,0,0,4.04,2.279,12.375,12.375,0,0,0,5.972-.043,1.254,1.254,0,0,0,.869-1.529,1.271,1.271,0,0,0-1.529-.869,9.726,9.726,0,0,1-4.569.068c-.145-.044-.288-.1-.432-.15A8.2,8.2,0,0,0,73.1,58.565a8.522,8.522,0,0,0-2.384-9.9,10.363,10.363,0,0,0-3.413-1.853,2.847,2.847,0,0,0,.318-.313,3.341,3.341,0,0,0,.79-1.869,1.147,1.147,0,0,0,.027-.264,3.385,3.385,0,0,0-.252-1.229,9.132,9.132,0,0,0,1.416-4.507,7.034,7.034,0,0,0-1.6-5.21,4.245,4.245,0,0,0-1.2-.877,1.213,1.213,0,0,0,1.113-.854c1.6-4.746,1.1-10.12-.558-14.781A22.875,22.875,0,0,0,58.028,4.778c-3-1.83-6.524-2.931-9.88-1.425-1.458.654-.194,2.8,1.255,2.147,3.108-1.394,6.947.832,9.314,2.782a20.184,20.184,0,0,1,5.092,6.573c2.453,4.871,3.49,10.916,1.716,16.172a1.049,1.049,0,0,0,.251,1.152,5.277,5.277,0,0,0-1.295-.143C64.349,27,63.153,21.782,60.138,17.682a11.891,11.891,0,0,0-5.488-4.567c-1.874-.638-4.507-1.066-6.126.365-1.2,1.061.563,2.815,1.758,1.758.377-.334,1.377-.222,1.868-.164a8.233,8.233,0,0,1,2.414.663c1.76.81,3.194,2.726,4.191,4.329a24.281,24.281,0,0,1,3.253,12.777c0,.011,0,.02,0,.031-.567.886.082,2.358,1.289,1.895,2.944-1.129,4.008,1.693,3.8,4.1a6.8,6.8,0,0,1-.677,2.535c-.052-.022-.1-.049-.153-.07a3.184,3.184,0,0,0-3.433.915,3.41,3.41,0,0,0-.792,1.922,2.9,2.9,0,0,0,.14,1.136c-.156,1.053-.307,2.113-.544,3.147a19.068,19.068,0,0,1-3.98,7.791c-3.739,4.445-9.438,6.928-15.217,5.486a18.121,18.121,0,0,1-11.354-9.322,20.432,20.432,0,0,1-1.789-5.5,17.489,17.489,0,0,0-.394-1.923,1.427,1.427,0,0,0-.421-.627,2.871,2.871,0,0,0-.434-.98,3.4,3.4,0,0,0-1.624-1.248,3.127,3.127,0,0,0-2.187.048,2.9,2.9,0,0,1-.519-.633,7.122,7.122,0,0,1-1.042-4.113c.11-1.013.706-2.929,1.785-3.324a.7.7,0,0,1,.52,0,.367.367,0,0,0,.082.012.618.618,0,0,0,.1.069c1.35.868,2.6-1.284,1.255-2.147-3.367-2.162-6.011,2.663-6.224,5.387a9.391,9.391,0,0,0,1.977,6.218,3.9,3.9,0,0,0,.281.291,3.56,3.56,0,0,0-.248,1.026,3.176,3.176,0,0,0,1.767,3.053,3.421,3.421,0,0,0,2.1.264,2.894,2.894,0,0,0,.91-.343c.031.139.063.277.1.416a1.215,1.215,0,0,0-.168.621c-.02,2.846.277,5.776-.359,8.576a11.4,11.4,0,0,1-1.618,3.862c-.57.845-1.693,1.851-2.776,1.274-1.412-.751-2.669,1.394-1.255,2.147a4.348,4.348,0,0,0,4.866-.655,10.111,10.111,0,0,0,2.763-4.508,17.645,17.645,0,0,0,.869-5.21,21.181,21.181,0,0,0,8.086,7.983,17.243,17.243,0,0,0,12.561,1.645,17.533,17.533,0,0,0,6.191-3.071,20.506,20.506,0,0,0,2.12,8.39,12.91,12.91,0,0,0,.985,1.552,21.229,21.229,0,0,1-5.52,1.55,47.382,47.382,0,0,1-8.091.606,44.433,44.433,0,0,1-8.07-.687,18.846,18.846,0,0,1-5.348-1.676,18.772,18.772,0,0,0,2.574-7.445c.25-1.565-2.145-2.239-2.4-.66-.434,2.714-1.093,5.672-3.017,7.754-1.687,1.826-4.044,2.685-6.363,3.4C16.436,75.862,8.659,78,4.446,84.061,2.23,87.248,1.162,91.145.059,94.818a1.118,1.118,0,0,0,.645,1.4H1.848a1.168,1.168,0,0,0,.608-.744c.985-3.278,1.916-6.689,3.766-9.606a13.806,13.806,0,0,1,3.262-3.487c.035.09.071.178.085.216.1.251.185.5.272.757.427,1.234.8,2.488,1.155,3.744.69,2.429,1.317,4.875,1.916,7.328q.2.829.4,1.659c.012.048.03.088.045.132h2.287a1.214,1.214,0,0,0,.065-.793c-.98-4.187-2-8.4-3.383-12.479-.22-.652-.444-1.344-.736-1.991.864-.515,1.756-.985,2.656-1.412,3.391-1.609,7.039-2.5,10.586-3.676A15.793,15.793,0,0,0,30.7,72.69c3.275,1.931,7.392,2.474,11.1,2.762a50.673,50.673,0,0,0,13.518-.691,20.585,20.585,0,0,0,5.731-1.878,16.36,16.36,0,0,0,2.937,2.194c2.983,1.75,6.3,2.871,9.321,4.553.84.467,1.674.973,2.5,1.508L72.865,93.263q-.213.879-.427,1.759a1.165,1.165,0,0,0,.369,1.2h1.745a1.2,1.2,0,0,0,.285-.54l3.039-12.513m-13.331-38.9c.014-.061.032-.122.051-.181s.063-.111.1-.164c.033-.036.068-.071.1-.1.053-.035.108-.068.164-.1s.12-.036.181-.051.132,0,.2,0,.122.031.181.051.111.063.164.1c.036.033.071.068.1.1.035.054.067.108.1.164a2.348,2.348,0,0,1,.066.236c0,.015,0,.029,0,.044s0,.029,0,.043a2.318,2.318,0,0,1-.066.237c-.03.056-.063.111-.1.164q-.051.054-.1.1c-.053.035-.108.067-.164.1s-.12.036-.181.05a1.98,1.98,0,0,1-.2,0c-.061-.014-.122-.031-.181-.05s-.111-.063-.164-.1c-.036-.034-.071-.069-.1-.1-.035-.053-.068-.108-.1-.164s-.036-.12-.051-.181,0-.132,0-.2m-.5,4.813a1.421,1.421,0,0,0,.2-.029c2.846-.705,6.237,1.864,6.879,4.522a7.154,7.154,0,0,1-2.049,6.676,3.958,3.958,0,0,1-2.764,1.044,7.993,7.993,0,0,0,.356-7.472A6.311,6.311,0,0,0,63.5,50.979a16.316,16.316,0,0,0,.548-1.9M63.1,53.564c.12.073.245.138.36.219.049.04.161.129.2.159q.167.151.318.317c.025.027.155.185.192.227l.038.055c.043.067.089.133.131.2.067.109.13.22.188.334.033.064.062.129.093.193a6.731,6.731,0,0,1,.234.761c.028.123.048.248.072.371v.008c0,.064.012.128.017.192a6.739,6.739,0,0,1,.008.825c-.007.141-.022.281-.035.422-.01.057-.019.115-.029.172a7.491,7.491,0,0,1-.2.814q-.064.212-.14.421c-.022.059-.044.117-.067.176s-.061.116-.089.175A8.791,8.791,0,0,1,63.1,53.564M26.111,45.2a2.183,2.183,0,0,1-.066.237c-.03.056-.063.111-.1.164q-.05.054-.1.1c-.053.035-.107.067-.163.1s-.12.036-.182.05-.132,0-.2,0-.122-.031-.181-.05-.111-.063-.164-.1c-.035-.034-.071-.069-.1-.1-.035-.053-.068-.108-.1-.164s-.036-.12-.05-.181a1.97,1.97,0,0,1,0-.2c.014-.061.031-.122.05-.182s.063-.111.1-.164c.034-.036.069-.071.1-.1.054-.035.108-.067.164-.1s.12-.036.181-.051.132,0,.2,0,.122.031.182.051.11.062.163.1q.055.051.1.1c.035.053.068.108.1.164a2.183,2.183,0,0,1,.066.237c0,.014,0,.029,0,.044s0,.029,0,.043M58.649,59.211a1.369,1.369,0,0,0-.046-.319,21.894,21.894,0,0,0,2.011-2.447,11.75,11.75,0,0,0,2.2,5.22,5.806,5.806,0,0,1-.69.418c-.05.025-.1.048-.151.071l-.017,0c-.148.04-.291.1-.441.138-.116.029-.234.05-.352.071-.035,0-.228.019-.3.021-.146,0-.292,0-.439-.009l-.086-.008c.07,0-.145-.02-.186-.029-.173-.041-.345-.078-.515-.131-.085-.026-.521-.191-.335-.112a1.742,1.742,0,0,0-.5-.132c-.093-.922-.139-1.847-.157-2.757" transform="translate(0 -1.184)" fill="#323232"/>
    <path id="パス_26166" data-name="パス 26166" d="M133.506,172h-1.745a1.281,1.281,0,0,0,1.745,0" transform="translate(-58.955 -76.957)" fill="#323232"/>
    <path id="パス_26167" data-name="パス 26167" d="M157.9,172h-1.192a1.267,1.267,0,0,0,1.192,0" transform="translate(-70.117 -76.957)" fill="#323232"/>
    <path id="パス_26168" data-name="パス 26168" d="M2.417,172H1.273a1.364,1.364,0,0,0,1.144,0" transform="translate(-0.57 -76.957)" fill="#323232"/>
    <path id="パス_26169" data-name="パス 26169" d="M95.457,48.169a1.244,1.244,0,0,0,1.255-2.147,7.118,7.118,0,0,0-2.51-.717,6.267,6.267,0,0,0-2.626.2,1.243,1.243,0,0,0,.661,2.4,4.32,4.32,0,0,1,.572-.126,6.4,6.4,0,0,1,1.289.015,6.2,6.2,0,0,1,1.249.329c.036.018.074.033.11.052" transform="translate(-40.562 -20.246)" fill="#323232"/>
    <path id="パス_26170" data-name="パス 26170" d="M68.97,47.989a4.627,4.627,0,0,1,.545.136,1.254,1.254,0,0,0,1.529-.868,1.271,1.271,0,0,0-.869-1.529,7.672,7.672,0,0,0-2.809-.269,6.754,6.754,0,0,0-2.691.646,1.253,1.253,0,0,0-.446,1.7,1.271,1.271,0,0,0,1.7.446l.06-.029.061-.023a4.862,4.862,0,0,1,.5-.137c.161-.036.323-.062.486-.088l.071-.007c.109-.011.219-.02.328-.027a8.462,8.462,0,0,1,1.2.006c.078.006.18.029.267.03l.069.012" transform="translate(-28.663 -20.328)" fill="#323232"/>
    <path id="パス_26171" data-name="パス 26171" d="M63.073,1.676C57.922.348,52.661,2.991,48.765,6.192A22.732,22.732,0,0,0,40.71,20.02a30.67,30.67,0,0,0-.114,9.4,1.252,1.252,0,0,0,1.529.869,1.275,1.275,0,0,0,.868-1.529c-.817-6.047.277-12.8,4.278-17.592,3.429-4.106,9.46-8.555,15.14-7.09a1.244,1.244,0,0,0,.661-2.4" transform="translate(-18.027 -0.593)" fill="#323232"/>
    <path id="パス_26172" data-name="パス 26172" d="M65.833,18.287a8.645,8.645,0,0,0-6.769-1.205A8.472,8.472,0,0,0,53.4,21.257a18.989,18.989,0,0,0-2.758,8.09c-.329,3.294.078,6.623-.785,9.862-.764,2.871-2.707,5.616-5.788,6.154-1.573.275-.906,2.672.661,2.4,5.841-1.02,7.9-7.383,8.191-12.518.172-2.993-.055-5.96.854-8.859.68-2.168,1.849-5,3.92-6.182a6.539,6.539,0,0,1,6.884.233c1.288.952,2.53-1.206,1.255-2.147" transform="translate(-19.316 -7.551)" fill="#323232"/>
    <path id="パス_26173" data-name="パス 26173" d="M46.111,78.977a2.182,2.182,0,0,0-.066-.237c-.03-.056-.062-.111-.1-.164q-.051-.054-.1-.1c-.053-.035-.108-.067-.164-.1s-.12-.037-.181-.051-.132,0-.2,0-.122.031-.181.051-.111.062-.164.1q-.054.051-.1.1c-.035.053-.067.107-.1.164s-.036.12-.051.181,0,.132,0,.2.031.122.051.181.062.111.1.164q.051.054.1.1c.053.035.108.067.164.1s.12.036.181.051.132,0,.2,0,.122-.031.181-.051.111-.062.164-.1q.054-.051.1-.1c.035-.053.067-.108.1-.164a2.182,2.182,0,0,0,.066-.237c0-.014,0-.029,0-.044s0-.029,0-.043" transform="translate(-20.001 -35.044)" fill="#fff"/>
    <path id="パス_26174" data-name="パス 26174" d="M116.856,77.861c.03.056.063.111.1.164q.05.054.1.1c.052.035.107.067.164.1s.12.036.181.05a1.966,1.966,0,0,0,.2,0c.061-.014.122-.031.181-.05s.111-.063.164-.1q.054-.051.1-.1c.035-.053.068-.108.1-.164a2.084,2.084,0,0,0,.066-.236c0-.015,0-.029,0-.044s0-.029,0-.044a2.083,2.083,0,0,0-.066-.236c-.03-.056-.063-.111-.1-.164-.034-.036-.069-.071-.1-.1-.053-.035-.108-.068-.164-.1s-.12-.036-.181-.051-.132,0-.2,0-.122.031-.181.051-.111.063-.164.1c-.036.033-.071.068-.1.1-.035.054-.068.108-.1.164s-.036.12-.05.181a1.967,1.967,0,0,0,0,.2c.014.061.031.122.05.181" transform="translate(-52.262 -34.4)" fill="#fff"/>
    <path id="パス_26175" data-name="パス 26175" d="M75.205,85.64c-.025,0-.05.006-.075.008s-.056.006-.085.009a1.015,1.015,0,0,0-.108.017c-.021,0-.043,0-.062.01s-.033.02-.054.027a1.283,1.283,0,0,0-.333.169,1.12,1.12,0,0,0-.1.085,1.159,1.159,0,0,0-.422.918,1.358,1.358,0,0,0,.043.277c0,.018,0,.035,0,.054a5.877,5.877,0,0,0,3.959,4.758A5.156,5.156,0,0,0,83.257,90.5a6.1,6.1,0,0,0,1.413-3.616,1.256,1.256,0,0,0-1.243-1.243H75.205ZM79.759,89.7a1.046,1.046,0,0,1,.135-.022c-.011.017-.072.021-.135.022m1.755-.975c-.013.016-.025.031-.039.046-.067.072-.133.145-.2.213s-.125.114-.188.171l-.015.014-.017.011a4.918,4.918,0,0,1-.423.256l-.088.052-.03.009c-.044.013-.088.032-.132.046a3.887,3.887,0,0,1-.506.133c-.034.007-.069.01-.1.018l-.024.006c-.057,0-.114,0-.131,0-.164.007-.326,0-.49-.01l-.05-.008c-.081-.017-.164-.03-.245-.05-.16-.039-.313-.1-.469-.146l-.008,0c-.086-.045-.174-.087-.259-.134s-.148-.087-.22-.134l-.081-.054c-.037-.03-.123-.1-.145-.116q-.13-.115-.25-.24c-.069-.072-.13-.158-.2-.227-.019-.026-.039-.052-.057-.078-.081-.118-.145-.245-.214-.369h4.946c-.023.048-.045.1-.07.141-.086.16-.192.3-.288.455" transform="translate(-33.093 -38.318)" fill="#323232"/>
  </g>
</svg>
