<svg xmlns="http://www.w3.org/2000/svg" xmlns:xlink="http://www.w3.org/1999/xlink" width="88.012" height="89.742" viewBox="0 0 88.012 89.742">
  <defs>
    <clipPath id="clip-path">
      <path id="パス_26200" data-name="パス 26200" d="M2491.6,899.5a33.542,33.542,0,0,1,16.029-17.258,129.327,129.327,0,0,0,17.51,5.923s-.474,6.727-4.487,11.335C2513.612,899.551,2491.6,899.5,2491.6,899.5Z" transform="translate(-2476.113 4978.117)" fill="none" stroke="#707070" stroke-width="1"/>
    </clipPath>
    <clipPath id="clip-path-2">
      <path id="パス_26177" data-name="パス 26177" d="M2491.6,899.5a33.542,33.542,0,0,1,16.029-17.258,129.327,129.327,0,0,0,17.51,5.923s-.474,6.727-4.487,11.335C2513.612,899.551,2491.6,899.5,2491.6,899.5Z" transform="translate(-2475.113 4977.117)" fill="none" stroke="#707070" stroke-width="1"/>
    </clipPath>
    <clipPath id="clip-path-3">
      <rect width="30.627" height="17.954" fill="none"/>
    </clipPath>
    <clipPath id="clip-path-4">
      <path id="パス_26178" data-name="パス 26178" d="M2546.753,898.015l-1.682-11.777s9.108-1.625,13.569-4.875c13.814,3.425,16.715,17.058,16.715,17.058Z" transform="translate(-2473.588 4978.352)" fill="none" stroke="#707070" stroke-width="1"/>
    </clipPath>
    <clipPath id="clip-path-5">
      <path id="パス_26201" data-name="パス 26201" d="M2546.753,898.015l-1.682-11.777s9.108-1.625,13.569-4.875c13.814,3.425,16.715,17.058,16.715,17.058Z" transform="translate(-2473.885 4978)" fill="none" stroke="#707070" stroke-width="1"/>
    </clipPath>
    <clipPath id="clip-path-6">
      <rect width="45.413" height="17.954" fill="none"/>
    </clipPath>
  </defs>
  <g id="グループ_1320" data-name="グループ 1320" transform="translate(-15 -5787.9)">
    <g id="グループ_1317" data-name="グループ 1317">
      <g id="グループ_1314" data-name="グループ 1314">
        <g id="マスクグループ_29" data-name="マスクグループ 29" clip-path="url(#clip-path)">
          <rect id="長方形_942" data-name="長方形 942" width="31.091" height="17.1" transform="translate(17.073 5859.952)" fill="#fff"/>
        </g>
        <g id="マスクグループ_28" data-name="マスクグループ 28" transform="translate(-1 1)" clip-path="url(#clip-path-2)">
          <g id="リピートグリッド_9" data-name="リピートグリッド 9" transform="translate(19.036 5859.097)" clip-path="url(#clip-path-3)">
            <g transform="translate(-36 -881.5)">
              <line id="線_233" data-name="線 233" y2="17" transform="translate(36.5 881.5)" fill="none" stroke="#afccff" stroke-width="2"/>
            </g>
            <g transform="translate(-32 -881.5)">
              <line id="線_233-2" data-name="線 233" y2="17" transform="translate(36.5 881.5)" fill="none" stroke="#afccff" stroke-width="2"/>
            </g>
            <g transform="translate(-28 -881.5)">
              <line id="線_233-3" data-name="線 233" y2="17" transform="translate(36.5 881.5)" fill="none" stroke="#afccff" stroke-width="2"/>
            </g>
            <g transform="translate(-24 -881.5)">
              <line id="線_233-4" data-name="線 233" y2="17" transform="translate(36.5 881.5)" fill="none" stroke="#afccff" stroke-width="2"/>
            </g>
            <g transform="translate(-20 -881.5)">
              <line id="線_233-5" data-name="線 233" y2="17" transform="translate(36.5 881.5)" fill="none" stroke="#afccff" stroke-width="2"/>
            </g>
            <g transform="translate(-16 -881.5)">
              <line id="線_233-6" data-name="線 233" y2="17" transform="translate(36.5 881.5)" fill="none" stroke="#afccff" stroke-width="2"/>
            </g>
            <g transform="translate(-12 -881.5)">
              <line id="線_233-7" data-name="線 233" y2="17" transform="translate(36.5 881.5)" fill="none" stroke="#afccff" stroke-width="2"/>
            </g>
            <g transform="translate(-8 -881.5)">
              <line id="線_233-8" data-name="線 233" y2="17" transform="translate(36.5 881.5)" fill="none" stroke="#afccff" stroke-width="2"/>
            </g>
          </g>
        </g>
      </g>
      <g id="グループ_1316" data-name="グループ 1316" transform="translate(1 -0.007)">
        <g id="マスクグループ_31" data-name="マスクグループ 31" transform="translate(-0.483 0.286)" clip-path="url(#clip-path-4)">
          <rect id="長方形_941" data-name="長方形 941" width="29.537" height="17.618" transform="translate(71.483 5859.434)" fill="#fff"/>
        </g>
        <g id="マスクグループ_30" data-name="マスクグループ 30" transform="translate(-0.186 0.638)" clip-path="url(#clip-path-5)">
          <g id="リピートグリッド_10" data-name="リピートグリッド 10" transform="translate(58.168 5859.077)" clip-path="url(#clip-path-6)">
            <g transform="translate(-36 -881.5)">
              <line id="線_233-9" data-name="線 233" y2="17" transform="translate(36.5 881.5)" fill="none" stroke="#afccff" stroke-width="2"/>
            </g>
            <g transform="translate(-32 -881.5)">
              <line id="線_233-10" data-name="線 233" y2="17" transform="translate(36.5 881.5)" fill="none" stroke="#afccff" stroke-width="2"/>
            </g>
            <g transform="translate(-28 -881.5)">
              <line id="線_233-11" data-name="線 233" y2="17" transform="translate(36.5 881.5)" fill="none" stroke="#afccff" stroke-width="2"/>
            </g>
            <g transform="translate(-24 -881.5)">
              <line id="線_233-12" data-name="線 233" y2="17" transform="translate(36.5 881.5)" fill="none" stroke="#afccff" stroke-width="2"/>
            </g>
            <g transform="translate(-20 -881.5)">
              <line id="線_233-13" data-name="線 233" y2="17" transform="translate(36.5 881.5)" fill="none" stroke="#afccff" stroke-width="2"/>
            </g>
            <g transform="translate(-16 -881.5)">
              <line id="線_233-14" data-name="線 233" y2="17" transform="translate(36.5 881.5)" fill="none" stroke="#afccff" stroke-width="2"/>
            </g>
            <g transform="translate(-12 -881.5)">
              <line id="線_233-15" data-name="線 233" y2="17" transform="translate(36.5 881.5)" fill="none" stroke="#afccff" stroke-width="2"/>
            </g>
            <g transform="translate(-8 -881.5)">
              <line id="線_233-16" data-name="線 233" y2="17" transform="translate(36.5 881.5)" fill="none" stroke="#afccff" stroke-width="2"/>
            </g>
            <g transform="translate(-4 -881.5)">
              <line id="線_233-17" data-name="線 233" y2="17" transform="translate(36.5 881.5)" fill="none" stroke="#afccff" stroke-width="2"/>
            </g>
            <g transform="translate(0 -881.5)">
              <line id="線_233-18" data-name="線 233" y2="17" transform="translate(36.5 881.5)" fill="none" stroke="#afccff" stroke-width="2"/>
            </g>
            <g transform="translate(4 -881.5)">
              <line id="線_233-19" data-name="線 233" y2="17" transform="translate(36.5 881.5)" fill="none" stroke="#afccff" stroke-width="2"/>
            </g>
            <g transform="translate(8 -881.5)">
              <line id="線_233-20" data-name="線 233" y2="17" transform="translate(36.5 881.5)" fill="none" stroke="#afccff" stroke-width="2"/>
            </g>
          </g>
        </g>
      </g>
    </g>
    <g id="グループ_1319" data-name="グループ 1319">
      <path id="パス_25707" data-name="パス 25707" d="M87.938,88.517a38.493,38.493,0,0,0-4.473-8.927A28.579,28.579,0,0,0,75.725,72.4a90.651,90.651,0,0,0-10.37-5.544,15.677,15.677,0,0,1-5.718-3.967c-1.974-2.466-2.41-5.774-2.494-8.83a1.247,1.247,0,0,0-.044-.294,20.271,20.271,0,0,0,3.284-4.539,22.449,22.449,0,0,0,1.237-2.758v2.092a27.188,27.188,0,0,0-1.515,3.447,3.912,3.912,0,0,0-.118,2.733,3,3,0,0,0,3.042,2.063,3.173,3.173,0,0,0,2.717-3.014,1.105,1.105,0,0,0,.024-.247,9.008,9.008,0,0,0-1.044-3.3c-.243-.547-.507-1.085-.776-1.619V41.1a7,7,0,0,0,2.5-1.792,8.116,8.116,0,0,0,1.586-5.332c-.03-1.905-.574-4.026-2.175-5.215a4.684,4.684,0,0,0-2.339-.774c.469-.855.917-1.722,1.323-2.6a20.241,20.241,0,0,0,1.329-3.537,10.029,10.029,0,0,0,.039-4.024A25.613,25.613,0,0,0,62.3,8.008a22.663,22.663,0,0,0-3.081-3.973,10.632,10.632,0,0,0-4.3-2.248,9.173,9.173,0,0,0-4.7-.627c-.5.1-1,.262-1.493.391-.2.051-.415.121-.623.154a3.384,3.384,0,0,0-.336-.291A11.685,11.685,0,0,0,38.846.46,20.379,20.379,0,0,0,25.133,12.517a22.18,22.18,0,0,0-1.04,12.191,11.242,11.242,0,0,0,1.465,3.627q.333.574.663,1.15a4.764,4.764,0,0,0-.893.061c-2.121.359-3.314,2.394-3.708,4.363a8.649,8.649,0,0,0,1.56,6.461,5.452,5.452,0,0,0,2.294,1.685V48.6a27.082,27.082,0,0,0-1.494,3.407,3.909,3.909,0,0,0-.117,2.733A3,3,0,0,0,26.9,56.805a3.172,3.172,0,0,0,2.717-3.014,1.076,1.076,0,0,0,.025-.247,9.008,9.008,0,0,0-1.044-3.3c-.249-.561-.519-1.114-.8-1.661v-3.25c.009.048.013.1.023.146a14.39,14.39,0,0,0,2.034,4.586,19.855,19.855,0,0,0,8.226,7.511c.036.018.072.025.107.039a20.336,20.336,0,0,0-.773,2.973c-.366,1.662-.781,3.314-1.192,4.965-.853,3.431-1.748,6.85-2.613,10.278-.032.124-.062.249-.093.374a83.26,83.26,0,0,1-13.964-4.9c1.848-.761,3.741-1.412,5.659-2.045a16.17,16.17,0,0,0,6.48-3.573,11.437,11.437,0,0,0,3.029-8.315,1.167,1.167,0,0,0-2.332,0,9.042,9.042,0,0,1-2.5,6.813c-1.781,1.691-4.18,2.472-6.469,3.2C16.786,69.491,10.1,72.738,5.8,78.411,3.546,81.389,2,84.82.158,88.053a1.092,1.092,0,0,0-.126.826H2.367C3.952,86.054,5.337,83.1,7.2,80.44a24.254,24.254,0,0,1,8-7.023c.748-.43,1.507-.821,2.276-1.188a1.059,1.059,0,0,0,.567.941,87.178,87.178,0,0,0,14.923,5.3C32.209,81.531,31.5,84.6,30.875,87.7a1.148,1.148,0,0,0,.448,1.183H32.83a1.064,1.064,0,0,0,.293-.563c1.53-7.63,3.622-15.129,5.488-22.679.411-1.663.829-3.326,1.18-5A8.52,8.52,0,0,1,40.8,57.555c.489-.719,1.131-.965,1.689-.674a2.351,2.351,0,0,1,.963,2.164,2.474,2.474,0,0,0-2.02.342c-1.58,1.056-1.831,3.4-2.185,5.1q-1.106,5.293-2.231,10.581c-.311,1.463,1.936,2.089,2.248.62q.846-3.975,1.68-7.952a44.551,44.551,0,0,1,1.2-5.4c.116-.336.381-1.039.688-1.064s.666.407.764.79a1.174,1.174,0,0,0,.172.378c-.1.935-.06,1.929-.119,2.791a1.049,1.049,0,0,0,0,.135,1.091,1.091,0,0,0-.535.33,7.244,7.244,0,0,0-1.384,3.629q-.37,1.929-.755,3.855-.551,2.759-1.116,5.517c-.3,1.465,1.947,2.091,2.248.62q.529-2.586,1.047-5.174c.13-.652.257-1.305.386-1.958q.319,2.865.638,5.73a.819.819,0,0,0-.133.329c-.478,3.278-1.176,6.514-1.816,9.762a1.332,1.332,0,0,0,.119.872h2.036a.894.894,0,0,0,.094-.252q.312-1.579.63-3.157c.157,1.057.325,2.111.527,3.157a1.252,1.252,0,0,0,.075.252h2.011a1.156,1.156,0,0,0,.162-.872c-.91-4.726-1.314-9.562-1.847-14.342-.21-1.887-.517-3.791-.633-5.687-.024-.388.165-1.385.778-1.055a4.469,4.469,0,0,1,.454,1.271c.21.807.349,1.634.5,2.454.545,2.954,1,5.926,1.449,8.9.222,1.479,2.469.85,2.249-.62-.446-2.971-.905-5.943-1.45-8.9-.281-1.526-.434-3.636-1.6-4.785a2.386,2.386,0,0,0-1.814-.658c-.031-1.312-.054-3.846,1.351-3.024a2.689,2.689,0,0,1,1.072,1.8c.229,1.048.437,2.1.655,3.152q1.16,5.6,2.262,11.216c.289,1.471,2.537.848,2.248-.62-.95-4.84-1.8-9.733-2.951-14.531-.443-1.849-2.064-3.686-4.064-3.448a2.452,2.452,0,0,1,.97-2.278,1.177,1.177,0,0,1,.39-.121c-.117.021.2.079.17.044a1.97,1.97,0,0,1,.716.693A10.945,10.945,0,0,1,50.277,61c.434,1.657.791,3.335,1.2,5,.9,3.616,1.843,7.222,2.752,10.835a1.287,1.287,0,0,0,.346,1.393c.831,3.35,1.623,6.708,2.3,10.094a1.058,1.058,0,0,0,.294.563h1.508a1.146,1.146,0,0,0,.447-1.183c-.64-3.193-1.384-6.361-2.164-9.522a58.226,58.226,0,0,0,7.114-2.064,16.415,16.415,0,0,0,5.98-3.291,1.07,1.07,0,0,0,.342-.834c.245.13.491.257.734.391A32.858,32.858,0,0,1,80.2,79.19a31.511,31.511,0,0,1,5.392,9.69h2.422a1.16,1.16,0,0,0-.073-.362m-25.821-34.8c-.029-.12,0-.079,0,0m.5.754a.1.1,0,0,0,.048.016.1.1,0,0,1-.048-.016m.816-.768c-.023.1-.045.192-.073.288l-.008.031-.017.027c-.03.05-.062.1-.09.155l0,.008a1.421,1.421,0,0,0-.165.172c-.03.019-.061.036-.085.054a.22.22,0,0,0-.021.017h-.006c-.015,0-.073.024-.116.036h-.16l-.024-.012c-.05-.019-.109-.036-.159-.052.181.056.1.03-.02-.033l-.007,0c-.029-.026-.059-.052-.087-.08s-.045-.049-.067-.074a1.5,1.5,0,0,0-.113-.205.917.917,0,0,1-.051-.129c-.017-.06-.03-.12-.044-.181s0-.131-.005-.2c-.007.021-.009.032-.02.058a.662.662,0,0,0,.02-.077c0-.008,0-.017,0-.025,0-.071.021-.111.032-.1.01-.061.018-.122.033-.177a9.4,9.4,0,0,1,.3-.917q.095-.25.2-.5c.015-.036.031-.072.045-.108.049-.121-.042.1-.041.1a.864.864,0,0,1,.093-.223l.035.08.013.028c.025.052.045.107.067.16.1.244.2.49.284.739.081.23.158.462.217.7.018.073.032.147.048.22,0,.022,0,.044,0,.065,0,.053-.005.107-.007.161M26.094,22.419a19.785,19.785,0,0,1,.172-5.2,17.328,17.328,0,0,1,3.812-8.6,20.38,20.38,0,0,1,6.765-4.976A11.71,11.71,0,0,1,44.8,2.645a7.524,7.524,0,0,1,1.8.784,2.591,2.591,0,0,0,1.513.624A25.811,25.811,0,0,0,50.858,3.4a6.657,6.657,0,0,1,2.253.241c.775.221,1.555.493,2.311.774a7.689,7.689,0,0,1,3.425,2.734,25.765,25.765,0,0,1,4.5,8.568,12.488,12.488,0,0,1,.721,4.794,12.149,12.149,0,0,1-1.094,3.38c-.508,1.138-1.078,2.256-1.694,3.345-.052-.063-.1-.126-.155-.19,0-.01-.006-.017-.013-.031-.36-.813-.907-1.583-1.334-2.362a45.6,45.6,0,0,1-3.927-8.565,1.18,1.18,0,0,0-1.713-.7c-2.1,1.228-4.191,2.469-6.337,3.606a7.662,7.662,0,0,1-2.9.715,7.364,7.364,0,0,0,.761-.744,22.606,22.606,0,0,0,2.679-4.421,1.167,1.167,0,0,0-2.013-1.177,5.736,5.736,0,0,1-1.729,1c-.845.39-1.714.723-2.567,1.094a30.338,30.338,0,0,0-6.092,3.843,27.75,27.75,0,0,0-7.782,8.861c-.391-.674-.788-1.344-1.16-2.028a10,10,0,0,1-.9-3.721m-.1,31.3c-.029-.12,0-.079,0,0m.5.754a.1.1,0,0,0,.048.016.1.1,0,0,1-.048-.016m.816-.767c-.024.1-.046.191-.073.287,0,.015-.006.022-.008.031l-.017.027c-.03.05-.062.1-.09.155l0,.008a1.463,1.463,0,0,0-.165.172c-.03.019-.06.036-.085.054a.221.221,0,0,0-.021.017h-.006c-.015,0-.073.024-.116.036h-.16l-.025-.012c-.05-.019-.109-.036-.159-.052.181.056.1.03-.02-.033l-.007,0c-.029-.026-.059-.052-.087-.08s-.045-.049-.067-.074a1.563,1.563,0,0,0-.113-.205.917.917,0,0,1-.051-.129c-.018-.06-.03-.121-.045-.181,0-.065,0-.131,0-.2-.007.021-.009.032-.02.058a.788.788,0,0,0,.02-.077v-.025c0-.071.022-.111.032-.1.01-.061.018-.122.033-.177a9.534,9.534,0,0,1,.3-.917q.095-.25.2-.5c.015-.036.03-.072.045-.108.049-.121-.042.1-.041.1a.863.863,0,0,1,.093-.223c.011.027.024.053.036.08,0,.007.008.017.013.028.025.052.045.107.066.16.1.244.2.49.284.739.081.23.158.462.217.7.018.073.032.147.048.22,0,.022,0,.044,0,.065,0,.053-.005.108-.006.161m23.1,2.03A3.152,3.152,0,0,0,47.8,54.417a3.287,3.287,0,0,0-2.8,1.8,3.516,3.516,0,0,0-2.145-1.677,3.4,3.4,0,0,0-3.442,1.113,1.18,1.18,0,0,0-.144-.087c-4.486-2.146-8.671-6.651-9.353-11.727a6.935,6.935,0,0,0-.341-2.277c-.346-.607-1.342-.95-2.068-1.215a1.089,1.089,0,0,0-.864-.4,1.245,1.245,0,0,0-.146.02,3.082,3.082,0,0,1-1.139-.614,4.547,4.547,0,0,1-.963-1.57,5.808,5.808,0,0,1-.386-3.8c.323-1.093.891-2.209,2.166-2.173a3.906,3.906,0,0,1,.975.189c.395.113.061-.012.346.135a1.207,1.207,0,0,0,1.73-.848A25.524,25.524,0,0,1,38.228,20.5a29.55,29.55,0,0,1,5.71-3.326c.082-.034.172-.069.258-.1-.064.081-.118.172-.186.25a10.922,10.922,0,0,1-3.736,2.459c-1.109.531-.479,2.122.589,2.172,2.778.131,5.549.331,8.116-.941,1.725-.915,3.414-1.9,5.1-2.885a56.319,56.319,0,0,0,3.686,7.7,27.069,27.069,0,0,0,2.3,3.558c-.446,1.107,1.347,2.027,2.159.913-.31.426-.424.341.107.189a3.935,3.935,0,0,1,1.028-.165,1.783,1.783,0,0,1,1.555.751A5.788,5.788,0,0,1,65.663,35a4.582,4.582,0,0,1-1.487,3.279,6.228,6.228,0,0,1-2.789,1.17,1.123,1.123,0,0,0-.815.814,24.524,24.524,0,0,1-1.9,7.193,17.039,17.039,0,0,1-8.266,8.282m18,15.436a14.446,14.446,0,0,1-5.38,2.847,60.268,60.268,0,0,1-6.627,1.9c-.736-2.918-1.49-5.832-2.225-8.749a70.617,70.617,0,0,0-2.241-8.594c-.1-.266-.221-.548-.348-.833a18.08,18.08,0,0,0,3.314-1.99,16.951,16.951,0,0,0,1.892,7.073,13.1,13.1,0,0,0,4.937,4.788c2.2,1.286,4.534,2.324,6.826,3.442a1.241,1.241,0,0,0-.148.12" transform="translate(15 5787.9)" fill="#323232"/>
      <rect id="長方形_943" data-name="長方形 943" width="88.012" height="89.152" transform="translate(15 5787.9)" fill="none"/>
      <path id="パス_25674" data-name="パス 25674" d="M72.567,71.6a17.039,17.039,0,0,0,8.266-8.282,24.541,24.541,0,0,0,1.9-7.193,1.122,1.122,0,0,1,.814-.814,6.228,6.228,0,0,0,2.789-1.17,4.58,4.58,0,0,0,1.487-3.279,5.788,5.788,0,0,0-.745-3.922,1.783,1.783,0,0,0-1.555-.751,3.935,3.935,0,0,0-1.028.165c-.532.152-.418.237-.107-.189-.812,1.114-2.6.194-2.158-.913a27.015,27.015,0,0,1-2.3-3.558,56.262,56.262,0,0,1-3.687-7.7c-1.685.987-3.375,1.97-5.1,2.885-2.568,1.272-5.338,1.072-8.116.941-1.067-.05-1.7-1.641-.589-2.172a10.931,10.931,0,0,0,3.736-2.459c.067-.078.121-.169.186-.25-.086.034-.175.069-.257.1a29.563,29.563,0,0,0-5.71,3.325,25.525,25.525,0,0,0-9.007,10.788,1.207,1.207,0,0,1-1.73.848c-.284-.147.049-.022-.346-.135a3.906,3.906,0,0,0-.975-.189c-1.274-.035-1.843,1.08-2.166,2.173a5.808,5.808,0,0,0,.386,3.8,4.541,4.541,0,0,0,.964,1.57,3.076,3.076,0,0,0,1.139.614,1.138,1.138,0,0,1,.146-.02,1.089,1.089,0,0,1,.864.4c.725.265,1.722.608,2.068,1.215a6.94,6.94,0,0,1,.341,2.278c.682,5.075,4.866,9.58,9.353,11.727a1.143,1.143,0,0,1,.144.087,3.4,3.4,0,0,1,3.442-1.113,3.516,3.516,0,0,1,2.145,1.677,3.289,3.289,0,0,1,2.8-1.8A3.153,3.153,0,0,1,72.567,71.6m4.8-24.482a1.19,1.19,0,0,1-.536.7,1.173,1.173,0,0,1-.9.117,8.075,8.075,0,0,0-1.449-.463,3.6,3.6,0,0,0-.621,0c-.087.016-.173.029-.259.05a1.191,1.191,0,0,1-1.434-.815,1.177,1.177,0,0,1,.815-1.434,4.974,4.974,0,0,1,2.116-.058,7.8,7.8,0,0,1,1.452.47,1.165,1.165,0,0,1,.515.3l.182.236a1.18,1.18,0,0,1,.118.9m-6.188-6.4a1.163,1.163,0,0,1,.7-.536,9.142,9.142,0,0,1,3.072.036c.7.131,1.379.361,2.07.538a1.166,1.166,0,1,1-.62,2.248c-.65-.166-1.288-.38-1.946-.514-.094-.019-.188-.037-.283-.052l-.049-.008c-.185-.011-.368-.036-.554-.043s-.4-.005-.6,0c-.121.006-.24.015-.36.027-.014,0-.033.005-.05.008a.274.274,0,0,1-.116.01.321.321,0,0,0,.116-.01c.013,0,.007-.007-.062,0a1.359,1.359,0,0,1-.9-.118,1.176,1.176,0,0,1-.536-.7,1.189,1.189,0,0,1,.118-.9M67.587,55.092a1.167,1.167,0,0,1,0,2.332,1.167,1.167,0,0,1,0-2.332M56.83,42.257a1.181,1.181,0,0,1,.815-1.434c.657-.187,1.291-.448,1.956-.613a7.586,7.586,0,0,1,2.76-.173,1.362,1.362,0,0,1,.824.341,1.166,1.166,0,0,1,0,1.649,1.16,1.16,0,0,1-.824.342,7,7,0,0,0-1.377-.044.859.859,0,0,0-.293.029c.015-.011.289-.045.121-.016l-.152.026q-.25.045-.5.108c-.644.165-1.261.417-1.9.6a1.186,1.186,0,0,1-1.434-.814m5.324,5.149a1.223,1.223,0,0,1-.9.118c-.085-.021-.173-.035-.26-.05a3.593,3.593,0,0,0-.62,0,8.075,8.075,0,0,0-1.449.463,1.135,1.135,0,0,1-.9-.117,1.179,1.179,0,0,1-.536-.7,1.191,1.191,0,0,1,.118-.9,1.27,1.27,0,0,1,.7-.536,7.82,7.82,0,0,1,1.453-.47,4.974,4.974,0,0,1,2.116.058,1.166,1.166,0,0,1,.279,2.131m4.071,18.632a5.544,5.544,0,0,1-3.684-4.528c0-.017,0-.033,0-.05a1.3,1.3,0,0,1-.041-.26,1.088,1.088,0,0,1,.395-.86,1.014,1.014,0,0,1,.1-.081A1.223,1.223,0,0,1,63.3,60.1c.019-.006.031-.02.05-.025s.039-.005.059-.009c.034-.008.068-.011.1-.017s.051-.007.077-.008.048-.008.072-.008h7.6A1.177,1.177,0,0,1,72.43,61.2a5.855,5.855,0,0,1-1.314,3.44,4.711,4.711,0,0,1-4.891,1.4" transform="translate(-7.158 5772.03)" fill="#fff"/>
      <path id="パス_25675" data-name="パス 25675" d="M88.169,92.691h-.013c-.04.009-.056.015.013,0" transform="translate(-27.458 5743.241)" fill="#ffe164"/>
      <path id="パス_25676" data-name="パス 25676" d="M104.761,114.654a16.959,16.959,0,0,1-1.892-7.073,18.045,18.045,0,0,1-3.314,1.99c.127.286.244.567.349.833A70.614,70.614,0,0,1,102.144,119c.735,2.917,1.49,5.831,2.225,8.749a60.154,60.154,0,0,0,6.627-1.9,14.446,14.446,0,0,0,5.38-2.847,1.283,1.283,0,0,1,.148-.12c-2.292-1.119-4.631-2.156-6.826-3.442a13.1,13.1,0,0,1-4.938-4.788" transform="translate(-32.967 5736.066)" fill="#fff"/>
      <path id="パス_25677" data-name="パス 25677" d="M87.736,89.727H83.165c.064.122.125.245.2.361.055.084.286.322.062.1.068.068.126.15.192.221s.314.387.415.386c.016,0-.209-.143-.1-.077.039.023.074.053.112.079q.1.067.2.127c.077.046.157.086.236.127l.034.019c.142.046.28.1.425.135.082.021.166.033.249.053h.013c.149.008.3.016.447.01l.116,0a.912.912,0,0,1,.118-.02l.024,0a3.425,3.425,0,0,0,.43-.117l.039-.015c.047-.031.188-.087.211-.1.127-.068.243-.149.363-.229.016-.012.032-.025.046-.039.066-.062.132-.121.2-.186s.107-.118.161-.177l.013-.013c.1-.163.211-.319.3-.492.008-.015.03-.06.051-.1l.016-.042" transform="translate(-25.07 5744.668)" fill="#fff"/>
      <path id="パス_25678" data-name="パス 25678" d="M88.213,92.672a.342.342,0,0,0,.125-.016s-.008,0-.02,0c-.034.006-.067.011-.1.019h0" transform="translate(-27.502 5743.259)" fill="#ffe164"/>
      <path id="パス_25679" data-name="パス 25679" d="M52.327,30.319a27.763,27.763,0,0,1,7.782-8.862A30.4,30.4,0,0,1,66.2,17.615c.853-.371,1.722-.7,2.567-1.094a5.707,5.707,0,0,0,1.729-1A1.167,1.167,0,0,1,72.511,16.7a22.638,22.638,0,0,1-2.679,4.421,7.466,7.466,0,0,1-.761.743,7.662,7.662,0,0,0,2.9-.715c2.146-1.138,4.241-2.379,6.337-3.606a1.18,1.18,0,0,1,1.713.7A45.676,45.676,0,0,0,83.952,26.8c.427.779.974,1.549,1.334,2.362.007.015.008.02.013.031.051.063.1.127.155.19.616-1.09,1.186-2.207,1.694-3.345a12.137,12.137,0,0,0,1.094-3.38,12.484,12.484,0,0,0-.721-4.794A25.766,25.766,0,0,0,83.02,9.3a7.7,7.7,0,0,0-3.425-2.733c-.756-.281-1.536-.553-2.311-.774a6.668,6.668,0,0,0-2.252-.241,25.7,25.7,0,0,1-2.745.653,2.588,2.588,0,0,1-1.513-.624,7.535,7.535,0,0,0-1.8-.784,11.714,11.714,0,0,0-7.952.989,20.38,20.38,0,0,0-6.766,4.977,17.331,17.331,0,0,0-3.812,8.6,19.794,19.794,0,0,0-.172,5.206,10.013,10.013,0,0,0,.9,3.721c.373.684.77,1.354,1.16,2.028" transform="translate(-9.173 5785.749)" fill="#323232"/>
      <path id="パス_25680" data-name="パス 25680" d="M152.354,68.709a3.907,3.907,0,0,1-.5.33,3.78,3.78,0,0,1,.687.593,3.655,3.655,0,0,1,.392.543,4.834,4.834,0,0,1,.382-.6,3.675,3.675,0,0,1,.578-.593,4.4,4.4,0,0,1-.52-.381,4,4,0,0,1-.453-.461,3.68,3.68,0,0,1-.569.566" transform="translate(-58.167 5755.068)" fill="#ffe164"/>
      <path id="パス_25681" data-name="パス 25681" d="M100.065,51.232h0" transform="translate(-33.188 5763.22)" fill="#ffe164"/>
      <path id="パス_25682" data-name="パス 25682" d="M14.3,14.475a4.075,4.075,0,0,1,1.14,1.112c.056.086.1.178.149.267.075-.15.149-.3.238-.444a3.892,3.892,0,0,1,.893-1,4.2,4.2,0,0,1-.787-.628,4.531,4.531,0,0,1-.329-.4,3.711,3.711,0,0,1-1.3,1.1" transform="translate(8.108 5781.455)" fill="#ffe164"/>
      <path id="パス_25683" data-name="パス 25683" d="M86.391,164.939q-.316,1.578-.63,3.157a.918.918,0,0,1-.094.252h1.326a1.253,1.253,0,0,1-.075-.252c-.2-1.047-.37-2.1-.527-3.157" transform="translate(-26.275 5708.431)" fill="#ffe164"/>
      <path id="パス_25684" data-name="パス 25684" d="M72.763,140.782c.64-3.248,1.338-6.485,1.816-9.763a.822.822,0,0,1,.133-.329q-.319-2.864-.638-5.729c-.129.652-.255,1.305-.386,1.958q-.518,2.588-1.047,5.174c-.3,1.471-2.548.845-2.248-.62q.564-2.758,1.116-5.518.385-1.926.755-3.855a7.244,7.244,0,0,1,1.384-3.629,1.087,1.087,0,0,1,.535-.33,1.284,1.284,0,0,1,0-.135c.059-.862.021-1.855.119-2.79a1.179,1.179,0,0,1-.172-.378c-.1-.383-.453-.815-.764-.79s-.572.728-.687,1.064a44.456,44.456,0,0,0-1.2,5.4q-.835,3.977-1.68,7.952c-.312,1.469-2.56.844-2.248-.62q1.126-5.289,2.232-10.582c.354-1.694.6-4.042,2.184-5.1a2.476,2.476,0,0,1,2.02-.341,2.351,2.351,0,0,0-.962-2.164c-.558-.291-1.2-.045-1.689.674a8.526,8.526,0,0,0-1.008,3.081c-.351,1.677-.769,3.34-1.179,5-1.867,7.551-3.958,15.05-5.489,22.68a1.061,1.061,0,0,1-.293.563h9.525a1.332,1.332,0,0,1-.119-.872" transform="translate(-15.526 5735.125)" fill="#fff"/>
      <path id="パス_25685" data-name="パス 25685" d="M96.8,130.97a1.287,1.287,0,0,1-.346-1.393c-.908-3.614-1.854-7.219-2.752-10.835-.412-1.662-.77-3.341-1.2-5a10.963,10.963,0,0,0-1.479-3.529,1.973,1.973,0,0,0-.715-.693c.029.036-.288-.023-.171-.044a1.182,1.182,0,0,0-.39.121,2.451,2.451,0,0,0-.97,2.278c2-.238,3.621,1.6,4.064,3.449,1.148,4.8,2,9.69,2.952,14.53.288,1.468-1.96,2.091-2.249.62q-1.1-5.614-2.262-11.216c-.218-1.05-.426-2.1-.655-3.152a2.686,2.686,0,0,0-1.072-1.8c-1.405-.823-1.383,1.711-1.351,3.023a2.385,2.385,0,0,1,1.814.659c1.167,1.149,1.32,3.259,1.6,4.785.545,2.954,1,5.926,1.45,8.9.22,1.471-2.027,2.1-2.248.62-.446-2.971-.905-5.942-1.45-8.9-.151-.82-.29-1.646-.5-2.453a4.462,4.462,0,0,0-.454-1.271c-.613-.331-.8.666-.778,1.055.116,1.9.423,3.8.633,5.686.532,4.78.936,9.616,1.846,14.342a1.156,1.156,0,0,1-.162.872H99.4a1.056,1.056,0,0,1-.294-.563c-.679-3.385-1.471-6.744-2.3-10.094" transform="translate(-27.222 5735.152)" fill="#fff"/>
      <path id="パス_25686" data-name="パス 25686" d="M52.917,107.975a11.436,11.436,0,0,1-3.029,8.315,16.17,16.17,0,0,1-6.48,3.573c-1.918.633-3.811,1.284-5.66,2.045a83.26,83.26,0,0,0,13.964,4.9c.032-.125.062-.25.093-.374.864-3.428,1.76-6.847,2.613-10.278.41-1.651.826-3.3,1.192-4.965a20.336,20.336,0,0,1,.773-2.973c-.036-.013-.071-.021-.107-.039a18.929,18.929,0,0,1-4.635-3.154l-.08,1.841a1.122,1.122,0,0,1,1.357,1.11" transform="translate(-3.188 5737.299)" fill="#fff"/>
      <path id="パス_25687" data-name="パス 25687" d="M94.863,48.95a1.359,1.359,0,0,0,.9.118c.069-.01.075-.007.062,0l.05-.009c.12-.012.24-.021.361-.026q.3-.016.6-.005c.185.007.369.033.554.044l.049.008q.141.023.283.052c.658.133,1.3.347,1.946.514a1.166,1.166,0,0,0,.62-2.249c-.691-.177-1.368-.406-2.07-.537a9.128,9.128,0,0,0-3.072-.036,1.161,1.161,0,0,0-.7.535,1.166,1.166,0,0,0,.418,1.6m2.441.105h0" transform="translate(-30.427 5765.396)" fill="#323232"/>
      <path id="パス_25688" data-name="パス 25688" d="M97.147,51.258a.318.318,0,0,1-.116.009.273.273,0,0,0,.116-.009" transform="translate(-31.75 5763.203)" fill="#323232"/>
      <path id="パス_25689" data-name="パス 25689" d="M68.3,49.62c.639-.181,1.256-.433,1.9-.6.164-.042.329-.079.5-.109l.153-.025c.167-.03-.107,0-.122.016a.862.862,0,0,1,.293-.029,6.96,6.96,0,0,1,1.378.043,1.161,1.161,0,0,0,.824-.341,1.166,1.166,0,0,0,0-1.649,1.364,1.364,0,0,0-.824-.341,7.588,7.588,0,0,0-2.761.174c-.664.165-1.3.426-1.956.613a1.166,1.166,0,1,0,.62,2.248" transform="translate(-17.193 5765.481)" fill="#323232"/>
      <path id="パス_25690" data-name="パス 25690" d="M86.621,78.022a1.167,1.167,0,0,0,0-2.332,1.167,1.167,0,0,0,0,2.332" transform="translate(-26.192 5751.432)" fill="#323232"/>
      <path id="パス_25691" data-name="パス 25691" d="M50.109,103.334a.555.555,0,0,0,.02-.059v-.018a.572.572,0,0,1-.02.077" transform="translate(-9.143 5738.15)" fill="#fff"/>
      <path id="パス_25692" data-name="パス 25692" d="M50.146,103.111v.025a1.235,1.235,0,0,0,.032-.129c-.01-.008-.033.033-.032.1" transform="translate(-9.161 5738.271)" fill="#fff"/>
      <path id="パス_25693" data-name="パス 25693" d="M52.276,104.7h0" transform="translate(-10.184 5737.454)" fill="#fff"/>
      <path id="パス_25694" data-name="パス 25694" d="M51,102.389h.006a.219.219,0,0,1,.021-.017c.025-.018.056-.035.085-.054a1.462,1.462,0,0,1,.165-.172l0-.008c.028-.051.06-.1.09-.155.008-.013.012-.019.018-.027s0-.017.008-.031c.027-.1.049-.191.073-.288,0-.053.005-.108.006-.161,0-.021,0-.043,0-.065-.017-.073-.03-.147-.048-.22-.06-.236-.136-.469-.217-.7-.088-.249-.184-.495-.284-.739-.022-.053-.041-.108-.066-.16-.005-.011-.01-.021-.013-.028-.012-.027-.024-.053-.036-.08a.864.864,0,0,0-.093.223s.09-.22.041-.1c-.015.036-.03.072-.045.108-.068.165-.135.332-.2.5a9.4,9.4,0,0,0-.3.917c-.014.055-.023.117-.033.177.009.007,0,.059-.031.148,0,.065.006.131,0,.2.015.06.027.121.045.181a.917.917,0,0,0,.051.129,1.5,1.5,0,0,1,.113.205c.022.025.043.05.067.074s.058.054.087.08l.007,0c.116.062.2.089.02.033.05.016.109.033.159.052l.025.012h.16c.042-.012.1-.032.116-.036" transform="translate(-9.161 5739.966)" fill="#fff"/>
      <path id="パス_25695" data-name="パス 25695" d="M51.171,105.134c-.074-.036-.055-.008,0,0" transform="translate(-9.631 5737.253)" fill="#fff"/>
      <path id="パス_25696" data-name="パス 25696" d="M50.142,103.595c0-.079-.029-.12,0,0" transform="translate(-9.153 5738.023)" fill="#fff"/>
      <path id="パス_25697" data-name="パス 25697" d="M50.178,103.008c-.008.046-.021.087-.032.129,0,.006,0,.012,0,.019.032-.089.04-.141.032-.148" transform="translate(-9.161 5738.27)" fill="#323232"/>
      <path id="パス_25698" data-name="パス 25698" d="M120.718,102.389h.006a.179.179,0,0,1,.021-.017c.025-.018.055-.035.085-.054a1.462,1.462,0,0,1,.165-.172l0-.008c.027-.051.059-.1.089-.155.008-.013.012-.019.018-.027s0-.017.008-.031c.027-.1.049-.191.073-.288,0-.053.005-.108.006-.161,0-.021,0-.043,0-.065-.016-.073-.03-.147-.048-.22-.059-.236-.135-.469-.217-.7-.089-.249-.184-.495-.284-.739-.022-.053-.041-.108-.066-.16l-.013-.028-.035-.08a.864.864,0,0,0-.093.223s.09-.22.041-.1c-.015.036-.03.072-.045.108q-.1.248-.2.5a9.4,9.4,0,0,0-.3.917,1.769,1.769,0,0,0-.032.177c.009.007,0,.059-.031.148,0,.065.005.131,0,.2.015.061.027.121.044.181a.984.984,0,0,0,.051.129,1.452,1.452,0,0,1,.113.205c.022.025.044.05.067.074s.058.054.087.08l.007,0c.116.062.2.089.02.033.05.016.109.033.159.052l.025.012h.16c.043-.012.1-.032.115-.036" transform="translate(-42.753 5739.966)" fill="#fff"/>
      <path id="パス_25699" data-name="パス 25699" d="M119.864,103.111v.025a1.267,1.267,0,0,0,.032-.129c-.01-.008-.033.033-.032.1" transform="translate(-42.752 5738.271)" fill="#fff"/>
      <path id="パス_25700" data-name="パス 25700" d="M121.993,104.7h0" transform="translate(-43.775 5737.455)" fill="#fff"/>
      <path id="パス_25701" data-name="パス 25701" d="M119.86,103.595c0-.079-.029-.12,0,0" transform="translate(-42.743 5738.023)" fill="#fff"/>
      <path id="パス_25702" data-name="パス 25702" d="M119.827,103.333a.618.618,0,0,0,.02-.059c0-.006,0-.012,0-.019a.558.558,0,0,1-.02.077" transform="translate(-42.734 5738.15)" fill="#fff"/>
      <path id="パス_25703" data-name="パス 25703" d="M120.89,105.134c-.074-.036-.055-.008,0,0" transform="translate(-43.222 5737.253)" fill="#fff"/>
      <path id="パス_25704" data-name="パス 25704" d="M119.9,103.008a1.22,1.22,0,0,1-.032.129c0,.006,0,.012,0,.019.032-.089.04-.14.031-.147" transform="translate(-42.752 5738.27)" fill="#323232"/>
      <path id="パス_25705" data-name="パス 25705" d="M111.844,171.518h-1.508a1.179,1.179,0,0,0,1.508,0" transform="translate(-38.161 5705.261)" fill="#323232"/>
      <path id="パス_25706" data-name="パス 25706" d="M61.954,171.518H60.446a1.178,1.178,0,0,0,1.508,0" transform="translate(-14.124 5705.261)" fill="#323232"/>
      <path id="パス_25708" data-name="パス 25708" d="M72.531,56.612a4.99,4.99,0,0,0-2.116-.058,7.9,7.9,0,0,0-1.453.47,1.271,1.271,0,0,0-.7.536,1.19,1.19,0,0,0-.118.9,1.177,1.177,0,0,0,.536.7,1.135,1.135,0,0,0,.9.118,8.034,8.034,0,0,1,1.449-.463,3.543,3.543,0,0,1,.62,0c.087.016.174.03.26.05a1.221,1.221,0,0,0,.9-.118,1.166,1.166,0,0,0-.279-2.131" transform="translate(-17.814 5760.693)" fill="#323232"/>
      <path id="パス_25709" data-name="パス 25709" d="M101.36,57.325a1.166,1.166,0,0,0-.515-.3,7.9,7.9,0,0,0-1.453-.47,4.99,4.99,0,0,0-2.116.058,1.177,1.177,0,0,0-.814,1.434,1.19,1.19,0,0,0,1.434.814c.086-.021.173-.034.259-.05a3.543,3.543,0,0,1,.62,0,8.011,8.011,0,0,1,1.449.463,1.172,1.172,0,0,0,.9-.118,1.166,1.166,0,0,0,.419-1.6l-.182-.236" transform="translate(-31.454 5760.693)" fill="#323232"/>
      <path id="パス_25710" data-name="パス 25710" d="M5.679,9.427c1.052.38,2.784.665,3.349,1.746C9.668,12.4,9.61,14,9.9,15.329a1.175,1.175,0,0,0,2.248,0,17.688,17.688,0,0,1,.941-4.22c.588-1.289,2.035-1.373,3.288-1.53a1.2,1.2,0,0,0,1.166-1.166,1.185,1.185,0,0,0-1.166-1.166c-1.108-.047-2.533-.091-3.348-.961a4.026,4.026,0,0,1-.864-2.675c0-.055.009-.112.012-.167a1.2,1.2,0,0,0-.025-.321c0-.258,0-.511,0-.752a1.167,1.167,0,0,0-2.332,0c0,.361.009.727.024,1.092-.06.951-.089,2.186-.847,2.88s-2.057.683-3.012.794a1.172,1.172,0,0,0-.31,2.29m5.7-1.492a4.185,4.185,0,0,0,.787.628,3.886,3.886,0,0,0-.893,1c-.088.144-.163.293-.238.444-.05-.089-.093-.181-.149-.267A4.054,4.054,0,0,0,9.749,8.63a3.864,3.864,0,0,0,.9-.639,4.006,4.006,0,0,0,.4-.461,4.531,4.531,0,0,0,.329.4" transform="translate(12.662 5787.3)" fill="#323232"/>
      <path id="パス_25711" data-name="パス 25711" d="M146.047,61.632a6.534,6.534,0,0,1-3.078.659,1.172,1.172,0,0,0-.31,2.29c1.049.325,2.744.553,3.4,1.417a4.926,4.926,0,0,1,.494,1.535c.141.687.227,1.385.4,2.065a1.175,1.175,0,0,0,2.248,0,12.946,12.946,0,0,1,1.012-3.718c.56-1,2.209-1.045,3.3-1.161a1.2,1.2,0,0,0,1.166-1.166,1.184,1.184,0,0,0-1.166-1.166,6.077,6.077,0,0,1-3.322-.715,2.914,2.914,0,0,1-.966-2.338c0-.032.006-.065.009-.1a.894.894,0,0,0-.022-.261c0-.23,0-.457,0-.671a1.167,1.167,0,0,0-2.332,0c0,.307.01.618.027.93v0a3.077,3.077,0,0,1-.857,2.394m2.5,1.689a4.521,4.521,0,0,0,.52.381,3.675,3.675,0,0,0-.578.593,4.8,4.8,0,0,0-.382.6,3.66,3.66,0,0,0-.392-.543,3.78,3.78,0,0,0-.688-.593,3.964,3.964,0,0,0,.5-.33,3.708,3.708,0,0,0,.57-.566,3.951,3.951,0,0,0,.453.461" transform="translate(-53.333 5760.351)" fill="#323232"/>
      <path id="パス_25712" data-name="パス 25712" d="M86.614,85.227h-7.6c-.024,0-.048.006-.072.007s-.051.006-.077.008-.069.008-.1.017-.04,0-.059.009-.031.019-.05.025a1.208,1.208,0,0,0-.311.158,1,1,0,0,0-.1.081,1.09,1.09,0,0,0-.394.86,1.268,1.268,0,0,0,.041.26c0,.017,0,.033,0,.05a5.544,5.544,0,0,0,3.684,4.528,4.711,4.711,0,0,0,4.891-1.4,5.855,5.855,0,0,0,1.314-3.439,1.177,1.177,0,0,0-1.166-1.166M84.807,88.2l-.013.013c-.054.059-.105.12-.161.177s-.13.124-.2.186c-.015.013-.03.026-.046.039-.12.079-.236.16-.363.228-.023.013-.165.068-.211.1l-.039.015a3.619,3.619,0,0,1-.431.117l-.024,0c.012,0,.021,0,.02,0a.325.325,0,0,1-.125.017c-.069.015-.053.009-.012,0l-.116,0c-.15.006-.3,0-.447-.01h-.013c-.082-.02-.166-.032-.248-.052-.146-.036-.283-.09-.426-.135l-.034-.019c-.079-.042-.159-.082-.236-.127s-.135-.083-.2-.127c-.037-.025-.073-.056-.112-.079-.111-.066.114.077.1.077-.1,0-.348-.314-.415-.386s-.123-.153-.192-.221c.223.223-.007-.015-.062-.1-.076-.116-.137-.239-.2-.361h4.571c-.008.02-.012.031-.016.042l-.051.1c-.089.172-.2.329-.3.492" transform="translate(-22.508 5746.837)" fill="#323232"/>
      <path id="パス_25713" data-name="パス 25713" d="M88.2,92.673h0c.034-.007.067-.012.1-.019a.83.83,0,0,0-.118.02H88.2" transform="translate(-27.49 5743.259)" fill="#323232"/>
    </g>
  </g>
</svg>
