<svg xmlns="http://www.w3.org/2000/svg" width="14.709" height="12.993" viewBox="0 0 14.709 12.993">
  <g id="check-mark" transform="translate(-0.001 -20.566)">
    <path id="パス_25291" data-name="パス 25291" d="M14.067,20.666c-.664-.357-1.4.332-1.838.74-1,.97-1.838,2.093-2.783,3.115C8.4,25.644,7.43,26.767,6.358,27.865a9.211,9.211,0,0,0-1.685,2.042,33.51,33.51,0,0,0-2.732-2.655c-.74-.562-1.966-.97-1.94.383.051,1.762,1.608,3.651,2.757,4.851a2.916,2.916,0,0,0,1.864,1.072c.894.051,1.813-1.021,2.349-1.608.945-1.021,1.71-2.17,2.578-3.217,1.123-1.379,2.272-2.732,3.37-4.136C13.608,23.729,15.778,21.585,14.067,20.666ZM1.124,27.533a.193.193,0,0,0-.1.025,1.242,1.242,0,0,1-.281-.1h0Q.856,27.38,1.124,27.533Z" fill="#4c79c9"/>
  </g>
</svg>
